<svg width="242" height="66" viewBox="0 0 242 66" fill="none" xmlns="http://www.w3.org/2000/svg">
<path d="M6.07938 22.7H12.1994L16.7294 47H11.7794L10.9694 41.87H7.39938L6.55938 47H1.48938L6.07938 22.7ZM10.4594 38.66L9.16938 29.18L7.87938 38.66H10.4594ZM19.1828 22.7H25.3328C27.4328 22.7 29.0728 22.96 30.2528 23.48C31.4328 24 32.2628 24.82 32.7428 25.94C33.2428 27.04 33.4928 28.52 33.4928 30.38V39.2C33.4928 41.08 33.2428 42.58 32.7428 43.7C32.2628 44.82 31.4328 45.65 30.2528 46.19C29.0928 46.73 27.4728 47 25.3928 47H19.1828V22.7ZM25.3928 43.28C26.1728 43.28 26.7428 43.17 27.1028 42.95C27.4828 42.71 27.7228 42.38 27.8228 41.96C27.9228 41.52 27.9728 40.88 27.9728 40.04V29.45C27.9728 28.67 27.9128 28.08 27.7928 27.68C27.6928 27.26 27.4528 26.95 27.0728 26.75C26.7128 26.55 26.1428 26.45 25.3628 26.45H24.5528V43.28H25.3928ZM36.7609 22.7H42.9109C45.0109 22.7 46.6509 22.96 47.8309 23.48C49.0109 24 49.8409 24.82 50.3209 25.94C50.8209 27.04 51.0709 28.52 51.0709 30.38V39.2C51.0709 41.08 50.8209 42.58 50.3209 43.7C49.8409 44.82 49.0109 45.65 47.8309 46.19C46.6709 46.73 45.0509 47 42.9709 47H36.7609V22.7ZM42.9709 43.28C43.7509 43.28 44.3209 43.17 44.6809 42.95C45.0609 42.71 45.3009 42.38 45.4009 41.96C45.5009 41.52 45.5509 40.88 45.5509 40.04V29.45C45.5509 28.67 45.4909 28.08 45.3709 27.68C45.2709 27.26 45.0309 26.95 44.6509 26.75C44.2909 26.55 43.7209 26.45 42.9409 26.45H42.1309V43.28H42.9709ZM62.0148 22.7H72.9348V26.36H67.3848V32.39H71.6148V36.11H67.3848V43.37H72.9948V47H62.0148V22.7ZM78.5528 33.92L74.0528 22.7H79.1228L81.7928 29.27L83.9528 22.7H88.4228L84.1628 35.33L88.9028 47H83.8628L80.8928 39.74L78.2828 47H73.8428L78.5528 33.92ZM90.8723 22.7H101.792V26.36H96.2423V32.39H100.472V36.11H96.2423V43.37H101.852V47H90.8723V22.7ZM104.29 22.7H110.98C113.64 22.7 115.65 23.17 117.01 24.11C118.37 25.05 119.05 26.72 119.05 29.12C119.05 30.74 118.84 32.03 118.42 32.99C118 33.95 117.22 34.7 116.08 35.24L119.41 47H113.86L111.19 36.11H109.66V47H104.29V22.7ZM111.16 33.02C112.24 33.02 112.99 32.74 113.41 32.18C113.85 31.6 114.07 30.74 114.07 29.6C114.07 28.5 113.87 27.68 113.47 27.14C113.07 26.58 112.38 26.3 111.4 26.3H109.66V33.02H111.16ZM129.004 47.36C126.364 47.36 124.484 46.67 123.364 45.29C122.264 43.89 121.714 41.88 121.714 39.26V30.5C121.714 27.82 122.264 25.8 123.364 24.44C124.464 23.06 126.344 22.37 129.004 22.37C131.544 22.37 133.344 22.98 134.404 24.2C135.464 25.42 135.994 27.15 135.994 29.39V31.49H130.744V29.06C130.744 28.12 130.644 27.4 130.444 26.9C130.244 26.4 129.764 26.15 129.004 26.15C128.244 26.15 127.744 26.42 127.504 26.96C127.264 27.48 127.144 28.21 127.144 29.15V40.58C127.144 41.54 127.264 42.28 127.504 42.8C127.764 43.3 128.264 43.55 129.004 43.55C129.744 43.55 130.214 43.3 130.414 42.8C130.634 42.28 130.744 41.54 130.744 40.58V38.03H135.994V40.13C135.994 42.41 135.464 44.19 134.404 45.47C133.344 46.73 131.544 47.36 129.004 47.36ZM138.978 22.7H144.348V47H138.978V22.7ZM154.422 47.36C152.102 47.36 150.372 46.75 149.232 45.53C148.112 44.29 147.512 42.33 147.432 39.65L152.022 38.96C152.042 40.5 152.222 41.61 152.562 42.29C152.922 42.95 153.452 43.28 154.152 43.28C155.052 43.28 155.502 42.69 155.502 41.51C155.502 40.57 155.282 39.76 154.842 39.08C154.422 38.4 153.752 37.67 152.832 36.89L150.732 35.06C149.692 34.18 148.882 33.25 148.302 32.27C147.742 31.27 147.462 30.09 147.462 28.73C147.462 26.69 148.062 25.12 149.262 24.02C150.482 22.92 152.152 22.37 154.272 22.37C156.572 22.37 158.132 23.04 158.952 24.38C159.792 25.72 160.242 27.35 160.302 29.27L155.682 29.84C155.642 28.58 155.522 27.68 155.322 27.14C155.142 26.58 154.732 26.3 154.092 26.3C153.632 26.3 153.272 26.5 153.012 26.9C152.772 27.28 152.652 27.71 152.652 28.19C152.652 29.01 152.832 29.7 153.192 30.26C153.572 30.82 154.172 31.46 154.992 32.18L157.002 33.95C158.202 34.97 159.132 36.05 159.792 37.19C160.452 38.33 160.782 39.68 160.782 41.24C160.782 42.38 160.512 43.42 159.972 44.36C159.452 45.28 158.712 46.01 157.752 46.55C156.792 47.09 155.682 47.36 154.422 47.36ZM163.382 22.7H174.302V26.36H168.752V32.39H172.982V36.11H168.752V43.37H174.362V47H163.382V22.7Z" fill="white"/>
<g filter="url(#filter0_d)">
<rect x="186" y="32.6533" width="32.0366" height="32.0366" rx="10" transform="rotate(-45 186 32.6533)" fill="#FFEC42"/>
</g>
<path d="M201.299 31.5621H207.096V25.9296H209.858V31.5621H215.696V33.9937H209.858V39.6537H207.096V33.9937H201.299V31.5621Z" fill="black"/>
<defs>
<filter id="filter0_d" x="176" y="0" width="65.3067" height="65.3067" filterUnits="userSpaceOnUse" color-interpolation-filters="sRGB">
<feFlood flood-opacity="0" result="BackgroundImageFix"/>
<feColorMatrix in="SourceAlpha" type="matrix" values="0 0 0 0 0 0 0 0 0 0 0 0 0 0 0 0 0 0 127 0"/>
<feOffset/>
<feGaussianBlur stdDeviation="5"/>
<feColorMatrix type="matrix" values="0 0 0 0 1 0 0 0 0 0.925833 0 0 0 0 0.258333 0 0 0 0.4 0"/>
<feBlend mode="normal" in2="BackgroundImageFix" result="effect1_dropShadow"/>
<feBlend mode="normal" in="SourceGraphic" in2="effect1_dropShadow" result="shape"/>
</filter>
</defs>
</svg>
