<svg width="72" height="32" viewBox="0 0 72 32" fill="none" xmlns="http://www.w3.org/2000/svg">
<path d="M20 24L12 16L20 8" stroke="white" stroke-width="2" stroke-linecap="round" stroke-linejoin="round"/>
<path d="M37.1562 21.6667V10.2917H41.0547C42.3411 10.2917 43.3203 10.5496 43.9922 11.0652C44.6641 11.5808 45 12.349 45 13.3699C45 13.8907 44.8594 14.3595 44.5781 14.7761C44.2969 15.1928 43.8854 15.5157 43.3438 15.7449C43.9583 15.9115 44.4323 16.2266 44.7656 16.6902C45.1042 17.1485 45.2734 17.7006 45.2734 18.3464C45.2734 19.4141 44.9297 20.2345 44.2422 20.8074C43.5599 21.3803 42.5807 21.6667 41.3047 21.6667H37.1562ZM39.1328 16.5339V20.0886H41.3281C41.9479 20.0886 42.4323 19.935 42.7812 19.6277C43.1302 19.3204 43.3047 18.8933 43.3047 18.3464C43.3047 17.1641 42.7005 16.56 41.4922 16.5339H39.1328ZM39.1328 15.0808H41.0703C41.6849 15.0808 42.1641 14.9428 42.5078 14.6667C42.8568 14.3855 43.0312 13.9897 43.0312 13.4792C43.0312 12.9167 42.8698 12.5105 42.5469 12.2605C42.2292 12.0105 41.7318 11.8855 41.0547 11.8855H39.1328V15.0808ZM52.1172 21.6667C52.0339 21.5053 51.9609 21.2423 51.8984 20.8777C51.2943 21.5079 50.5547 21.823 49.6797 21.823C48.8307 21.823 48.138 21.5808 47.6016 21.0964C47.0651 20.6121 46.7969 20.0131 46.7969 19.2996C46.7969 18.3985 47.1302 17.7084 47.7969 17.2292C48.4688 16.7449 49.4271 16.5027 50.6719 16.5027H51.8359V15.948C51.8359 15.5105 51.7135 15.1615 51.4688 14.9011C51.224 14.6355 50.8516 14.5027 50.3516 14.5027C49.9193 14.5027 49.5651 14.6121 49.2891 14.8308C49.013 15.0444 48.875 15.3178 48.875 15.6511H46.9766C46.9766 15.1876 47.1302 14.7553 47.4375 14.3542C47.7448 13.948 48.1615 13.6303 48.6875 13.4011C49.2188 13.172 49.8099 13.0574 50.4609 13.0574C51.4505 13.0574 52.2396 13.3074 52.8281 13.8074C53.4167 14.3022 53.7188 15.0001 53.7344 15.9011V19.7136C53.7344 20.474 53.8411 21.0808 54.0547 21.5339V21.6667H52.1172ZM50.0312 20.2996C50.4062 20.2996 50.7578 20.2084 51.0859 20.0261C51.4193 19.8438 51.6693 19.599 51.8359 19.2917V17.698H50.8125C50.1094 17.698 49.5807 17.8204 49.2266 18.0652C48.8724 18.31 48.6953 18.6563 48.6953 19.1042C48.6953 19.4688 48.8151 19.7605 49.0547 19.9792C49.2995 20.1928 49.625 20.2996 50.0312 20.2996ZM59.1953 20.3074C59.6693 20.3074 60.0625 20.1694 60.375 19.8933C60.6875 19.6173 60.8542 19.2761 60.875 18.8699H62.6641C62.6432 19.3959 62.4792 19.8881 62.1719 20.3464C61.8646 20.7996 61.4479 21.1589 60.9219 21.4246C60.3958 21.6902 59.8281 21.823 59.2188 21.823C58.0365 21.823 57.099 21.4402 56.4062 20.6746C55.7135 19.9089 55.3672 18.8516 55.3672 17.5027V17.3074C55.3672 16.0209 55.7109 14.9923 56.3984 14.2214C57.0859 13.4454 58.0234 13.0574 59.2109 13.0574C60.2161 13.0574 61.0339 13.3516 61.6641 13.9402C62.2995 14.5235 62.6328 15.2917 62.6641 16.2449H60.875C60.8542 15.7605 60.6875 15.3621 60.375 15.0496C60.0677 14.7371 59.6745 14.5808 59.1953 14.5808C58.5807 14.5808 58.1068 14.8048 57.7734 15.2527C57.4401 15.6954 57.2708 16.3699 57.2656 17.2761V17.5808C57.2656 18.4975 57.4297 19.1824 57.7578 19.6355C58.0911 20.0834 58.5703 20.3074 59.1953 20.3074ZM66.8438 18.0417L66 18.9089V21.6667H64.1016V9.66675H66V16.5886L66.5938 15.8464L68.9297 13.2136H71.2109L68.0703 16.7371L71.5469 21.6667H69.3516L66.8438 18.0417Z" fill="white"/>
</svg>
