<svg width="286" height="329" viewBox="0 0 286 329" fill="none" xmlns="http://www.w3.org/2000/svg">
<path fill-rule="evenodd" clip-rule="evenodd" d="M124.626 177.026C123.81 175.08 122.377 168.973 121.967 163.901C120.873 150.382 119.923 130.21 118.935 126.385C117.578 121.125 114.683 115.688 114.683 113.802C114.683 97.2942 110.996 93.1538 110.996 90.4832C110.996 88.7514 111.802 89.6748 111.802 79.6703C111.802 69.6657 100.893 59.199 89.9823 59.199L79.3795 52.5801V43.0377H79.2818C76.6175 46.0137 71.8581 50.5411 67.5482 50.5411C63.2383 50.5411 58.4788 46.0137 55.8146 43.0377H55.7169V52.5801L45.1141 59.199C34.2038 59.199 23.2943 69.6657 23.2943 79.6703C23.2943 89.6748 24.1013 88.7514 24.1013 90.4832C24.1013 93.1538 20.4129 97.2942 20.4129 113.802C20.4129 115.688 17.518 121.125 16.1601 126.385C15.1731 130.21 14.2241 150.382 13.1303 163.901C12.7196 168.973 11.2875 175.08 10.4706 177.026C8.56352 181.572 17.7622 188.537 18.3774 188.784C19.1717 189.106 19.4422 187.508 19.7118 186.885C20.8182 184.319 16.7001 181.27 16.9652 179.489C17.2846 177.349 17.6618 173.59 19.1455 174.19C20.63 174.79 21.1321 178.198 22.6158 178.798C24.0995 179.398 24.7364 178.999 25.1905 177.872C25.4565 177.211 23.7702 173.075 22.2566 169.192C21.1873 166.448 21.3701 164.48 21.3701 164.48C21.3701 164.48 33.1733 137.006 33.6718 131.465C35.2758 128.913 34.5303 127.635 34.7357 125.785C35.5581 118.356 35.568 103.989 36.6627 103.989C37.7003 103.989 37.8152 108.492 37.8152 111.263C37.8152 117.612 42.5403 117.842 42.5403 126.385C42.5403 132.849 40.8115 130.195 40.8115 141.508C40.8115 144.856 35.2025 147.934 35.2025 161.325C35.2025 164.789 31.5151 171.253 31.5151 185.26C31.5151 212.042 38.6222 225.087 38.6222 236.401C38.6222 248.521 36.432 247.483 36.432 261.566C36.432 275.651 45.191 293.659 45.191 303.471C45.191 325.059 38.0459 319.517 38.0459 324.482C38.0459 325.79 39.4282 326.637 39.4282 326.637L51.645 327.945H57.9442L59.8657 325.636C59.8657 325.636 58.1749 322.712 58.1749 321.172C58.1749 319.633 59.0198 316.632 59.0198 314.784C59.0198 312.937 56.6387 306.472 56.6387 300.624C56.6387 294.775 56.485 277.959 56.485 277.959C56.485 277.959 57.0612 272.418 57.0612 266.646C57.0612 260.874 53.4887 257.988 53.4887 255.448C53.4887 252.908 63.745 234.438 63.745 213.89C63.745 202.923 66.3956 184.452 66.3956 171.638H67.5482H68.7007C68.7007 184.452 71.3514 202.923 71.3514 213.89C71.3514 234.438 81.6086 252.908 81.6086 255.448C81.6086 257.988 78.0352 260.874 78.0352 266.646C78.0352 272.418 78.6114 277.959 78.6114 277.959C78.6114 277.959 78.4585 294.775 78.4585 300.624C78.4585 306.472 76.0765 312.937 76.0765 314.784C76.0765 316.632 76.9215 319.633 76.9215 321.172C76.9215 322.712 75.2316 325.636 75.2316 325.636L77.1522 327.945H83.4523L95.6681 326.637C95.6681 326.637 97.0514 325.79 97.0514 324.482C97.0514 319.517 89.9063 325.059 89.9063 303.471C89.9063 293.659 98.6644 275.651 98.6644 261.566C98.6644 247.483 96.4742 248.521 96.4742 236.401C96.4742 225.087 103.581 212.042 103.581 185.26C103.581 171.253 99.8939 164.789 99.8939 161.325C99.8939 147.934 94.2849 144.856 94.2849 141.508C94.2849 130.195 92.5561 132.849 92.5561 126.385C92.5561 117.842 97.2812 117.612 97.2812 111.263C97.2812 108.492 97.397 103.989 98.4337 103.989C99.5284 103.989 99.5383 118.356 100.361 125.785C100.566 127.635 99.8206 128.913 101.425 131.465C101.924 137.006 113.727 164.48 113.727 164.48C113.727 164.48 113.909 166.448 112.841 169.192C111.327 173.075 109.64 177.211 109.906 177.872C110.36 178.999 110.997 179.398 112.481 178.798C113.965 178.198 114.467 174.79 115.951 174.19C117.435 173.59 117.813 177.349 118.131 179.489C118.397 181.27 114.278 184.319 115.385 186.885C115.654 187.508 115.926 189.106 116.72 188.784C117.333 188.537 126.533 181.572 124.626 177.026Z" fill="#202020"/>
<path fill-rule="evenodd" clip-rule="evenodd" d="M23.294 79.6707C23.294 89.6752 24.101 88.7518 24.101 90.4835C29.1717 89.445 32.5135 85.0581 38.6219 74.7835C44.7293 64.5098 49.9158 66.1256 49.9158 63.7015C49.9158 61.8537 46.3433 61.0463 45.1138 59.1994C34.2044 59.1994 23.294 69.6652 23.294 79.6707Z" fill="#202020"/>
<path fill-rule="evenodd" clip-rule="evenodd" d="M62.7079 70.1661C62.0312 68.8267 52.3358 63.7012 49.9158 63.7012C49.9158 66.1253 44.7293 64.5095 38.6219 74.7832C36.3539 78.5993 34.4667 81.6015 32.7307 83.9232H32.7316C35.4845 85.4439 34.5879 86.6736 37.1237 88.8675C39.6586 91.0605 48.0721 94.4081 53.2577 94.4081C58.4442 94.4081 65.6535 91.2916 65.6535 91.2916V83.4411C65.6535 74.8992 63.7591 72.244 62.7079 70.1661Z" fill="#202020"/>
<path fill-rule="evenodd" clip-rule="evenodd" d="M55.2554 108.809V101.029C55.2554 98.3348 56.331 96.3339 58.3285 96.3339C60.3261 96.3339 64.398 94.6411 64.8594 94.6411C65.3199 94.6411 66.2426 94.7951 66.2426 95.7575V106.222C66.2426 107.742 64.4369 107.838 61.94 107.838C60.4799 107.838 57.3678 109.155 56.7155 109.809C56.0623 110.463 55.2554 109.578 55.2554 108.809Z" fill="#202020"/>
<path fill-rule="evenodd" clip-rule="evenodd" d="M66.2422 113.061C66.2422 111.907 65.7048 110.984 64.3216 110.984H60.787C59.4038 110.984 55.4857 113.369 55.4857 115.524V120.537C55.4857 121.537 55.947 122.076 57.1765 122.076H62.5548C63.2459 122.076 66.2422 120.69 66.2422 118.766V113.061Z" fill="#202020"/>
<path fill-rule="evenodd" clip-rule="evenodd" d="M55.1595 132.562V126.837C55.1595 125.856 55.6779 124.47 57.1761 124.47H63.3993C64.3212 124.47 66.1658 125.625 66.1658 126.895V132.562C66.1658 133.427 65.7623 134.928 64.7825 134.928H58.3286C57.291 134.928 55.1595 133.946 55.1595 132.562Z" fill="#202020"/>
<path fill-rule="evenodd" clip-rule="evenodd" d="M64.4752 137.698H58.0982C56.8687 137.698 55.4855 138.698 55.4855 139.853C55.4855 141.007 61.1713 166.405 65.6278 166.405H66.1651C66.3967 160.409 66.1651 140.878 66.1651 139.853C66.1651 138.621 65.9344 137.698 64.4752 137.698Z" fill="#202020"/>
<path fill-rule="evenodd" clip-rule="evenodd" d="M79.841 108.809V101.029C79.841 98.3348 78.7653 96.3339 76.7678 96.3339C74.7703 96.3339 70.6983 94.6411 70.237 94.6411C69.7765 94.6411 68.8546 94.7951 68.8546 95.7575V106.222C68.8546 107.742 70.6603 107.838 73.1572 107.838C74.6165 107.838 77.7286 109.155 78.3817 109.809C79.034 110.463 79.841 109.578 79.841 108.809Z" fill="#202020"/>
<path fill-rule="evenodd" clip-rule="evenodd" d="M68.8546 113.061C68.8546 111.907 69.392 110.984 70.7752 110.984H74.3089C75.6921 110.984 79.6112 113.369 79.6112 115.524V120.537C79.6112 121.537 79.1498 122.076 77.9204 122.076H72.5421C71.8509 122.076 68.8546 120.69 68.8546 118.766V113.061Z" fill="#202020"/>
<path fill-rule="evenodd" clip-rule="evenodd" d="M79.9373 132.562V126.837C79.9373 125.856 79.4189 124.47 77.9208 124.47H71.6975C70.7757 124.47 68.931 125.625 68.931 126.895V132.562C68.931 133.427 69.3345 134.928 70.3143 134.928H76.7682C77.805 134.928 79.9373 133.946 79.9373 132.562Z" fill="#202020"/>
<path fill-rule="evenodd" clip-rule="evenodd" d="M70.6216 137.698H76.9986C78.2281 137.698 79.6113 138.698 79.6113 139.853C79.6113 141.007 73.9255 166.405 69.469 166.405H68.9317C68.7001 160.409 68.9317 140.878 68.9317 139.853C68.9317 138.621 69.1615 137.698 70.6216 137.698Z" fill="#202020"/>
<path fill-rule="evenodd" clip-rule="evenodd" d="M34.7354 81.053C34.493 81.4182 34.256 81.7725 34.0208 82.1151C34.256 81.7725 34.493 81.4191 34.7354 81.053Z" fill="#202020"/>
<g filter="url(#filter0_d)">
<path fill-rule="evenodd" clip-rule="evenodd" d="M32.7314 83.9234C32.887 83.715 33.0462 83.493 33.2045 83.2737C30.059 87.6334 27.458 89.7956 24.1008 90.4835C24.1008 93.154 20.4133 97.2945 20.4133 113.803C20.4133 117.15 28.3907 121.457 32.0529 113.803C34.4285 108.838 35.3214 106.769 35.8769 105.55C36.1592 104.57 36.4269 103.99 36.6631 103.99C37.4691 102.605 37.1235 88.8677 37.1235 88.8677C34.5886 86.6737 35.4843 85.444 32.7314 83.9234Z" fill="#FFEC42"/>
</g>
<path fill-rule="evenodd" clip-rule="evenodd" d="M33.34 83.0884C33.5589 82.783 33.7796 82.4659 34.004 82.1387C33.7796 82.4659 33.5589 82.783 33.34 83.0884Z" fill="#202020"/>
<path fill-rule="evenodd" clip-rule="evenodd" d="M67.5484 1.70975C57.1166 1.70975 51.9012 10.9531 51.9012 15.7759C51.9012 20.5988 53.706 40.4936 53.706 40.4936C53.706 40.4936 61.1288 50.5408 67.5484 50.5408C73.968 50.5408 81.3908 40.4936 81.3908 40.4936C81.3908 40.4936 83.1956 20.5988 83.1956 15.7759C83.1956 10.9531 77.9802 1.70975 67.5484 1.70975Z" fill="#202020"/>
<path fill-rule="evenodd" clip-rule="evenodd" d="M82.684 146.703C82.684 138.16 84.9122 138.853 84.9122 134.312C84.9122 124.846 82.684 116.766 82.684 112.533C82.684 108.3 83.0676 94.4085 83.0676 94.4085L82.8866 94.3668C82.5257 94.394 82.1755 94.4085 81.8381 94.4085C76.6525 94.4085 69.4432 91.2921 69.4432 91.2921H67.5488H65.6535C65.6535 91.2921 58.4442 94.4085 53.2577 94.4085C52.922 94.4085 52.571 94.394 52.2101 94.3668L52.0282 94.4085C52.0282 94.4085 52.4127 108.3 52.4127 112.533C52.4127 116.766 50.1845 124.846 50.1845 134.312C50.1845 138.853 52.4127 138.16 52.4127 146.703C52.4127 149.704 50.1076 151.82 47.1113 151.82C47.1113 158.709 63.2462 171.638 67.5488 171.638C71.8505 171.638 87.9854 158.709 87.9854 151.82C84.9882 151.82 82.684 149.704 82.684 146.703Z" fill="#202020"/>
<path fill-rule="evenodd" clip-rule="evenodd" d="M87.9852 151.821C89.9828 146.626 94.2854 141.508 94.2854 141.508L87.9852 151.821Z" fill="#202020"/>
<path fill-rule="evenodd" clip-rule="evenodd" d="M38.5764 234.819C38.5764 235.749 39.121 236.285 39.5823 236.285C40.0437 236.285 41.1122 231.042 41.1122 227.55C40.9267 227.556 40.8118 227.076 40.8118 225.732C40.8118 220.949 36.3165 212.196 36.3165 195.419C36.3165 178.641 41.4261 160.325 42.5424 153.074L42.3018 149.694C42.1978 147.777 42.082 143.135 42.082 143.135L40.8118 141.41C40.8118 141.443 40.8118 141.474 40.8118 141.509C40.8118 144.856 35.2028 147.934 35.2028 161.325C35.2028 164.789 31.5154 171.253 31.5154 185.26C31.5154 186.082 31.5226 186.89 31.5353 187.686C31.5389 187.904 31.5461 188.114 31.5507 188.33C31.5624 188.901 31.5742 189.472 31.5923 190.031C31.6013 190.3 31.614 190.56 31.6239 190.824C31.6429 191.321 31.661 191.818 31.6855 192.305C31.699 192.585 31.7162 192.858 31.7307 193.134C31.756 193.596 31.7814 194.058 31.8103 194.51C31.8284 194.787 31.8492 195.059 31.8682 195.333C31.8999 195.776 31.9315 196.218 31.9659 196.651C31.9876 196.917 32.012 197.177 32.0347 197.44C32.0718 197.873 32.1098 198.306 32.1505 198.73C32.1749 198.98 32.2011 199.226 32.2256 199.473C32.2699 199.902 32.3142 200.329 32.3613 200.749C32.3875 200.981 32.4137 201.209 32.4409 201.438C32.4906 201.866 32.5422 202.292 32.5956 202.71C32.6218 202.921 32.6498 203.13 32.677 203.339C32.734 203.77 32.7919 204.198 32.8525 204.62C32.8787 204.806 32.905 204.99 32.9321 205.175C32.9963 205.615 33.0615 206.051 33.1293 206.482C33.1537 206.639 33.1782 206.795 33.2035 206.951C33.2759 207.407 33.3501 207.859 33.4251 208.304C33.446 208.426 33.4668 208.546 33.4876 208.667C33.5699 209.149 33.6549 209.625 33.74 210.095C33.7535 210.171 33.768 210.249 33.7825 210.325C33.8784 210.85 33.977 211.367 34.0756 211.876C34.0783 211.891 34.081 211.906 34.0847 211.921C35.96 221.548 38.2299 228.524 38.5727 234.815L38.5764 234.819Z" fill="#202020"/>
<path fill-rule="evenodd" clip-rule="evenodd" d="M67.5483 50.541C66.3026 50.541 65.0198 50.1604 63.7605 49.5497H63.7587C63.7587 53.9656 64.629 66.7413 67.5483 66.7413C70.4677 66.7413 71.338 53.9656 71.338 49.5497H71.3362C70.0769 50.1604 68.7941 50.541 67.5483 50.541Z" fill="#202020"/>
<path fill-rule="evenodd" clip-rule="evenodd" d="M42.5427 153.075C41.4263 160.325 36.3167 178.642 36.3167 195.419C36.3167 212.196 40.812 220.949 40.812 225.731C40.812 230.513 42.2713 224.356 43.1171 224.356C43.9612 224.356 47.047 230.224 47.047 233.861C47.047 234.031 47.0624 234.127 47.0923 234.157C47.0814 233.974 47.0923 233.763 47.0859 233.572C47.0697 233.082 47.0525 232.592 47.0697 232.061C47.0751 231.874 47.0932 231.673 47.1013 231.483C47.1303 230.886 47.1619 230.287 47.2207 229.658C47.2316 229.541 47.2479 229.42 47.2596 229.302C47.6459 225.424 48.4818 221.121 48.9731 217.736C48.9885 217.639 49.0066 217.529 49.0201 217.434C49.1215 216.715 49.2056 216.042 49.2626 215.428C49.7231 210.506 52.6415 200.354 54.0573 194.347C54.0573 194.347 54.0601 194.295 54.0646 194.216C54.0709 194.114 54.0827 193.895 54.0999 193.592C54.1026 193.546 54.1053 193.478 54.108 193.428C54.1225 193.15 54.1388 192.832 54.1587 192.43C54.1587 192.42 54.1587 192.407 54.1596 192.398C54.1813 191.948 54.2039 191.434 54.2283 190.85C54.2283 190.827 54.2292 190.799 54.2301 190.776C54.3016 189.011 54.3749 186.707 54.4075 184.111C54.4111 183.909 54.4102 183.692 54.412 183.487C54.4192 182.802 54.4256 182.116 54.4256 181.402C54.4265 180.473 54.4065 178.503 54.4065 178.471C54.4065 174.103 49.3938 160.073 47.4433 153.976C47.0561 152.765 47.2388 152.313 47.1113 151.821C46.345 148.855 42.0813 143.136 42.0813 143.136L42.5427 153.075Z" fill="#202020"/>
<path fill-rule="evenodd" clip-rule="evenodd" d="M54.4064 178.473C54.4064 178.504 54.4064 178.534 54.4064 178.565C54.4209 179.525 54.4263 180.473 54.4254 181.401C54.4254 182.116 54.4191 182.802 54.4118 183.487C54.41 183.691 54.4109 183.909 54.4073 184.11C54.3748 186.707 54.3015 189.011 54.2309 190.776C54.2291 190.799 54.2282 190.827 54.2282 190.85C54.2038 191.433 54.1812 191.948 54.1603 192.397C54.1594 192.407 54.1594 192.42 54.1585 192.43C54.1395 192.831 54.1224 193.15 54.1079 193.428C54.1052 193.478 54.1034 193.546 54.0997 193.593C54.0835 193.895 54.0708 194.114 54.0645 194.216C54.0599 194.295 54.0572 194.348 54.0572 194.348C52.6414 200.354 49.7238 210.505 49.2625 215.429C49.2055 216.042 49.1213 216.715 49.02 217.434C49.02 217.436 49.0191 217.438 49.0191 217.44C48.8861 218.38 48.7196 219.414 48.5441 220.48C48.3958 221.382 48.2411 222.319 48.0882 223.269C48.0837 223.296 48.0791 223.324 48.0746 223.352C47.9181 224.325 47.7652 225.314 47.6277 226.296C47.6241 226.314 47.6223 226.333 47.6196 226.351C47.4793 227.347 47.3563 228.338 47.2604 229.302C47.2568 229.342 47.2514 229.381 47.2468 229.421C47.2387 229.501 47.2269 229.585 47.2197 229.666C47.1636 230.28 47.1319 230.866 47.1039 231.449C47.0994 231.538 47.093 231.632 47.0885 231.72C47.0813 231.836 47.0731 231.951 47.0695 232.061C47.0532 232.591 47.0695 233.082 47.0867 233.573V233.596C47.0967 233.9 47.0876 234.229 47.112 234.515C47.5725 239.902 51.4138 239.595 51.4138 239.595C53.9686 239.595 58.9714 238.004 60.588 235.078C60.7654 234.441 60.9382 233.791 61.1073 233.135C62.6154 227.283 63.7454 220.703 63.7454 213.89C63.7454 212.696 63.7788 211.408 63.834 210.053C63.834 200.472 59.1053 188.804 54.4064 178.473Z" fill="#202020"/>
<path fill-rule="evenodd" clip-rule="evenodd" d="M96.5205 234.819C96.5205 235.749 95.975 236.285 95.5145 236.285C95.0531 236.285 93.9847 231.042 93.9847 227.55C94.1693 227.556 94.2851 227.076 94.2851 225.732C94.2851 220.949 98.7804 212.196 98.7804 195.419C98.7804 178.641 93.6708 160.325 92.5544 153.074L92.7951 149.694C92.8991 147.777 93.0149 143.135 93.0149 143.135L94.2851 141.41C94.2851 141.443 94.2851 141.474 94.2851 141.509C94.2851 144.856 99.8941 147.934 99.8941 161.325C99.8941 164.789 103.581 171.253 103.581 185.26C103.581 186.082 103.574 186.89 103.562 187.686C103.558 187.904 103.551 188.114 103.546 188.33C103.534 188.901 103.522 189.472 103.504 190.031C103.496 190.3 103.483 190.56 103.473 190.824C103.454 191.321 103.436 191.818 103.411 192.305C103.398 192.585 103.381 192.858 103.365 193.134C103.341 193.596 103.316 194.058 103.287 194.51C103.268 194.787 103.248 195.059 103.228 195.333C103.197 195.776 103.165 196.218 103.13 196.651C103.109 196.917 103.085 197.177 103.062 197.44C103.025 197.873 102.987 198.306 102.946 198.73C102.922 198.98 102.896 199.226 102.871 199.473C102.827 199.902 102.783 200.329 102.736 200.749C102.709 200.981 102.683 201.209 102.656 201.438C102.605 201.866 102.555 202.292 102.501 202.71C102.475 202.921 102.447 203.13 102.42 203.339C102.363 203.77 102.305 204.198 102.244 204.62C102.218 204.806 102.192 204.99 102.165 205.175C102.101 205.615 102.035 206.051 101.968 206.482C101.943 206.639 101.919 206.795 101.893 206.951C101.821 207.407 101.747 207.859 101.671 208.304C101.651 208.426 101.63 208.546 101.609 208.667C101.527 209.149 101.442 209.625 101.357 210.095C101.342 210.171 101.329 210.249 101.314 210.325C101.218 210.85 101.12 211.367 101.021 211.876C101.019 211.891 101.016 211.906 101.012 211.921C99.1368 221.548 96.867 228.524 96.5241 234.815L96.5205 234.819Z" fill="#202020"/>
<path fill-rule="evenodd" clip-rule="evenodd" d="M92.5541 153.075C93.6704 160.325 98.78 178.642 98.78 195.419C98.78 212.196 94.2847 220.949 94.2847 225.731C94.2847 230.513 92.8255 224.356 91.9796 224.356C91.1346 224.356 88.0497 230.224 88.0497 233.861C88.0497 234.031 88.0334 234.127 88.0045 234.157C88.0153 233.974 88.0045 233.763 88.0108 233.572C88.0271 233.082 88.0443 232.592 88.0271 232.061C88.0217 231.874 88.0036 231.673 87.9945 231.483C87.9665 230.886 87.9339 230.287 87.876 229.658C87.8642 229.541 87.8489 229.42 87.8362 229.302C87.4508 225.424 86.6149 221.121 86.1237 217.736C86.1083 217.639 86.0902 217.529 86.0766 217.434C85.9753 216.715 85.8911 216.042 85.8342 215.428C85.3728 210.506 82.4552 200.354 81.0394 194.347C81.0394 194.347 81.0367 194.295 81.0322 194.216C81.0258 194.114 81.0141 193.895 80.9969 193.592C80.9942 193.546 80.9905 193.478 80.9887 193.428C80.9743 193.15 80.9571 192.832 80.9381 192.43C80.9372 192.42 80.9372 192.407 80.9372 192.398C80.9155 191.948 80.8928 191.434 80.8684 190.85C80.8684 190.827 80.8675 190.799 80.8657 190.776C80.7951 189.011 80.7218 186.707 80.6893 184.111C80.6857 183.909 80.6866 183.692 80.6839 183.487C80.6775 182.802 80.6703 182.116 80.6703 181.402C80.6703 180.473 80.6902 178.503 80.6902 178.471C80.6902 174.103 85.703 160.073 87.6534 153.976C88.0406 152.765 87.8579 152.313 87.9855 151.821C88.7517 148.855 93.0155 143.136 93.0155 143.136L92.5541 153.075Z" fill="#202020"/>
<path fill-rule="evenodd" clip-rule="evenodd" d="M80.6905 178.473C80.6905 178.504 80.6896 178.534 80.6896 178.565C80.676 179.525 80.6706 180.473 80.6706 181.401C80.6706 182.116 80.6778 182.802 80.6841 183.487C80.6869 183.691 80.686 183.909 80.6896 184.11C80.7221 186.707 80.7954 189.011 80.866 190.776C80.8678 190.799 80.8678 190.827 80.8687 190.85C80.8931 191.433 80.9157 191.948 80.9365 192.397C80.9374 192.407 80.9374 192.42 80.9384 192.43C80.9573 192.831 80.9736 193.15 80.989 193.428C80.9908 193.478 80.9935 193.546 80.9972 193.593C81.0134 193.895 81.0261 194.114 81.0315 194.216C81.037 194.295 81.0397 194.348 81.0397 194.348C82.4555 200.354 85.3731 210.505 85.8344 215.429C85.8914 216.042 85.9756 216.715 86.0769 217.434C86.0769 217.436 86.0778 217.438 86.0778 217.44C86.2108 218.38 86.3773 219.414 86.5528 220.48C86.7002 221.382 86.8558 222.319 87.0087 223.269C87.0132 223.296 87.0178 223.324 87.0223 223.352C87.1788 224.325 87.3317 225.314 87.4692 226.296C87.4719 226.314 87.4746 226.333 87.4773 226.351C87.6167 227.347 87.7406 228.338 87.8365 229.302C87.8401 229.342 87.8446 229.381 87.8501 229.421C87.8582 229.501 87.87 229.585 87.8772 229.666C87.9333 230.28 87.9649 230.866 87.993 231.449C87.9975 231.538 88.0038 231.632 88.0084 231.72C88.0156 231.836 88.0238 231.951 88.0274 232.061C88.0437 232.591 88.0274 233.082 88.0102 233.573V233.596C88.0002 233.9 88.0093 234.229 87.9848 234.515C87.5244 239.902 83.6822 239.595 83.6822 239.595C81.1283 239.595 76.1246 238.004 74.5088 235.078C74.3315 234.441 74.1587 233.791 73.9887 233.135C72.4815 227.283 71.3515 220.703 71.3515 213.89C71.3515 212.696 71.3181 211.408 71.2629 210.053C71.2629 200.472 75.9916 188.804 80.6905 178.473Z" fill="#202020"/>
<path fill-rule="evenodd" clip-rule="evenodd" d="M56.8252 303.583C56.828 303.591 56.8316 303.597 56.8343 303.603C56.7221 302.608 56.638 301.609 56.638 300.624C56.638 294.775 56.4851 277.959 56.4851 277.959C56.4851 277.959 57.0614 272.418 57.0614 266.645C57.0614 260.874 53.4888 257.987 53.4888 255.448C51.5419 260.831 46.8829 281.42 56.8252 303.583Z" fill="#202020"/>
<path fill-rule="evenodd" clip-rule="evenodd" d="M36.4322 261.566C36.4322 273.724 42.9485 288.795 44.7335 299.005C44.7335 299 44.7344 298.996 44.7353 298.99C47.3986 271.063 40.4182 263.179 36.6737 254.59C36.5272 256.45 36.4322 258.68 36.4322 261.566Z" fill="#202020"/>
<path fill-rule="evenodd" clip-rule="evenodd" d="M78.2715 303.583C78.2688 303.591 78.2652 303.597 78.2616 303.603C78.3747 302.608 78.4588 301.609 78.4588 300.624C78.4588 294.775 78.6117 277.959 78.6117 277.959C78.6117 277.959 78.0354 272.418 78.0354 266.645C78.0354 260.874 81.608 257.987 81.608 255.448C83.5539 260.831 88.2139 281.42 78.2715 303.583Z" fill="#202020"/>
<path fill-rule="evenodd" clip-rule="evenodd" d="M98.6641 261.566C98.6641 273.724 92.1487 288.795 90.3637 299.005C90.3628 299 90.3619 298.996 90.361 298.99C87.6977 271.063 94.679 263.179 98.4235 254.59C98.57 256.45 98.6641 258.68 98.6641 261.566Z" fill="#202020"/>
<path fill-rule="evenodd" clip-rule="evenodd" d="M20.4131 113.803C20.4131 112.977 20.4294 112.206 20.4466 111.441C20.4267 112.198 20.4131 112.977 20.4131 113.803Z" fill="#202020"/>
<path fill-rule="evenodd" clip-rule="evenodd" d="M24.345 131.465C25.1257 126.717 25.9065 125.003 24.345 122.076C22.7835 119.149 21.7423 123.178 17.5446 122.076C17.0289 123.476 16.5359 124.934 16.1604 126.386C15.3064 129.694 15.5796 145.413 14.9617 158.347H14.9626C14.9626 158.347 18.3588 151.594 18.6193 144.816C18.879 138.038 23.5643 136.212 24.345 131.465Z" fill="#202020"/>
<path fill-rule="evenodd" clip-rule="evenodd" d="M25.2466 139.668C23.0437 146.38 21.3701 164.48 21.3701 164.48C21.3701 164.48 33.1733 137.006 33.6718 131.465C33.6718 131.465 27.4495 132.955 25.2466 139.668Z" fill="#202020"/>
<path fill-rule="evenodd" clip-rule="evenodd" d="M111.802 79.6707C111.802 89.6752 110.995 88.7518 110.995 90.4835C105.925 89.445 102.583 85.0581 96.4754 74.7835C90.367 64.5098 85.1805 66.1256 85.1805 63.7015C85.1805 61.8537 88.7531 61.0463 89.9825 59.1994C100.892 59.1994 111.802 69.6652 111.802 79.6707Z" fill="#202020"/>
<path fill-rule="evenodd" clip-rule="evenodd" d="M72.3885 70.1661C73.0661 68.8267 82.7606 63.7012 85.1806 63.7012C85.1806 66.1253 90.367 64.5095 96.4754 74.7832C98.7434 78.5993 100.63 81.6015 102.366 83.9232C99.6128 85.4439 100.508 86.6736 97.9726 88.8675C95.4377 91.0605 87.0252 94.4081 81.8387 94.4081C76.6522 94.4081 69.4429 91.2916 69.4429 91.2916V83.4411C69.4429 74.8992 71.3382 72.244 72.3885 70.1661Z" fill="#202020"/>
<path fill-rule="evenodd" clip-rule="evenodd" d="M100.361 81.053C100.603 81.4182 100.841 81.7725 101.076 82.1151C100.841 81.7725 100.603 81.4191 100.361 81.053Z" fill="#202020"/>
<g filter="url(#filter1_d)">
<path fill-rule="evenodd" clip-rule="evenodd" d="M102.366 83.9234C102.21 83.715 102.051 83.493 101.892 83.2737C105.038 87.6334 107.639 89.7956 110.996 90.4835C110.996 93.154 114.684 97.2945 114.684 113.803C114.684 117.15 106.706 121.457 103.044 113.803C100.668 108.838 99.7746 106.769 99.2201 105.55C98.9369 104.57 98.67 103.99 98.4339 103.99C97.6278 102.605 97.9734 88.8677 97.9734 88.8677C100.508 86.6737 99.6127 85.444 102.366 83.9234Z" fill="#FFEC42"/>
</g>
<path fill-rule="evenodd" clip-rule="evenodd" d="M101.757 83.0884C101.538 82.783 101.316 82.4659 101.092 82.1387C101.317 82.4659 101.538 82.783 101.757 83.0884Z" fill="#202020"/>
<path fill-rule="evenodd" clip-rule="evenodd" d="M110.752 131.465C109.971 126.717 109.19 125.003 110.752 122.076C112.313 119.149 113.355 123.178 117.552 122.076C118.068 123.476 118.561 124.934 118.936 126.386C119.79 129.694 119.517 145.413 120.135 158.347H120.134C120.134 158.347 116.738 151.594 116.478 144.816C116.217 138.038 111.533 136.212 110.752 131.465Z" fill="#202020"/>
<path fill-rule="evenodd" clip-rule="evenodd" d="M109.85 139.668C112.053 146.38 113.727 164.48 113.727 164.48C113.727 164.48 101.924 137.006 101.425 131.465C101.425 131.465 107.647 132.955 109.85 139.668Z" fill="#202020"/>
<path fill-rule="evenodd" clip-rule="evenodd" d="M52.3435 24.2406C52.3435 22.923 50.459 22.5515 49.2323 22.5515C48.0037 22.5515 47.5315 24.4436 48.476 28.8904C49.4205 33.3381 53.183 34.6312 53.183 34.6312L52.3435 24.2406Z" fill="#202020"/>
<path fill-rule="evenodd" clip-rule="evenodd" d="M82.7533 24.2406C82.7533 22.923 84.6368 22.5515 85.8645 22.5515C87.093 22.5515 87.5653 24.4436 86.6208 28.8904C85.6754 33.3381 81.9138 34.6312 81.9138 34.6312L82.7533 24.2406Z" fill="#202020"/>
<path fill-rule="evenodd" clip-rule="evenodd" d="M23.294 79.6707C23.294 89.6752 24.101 88.7518 24.101 90.4835C29.1717 89.445 32.5135 85.0581 38.6219 74.7835C44.7293 64.5098 49.9158 66.1256 49.9158 63.7015C49.9158 61.8537 46.3433 61.0463 45.1138 59.1994C34.2044 59.1994 23.294 69.6652 23.294 79.6707Z" stroke="#2E2E2E" stroke-width="1.742" stroke-linejoin="round"/>
<path fill-rule="evenodd" clip-rule="evenodd" d="M62.7079 70.1661C62.0312 68.8267 52.3358 63.7012 49.9158 63.7012C49.9158 66.1253 44.7293 64.5095 38.6219 74.7832C36.3539 78.5993 34.4667 81.6015 32.7307 83.9232H32.7316C35.4845 85.4439 34.5879 86.6736 37.1237 88.8675C39.6586 91.0605 48.0721 94.4081 53.2577 94.4081C58.4442 94.4081 65.6535 91.2916 65.6535 91.2916V83.4411C65.6535 74.8992 63.7591 72.244 62.7079 70.1661Z" stroke="#2E2E2E" stroke-width="1.742" stroke-linejoin="round"/>
<path fill-rule="evenodd" clip-rule="evenodd" d="M55.2554 108.809V101.029C55.2554 98.3348 56.331 96.3339 58.3285 96.3339C60.3261 96.3339 64.398 94.6411 64.8594 94.6411C65.3199 94.6411 66.2426 94.7951 66.2426 95.7575V106.222C66.2426 107.742 64.4369 107.838 61.94 107.838C60.4799 107.838 57.3678 109.155 56.7155 109.809C56.0623 110.463 55.2554 109.578 55.2554 108.809Z" stroke="#2E2E2E" stroke-width="1.742" stroke-linejoin="round"/>
<path fill-rule="evenodd" clip-rule="evenodd" d="M66.2422 113.061C66.2422 111.907 65.7048 110.984 64.3216 110.984H60.787C59.4038 110.984 55.4857 113.369 55.4857 115.524V120.537C55.4857 121.537 55.947 122.076 57.1765 122.076H62.5548C63.2459 122.076 66.2422 120.69 66.2422 118.766V113.061Z" stroke="#2E2E2E" stroke-width="1.742" stroke-linejoin="round"/>
<path fill-rule="evenodd" clip-rule="evenodd" d="M55.1595 132.562V126.837C55.1595 125.856 55.6779 124.47 57.1761 124.47H63.3993C64.3212 124.47 66.1658 125.625 66.1658 126.895V132.562C66.1658 133.427 65.7623 134.928 64.7825 134.928H58.3286C57.291 134.928 55.1595 133.946 55.1595 132.562Z" stroke="#2E2E2E" stroke-width="1.742" stroke-linejoin="round"/>
<path fill-rule="evenodd" clip-rule="evenodd" d="M64.4752 137.698H58.0982C56.8687 137.698 55.4855 138.698 55.4855 139.853C55.4855 141.007 61.1713 166.405 65.6278 166.405H66.1651C66.3967 160.409 66.1651 140.878 66.1651 139.853C66.1651 138.621 65.9344 137.698 64.4752 137.698Z" stroke="#2E2E2E" stroke-width="1.742" stroke-linejoin="round"/>
<path fill-rule="evenodd" clip-rule="evenodd" d="M79.841 108.809V101.029C79.841 98.3348 78.7653 96.3339 76.7678 96.3339C74.7703 96.3339 70.6983 94.6411 70.237 94.6411C69.7765 94.6411 68.8546 94.7951 68.8546 95.7575V106.222C68.8546 107.742 70.6603 107.838 73.1572 107.838C74.6165 107.838 77.7286 109.155 78.3817 109.809C79.034 110.463 79.841 109.578 79.841 108.809Z" stroke="#2E2E2E" stroke-width="1.742" stroke-linejoin="round"/>
<path fill-rule="evenodd" clip-rule="evenodd" d="M68.8546 113.061C68.8546 111.907 69.392 110.984 70.7752 110.984H74.3089C75.6921 110.984 79.6112 113.369 79.6112 115.524V120.537C79.6112 121.537 79.1498 122.076 77.9203 122.076H72.5421C71.8509 122.076 68.8546 120.69 68.8546 118.766V113.061Z" stroke="#2E2E2E" stroke-width="1.742" stroke-linejoin="round"/>
<path fill-rule="evenodd" clip-rule="evenodd" d="M79.9373 132.562V126.837C79.9373 125.856 79.4189 124.47 77.9208 124.47H71.6975C70.7757 124.47 68.931 125.625 68.931 126.895V132.562C68.931 133.427 69.3345 134.928 70.3143 134.928H76.7682C77.805 134.928 79.9373 133.946 79.9373 132.562Z" stroke="#2E2E2E" stroke-width="1.742" stroke-linejoin="round"/>
<path fill-rule="evenodd" clip-rule="evenodd" d="M70.6216 137.698H76.9986C78.2281 137.698 79.6113 138.698 79.6113 139.853C79.6113 141.007 73.9255 166.405 69.469 166.405H68.9317C68.7001 160.409 68.9317 140.878 68.9317 139.853C68.9317 138.621 69.1615 137.698 70.6216 137.698Z" stroke="#2E2E2E" stroke-width="1.742" stroke-linejoin="round"/>
<path fill-rule="evenodd" clip-rule="evenodd" d="M34.7354 81.053C34.493 81.4182 34.256 81.7725 34.0208 82.1151C34.256 81.7725 34.493 81.4191 34.7354 81.053Z" stroke="#2E2E2E" stroke-width="1.742" stroke-linejoin="round"/>
<path fill-rule="evenodd" clip-rule="evenodd" d="M32.7314 83.9234C32.887 83.715 33.0462 83.493 33.2045 83.2737C30.059 87.6334 27.458 89.7956 24.1008 90.4835C24.1008 93.154 20.4133 97.2945 20.4133 113.803C20.4133 117.15 28.3907 121.457 32.0529 113.803C34.4285 108.838 35.3214 106.769 35.8769 105.55C36.1592 104.57 36.4269 103.99 36.6631 103.99C37.4691 102.605 37.1235 88.8677 37.1235 88.8677C34.5886 86.6737 35.4843 85.444 32.7314 83.9234Z" stroke="#2E2E2E" stroke-width="1.742" stroke-linejoin="round"/>
<path fill-rule="evenodd" clip-rule="evenodd" d="M33.34 83.0884C33.5589 82.783 33.7796 82.4659 34.004 82.1387C33.7796 82.4659 33.5589 82.783 33.34 83.0884Z" stroke="#2E2E2E" stroke-width="1.742" stroke-linejoin="round"/>
<path fill-rule="evenodd" clip-rule="evenodd" d="M67.5484 1.70975C57.1166 1.70975 51.9012 10.9531 51.9012 15.7759C51.9012 20.5988 53.706 40.4937 53.706 40.4937C53.706 40.4937 61.1288 50.5408 67.5484 50.5408C73.968 50.5408 81.3908 40.4937 81.3908 40.4937C81.3908 40.4937 83.1956 20.5988 83.1956 15.7759C83.1956 10.9531 77.9802 1.70975 67.5484 1.70975Z" stroke="#2E2E2E" stroke-width="1.742" stroke-linejoin="round"/>
<path fill-rule="evenodd" clip-rule="evenodd" d="M82.684 146.703C82.684 138.16 84.9122 138.853 84.9122 134.312C84.9122 124.846 82.684 116.766 82.684 112.533C82.684 108.3 83.0675 94.4085 83.0675 94.4085L82.8866 94.3668C82.5257 94.394 82.1755 94.4085 81.8381 94.4085C76.6525 94.4085 69.4432 91.2921 69.4432 91.2921H67.5488H65.6535C65.6535 91.2921 58.4442 94.4085 53.2577 94.4085C52.922 94.4085 52.571 94.394 52.2101 94.3668L52.0282 94.4085C52.0282 94.4085 52.4127 108.3 52.4127 112.533C52.4127 116.766 50.1845 124.846 50.1845 134.312C50.1845 138.853 52.4127 138.16 52.4127 146.703C52.4127 149.704 50.1076 151.82 47.1113 151.82C47.1113 158.709 63.2462 171.638 67.5488 171.638C71.8505 171.638 87.9854 158.709 87.9854 151.82C84.9882 151.82 82.684 149.704 82.684 146.703Z" stroke="#2E2E2E" stroke-width="1.742" stroke-linejoin="round"/>
<path d="M87.9852 151.821C89.9828 146.626 94.2854 141.508 94.2854 141.508" stroke="#2E2E2E" stroke-width="1.742" stroke-linejoin="round"/>
<path fill-rule="evenodd" clip-rule="evenodd" d="M38.5764 234.819C38.5764 235.749 39.121 236.285 39.5824 236.285C40.0437 236.285 41.1122 231.042 41.1122 227.55C40.9267 227.556 40.8118 227.076 40.8118 225.732C40.8118 220.949 36.3165 212.196 36.3165 195.419C36.3165 178.641 41.4261 160.325 42.5424 153.074L42.3018 149.694C42.1978 147.777 42.082 143.135 42.082 143.135L40.8118 141.41C40.8118 141.443 40.8118 141.474 40.8118 141.509C40.8118 144.856 35.2028 147.934 35.2028 161.325C35.2028 164.789 31.5154 171.253 31.5154 185.26C31.5154 186.082 31.5226 186.89 31.5353 187.686C31.5389 187.904 31.5461 188.114 31.5507 188.33C31.5624 188.901 31.5742 189.472 31.5923 190.031C31.6013 190.3 31.614 190.56 31.6239 190.824C31.6429 191.321 31.661 191.818 31.6855 192.305C31.699 192.585 31.7162 192.858 31.7307 193.134C31.756 193.596 31.7814 194.058 31.8103 194.51C31.8284 194.787 31.8492 195.059 31.8682 195.333C31.8999 195.776 31.9315 196.218 31.9659 196.651C31.9876 196.917 32.012 197.177 32.0347 197.44C32.0718 197.873 32.1098 198.306 32.1505 198.73C32.1749 198.98 32.2011 199.226 32.2256 199.473C32.2699 199.902 32.3142 200.329 32.3613 200.749C32.3875 200.981 32.4137 201.209 32.4409 201.438C32.4906 201.866 32.5422 202.292 32.5956 202.71C32.6218 202.921 32.6498 203.13 32.677 203.339C32.734 203.77 32.7919 204.198 32.8525 204.62C32.8787 204.806 32.905 204.99 32.9321 205.175C32.9963 205.615 33.0615 206.051 33.1293 206.482C33.1537 206.639 33.1782 206.795 33.2035 206.951C33.2759 207.407 33.3501 207.859 33.4251 208.304C33.446 208.426 33.4668 208.546 33.4876 208.667C33.5699 209.149 33.6549 209.625 33.74 210.095C33.7535 210.171 33.768 210.249 33.7825 210.325C33.8784 210.85 33.977 211.367 34.0756 211.876C34.0783 211.891 34.081 211.906 34.0847 211.921C35.96 221.548 38.2299 228.524 38.5727 234.815L38.5764 234.819Z" stroke="#2E2E2E" stroke-width="1.742" stroke-linejoin="round"/>
<path fill-rule="evenodd" clip-rule="evenodd" d="M67.5483 50.541C66.3026 50.541 65.0198 50.1604 63.7605 49.5497H63.7587C63.7587 53.9656 64.629 66.7413 67.5483 66.7413C70.4677 66.7413 71.338 53.9656 71.338 49.5497H71.3362C70.0769 50.1604 68.7941 50.541 67.5483 50.541Z" stroke="#2E2E2E" stroke-width="1.742" stroke-linejoin="round"/>
<path fill-rule="evenodd" clip-rule="evenodd" d="M42.5427 153.075C41.4263 160.325 36.3167 178.642 36.3167 195.419C36.3167 212.196 40.812 220.949 40.812 225.731C40.812 230.513 42.2713 224.356 43.1171 224.356C43.9612 224.356 47.047 230.224 47.047 233.861C47.047 234.031 47.0624 234.127 47.0923 234.157C47.0814 233.974 47.0923 233.763 47.0859 233.572C47.0697 233.082 47.0525 232.592 47.0697 232.061C47.0751 231.874 47.0932 231.673 47.1013 231.483C47.1303 230.886 47.1619 230.287 47.2207 229.658C47.2316 229.541 47.2479 229.42 47.2596 229.302C47.6459 225.424 48.4818 221.121 48.9731 217.736C48.9885 217.639 49.0066 217.529 49.0201 217.434C49.1215 216.715 49.2056 216.042 49.2626 215.428C49.7231 210.506 52.6415 200.354 54.0573 194.347C54.0573 194.347 54.0601 194.295 54.0646 194.216C54.0709 194.114 54.0827 193.895 54.0999 193.592C54.1026 193.546 54.1053 193.478 54.108 193.428C54.1225 193.15 54.1388 192.832 54.1587 192.43C54.1587 192.42 54.1587 192.407 54.1596 192.398C54.1813 191.948 54.2039 191.434 54.2283 190.85C54.2283 190.827 54.2292 190.798 54.2301 190.776C54.3016 189.011 54.3749 186.707 54.4075 184.111C54.4111 183.909 54.4102 183.692 54.412 183.487C54.4192 182.802 54.4256 182.116 54.4256 181.402C54.4265 180.473 54.4065 178.503 54.4065 178.471C54.4065 174.103 49.3938 160.073 47.4433 153.976C47.0561 152.765 47.2388 152.313 47.1113 151.821C46.345 148.855 42.0813 143.136 42.0813 143.136L42.5427 153.075Z" stroke="#2E2E2E" stroke-width="1.742" stroke-linejoin="round"/>
<path fill-rule="evenodd" clip-rule="evenodd" d="M54.4064 178.473C54.4064 178.504 54.4064 178.534 54.4064 178.565C54.4209 179.525 54.4263 180.473 54.4254 181.401C54.4254 182.116 54.4191 182.802 54.4118 183.487C54.41 183.691 54.4109 183.909 54.4073 184.11C54.3748 186.707 54.3015 189.011 54.2309 190.776C54.2291 190.799 54.2282 190.827 54.2282 190.85C54.2038 191.433 54.1812 191.948 54.1603 192.397C54.1594 192.407 54.1594 192.42 54.1585 192.43C54.1395 192.831 54.1224 193.15 54.1079 193.428C54.1052 193.478 54.1034 193.546 54.0997 193.593C54.0835 193.895 54.0708 194.114 54.0645 194.216C54.0599 194.295 54.0572 194.348 54.0572 194.348C52.6414 200.354 49.7238 210.505 49.2625 215.429C49.2055 216.042 49.1213 216.715 49.02 217.434C49.02 217.436 49.0191 217.438 49.0191 217.44C48.8861 218.38 48.7196 219.414 48.5441 220.48C48.3958 221.382 48.2411 222.319 48.0882 223.269C48.0837 223.296 48.0791 223.324 48.0746 223.352C47.9181 224.325 47.7652 225.314 47.6277 226.296C47.6241 226.314 47.6223 226.333 47.6196 226.351C47.4793 227.347 47.3563 228.338 47.2604 229.302C47.2568 229.342 47.2514 229.381 47.2468 229.421C47.2387 229.501 47.2269 229.585 47.2197 229.666C47.1636 230.28 47.1319 230.866 47.1039 231.449C47.0994 231.538 47.093 231.632 47.0885 231.72C47.0813 231.836 47.0731 231.951 47.0695 232.061C47.0532 232.591 47.0695 233.082 47.0867 233.573V233.596C47.0967 233.9 47.0876 234.229 47.112 234.515C47.5725 239.902 51.4138 239.595 51.4138 239.595C53.9686 239.595 58.9714 238.004 60.588 235.078C60.7654 234.441 60.9382 233.791 61.1073 233.135C62.6154 227.283 63.7454 220.703 63.7454 213.89C63.7454 212.696 63.7788 211.408 63.834 210.053C63.834 200.472 59.1053 188.804 54.4064 178.473Z" stroke="#2E2E2E" stroke-width="1.742" stroke-linejoin="round"/>
<path fill-rule="evenodd" clip-rule="evenodd" d="M96.5205 234.819C96.5205 235.749 95.975 236.285 95.5145 236.285C95.0531 236.285 93.9847 231.042 93.9847 227.55C94.1693 227.556 94.2851 227.076 94.2851 225.732C94.2851 220.949 98.7804 212.196 98.7804 195.419C98.7804 178.641 93.6708 160.325 92.5544 153.074L92.7951 149.694C92.8991 147.777 93.0149 143.135 93.0149 143.135L94.2851 141.41C94.2851 141.443 94.2851 141.474 94.2851 141.509C94.2851 144.856 99.8941 147.934 99.8941 161.325C99.8941 164.789 103.581 171.253 103.581 185.26C103.581 186.082 103.574 186.89 103.562 187.686C103.558 187.904 103.551 188.114 103.546 188.33C103.534 188.901 103.522 189.472 103.504 190.031C103.496 190.3 103.483 190.56 103.473 190.824C103.454 191.321 103.436 191.818 103.411 192.305C103.398 192.585 103.381 192.858 103.365 193.134C103.341 193.596 103.316 194.058 103.287 194.51C103.268 194.787 103.248 195.059 103.228 195.333C103.197 195.776 103.165 196.218 103.13 196.651C103.109 196.917 103.085 197.177 103.062 197.44C103.025 197.873 102.987 198.306 102.946 198.73C102.922 198.98 102.896 199.226 102.871 199.473C102.827 199.902 102.783 200.329 102.736 200.749C102.709 200.981 102.683 201.209 102.656 201.438C102.605 201.866 102.555 202.292 102.501 202.71C102.475 202.921 102.447 203.13 102.42 203.339C102.363 203.77 102.305 204.198 102.244 204.62C102.218 204.806 102.192 204.99 102.165 205.175C102.101 205.615 102.035 206.051 101.968 206.482C101.943 206.639 101.919 206.795 101.893 206.951C101.821 207.407 101.747 207.859 101.671 208.304C101.651 208.426 101.63 208.546 101.609 208.667C101.527 209.149 101.442 209.625 101.357 210.095C101.342 210.171 101.329 210.249 101.314 210.325C101.218 210.85 101.12 211.367 101.021 211.876C101.019 211.891 101.016 211.906 101.012 211.921C99.1368 221.548 96.867 228.524 96.5241 234.815L96.5205 234.819Z" stroke="#2E2E2E" stroke-width="1.742" stroke-linejoin="round"/>
<path fill-rule="evenodd" clip-rule="evenodd" d="M92.5541 153.075C93.6704 160.325 98.78 178.642 98.78 195.419C98.78 212.196 94.2847 220.949 94.2847 225.731C94.2847 230.513 92.8255 224.356 91.9796 224.356C91.1346 224.356 88.0497 230.224 88.0497 233.861C88.0497 234.031 88.0334 234.127 88.0045 234.157C88.0153 233.974 88.0045 233.763 88.0108 233.572C88.0271 233.082 88.0443 232.592 88.0271 232.061C88.0217 231.874 88.0036 231.673 87.9945 231.483C87.9665 230.886 87.9339 230.287 87.876 229.658C87.8642 229.541 87.8489 229.42 87.8362 229.302C87.4508 225.424 86.6149 221.121 86.1236 217.736C86.1083 217.639 86.0902 217.529 86.0766 217.434C85.9753 216.715 85.8911 216.042 85.8342 215.428C85.3728 210.506 82.4552 200.354 81.0394 194.347C81.0394 194.347 81.0367 194.295 81.0322 194.216C81.0258 194.114 81.0141 193.895 80.9969 193.592C80.9942 193.546 80.9905 193.478 80.9887 193.428C80.9743 193.15 80.9571 192.832 80.9381 192.43C80.9372 192.42 80.9372 192.407 80.9372 192.398C80.9155 191.948 80.8928 191.434 80.8684 190.85C80.8684 190.827 80.8675 190.798 80.8657 190.776C80.7951 189.011 80.7218 186.707 80.6893 184.111C80.6857 183.909 80.6866 183.692 80.6839 183.487C80.6775 182.802 80.6703 182.116 80.6703 181.402C80.6703 180.473 80.6902 178.503 80.6902 178.471C80.6902 174.103 85.703 160.073 87.6534 153.976C88.0406 152.765 87.8579 152.313 87.9855 151.821C88.7517 148.855 93.0155 143.136 93.0155 143.136L92.5541 153.075Z" stroke="#2E2E2E" stroke-width="1.742" stroke-linejoin="round"/>
<path fill-rule="evenodd" clip-rule="evenodd" d="M80.6905 178.473C80.6905 178.504 80.6896 178.534 80.6896 178.565C80.676 179.525 80.6706 180.473 80.6706 181.401C80.6706 182.116 80.6778 182.802 80.6841 183.487C80.6869 183.691 80.686 183.909 80.6896 184.11C80.7221 186.707 80.7954 189.011 80.866 190.776C80.8678 190.799 80.8678 190.827 80.8687 190.85C80.8931 191.433 80.9157 191.948 80.9365 192.397C80.9374 192.407 80.9374 192.42 80.9384 192.43C80.9573 192.831 80.9736 193.15 80.989 193.428C80.9908 193.478 80.9935 193.546 80.9972 193.593C81.0134 193.895 81.0261 194.114 81.0315 194.216C81.037 194.295 81.0397 194.348 81.0397 194.348C82.4555 200.354 85.3731 210.505 85.8344 215.429C85.8914 216.042 85.9756 216.715 86.0769 217.434C86.0769 217.436 86.0778 217.438 86.0778 217.44C86.2108 218.38 86.3773 219.414 86.5528 220.48C86.7002 221.382 86.8558 222.319 87.0087 223.269C87.0132 223.296 87.0178 223.324 87.0223 223.352C87.1788 224.325 87.3317 225.314 87.4692 226.296C87.4719 226.314 87.4746 226.333 87.4773 226.351C87.6167 227.347 87.7406 228.338 87.8365 229.302C87.8401 229.342 87.8446 229.381 87.8501 229.421C87.8582 229.501 87.87 229.585 87.8772 229.666C87.9333 230.28 87.9649 230.866 87.993 231.449C87.9975 231.538 88.0038 231.632 88.0084 231.72C88.0156 231.836 88.0238 231.951 88.0274 232.061C88.0437 232.591 88.0274 233.082 88.0102 233.573V233.596C88.0002 233.9 88.0093 234.229 87.9848 234.515C87.5244 239.902 83.6822 239.595 83.6822 239.595C81.1283 239.595 76.1246 238.004 74.5088 235.078C74.3315 234.441 74.1587 233.791 73.9887 233.135C72.4815 227.283 71.3515 220.703 71.3515 213.89C71.3515 212.696 71.3181 211.408 71.2629 210.053C71.2629 200.472 75.9916 188.804 80.6905 178.473Z" stroke="#2E2E2E" stroke-width="1.742" stroke-linejoin="round"/>
<path fill-rule="evenodd" clip-rule="evenodd" d="M56.8252 303.583C56.828 303.591 56.8316 303.597 56.8343 303.603C56.7221 302.608 56.638 301.609 56.638 300.624C56.638 294.775 56.4851 277.959 56.4851 277.959C56.4851 277.959 57.0614 272.418 57.0614 266.645C57.0614 260.874 53.4888 257.987 53.4888 255.448C51.5419 260.831 46.8829 281.42 56.8252 303.583Z" stroke="#2E2E2E" stroke-width="1.742" stroke-linejoin="round"/>
<path fill-rule="evenodd" clip-rule="evenodd" d="M36.4322 261.566C36.4322 273.724 42.9485 288.795 44.7335 299.005C44.7335 299 44.7344 298.996 44.7353 298.99C47.3986 271.063 40.4182 263.179 36.6737 254.59C36.5272 256.45 36.4322 258.68 36.4322 261.566Z" stroke="#2E2E2E" stroke-width="1.742" stroke-linejoin="round"/>
<path fill-rule="evenodd" clip-rule="evenodd" d="M78.2715 303.583C78.2688 303.591 78.2652 303.597 78.2616 303.603C78.3747 302.608 78.4588 301.609 78.4588 300.624C78.4588 294.775 78.6117 277.959 78.6117 277.959C78.6117 277.959 78.0354 272.418 78.0354 266.645C78.0354 260.874 81.608 257.987 81.608 255.448C83.5539 260.831 88.2139 281.42 78.2715 303.583Z" stroke="#2E2E2E" stroke-width="1.742" stroke-linejoin="round"/>
<path fill-rule="evenodd" clip-rule="evenodd" d="M98.6641 261.566C98.6641 273.724 92.1487 288.795 90.3637 299.005C90.3628 299 90.3619 298.996 90.361 298.99C87.6977 271.063 94.679 263.179 98.4235 254.59C98.57 256.45 98.6641 258.68 98.6641 261.566Z" stroke="#2E2E2E" stroke-width="1.742" stroke-linejoin="round"/>
<path fill-rule="evenodd" clip-rule="evenodd" d="M20.4131 113.803C20.4131 112.977 20.4294 112.206 20.4466 111.441C20.4267 112.198 20.4131 112.977 20.4131 113.803Z" stroke="#2E2E2E" stroke-width="1.742" stroke-linejoin="round"/>
<path fill-rule="evenodd" clip-rule="evenodd" d="M124.626 177.026C123.81 175.08 122.377 168.973 121.967 163.901C120.873 150.382 119.923 130.21 118.935 126.385C117.578 121.125 114.683 115.688 114.683 113.802C114.683 97.2942 110.996 93.1538 110.996 90.4832C110.996 88.7514 111.802 89.6748 111.802 79.6703C111.802 69.6657 100.893 59.199 89.9823 59.199L79.3795 52.5801V43.0377H79.2818C76.6175 46.0137 71.8581 50.5411 67.5482 50.5411C63.2383 50.5411 58.4788 46.0137 55.8146 43.0377H55.7169V52.5801L45.1141 59.199C34.2038 59.199 23.2943 69.6657 23.2943 79.6703C23.2943 89.6748 24.1013 88.7514 24.1013 90.4832C24.1013 93.1538 20.4129 97.2942 20.4129 113.802C20.4129 115.688 17.518 121.125 16.1601 126.385C15.1731 130.21 14.2241 150.382 13.1303 163.901C12.7196 168.973 11.2875 175.08 10.4706 177.026C8.56352 181.572 17.7622 188.537 18.3774 188.784C19.1717 189.106 19.4422 187.508 19.7118 186.885C20.8182 184.319 16.7001 181.27 16.9652 179.489C17.2846 177.349 17.6618 173.59 19.1455 174.19C20.63 174.79 21.1321 178.198 22.6158 178.798C24.0995 179.398 24.7364 178.999 25.1905 177.872C25.4565 177.211 23.7702 173.075 22.2566 169.192C21.1873 166.448 21.3701 164.48 21.3701 164.48C21.3701 164.48 33.1733 137.006 33.6718 131.465C35.2758 128.913 34.5303 127.635 34.7357 125.785C35.5581 118.356 35.568 103.989 36.6627 103.989C37.7003 103.989 37.8152 108.492 37.8152 111.263C37.8152 117.612 42.5403 117.842 42.5403 126.385C42.5403 132.849 40.8115 130.195 40.8115 141.508C40.8115 144.856 35.2025 147.934 35.2025 161.325C35.2025 164.789 31.5151 171.253 31.5151 185.26C31.5151 212.042 38.6222 225.087 38.6222 236.401C38.6222 248.521 36.432 247.483 36.432 261.566C36.432 275.651 45.191 293.659 45.191 303.471C45.191 325.059 38.0459 319.517 38.0459 324.482C38.0459 325.79 39.4282 326.637 39.4282 326.637L51.645 327.945H57.9442L59.8657 325.636C59.8657 325.636 58.1749 322.712 58.1749 321.172C58.1749 319.633 59.0198 316.632 59.0198 314.784C59.0198 312.937 56.6387 306.472 56.6387 300.624C56.6387 294.775 56.485 277.959 56.485 277.959C56.485 277.959 57.0612 272.418 57.0612 266.646C57.0612 260.874 53.4887 257.988 53.4887 255.448C53.4887 252.908 63.745 234.438 63.745 213.89C63.745 202.923 66.3956 184.452 66.3956 171.638H67.5482H68.7008C68.7008 184.452 71.3514 202.923 71.3514 213.89C71.3514 234.438 81.6086 252.908 81.6086 255.448C81.6086 257.988 78.0352 260.874 78.0352 266.646C78.0352 272.418 78.6114 277.959 78.6114 277.959C78.6114 277.959 78.4586 294.775 78.4586 300.624C78.4586 306.472 76.0765 312.937 76.0765 314.784C76.0765 316.632 76.9215 319.633 76.9215 321.172C76.9215 322.712 75.2316 325.636 75.2316 325.636L77.1522 327.945H83.4523L95.6681 326.637C95.6681 326.637 97.0514 325.79 97.0514 324.482C97.0514 319.517 89.9063 325.059 89.9063 303.471C89.9063 293.659 98.6644 275.651 98.6644 261.566C98.6644 247.483 96.4742 248.521 96.4742 236.401C96.4742 225.087 103.581 212.042 103.581 185.26C103.581 171.253 99.8939 164.789 99.8939 161.325C99.8939 147.934 94.2849 144.856 94.2849 141.508C94.2849 130.195 92.5561 132.849 92.5561 126.385C92.5561 117.842 97.2812 117.612 97.2812 111.263C97.2812 108.492 97.397 103.989 98.4337 103.989C99.5284 103.989 99.5383 118.356 100.361 125.785C100.566 127.635 99.8206 128.913 101.425 131.465C101.924 137.006 113.727 164.48 113.727 164.48C113.727 164.48 113.909 166.448 112.841 169.192C111.327 173.075 109.64 177.211 109.906 177.872C110.36 178.999 110.997 179.398 112.481 178.798C113.965 178.198 114.467 174.79 115.951 174.19C117.435 173.59 117.813 177.349 118.131 179.489C118.397 181.27 114.278 184.319 115.385 186.885C115.654 187.508 115.926 189.106 116.72 188.784C117.333 188.537 126.533 181.572 124.626 177.026Z" stroke="#2E2E2E" stroke-width="1.742" stroke-linejoin="round"/>
<path fill-rule="evenodd" clip-rule="evenodd" d="M24.345 131.465C25.1257 126.717 25.9065 125.003 24.345 122.076C22.7835 119.149 21.7423 123.178 17.5446 122.076C17.0289 123.476 16.5359 124.934 16.1604 126.386C15.3064 129.694 15.5796 145.413 14.9617 158.347H14.9626C14.9626 158.347 18.3588 151.594 18.6193 144.816C18.879 138.038 23.5643 136.212 24.345 131.465Z" stroke="#2E2E2E" stroke-width="1.742" stroke-linejoin="round"/>
<path fill-rule="evenodd" clip-rule="evenodd" d="M25.2466 139.668C23.0437 146.38 21.3701 164.48 21.3701 164.48C21.3701 164.48 33.1733 137.006 33.6718 131.465C33.6718 131.465 27.4495 132.955 25.2466 139.668Z" stroke="#2E2E2E" stroke-width="1.742" stroke-linejoin="round"/>
<path fill-rule="evenodd" clip-rule="evenodd" d="M111.802 79.6707C111.802 89.6752 110.995 88.7518 110.995 90.4835C105.925 89.445 102.583 85.0581 96.4754 74.7835C90.367 64.5098 85.1805 66.1256 85.1805 63.7015C85.1805 61.8537 88.7531 61.0463 89.9825 59.1994C100.892 59.1994 111.802 69.6652 111.802 79.6707Z" stroke="#2E2E2E" stroke-width="1.742" stroke-linejoin="round"/>
<path fill-rule="evenodd" clip-rule="evenodd" d="M72.3885 70.1661C73.0661 68.8267 82.7606 63.7012 85.1806 63.7012C85.1806 66.1253 90.367 64.5095 96.4754 74.7832C98.7434 78.5993 100.63 81.6015 102.366 83.9232C99.6128 85.4439 100.508 86.6736 97.9726 88.8675C95.4377 91.0605 87.0252 94.4081 81.8387 94.4081C76.6522 94.4081 69.4429 91.2916 69.4429 91.2916V83.4411C69.4429 74.8992 71.3382 72.244 72.3885 70.1661Z" stroke="#2E2E2E" stroke-width="1.742" stroke-linejoin="round"/>
<path fill-rule="evenodd" clip-rule="evenodd" d="M100.361 81.053C100.603 81.4182 100.841 81.7725 101.076 82.1151C100.841 81.7725 100.603 81.4191 100.361 81.053Z" stroke="#2E2E2E" stroke-width="1.742" stroke-linejoin="round"/>
<path fill-rule="evenodd" clip-rule="evenodd" d="M102.366 83.9234C102.21 83.715 102.051 83.493 101.892 83.2737C105.038 87.6334 107.639 89.7956 110.996 90.4835C110.996 93.154 114.684 97.2945 114.684 113.803C114.684 117.15 106.706 121.457 103.044 113.803C100.668 108.838 99.7746 106.769 99.2201 105.55C98.9369 104.57 98.67 103.99 98.4339 103.99C97.6278 102.605 97.9734 88.8677 97.9734 88.8677C100.508 86.6737 99.6127 85.444 102.366 83.9234Z" stroke="#2E2E2E" stroke-width="1.742" stroke-linejoin="round"/>
<path fill-rule="evenodd" clip-rule="evenodd" d="M101.757 83.0884C101.538 82.783 101.316 82.4659 101.092 82.1387C101.317 82.4659 101.538 82.783 101.757 83.0884Z" stroke="#2E2E2E" stroke-width="1.742" stroke-linejoin="round"/>
<path fill-rule="evenodd" clip-rule="evenodd" d="M110.752 131.465C109.971 126.717 109.19 125.003 110.752 122.076C112.313 119.149 113.355 123.178 117.552 122.076C118.068 123.476 118.561 124.934 118.936 126.386C119.79 129.694 119.517 145.413 120.135 158.347H120.134C120.134 158.347 116.738 151.594 116.478 144.816C116.217 138.038 111.533 136.212 110.752 131.465Z" stroke="#2E2E2E" stroke-width="1.742" stroke-linejoin="round"/>
<path fill-rule="evenodd" clip-rule="evenodd" d="M109.85 139.668C112.053 146.38 113.727 164.48 113.727 164.48C113.727 164.48 101.924 137.006 101.425 131.465C101.425 131.465 107.647 132.955 109.85 139.668Z" stroke="#2E2E2E" stroke-width="1.742" stroke-linejoin="round"/>
<path fill-rule="evenodd" clip-rule="evenodd" d="M52.3435 24.2406C52.3435 22.923 50.459 22.5515 49.2323 22.5515C48.0037 22.5515 47.5315 24.4436 48.476 28.8904C49.4205 33.3381 53.183 34.6312 53.183 34.6312L52.3435 24.2406Z" stroke="#2E2E2E" stroke-width="1.742" stroke-linejoin="round"/>
<path fill-rule="evenodd" clip-rule="evenodd" d="M82.7533 24.2406C82.7533 22.923 84.6368 22.5515 85.8645 22.5515C87.093 22.5515 87.5653 24.4436 86.6208 28.8904C85.6754 33.3381 81.9138 34.6312 81.9138 34.6312L82.7533 24.2406Z" stroke="#2E2E2E" stroke-width="1.742" stroke-linejoin="round"/>
<path fill-rule="evenodd" clip-rule="evenodd" d="M283.89 176.554C281.694 171.118 278.834 167.49 278.412 162.288C277.991 157.086 274.341 141.429 272.978 136.185C271.614 130.942 264.817 120.323 264.817 118.443C264.817 101.986 262.89 92.1282 262.89 89.4662C262.89 87.7393 263.7 88.6599 263.7 78.6858C263.7 71.5125 258.034 64.1013 250.777 60.5051C250.761 60.497 250.745 60.4907 250.729 60.4826C250.409 60.325 250.087 60.1754 249.762 60.0331C249.654 59.9862 249.544 59.943 249.436 59.898C249.199 59.7989 248.963 59.7016 248.724 59.6106C248.593 59.5602 248.46 59.5151 248.328 59.4674C248.11 59.389 247.891 59.3133 247.67 59.2413C247.528 59.1962 247.385 59.153 247.243 59.1106C247.029 59.0467 246.815 58.9854 246.599 58.9278C246.453 58.889 246.307 58.8521 246.16 58.817C245.944 58.7647 245.728 58.717 245.511 58.6728C245.365 58.6422 245.219 58.6125 245.072 58.5854C244.85 58.5449 244.627 58.5107 244.403 58.4782C244.262 58.4575 244.122 58.4341 243.981 58.417C243.737 58.3873 243.492 58.3656 243.247 58.3458C243.127 58.3359 243.007 58.3215 242.888 58.3143C242.524 58.2918 242.159 58.2783 241.794 58.2783L228.563 50.5247L229.171 44.717C229.171 44.717 226.21 35.5952 219.269 35.5952C212.329 35.5952 209.367 44.717 209.367 44.717L209.976 50.5247L196.745 58.2783C196.38 58.2783 196.015 58.2918 195.651 58.3143C195.531 58.3215 195.411 58.3359 195.292 58.3458C195.046 58.3656 194.802 58.3873 194.557 58.417C194.417 58.4341 194.276 58.4575 194.135 58.4782C193.912 58.5107 193.689 58.5449 193.466 58.5854C193.32 58.6125 193.173 58.6422 193.027 58.6728C192.811 58.717 192.595 58.7647 192.379 58.817C192.232 58.8521 192.086 58.889 191.94 58.9278C191.724 58.9854 191.51 59.0467 191.296 59.1106C191.153 59.153 191.011 59.1962 190.868 59.2413C190.648 59.3133 190.429 59.389 190.21 59.4674C190.078 59.5151 189.945 59.5602 189.814 59.6106C189.576 59.7016 189.34 59.7989 189.102 59.898C188.994 59.943 188.885 59.9862 188.777 60.0331C188.452 60.1754 188.13 60.325 187.81 60.4826C187.794 60.4907 187.777 60.497 187.761 60.5051H187.762C180.504 64.1013 174.838 71.5125 174.838 78.6858C174.838 88.6599 175.648 87.7393 175.648 89.4662C175.648 92.1282 173.722 101.986 173.722 118.443C173.722 120.323 166.924 130.942 165.561 136.185C164.198 141.429 160.548 157.086 160.126 162.288C159.705 167.49 156.845 171.118 154.649 176.554C151.762 183.696 160.898 187.603 161.557 187.867C162.411 188.21 163.367 188.2 163.656 187.535C164.844 184.8 158.572 181.171 159.697 179.19C160.837 177.181 162.784 174.926 164.377 175.566C165.97 176.205 165.206 181.236 166.8 181.876C168.394 182.516 169.076 182.09 169.565 180.889C170.053 179.687 169.825 170.296 167.408 169.325C168.623 167.671 169.395 166.529 169.395 166.529C169.395 166.529 175.683 156.571 178.459 152.659C181.236 148.746 186.198 134.007 186.699 128.482C188.126 126.411 186.49 124.291 187.111 122.541C189.583 115.575 189.463 107.684 190.562 107.684C191.604 107.684 194.161 116.741 194.161 125.257C194.161 131.702 192.426 129.055 192.426 140.333C192.426 143.671 186.795 146.74 186.795 160.089C186.795 163.542 183.093 169.987 183.093 183.951C183.093 210.651 195.075 227.5 195.075 238.778C195.075 250.862 191.779 247.412 191.779 261.451C191.779 275.492 201.392 293.875 201.392 303.658C201.392 323.326 189.033 312.809 189.033 318.819C189.033 320.124 192.467 321.961 192.467 321.961L201.771 325.597L207.984 326.195C210.742 326.195 213.34 325.239 213.34 320.458C213.34 318.924 213.203 315.06 213.203 313.219C213.203 311.378 211.142 306.074 211.142 300.243C211.142 294.412 211.554 277.979 211.554 277.979C211.554 277.979 214.438 269.938 214.438 264.184C214.438 258.429 211.28 249.369 211.28 246.837C211.28 244.305 215.452 237.822 215.452 212.491C215.452 201.558 218.112 183.144 218.112 170.37H219.269H220.426C220.426 183.144 223.087 201.558 223.087 212.491C223.087 237.822 227.259 244.305 227.259 246.837C227.259 249.369 224.1 258.429 224.1 264.184C224.1 269.938 226.984 277.979 226.984 277.979C226.984 277.979 227.396 294.412 227.396 300.243C227.396 306.074 225.336 311.378 225.336 313.219C225.336 315.06 225.199 318.924 225.199 320.458C225.199 325.239 227.796 326.195 230.554 326.195L236.768 325.597L246.072 321.961C246.072 321.961 249.506 320.124 249.506 318.819C249.506 312.809 237.146 323.326 237.146 303.658C237.146 293.875 246.759 275.492 246.759 261.451C246.759 247.412 243.463 250.862 243.463 238.778C243.463 227.5 255.446 210.651 255.446 183.951C255.446 169.987 251.743 163.542 251.743 160.089C251.743 146.74 246.113 143.671 246.113 140.333C246.113 129.055 244.377 131.702 244.377 125.257C244.377 116.741 246.935 107.684 247.977 107.684C249.076 107.684 248.956 115.575 251.427 122.541C252.049 124.291 250.413 126.411 251.839 128.482C252.341 134.007 257.303 148.746 260.079 152.659C262.856 156.571 269.143 166.529 269.143 166.529C269.143 166.529 269.915 167.671 271.131 169.325C268.713 170.296 268.486 179.687 268.974 180.889C269.462 182.09 270.145 182.516 271.738 181.876C273.332 181.236 272.568 176.205 274.161 175.566C275.755 174.926 277.701 177.181 278.842 179.19C279.967 181.171 273.695 184.8 274.883 187.535C275.172 188.2 276.128 188.21 276.981 187.867C277.641 187.603 286.776 183.696 283.89 176.554Z" fill="#202020"/>
<path fill-rule="evenodd" clip-rule="evenodd" d="M192.426 140.333C192.426 143.671 186.795 146.74 186.795 160.09C186.795 163.543 183.093 169.986 183.093 183.95C183.093 192.629 184.362 200.262 186.071 207.005C189.033 195.616 192.798 183.716 201.312 182.623C209.827 181.53 219.27 167.752 219.27 163.108C219.27 163.108 202.67 140.708 202.67 138.249C202.67 135.79 196.916 137.774 192.426 140.333Z" fill="#202020"/>
<path fill-rule="evenodd" clip-rule="evenodd" d="M192.695 189.063C193.212 193.226 193.702 199.597 193.702 208.797C193.702 217.363 193.43 223.771 192.992 228.55C194.229 232.402 195.075 235.789 195.075 238.778C195.075 238.814 195.074 238.846 195.074 238.881C198.424 230.961 201.181 218.783 201.181 207.005C201.181 189.128 201.313 182.623 201.313 182.623C197.676 183.09 194.907 185.533 192.695 189.063Z" fill="#202020"/>
<path fill-rule="evenodd" clip-rule="evenodd" d="M214.46 172.957C210.942 177.596 205.989 182.023 201.312 182.623C201.279 182.628 201.247 182.636 201.213 182.641C201.252 186.691 201.312 193.848 201.312 199.168C201.312 207.005 208.121 220.885 208.121 225.598C208.121 230.31 207.503 231.13 208.121 232.563C208.74 233.998 210.318 241.237 210.799 244.037C210.93 244.794 211.156 245.392 211.415 245.867C212.126 242.699 215.451 235.114 215.451 212.491C215.451 206.138 216.348 197.259 217.102 188.427C215.656 183.773 214.086 177.462 214.46 172.957Z" fill="#202020"/>
<path fill-rule="evenodd" clip-rule="evenodd" d="M202.972 241.783C202.972 236.661 200.706 231.949 199.676 235.022C198.646 238.095 196.174 241.989 194.714 244.535C193.898 249.92 191.968 250.278 191.794 260.007C191.803 260.504 191.801 260.988 191.78 261.452C191.78 261.763 191.79 262.078 191.799 262.393C192.224 268.698 198.772 281.48 201.18 280.517C203.715 279.505 204.826 276.203 204.414 269.852C204.001 263.501 202.972 246.905 202.972 241.783Z" fill="#202020"/>
<path fill-rule="evenodd" clip-rule="evenodd" d="M211.28 246.837C211.28 246.566 211.329 246.247 211.414 245.866C211.155 245.39 210.928 244.793 210.799 244.037C210.318 241.237 208.739 233.998 208.122 232.563C207.503 231.129 206.996 227.767 205.713 230.29C204.427 232.824 202.982 235.715 202.36 237.125C202.359 237.127 202.358 237.128 202.358 237.129C202.724 238.463 202.972 240.098 202.972 241.783C202.972 246.905 204.002 263.501 204.414 269.852C204.414 269.852 206.76 278.935 209.157 278.457C209.789 278.331 210.641 278.2 211.552 278.076C211.553 278.019 211.554 277.979 211.554 277.979C211.554 277.979 214.438 269.938 214.438 264.183C214.438 258.43 211.28 249.369 211.28 246.837Z" fill="#202020"/>
<path fill-rule="evenodd" clip-rule="evenodd" d="M187.761 60.5054C182.013 62.9205 174.839 71.1812 174.839 78.6861C174.839 88.6602 175.648 87.7395 175.648 89.4655C175.648 90.424 175.397 92.3293 175.079 95.1237C178.872 90.9888 184.845 86.2765 190.612 83.6137C196.379 80.9508 194.241 75.7485 201.177 73.0225C197.441 67.4292 190.838 62.8439 187.761 60.5054Z" fill="#202020"/>
<path fill-rule="evenodd" clip-rule="evenodd" d="M175.578 88.7067C175.564 88.6355 175.547 88.5634 175.53 88.4905C175.547 88.5643 175.564 88.6346 175.578 88.7067Z" fill="#202020"/>
<path fill-rule="evenodd" clip-rule="evenodd" d="M175.648 89.4659C175.648 89.6155 175.64 89.7947 175.629 89.9893C175.64 89.7947 175.648 89.6155 175.648 89.4659Z" fill="#202020"/>
<path fill-rule="evenodd" clip-rule="evenodd" d="M175.579 88.7151C175.594 88.7853 175.606 88.8565 175.616 88.9304C175.606 88.8565 175.594 88.7853 175.579 88.7151Z" fill="#202020"/>
<path fill-rule="evenodd" clip-rule="evenodd" d="M175.64 89.1866C175.646 89.2731 175.649 89.365 175.649 89.4659C175.649 89.365 175.646 89.2731 175.64 89.1866Z" fill="#202020"/>
<path fill-rule="evenodd" clip-rule="evenodd" d="M175.617 88.9412C175.627 89.0159 175.634 89.0934 175.64 89.1781C175.635 89.0934 175.627 89.0159 175.617 88.9412Z" fill="#202020"/>
<path fill-rule="evenodd" clip-rule="evenodd" d="M175.078 95.1234C174.51 100.093 173.722 107.909 173.722 118.443C173.722 118.739 173.553 119.25 173.266 119.921C175.499 122.976 178.308 126.024 180.725 126.024C182.846 126.024 185.162 124.416 187.051 122.758C187.069 122.686 187.085 122.613 187.11 122.541C189.583 115.575 189.462 107.684 190.562 107.684C190.757 107.684 191.003 108 191.277 108.569C191.587 103.185 191.117 92.5389 188.009 84.9476C183.1 87.6834 178.302 91.6102 175.078 95.1234Z" fill="#202020"/>
<path fill-rule="evenodd" clip-rule="evenodd" d="M175.081 95.1005C175.23 93.7943 175.364 92.6899 175.464 91.7791C175.364 92.6845 175.229 93.7997 175.081 95.1005Z" fill="#202020"/>
<path fill-rule="evenodd" clip-rule="evenodd" d="M175.574 90.6958C175.591 90.5075 175.606 90.3319 175.617 90.1706C175.606 90.3328 175.592 90.5066 175.574 90.6958Z" fill="#202020"/>
<path fill-rule="evenodd" clip-rule="evenodd" d="M175.559 90.8647C175.535 91.1232 175.506 91.4007 175.472 91.7061C175.506 91.4025 175.535 91.1223 175.559 90.8647Z" fill="#202020"/>
<path fill-rule="evenodd" clip-rule="evenodd" d="M163.081 162.041C162.208 160.089 162.845 147.243 163.722 143.618C164.601 139.992 170.545 130.327 173.266 128.893C175.987 127.459 177.223 140.981 175.987 144.668C174.752 148.356 169.396 166.529 169.396 166.529C169.396 166.529 163.954 163.993 163.081 162.041Z" fill="#202020"/>
<path fill-rule="evenodd" clip-rule="evenodd" d="M275.457 162.041C276.33 160.089 275.694 147.243 274.816 143.618C273.938 139.992 267.994 130.327 265.272 128.893C262.551 127.459 261.315 140.981 262.551 144.668C263.787 148.356 269.142 166.529 269.142 166.529C269.142 166.529 274.584 163.993 275.457 162.041Z" fill="#202020"/>
<path fill-rule="evenodd" clip-rule="evenodd" d="M175.987 144.669C175.111 147.492 173.376 153.209 171.761 158.548C170.467 162.894 169.396 166.529 169.396 166.529C169.396 166.529 175.682 156.572 178.459 152.659C181.236 148.746 186.197 134.007 186.699 128.483C184.227 131.352 177.885 138.555 175.987 144.669Z" fill="#202020"/>
<path fill-rule="evenodd" clip-rule="evenodd" d="M205.238 82.5891C204.192 77.9506 202.809 75.6778 201.177 73.0222C194.835 75.1616 196.379 80.9504 190.613 83.6133C189.747 84.0133 188.876 84.4646 188.009 84.9475C191.437 88.3256 194.126 90.7263 197.004 91.7794C199.881 92.8334 205.031 92.6055 207.812 91.2857C206.742 88.2355 205.838 85.2528 205.238 82.5891Z" fill="#202020"/>
<path fill-rule="evenodd" clip-rule="evenodd" d="M207.811 91.2856C205.031 92.6053 199.881 92.8333 197.004 91.7793C194.126 90.7262 191.437 88.3255 188.009 84.9473C191.118 92.5387 191.587 103.185 191.277 108.569C191.252 108.515 193.466 115.368 193.961 120.945C197.002 124.948 201.312 131.966 201.312 131.966C210.51 120.661 214.095 116.395 216.977 111.745C214.058 106.185 210.799 99.7481 207.811 91.2856Z" fill="#202020"/>
<path fill-rule="evenodd" clip-rule="evenodd" d="M214.46 172.957C214.445 172.976 214.43 172.995 214.416 173.013C214.321 173.138 214.223 173.262 214.126 173.386C213.958 173.6 213.789 173.815 213.615 174.027C213.511 174.156 213.405 174.284 213.298 174.412C213.109 174.638 212.917 174.862 212.722 175.085C212.633 175.186 212.547 175.287 212.458 175.387C211.867 176.049 211.25 176.691 210.614 177.304C210.561 177.354 210.508 177.404 210.455 177.454C210.172 177.722 209.887 177.983 209.598 178.238C209.549 178.281 209.5 178.324 209.451 178.367C208.764 178.964 208.062 179.521 207.347 180.021C208.063 185.334 209.636 191.74 211.211 193.636C212.467 195.147 214.313 187.787 215.314 181.651C214.664 178.592 214.25 175.49 214.46 172.957Z" fill="#202020"/>
<path fill-rule="evenodd" clip-rule="evenodd" d="M246.113 140.333C246.113 143.671 251.743 146.74 251.743 160.09C251.743 163.543 255.446 169.986 255.446 183.95C255.446 192.629 254.177 200.262 252.468 207.005C249.505 195.616 245.74 183.716 237.225 182.623C228.712 181.53 219.269 167.752 219.269 163.108C219.269 163.108 235.868 140.708 235.868 138.249C235.868 135.79 241.622 137.774 246.113 140.333Z" fill="#202020"/>
<path fill-rule="evenodd" clip-rule="evenodd" d="M245.843 189.063C245.326 193.226 244.836 199.597 244.836 208.797C244.836 217.363 245.109 223.771 245.546 228.55C244.309 232.402 243.463 235.789 243.463 238.778C243.463 238.814 243.464 238.846 243.464 238.881C240.115 230.961 237.357 218.783 237.357 207.005C237.357 189.128 237.226 182.623 237.226 182.623C240.863 183.09 243.632 185.533 245.843 189.063Z" fill="#202020"/>
<path fill-rule="evenodd" clip-rule="evenodd" d="M224.078 172.957C227.597 177.596 232.55 182.023 237.226 182.623C237.26 182.628 237.292 182.636 237.326 182.641C237.287 186.691 237.226 193.848 237.226 199.168C237.226 207.005 230.417 220.885 230.417 225.598C230.417 230.31 231.035 231.13 230.417 232.563C229.798 233.998 228.22 241.237 227.739 244.037C227.609 244.794 227.383 245.392 227.123 245.867C226.412 242.699 223.087 235.114 223.087 212.491C223.087 206.138 222.19 197.259 221.437 188.427C222.882 183.773 224.453 177.462 224.078 172.957Z" fill="#202020"/>
<path fill-rule="evenodd" clip-rule="evenodd" d="M235.567 241.783C235.567 236.661 237.833 231.949 238.862 235.022C239.892 238.095 242.365 241.989 243.824 244.535C244.64 249.92 246.572 250.278 246.745 260.007C246.736 260.504 246.738 260.988 246.758 261.452C246.758 261.763 246.748 262.078 246.739 262.393C246.315 268.698 239.766 281.48 237.358 280.517C234.823 279.505 233.713 276.203 234.125 269.852C234.537 263.501 235.567 246.905 235.567 241.783Z" fill="#202020"/>
<path fill-rule="evenodd" clip-rule="evenodd" d="M227.259 246.837C227.259 246.566 227.21 246.247 227.125 245.866C227.384 245.39 227.609 244.793 227.74 244.037C228.22 241.237 229.799 233.998 230.417 232.563C231.034 231.129 231.542 227.767 232.824 230.29C234.111 232.824 235.557 235.715 236.179 237.125C236.18 237.127 236.18 237.128 236.181 237.129C235.815 238.463 235.567 240.098 235.567 241.783C235.567 246.905 234.537 263.501 234.125 269.852C234.125 269.852 231.779 278.935 229.382 278.457C228.749 278.331 227.897 278.2 226.986 278.076C226.985 278.019 226.984 277.979 226.984 277.979C226.984 277.979 224.1 269.938 224.1 264.183C224.1 258.43 227.259 249.369 227.259 246.837Z" fill="#202020"/>
<path fill-rule="evenodd" clip-rule="evenodd" d="M250.777 60.5054C256.526 62.9205 263.7 71.1812 263.7 78.6861C263.7 88.6602 262.89 87.7395 262.89 89.4655C262.89 90.424 263.141 92.3293 263.46 95.1237C259.666 90.9888 253.693 86.2765 247.926 83.6137C242.159 80.9508 244.298 75.7485 237.361 73.0225C241.097 67.4292 247.7 62.8439 250.777 60.5054Z" fill="#202020"/>
<path fill-rule="evenodd" clip-rule="evenodd" d="M262.961 88.7067C262.975 88.6355 262.99 88.5634 263.009 88.4905C262.99 88.5643 262.975 88.6346 262.961 88.7067Z" fill="#202020"/>
<path fill-rule="evenodd" clip-rule="evenodd" d="M262.89 89.4659C262.89 89.6155 262.898 89.7947 262.909 89.9893C262.898 89.7947 262.89 89.6155 262.89 89.4659Z" fill="#202020"/>
<path fill-rule="evenodd" clip-rule="evenodd" d="M262.959 88.7151C262.945 88.7853 262.933 88.8565 262.922 88.9304C262.933 88.8565 262.945 88.7853 262.959 88.7151Z" fill="#202020"/>
<path fill-rule="evenodd" clip-rule="evenodd" d="M262.898 89.1866C262.893 89.2731 262.89 89.365 262.89 89.4659C262.89 89.365 262.893 89.2731 262.898 89.1866Z" fill="#202020"/>
<path fill-rule="evenodd" clip-rule="evenodd" d="M262.922 88.9412C262.912 89.0159 262.903 89.0934 262.899 89.1781C262.903 89.0934 262.912 89.0159 262.922 88.9412Z" fill="#202020"/>
<path fill-rule="evenodd" clip-rule="evenodd" d="M263.46 95.1234C264.028 100.093 264.817 107.909 264.817 118.443C264.817 118.739 264.985 119.25 265.273 119.921C263.04 122.976 260.231 126.024 257.813 126.024C255.691 126.024 253.375 124.416 251.487 122.758C251.469 122.686 251.454 122.613 251.427 122.541C248.956 115.575 249.076 107.684 247.977 107.684C247.782 107.684 247.535 108 247.261 108.569C246.951 103.185 247.421 92.5389 250.53 84.9476C255.438 87.6834 260.236 91.6102 263.46 95.1234Z" fill="#202020"/>
<path fill-rule="evenodd" clip-rule="evenodd" d="M263.458 95.1005C263.308 93.7943 263.175 92.6899 263.074 91.7791C263.175 92.6845 263.308 93.7997 263.458 95.1005Z" fill="#202020"/>
<path fill-rule="evenodd" clip-rule="evenodd" d="M262.964 90.6958C262.947 90.5075 262.932 90.3319 262.922 90.1706C262.932 90.3328 262.947 90.5066 262.964 90.6958Z" fill="#202020"/>
<path fill-rule="evenodd" clip-rule="evenodd" d="M262.979 90.8647C263.004 91.1232 263.033 91.4007 263.066 91.7061C263.033 91.4025 263.004 91.1223 262.979 90.8647Z" fill="#202020"/>
<path fill-rule="evenodd" clip-rule="evenodd" d="M262.551 144.669C263.427 147.492 265.162 153.209 266.777 158.548C268.071 162.894 269.143 166.529 269.143 166.529C269.143 166.529 262.856 156.572 260.079 152.659C257.303 148.746 252.341 134.007 251.839 128.483C254.311 131.352 260.654 138.555 262.551 144.669Z" fill="#202020"/>
<path fill-rule="evenodd" clip-rule="evenodd" d="M233.301 82.5891C234.346 77.9506 235.729 75.6778 237.361 73.0222C243.703 75.1616 242.159 80.9504 247.926 83.6133C248.792 84.0133 249.662 84.4646 250.53 84.9475C247.102 88.3256 244.413 90.7263 241.535 91.7794C238.657 92.8334 233.507 92.6055 230.727 91.2857C231.797 88.2355 232.7 85.2528 233.301 82.5891Z" fill="#202020"/>
<path fill-rule="evenodd" clip-rule="evenodd" d="M237.226 131.966C234.331 128.278 221.147 112.466 221.559 111.752C221.56 111.75 221.56 111.746 221.561 111.745C220.613 113.357 219.812 114.499 219.269 114.961C218.725 114.499 217.925 113.357 216.977 111.745C216.978 111.746 216.977 111.75 216.979 111.752C217.39 112.466 204.207 128.278 201.313 131.966C201.313 131.966 202.972 135.244 202.67 138.249C202.67 140.708 219.269 163.108 219.269 163.108C219.269 163.108 235.868 140.708 235.868 138.249C235.566 135.244 237.226 131.966 237.226 131.966Z" fill="#202020"/>
<path fill-rule="evenodd" clip-rule="evenodd" d="M230.727 91.2856C233.508 92.6053 238.657 92.8333 241.535 91.7793C244.413 90.7262 247.102 88.3255 250.53 84.9473C247.421 92.5387 246.952 103.185 247.261 108.569C247.287 108.515 245.072 115.368 244.577 120.945C241.536 124.948 237.226 131.966 237.226 131.966C228.028 120.661 224.443 116.395 221.561 111.745C224.481 106.185 227.739 99.7481 230.727 91.2856Z" fill="#202020"/>
<path fill-rule="evenodd" clip-rule="evenodd" d="M224.078 172.957C224.093 172.976 224.108 172.995 224.122 173.013C224.218 173.138 224.316 173.262 224.413 173.386C224.581 173.6 224.749 173.815 224.923 174.027C225.027 174.156 225.134 174.284 225.241 174.412C225.429 174.638 225.622 174.862 225.816 175.085C225.905 175.186 225.991 175.287 226.08 175.387C226.672 176.049 227.289 176.691 227.925 177.304C227.977 177.354 228.03 177.404 228.083 177.454C228.366 177.722 228.651 177.983 228.94 178.238C228.989 178.281 229.039 178.324 229.087 178.367C229.774 178.964 230.476 179.521 231.191 180.021C230.475 185.334 228.902 191.74 227.327 193.636C226.072 195.147 224.225 187.787 223.224 181.651C223.875 178.592 224.288 175.49 224.078 172.957Z" fill="#202020"/>
<path fill-rule="evenodd" clip-rule="evenodd" d="M241.793 58.2779L228.564 50.5244L229.171 44.7167C229.171 44.7167 226.21 35.5957 219.269 35.5957C212.328 35.5957 209.368 44.7167 209.368 44.7167L209.975 50.5244L196.746 58.2779C193.67 58.2779 190.594 59.1013 187.761 60.5048C194.32 65.5837 202.56 70.7059 205.238 82.5888C207.916 94.4718 216.616 112.707 219.269 114.96C221.923 112.707 230.623 94.4718 233.301 82.5888C235.979 70.7059 244.219 65.5837 250.778 60.5048C247.945 59.1013 244.869 58.2779 241.793 58.2779Z" fill="#202020"/>
<path fill-rule="evenodd" clip-rule="evenodd" d="M237.549 22.4282C236.435 22.4282 234.798 22.7399 234.496 23.7705C234.749 20.3031 234.935 17.2286 234.935 15.6926C234.935 10.8993 229.712 1.70984 219.269 1.70984C208.825 1.70984 203.604 10.8993 203.604 15.6926C203.604 17.2286 203.79 20.304 204.041 23.7714C203.741 22.7399 202.103 22.4282 200.989 22.4282C199.759 22.4282 199.287 24.3092 200.232 28.7296C201.116 32.8608 204.462 34.2535 204.896 34.4184C205.187 37.8064 205.412 40.2639 205.412 40.2639C205.412 40.2639 207.011 42.4133 209.367 44.7177V44.7167C209.367 44.7167 212.329 35.5958 219.269 35.5958C226.21 35.5958 229.172 44.7167 229.172 44.7167V44.7177C231.527 42.4133 233.127 40.2639 233.127 40.2639C233.127 40.2639 233.351 37.8064 233.642 34.4184C234.077 34.2535 237.422 32.8608 238.306 28.7296C239.251 24.3092 238.778 22.4282 237.549 22.4282Z" fill="#202020"/>
<path fill-rule="evenodd" clip-rule="evenodd" d="M192.426 140.333C192.426 143.671 186.795 146.74 186.795 160.09C186.795 163.543 183.093 169.986 183.093 183.95C183.093 192.629 184.361 200.262 186.07 207.005C189.033 195.616 192.798 183.716 201.312 182.623C209.827 181.53 219.269 167.752 219.269 163.108C219.269 163.108 202.67 140.708 202.67 138.249C202.67 135.79 196.916 137.774 192.426 140.333Z" stroke="#2E2E2E" stroke-width="1.74515" stroke-linejoin="round"/>
<path fill-rule="evenodd" clip-rule="evenodd" d="M192.695 189.063C193.212 193.226 193.702 199.597 193.702 208.797C193.702 217.363 193.43 223.771 192.992 228.55C194.229 232.402 195.075 235.789 195.075 238.778C195.075 238.814 195.074 238.846 195.074 238.881C198.424 230.962 201.18 218.783 201.18 207.006C201.18 189.128 201.313 182.623 201.313 182.623C197.675 183.09 194.907 185.533 192.695 189.063Z" stroke="#2E2E2E" stroke-width="1.74515" stroke-linejoin="round"/>
<path fill-rule="evenodd" clip-rule="evenodd" d="M214.46 172.957C210.942 177.596 205.989 182.023 201.312 182.623C201.279 182.628 201.247 182.636 201.213 182.641C201.252 186.691 201.312 193.848 201.312 199.168C201.312 207.005 208.121 220.885 208.121 225.598C208.121 230.31 207.503 231.13 208.121 232.563C208.74 233.998 210.318 241.237 210.799 244.037C210.93 244.794 211.156 245.392 211.415 245.867C212.126 242.699 215.451 235.114 215.451 212.491C215.451 206.138 216.348 197.259 217.102 188.427C215.656 183.773 214.086 177.462 214.46 172.957Z" stroke="#2E2E2E" stroke-width="1.74515" stroke-linejoin="round"/>
<path fill-rule="evenodd" clip-rule="evenodd" d="M202.972 241.783C202.972 236.661 200.706 231.949 199.676 235.022C198.646 238.095 196.174 241.989 194.714 244.535C193.898 249.92 191.968 250.278 191.794 260.007C191.803 260.504 191.801 260.988 191.78 261.452C191.78 261.763 191.79 262.078 191.799 262.393C192.224 268.698 198.772 281.48 201.18 280.517C203.715 279.505 204.826 276.203 204.414 269.852C204.001 263.501 202.972 246.905 202.972 241.783Z" stroke="#2E2E2E" stroke-width="1.74515" stroke-linejoin="round"/>
<path fill-rule="evenodd" clip-rule="evenodd" d="M211.28 246.837C211.28 246.566 211.329 246.247 211.414 245.866C211.155 245.39 210.928 244.793 210.799 244.037C210.318 241.237 208.739 233.998 208.122 232.563C207.503 231.129 206.996 227.767 205.713 230.29C204.427 232.824 202.982 235.715 202.36 237.125C202.359 237.127 202.358 237.129 202.358 237.129C202.724 238.464 202.972 240.098 202.972 241.783C202.972 246.905 204.002 263.501 204.414 269.852C204.414 269.852 206.76 278.936 209.157 278.457C209.789 278.331 210.641 278.2 211.552 278.076C211.553 278.019 211.554 277.979 211.554 277.979C211.554 277.979 214.438 269.938 214.438 264.183C214.438 258.43 211.28 249.369 211.28 246.837Z" stroke="#2E2E2E" stroke-width="1.74515" stroke-linejoin="round"/>
<path fill-rule="evenodd" clip-rule="evenodd" d="M187.761 60.5053C182.013 62.9205 174.839 71.1811 174.839 78.686C174.839 88.6601 175.648 87.7395 175.648 89.4655C175.648 90.424 175.397 92.3292 175.079 95.1236C178.872 90.9888 184.845 86.2765 190.612 83.6136C196.379 80.9507 194.241 75.7484 201.177 73.0225C197.441 67.4292 190.838 62.8439 187.761 60.5053Z" stroke="#2E2E2E" stroke-width="1.74515" stroke-linejoin="round"/>
<path fill-rule="evenodd" clip-rule="evenodd" d="M175.578 88.7066C175.564 88.6355 175.547 88.5634 175.53 88.4904C175.547 88.5643 175.564 88.6346 175.578 88.7066Z" stroke="#2E2E2E" stroke-width="1.74515" stroke-linejoin="round"/>
<path fill-rule="evenodd" clip-rule="evenodd" d="M175.648 89.4658C175.648 89.6153 175.64 89.7946 175.629 89.9892C175.64 89.7946 175.648 89.6153 175.648 89.4658Z" stroke="#2E2E2E" stroke-width="1.74515" stroke-linejoin="round"/>
<path fill-rule="evenodd" clip-rule="evenodd" d="M175.579 88.715C175.594 88.7852 175.606 88.8564 175.616 88.9303C175.606 88.8564 175.594 88.7852 175.579 88.715Z" stroke="#2E2E2E" stroke-width="1.74515" stroke-linejoin="round"/>
<path fill-rule="evenodd" clip-rule="evenodd" d="M175.64 89.1866C175.646 89.273 175.649 89.3649 175.649 89.4658C175.649 89.3649 175.646 89.273 175.64 89.1866Z" stroke="#2E2E2E" stroke-width="1.74515" stroke-linejoin="round"/>
<path fill-rule="evenodd" clip-rule="evenodd" d="M175.617 88.9411C175.627 89.0159 175.634 89.0933 175.64 89.178C175.635 89.0933 175.627 89.0159 175.617 88.9411Z" stroke="#2E2E2E" stroke-width="1.74515" stroke-linejoin="round"/>
<path fill-rule="evenodd" clip-rule="evenodd" d="M175.078 95.1233C174.51 100.093 173.722 107.909 173.722 118.443C173.722 118.739 173.553 119.25 173.266 119.921C175.499 122.975 178.308 126.024 180.725 126.024C182.846 126.024 185.162 124.416 187.051 122.758C187.069 122.686 187.085 122.612 187.11 122.541C189.583 115.575 189.462 107.684 190.562 107.684C190.757 107.684 191.003 108 191.277 108.569C191.587 103.185 191.117 92.5388 188.009 84.9474C183.1 87.6833 178.302 91.61 175.078 95.1233Z" stroke="#2E2E2E" stroke-width="1.74515" stroke-linejoin="round"/>
<path fill-rule="evenodd" clip-rule="evenodd" d="M175.081 95.1004C175.23 93.7942 175.364 92.6898 175.464 91.7791C175.364 92.6844 175.229 93.7996 175.081 95.1004Z" stroke="#2E2E2E" stroke-width="1.74515" stroke-linejoin="round"/>
<path fill-rule="evenodd" clip-rule="evenodd" d="M175.574 90.6957C175.591 90.5074 175.606 90.3318 175.617 90.1705C175.606 90.3327 175.592 90.5065 175.574 90.6957Z" stroke="#2E2E2E" stroke-width="1.74515" stroke-linejoin="round"/>
<path fill-rule="evenodd" clip-rule="evenodd" d="M175.559 90.8646C175.535 91.1232 175.506 91.4006 175.472 91.706C175.506 91.4024 175.535 91.1223 175.559 90.8646Z" stroke="#2E2E2E" stroke-width="1.74515" stroke-linejoin="round"/>
<path fill-rule="evenodd" clip-rule="evenodd" d="M163.081 162.041C162.208 160.089 162.845 147.243 163.722 143.618C164.601 139.992 170.545 130.327 173.266 128.893C175.987 127.459 177.223 140.981 175.987 144.668C174.752 148.356 169.396 166.529 169.396 166.529C169.396 166.529 163.954 163.993 163.081 162.041Z" stroke="#2E2E2E" stroke-width="1.74515" stroke-linejoin="round"/>
<path fill-rule="evenodd" clip-rule="evenodd" d="M275.457 162.041C276.33 160.089 275.694 147.243 274.816 143.618C273.938 139.992 267.994 130.327 265.272 128.893C262.551 127.459 261.315 140.981 262.551 144.668C263.787 148.356 269.142 166.529 269.142 166.529C269.142 166.529 274.584 163.993 275.457 162.041Z" stroke="#2E2E2E" stroke-width="1.74515" stroke-linejoin="round"/>
<path fill-rule="evenodd" clip-rule="evenodd" d="M175.987 144.669C175.111 147.492 173.376 153.209 171.761 158.548C170.467 162.894 169.396 166.529 169.396 166.529C169.396 166.529 175.682 156.572 178.459 152.659C181.236 148.746 186.197 134.007 186.699 128.483C184.227 131.352 177.885 138.555 175.987 144.669Z" stroke="#2E2E2E" stroke-width="1.74515" stroke-linejoin="round"/>
<path fill-rule="evenodd" clip-rule="evenodd" d="M205.238 82.589C204.192 77.9506 202.809 75.6778 201.177 73.0221C194.835 75.1616 196.379 80.9504 190.613 83.6132C189.747 84.0132 188.876 84.4645 188.009 84.9474C191.437 88.3255 194.126 90.7263 197.004 91.7793C199.881 92.8333 205.031 92.6054 207.812 91.2857C206.742 88.2354 205.838 85.2528 205.238 82.589Z" stroke="#2E2E2E" stroke-width="1.74515" stroke-linejoin="round"/>
<path fill-rule="evenodd" clip-rule="evenodd" d="M207.812 91.2855C205.031 92.6052 199.881 92.8331 197.004 91.7792C194.126 90.7261 191.437 88.3253 188.009 84.9472C191.118 92.5386 191.587 103.185 191.277 108.569C191.252 108.515 193.466 115.368 193.961 120.945C197.002 124.948 201.312 131.966 201.312 131.966C210.51 120.661 214.095 116.395 216.977 111.745C214.058 106.185 210.799 99.748 207.812 91.2855Z" stroke="#2E2E2E" stroke-width="1.74515" stroke-linejoin="round"/>
<path fill-rule="evenodd" clip-rule="evenodd" d="M214.46 172.957C214.445 172.976 214.43 172.995 214.416 173.013C214.321 173.138 214.223 173.262 214.126 173.386C213.958 173.6 213.789 173.815 213.615 174.027C213.511 174.156 213.405 174.284 213.298 174.412C213.109 174.638 212.917 174.862 212.722 175.085C212.633 175.186 212.547 175.287 212.458 175.387C211.867 176.049 211.25 176.691 210.614 177.304C210.561 177.354 210.508 177.404 210.455 177.454C210.172 177.722 209.887 177.983 209.598 178.238C209.549 178.281 209.5 178.324 209.451 178.367C208.764 178.964 208.062 179.521 207.347 180.021C208.063 185.334 209.636 191.74 211.211 193.636C212.467 195.147 214.313 187.787 215.314 181.651C214.664 178.592 214.25 175.49 214.46 172.957Z" stroke="#2E2E2E" stroke-width="1.74515" stroke-linejoin="round"/>
<path fill-rule="evenodd" clip-rule="evenodd" d="M246.113 140.333C246.113 143.671 251.743 146.74 251.743 160.09C251.743 163.543 255.446 169.986 255.446 183.95C255.446 192.629 254.177 200.262 252.468 207.005C249.505 195.616 245.739 183.716 237.225 182.623C228.712 181.53 219.269 167.752 219.269 163.108C219.269 163.108 235.868 140.708 235.868 138.249C235.868 135.79 241.622 137.774 246.113 140.333Z" stroke="#2E2E2E" stroke-width="1.74515" stroke-linejoin="round"/>
<path fill-rule="evenodd" clip-rule="evenodd" d="M245.843 189.063C245.326 193.226 244.836 199.597 244.836 208.797C244.836 217.363 245.109 223.771 245.546 228.55C244.309 232.402 243.463 235.789 243.463 238.778C243.463 238.814 243.464 238.846 243.464 238.881C240.115 230.962 237.357 218.783 237.357 207.006C237.357 189.128 237.226 182.623 237.226 182.623C240.863 183.09 243.632 185.533 245.843 189.063Z" stroke="#2E2E2E" stroke-width="1.74515" stroke-linejoin="round"/>
<path fill-rule="evenodd" clip-rule="evenodd" d="M224.078 172.957C227.597 177.596 232.55 182.023 237.226 182.623C237.259 182.628 237.292 182.636 237.326 182.641C237.287 186.691 237.226 193.848 237.226 199.168C237.226 207.005 230.417 220.885 230.417 225.598C230.417 230.31 231.035 231.13 230.417 232.563C229.798 233.998 228.22 241.237 227.739 244.037C227.609 244.794 227.383 245.392 227.123 245.867C226.412 242.699 223.087 235.114 223.087 212.491C223.087 206.138 222.19 197.259 221.437 188.427C222.882 183.773 224.453 177.462 224.078 172.957Z" stroke="#2E2E2E" stroke-width="1.74515" stroke-linejoin="round"/>
<path fill-rule="evenodd" clip-rule="evenodd" d="M235.567 241.783C235.567 236.661 237.833 231.949 238.862 235.022C239.892 238.095 242.365 241.989 243.824 244.535C244.64 249.92 246.572 250.278 246.745 260.007C246.736 260.504 246.738 260.988 246.758 261.452C246.758 261.763 246.748 262.078 246.739 262.393C246.315 268.698 239.766 281.48 237.358 280.517C234.823 279.505 233.713 276.203 234.125 269.852C234.537 263.501 235.567 246.905 235.567 241.783Z" stroke="#2E2E2E" stroke-width="1.74515" stroke-linejoin="round"/>
<path fill-rule="evenodd" clip-rule="evenodd" d="M227.259 246.837C227.259 246.566 227.21 246.247 227.125 245.866C227.384 245.39 227.609 244.793 227.74 244.037C228.22 241.237 229.799 233.998 230.417 232.563C231.034 231.129 231.542 227.767 232.824 230.29C234.111 232.824 235.557 235.715 236.179 237.125C236.18 237.127 236.18 237.129 236.181 237.129C235.815 238.464 235.567 240.098 235.567 241.783C235.567 246.905 234.537 263.501 234.125 269.852C234.125 269.852 231.779 278.936 229.382 278.457C228.749 278.331 227.897 278.2 226.986 278.076C226.985 278.019 226.984 277.979 226.984 277.979C226.984 277.979 224.1 269.938 224.1 264.183C224.1 258.43 227.259 249.369 227.259 246.837Z" stroke="#2E2E2E" stroke-width="1.74515" stroke-linejoin="round"/>
<path fill-rule="evenodd" clip-rule="evenodd" d="M250.777 60.5053C256.526 62.9205 263.7 71.1811 263.7 78.686C263.7 88.6601 262.89 87.7395 262.89 89.4655C262.89 90.424 263.141 92.3292 263.46 95.1236C259.666 90.9888 253.693 86.2765 247.926 83.6136C242.159 80.9507 244.298 75.7484 237.361 73.0225C241.097 67.4292 247.7 62.8439 250.777 60.5053Z" stroke="#2E2E2E" stroke-width="1.74515" stroke-linejoin="round"/>
<path fill-rule="evenodd" clip-rule="evenodd" d="M262.961 88.7066C262.975 88.6355 262.99 88.5634 263.009 88.4904C262.99 88.5643 262.975 88.6346 262.961 88.7066Z" stroke="#2E2E2E" stroke-width="1.74515" stroke-linejoin="round"/>
<path fill-rule="evenodd" clip-rule="evenodd" d="M262.89 89.4658C262.89 89.6153 262.898 89.7946 262.909 89.9892C262.898 89.7946 262.89 89.6153 262.89 89.4658Z" stroke="#2E2E2E" stroke-width="1.74515" stroke-linejoin="round"/>
<path fill-rule="evenodd" clip-rule="evenodd" d="M262.959 88.715C262.945 88.7852 262.933 88.8564 262.922 88.9303C262.933 88.8564 262.945 88.7852 262.959 88.715Z" stroke="#2E2E2E" stroke-width="1.74515" stroke-linejoin="round"/>
<path fill-rule="evenodd" clip-rule="evenodd" d="M262.898 89.1866C262.893 89.273 262.89 89.3649 262.89 89.4658C262.89 89.3649 262.893 89.273 262.898 89.1866Z" stroke="#2E2E2E" stroke-width="1.74515" stroke-linejoin="round"/>
<path fill-rule="evenodd" clip-rule="evenodd" d="M262.922 88.9411C262.912 89.0159 262.903 89.0933 262.899 89.178C262.903 89.0933 262.912 89.0159 262.922 88.9411Z" stroke="#2E2E2E" stroke-width="1.74515" stroke-linejoin="round"/>
<path fill-rule="evenodd" clip-rule="evenodd" d="M263.46 95.1233C264.028 100.093 264.817 107.909 264.817 118.443C264.817 118.739 264.985 119.25 265.273 119.921C263.04 122.975 260.231 126.024 257.813 126.024C255.691 126.024 253.376 124.416 251.487 122.758C251.469 122.686 251.454 122.612 251.427 122.541C248.956 115.575 249.076 107.684 247.977 107.684C247.782 107.684 247.535 108 247.261 108.569C246.951 103.185 247.422 92.5388 250.53 84.9474C255.438 87.6833 260.236 91.61 263.46 95.1233Z" stroke="#2E2E2E" stroke-width="1.74515" stroke-linejoin="round"/>
<path fill-rule="evenodd" clip-rule="evenodd" d="M263.458 95.1004C263.308 93.7942 263.175 92.6898 263.074 91.7791C263.175 92.6844 263.308 93.7996 263.458 95.1004Z" stroke="#2E2E2E" stroke-width="1.74515" stroke-linejoin="round"/>
<path fill-rule="evenodd" clip-rule="evenodd" d="M262.964 90.6957C262.947 90.5074 262.932 90.3318 262.922 90.1705C262.932 90.3327 262.947 90.5065 262.964 90.6957Z" stroke="#2E2E2E" stroke-width="1.74515" stroke-linejoin="round"/>
<path fill-rule="evenodd" clip-rule="evenodd" d="M262.979 90.8646C263.004 91.1232 263.033 91.4006 263.066 91.706C263.033 91.4024 263.004 91.1223 262.979 90.8646Z" stroke="#2E2E2E" stroke-width="1.74515" stroke-linejoin="round"/>
<path fill-rule="evenodd" clip-rule="evenodd" d="M262.551 144.669C263.427 147.492 265.162 153.209 266.777 158.548C268.071 162.894 269.143 166.529 269.143 166.529C269.143 166.529 262.856 156.572 260.079 152.659C257.303 148.746 252.341 134.007 251.839 128.483C254.311 131.352 260.654 138.555 262.551 144.669Z" stroke="#2E2E2E" stroke-width="1.74515" stroke-linejoin="round"/>
<path fill-rule="evenodd" clip-rule="evenodd" d="M233.301 82.589C234.346 77.9506 235.729 75.6778 237.361 73.0221C243.703 75.1616 242.159 80.9504 247.926 83.6132C248.792 84.0132 249.662 84.4645 250.53 84.9474C247.102 88.3255 244.413 90.7263 241.535 91.7793C238.657 92.8333 233.507 92.6054 230.727 91.2857C231.797 88.2354 232.7 85.2528 233.301 82.589Z" stroke="#2E2E2E" stroke-width="1.74515" stroke-linejoin="round"/>
<path fill-rule="evenodd" clip-rule="evenodd" d="M237.226 131.966C234.331 128.278 221.147 112.466 221.559 111.752C221.56 111.75 221.56 111.746 221.561 111.745C220.613 113.357 219.812 114.498 219.269 114.961C218.725 114.498 217.925 113.357 216.977 111.745C216.978 111.746 216.977 111.75 216.979 111.752C217.39 112.466 204.207 128.278 201.313 131.966C201.313 131.966 202.972 135.244 202.67 138.249C202.67 140.707 219.269 163.108 219.269 163.108C219.269 163.108 235.868 140.707 235.868 138.249C235.566 135.244 237.226 131.966 237.226 131.966Z" stroke="#2E2E2E" stroke-width="1.74515" stroke-linejoin="round"/>
<path fill-rule="evenodd" clip-rule="evenodd" d="M230.727 91.2855C233.508 92.6052 238.657 92.8331 241.535 91.7792C244.413 90.7261 247.102 88.3253 250.53 84.9472C247.421 92.5386 246.952 103.185 247.261 108.569C247.287 108.515 245.072 115.368 244.577 120.945C241.536 124.948 237.226 131.966 237.226 131.966C228.028 120.661 224.443 116.395 221.561 111.745C224.481 106.185 227.739 99.748 230.727 91.2855Z" stroke="#2E2E2E" stroke-width="1.74515" stroke-linejoin="round"/>
<path fill-rule="evenodd" clip-rule="evenodd" d="M224.078 172.957C224.093 172.976 224.108 172.995 224.122 173.013C224.218 173.138 224.316 173.262 224.413 173.386C224.581 173.6 224.749 173.815 224.923 174.027C225.027 174.156 225.134 174.284 225.241 174.412C225.429 174.638 225.622 174.862 225.816 175.085C225.905 175.186 225.991 175.287 226.08 175.387C226.672 176.049 227.289 176.691 227.925 177.304C227.977 177.354 228.03 177.404 228.083 177.454C228.366 177.722 228.651 177.983 228.94 178.238C228.989 178.281 229.039 178.324 229.087 178.367C229.774 178.964 230.476 179.521 231.191 180.021C230.475 185.334 228.902 191.74 227.327 193.636C226.072 195.147 224.225 187.787 223.224 181.651C223.875 178.592 224.288 175.49 224.078 172.957Z" stroke="#2E2E2E" stroke-width="1.74515" stroke-linejoin="round"/>
<path fill-rule="evenodd" clip-rule="evenodd" d="M204.104 24.1076C204.104 22.7978 202.219 22.4285 200.99 22.4285C199.76 22.4285 199.287 24.3094 200.232 28.7298C201.179 33.1502 204.945 34.4357 204.945 34.4357L204.104 24.1076Z" stroke="#2E2E2E" stroke-width="1.74515" stroke-linejoin="round"/>
<path fill-rule="evenodd" clip-rule="evenodd" d="M234.434 24.1076C234.434 22.7978 236.32 22.4285 237.549 22.4285C238.778 22.4285 239.251 24.3094 238.306 28.7298C237.36 33.1502 233.593 34.4357 233.593 34.4357L234.434 24.1076Z" stroke="#2E2E2E" stroke-width="1.74515" stroke-linejoin="round"/>
<path fill-rule="evenodd" clip-rule="evenodd" d="M241.793 58.2778L228.564 50.5243L229.171 44.7166C229.171 44.7166 226.21 35.5956 219.269 35.5956C212.328 35.5956 209.368 44.7166 209.368 44.7166L209.975 50.5243L196.746 58.2778C193.67 58.2778 190.594 59.1011 187.761 60.5047C194.32 65.5836 202.56 70.7057 205.238 82.5887C207.916 94.4717 216.616 112.706 219.269 114.96C221.923 112.706 230.623 94.4717 233.301 82.5887C235.979 70.7057 244.219 65.5836 250.778 60.5047C247.945 59.1011 244.869 58.2778 241.793 58.2778Z" stroke="#2E2E2E" stroke-width="1.74515" stroke-linejoin="round"/>
<path fill-rule="evenodd" clip-rule="evenodd" d="M209.367 44.7174C209.367 44.7174 212.329 35.5955 219.269 35.5955C226.21 35.5955 229.171 44.7174 229.171 44.7174C231.527 42.4131 233.127 40.2637 233.127 40.2637C233.127 40.2637 234.934 20.4876 234.934 15.6933C234.934 10.899 229.713 1.70959 219.269 1.70959C208.826 1.70959 203.604 10.899 203.604 15.6933C203.604 20.4876 205.411 40.2637 205.411 40.2637C205.411 40.2637 207.012 42.4131 209.367 44.7174Z" stroke="#2E2E2E" stroke-width="1.74515" stroke-linejoin="round"/>
<path fill-rule="evenodd" clip-rule="evenodd" d="M283.89 176.554C281.694 171.118 278.834 167.49 278.412 162.288C277.991 157.086 274.341 141.429 272.978 136.185C271.614 130.942 264.817 120.323 264.817 118.443C264.817 101.986 262.89 92.1281 262.89 89.4661C262.89 87.7392 263.7 88.6598 263.7 78.6858C263.7 71.5124 258.034 64.1012 250.777 60.505C250.761 60.4969 250.745 60.4906 250.729 60.4825C250.409 60.3249 250.087 60.1753 249.762 60.033C249.654 59.9862 249.544 59.9429 249.436 59.8979C249.199 59.7988 248.963 59.7015 248.724 59.6105C248.593 59.5601 248.46 59.515 248.328 59.4673C248.11 59.3889 247.891 59.3132 247.67 59.2412C247.528 59.1961 247.385 59.1529 247.243 59.1105C247.029 59.0466 246.815 58.9853 246.599 58.9277C246.453 58.8889 246.307 58.852 246.16 58.8169C245.944 58.7646 245.728 58.7169 245.511 58.6727C245.365 58.6421 245.219 58.6124 245.072 58.5854C244.85 58.5448 244.627 58.5106 244.403 58.4782C244.262 58.4574 244.122 58.434 243.981 58.4169C243.737 58.3872 243.492 58.3655 243.247 58.3457C243.127 58.3358 243.007 58.3214 242.888 58.3142C242.524 58.2917 242.159 58.2782 241.794 58.2782L228.563 50.5247L229.171 44.717C229.171 44.717 226.21 35.5951 219.269 35.5951C212.329 35.5951 209.367 44.717 209.367 44.717L209.976 50.5247L196.745 58.2782C196.38 58.2782 196.015 58.2917 195.651 58.3142C195.531 58.3214 195.411 58.3358 195.292 58.3457C195.046 58.3655 194.802 58.3872 194.557 58.4169C194.417 58.434 194.276 58.4574 194.135 58.4782C193.912 58.5106 193.689 58.5448 193.466 58.5854C193.32 58.6124 193.173 58.6421 193.027 58.6727C192.811 58.7169 192.595 58.7646 192.379 58.8169C192.232 58.852 192.086 58.8889 191.94 58.9277C191.724 58.9853 191.51 59.0466 191.296 59.1105C191.153 59.1529 191.011 59.1961 190.868 59.2412C190.648 59.3132 190.429 59.3889 190.21 59.4673C190.078 59.515 189.945 59.5601 189.814 59.6105C189.576 59.7015 189.34 59.7988 189.102 59.8979C188.994 59.9429 188.885 59.9862 188.777 60.033C188.452 60.1753 188.13 60.3249 187.81 60.4825C187.794 60.4906 187.777 60.4969 187.761 60.505H187.762C180.504 64.1012 174.838 71.5124 174.838 78.6858C174.838 88.6598 175.648 87.7392 175.648 89.4661C175.648 92.1281 173.722 101.986 173.722 118.443C173.722 120.323 166.924 130.942 165.561 136.185C164.198 141.429 160.548 157.086 160.126 162.288C159.705 167.49 156.845 171.118 154.649 176.554C151.762 183.696 160.898 187.602 161.557 187.867C162.411 188.21 163.367 188.2 163.656 187.535C164.844 184.8 158.572 181.171 159.697 179.19C160.837 177.181 162.784 174.926 164.377 175.565C165.97 176.205 165.206 181.236 166.8 181.876C168.394 182.515 169.076 182.09 169.565 180.889C170.053 179.687 169.825 170.296 167.408 169.325C168.623 167.671 169.395 166.529 169.395 166.529C169.395 166.529 175.683 156.571 178.459 152.659C181.236 148.746 186.198 134.007 186.699 128.482C188.126 126.411 186.49 124.291 187.111 122.541C189.583 115.575 189.463 107.684 190.562 107.684C191.604 107.684 194.161 116.741 194.161 125.257C194.161 131.702 192.426 129.055 192.426 140.333C192.426 143.67 186.795 146.74 186.795 160.089C186.795 163.542 183.093 169.987 183.093 183.95C183.093 210.65 195.075 227.5 195.075 238.778C195.075 250.862 191.779 247.412 191.779 261.451C191.779 275.492 201.392 293.875 201.392 303.657C201.392 323.326 189.033 312.809 189.033 318.819C189.033 320.124 192.467 321.961 192.467 321.961L201.771 325.596L207.984 326.195C210.742 326.195 213.34 325.239 213.34 320.458C213.34 318.924 213.203 315.06 213.203 313.219C213.203 311.378 211.142 306.073 211.142 300.243C211.142 294.412 211.554 277.979 211.554 277.979C211.554 277.979 214.438 269.938 214.438 264.184C214.438 258.429 211.28 249.368 211.28 246.837C211.28 244.305 215.452 237.822 215.452 212.491C215.452 201.558 218.112 183.144 218.112 170.37H219.269H220.426C220.426 183.144 223.087 201.558 223.087 212.491C223.087 237.822 227.259 244.305 227.259 246.837C227.259 249.368 224.1 258.429 224.1 264.184C224.1 269.938 226.984 277.979 226.984 277.979C226.984 277.979 227.396 294.412 227.396 300.243C227.396 306.073 225.336 311.378 225.336 313.219C225.336 315.06 225.199 318.924 225.199 320.458C225.199 325.239 227.796 326.195 230.554 326.195L236.768 325.596L246.072 321.961C246.072 321.961 249.506 320.124 249.506 318.819C249.506 312.809 237.146 323.326 237.146 303.657C237.146 293.875 246.759 275.492 246.759 261.451C246.759 247.412 243.463 250.862 243.463 238.778C243.463 227.5 255.446 210.65 255.446 183.95C255.446 169.987 251.743 163.542 251.743 160.089C251.743 146.74 246.113 143.67 246.113 140.333C246.113 129.055 244.377 131.702 244.377 125.257C244.377 116.741 246.935 107.684 247.977 107.684C249.076 107.684 248.956 115.575 251.427 122.541C252.049 124.291 250.413 126.411 251.839 128.482C252.341 134.007 257.303 148.746 260.079 152.659C262.856 156.571 269.143 166.529 269.143 166.529C269.143 166.529 269.915 167.671 271.131 169.325C268.713 170.296 268.486 179.687 268.974 180.889C269.462 182.09 270.145 182.515 271.738 181.876C273.332 181.236 272.568 176.205 274.161 175.565C275.755 174.926 277.702 177.181 278.842 179.19C279.967 181.171 273.695 184.8 274.883 187.535C275.172 188.2 276.128 188.21 276.981 187.867C277.641 187.602 286.776 183.696 283.89 176.554Z" stroke="#2E2E2E" stroke-width="1.74515" stroke-linejoin="round"/>
<defs>
<filter id="filter0_d" x="0.41333" y="63.2737" width="56.7839" height="74.8024" filterUnits="userSpaceOnUse" color-interpolation-filters="sRGB">
<feFlood flood-opacity="0" result="BackgroundImageFix"/>
<feColorMatrix in="SourceAlpha" type="matrix" values="0 0 0 0 0 0 0 0 0 0 0 0 0 0 0 0 0 0 127 0"/>
<feOffset/>
<feGaussianBlur stdDeviation="10"/>
<feColorMatrix type="matrix" values="0 0 0 0 1 0 0 0 0 0.925833 0 0 0 0 0.258333 0 0 0 1 0"/>
<feBlend mode="normal" in2="BackgroundImageFix" result="effect1_dropShadow"/>
<feBlend mode="normal" in="SourceGraphic" in2="effect1_dropShadow" result="shape"/>
</filter>
<filter id="filter1_d" x="77.8998" y="63.2737" width="56.7839" height="74.8024" filterUnits="userSpaceOnUse" color-interpolation-filters="sRGB">
<feFlood flood-opacity="0" result="BackgroundImageFix"/>
<feColorMatrix in="SourceAlpha" type="matrix" values="0 0 0 0 0 0 0 0 0 0 0 0 0 0 0 0 0 0 127 0"/>
<feOffset/>
<feGaussianBlur stdDeviation="10"/>
<feColorMatrix type="matrix" values="0 0 0 0 1 0 0 0 0 0.925833 0 0 0 0 0.258333 0 0 0 1 0"/>
<feBlend mode="normal" in2="BackgroundImageFix" result="effect1_dropShadow"/>
<feBlend mode="normal" in="SourceGraphic" in2="effect1_dropShadow" result="shape"/>
</filter>
</defs>
</svg>
