<svg width="281" height="349" viewBox="0 0 281 349" fill="none" xmlns="http://www.w3.org/2000/svg">
<path fill-rule="evenodd" clip-rule="evenodd" d="M122.349 187.073C121.548 185.007 120.141 178.525 119.738 173.142C118.664 158.794 117.732 137.385 116.761 133.325C115.428 127.742 112.586 121.972 112.586 119.969C112.586 102.449 108.965 98.0546 108.965 95.2201C108.965 93.3821 109.757 94.3622 109.757 83.7439C109.757 73.1255 99.0445 62.0166 88.3311 62.0166L77.9198 54.9916V44.8638H77.8238C75.2077 48.0223 70.5341 52.8275 66.3021 52.8275C62.0701 52.8275 57.3965 48.0223 54.7803 44.8638H54.6844V54.9916L44.2731 62.0166C33.5597 62.0166 22.8473 73.1255 22.8473 83.7439C22.8473 94.3622 23.6397 93.3821 23.6397 95.2201C23.6397 98.0546 20.0179 102.449 20.0179 119.969C20.0179 121.972 17.1752 127.742 15.8418 133.325C14.8726 137.385 13.9408 158.794 12.8668 173.142C12.4635 178.525 11.0572 185.007 10.2551 187.073C8.38245 191.898 17.4151 199.29 18.0191 199.552C18.7991 199.894 19.0647 198.198 19.3294 197.536C20.4159 194.813 16.3722 191.577 16.6324 189.687C16.946 187.415 17.3165 183.426 18.7733 184.062C20.2311 184.699 20.7241 188.316 22.181 188.953C23.6379 189.59 24.2633 189.167 24.7092 187.97C24.9704 187.269 23.3145 182.879 21.8283 178.758C20.7783 175.846 20.9578 173.757 20.9578 173.757C20.9578 173.757 32.5479 144.597 33.0374 138.716C34.6124 136.008 33.8804 134.651 34.0821 132.687C34.8896 124.803 34.8993 109.555 35.9742 109.555C36.9932 109.555 37.106 114.334 37.106 117.274C37.106 124.014 41.7458 124.258 41.7458 133.325C41.7458 140.186 40.0481 137.368 40.0481 149.376C40.0481 152.929 34.5405 156.196 34.5405 170.408C34.5405 174.085 30.9196 180.945 30.9196 195.812C30.9196 224.237 37.8984 238.082 37.8984 250.09C37.8984 262.955 35.7477 261.852 35.7477 276.8C35.7477 291.748 44.3486 310.861 44.3486 321.276C44.3486 344.188 37.3325 338.306 37.3325 343.575C37.3325 344.964 38.6899 345.862 38.6899 345.862L50.686 347.251H56.8715L58.7583 344.8C58.7583 344.8 57.098 341.697 57.098 340.063C57.098 338.43 57.9277 335.244 57.9277 333.283C57.9277 331.323 55.5896 324.461 55.5896 318.254C55.5896 312.046 55.4386 294.198 55.4386 294.198C55.4386 294.198 56.0045 288.317 56.0045 282.191C56.0045 276.065 52.4964 273.002 52.4964 270.307C52.4964 267.611 62.5675 248.007 62.5675 226.198C62.5675 214.558 65.1703 194.954 65.1703 181.354H66.3021H67.4338C67.4338 194.954 70.0367 214.558 70.0367 226.198C70.0367 248.007 80.1086 267.611 80.1086 270.307C80.1086 273.002 76.5997 276.065 76.5997 282.191C76.5997 288.317 77.1656 294.198 77.1656 294.198C77.1656 294.198 77.0154 312.046 77.0154 318.254C77.0154 324.461 74.6765 331.323 74.6765 333.283C74.6765 335.244 75.5062 338.43 75.5062 340.063C75.5062 341.697 73.8468 344.8 73.8468 344.8L75.7327 347.251H81.9191L93.9143 345.862C93.9143 345.862 95.2726 344.964 95.2726 343.575C95.2726 338.306 88.2565 344.188 88.2565 321.276C88.2565 310.861 96.8565 291.748 96.8565 276.8C96.8565 261.852 94.7058 262.955 94.7058 250.09C94.7058 238.082 101.685 224.237 101.685 195.812C101.685 180.945 98.0637 174.085 98.0637 170.408C98.0637 156.196 92.556 152.929 92.556 149.376C92.556 137.368 90.8584 140.186 90.8584 133.325C90.8584 124.258 95.4982 124.014 95.4982 117.274C95.4982 114.334 95.6119 109.555 96.63 109.555C97.7048 109.555 97.7146 124.803 98.5221 132.687C98.7238 134.651 97.9918 136.008 99.5668 138.716C100.057 144.597 111.647 173.757 111.647 173.757C111.647 173.757 111.826 175.846 110.777 178.758C109.291 182.879 107.634 187.269 107.895 187.97C108.341 189.167 108.966 189.59 110.423 188.953C111.881 188.316 112.374 184.699 113.831 184.062C115.288 183.426 115.659 187.415 115.972 189.687C116.233 191.577 112.188 194.813 113.275 197.536C113.539 198.198 113.806 199.894 114.586 199.552C115.188 199.29 124.222 191.898 122.349 187.073Z" fill="#202020"/>
<path fill-rule="evenodd" clip-rule="evenodd" d="M22.847 83.7443C22.847 94.3627 23.6394 93.3826 23.6394 95.2206C28.6185 94.1184 31.9 89.4622 37.8981 78.5573C43.8953 67.6533 48.9881 69.3682 48.9881 66.7953C48.9881 64.8342 45.4801 63.9773 44.2728 62.0171C33.5603 62.0171 22.847 73.125 22.847 83.7443Z" fill="#202020"/>
<path fill-rule="evenodd" clip-rule="evenodd" d="M61.5492 73.6565C60.8847 72.2349 51.3644 66.7949 48.9881 66.7949C48.9881 69.3678 43.8952 67.6529 37.8981 78.5569C35.671 82.6071 33.8179 85.7936 32.1132 88.2577H32.1141C34.8173 89.8716 33.937 91.1768 36.427 93.5054C38.9161 95.8329 47.1777 99.3859 52.2696 99.3859C57.3625 99.3859 64.4416 96.0782 64.4416 96.0782V87.746C64.4416 78.68 62.5814 75.8619 61.5492 73.6565Z" fill="#202020"/>
<path fill-rule="evenodd" clip-rule="evenodd" d="M54.2312 114.67V106.413C54.2312 103.553 55.2874 101.43 57.2489 101.43C59.2103 101.43 63.2088 99.6331 63.6618 99.6331C64.114 99.6331 65.0201 99.7966 65.0201 100.818V111.925C65.0201 113.538 63.247 113.64 60.7951 113.64C59.3614 113.64 56.3055 115.037 55.665 115.732C55.0236 116.426 54.2312 115.487 54.2312 114.67Z" fill="#202020"/>
<path fill-rule="evenodd" clip-rule="evenodd" d="M65.0197 119.184C65.0197 117.958 64.4921 116.978 63.1338 116.978H59.6631C58.3048 116.978 54.4574 119.51 54.4574 121.797V127.118C54.4574 128.179 54.9105 128.751 56.1177 128.751H61.3989C62.0776 128.751 65.0197 127.28 65.0197 125.238V119.184Z" fill="#202020"/>
<path fill-rule="evenodd" clip-rule="evenodd" d="M54.1371 139.88V133.805C54.1371 132.763 54.6461 131.292 56.1172 131.292H62.2281C63.1333 131.292 64.9446 132.518 64.9446 133.866V139.88C64.9446 140.799 64.5484 142.392 63.5864 142.392H57.2489C56.23 142.392 54.1371 141.35 54.1371 139.88Z" fill="#202020"/>
<path fill-rule="evenodd" clip-rule="evenodd" d="M63.2845 145.331H57.0227C55.8154 145.331 54.4572 146.393 54.4572 147.619C54.4572 148.844 60.0403 175.8 64.4163 175.8H64.9439C65.1714 169.436 64.9439 148.707 64.9439 147.619C64.9439 146.312 64.7174 145.331 63.2845 145.331Z" fill="#202020"/>
<path fill-rule="evenodd" clip-rule="evenodd" d="M78.3729 114.67V106.413C78.3729 103.553 77.3167 101.43 75.3552 101.43C73.3938 101.43 69.3954 99.6331 68.9423 99.6331C68.4902 99.6331 67.585 99.7966 67.585 100.818V111.925C67.585 113.538 69.3581 113.64 71.8099 113.64C73.2428 113.64 76.2986 115.037 76.94 115.732C77.5805 116.426 78.3729 115.487 78.3729 114.67Z" fill="#202020"/>
<path fill-rule="evenodd" clip-rule="evenodd" d="M67.585 119.184C67.585 117.958 68.1126 116.978 69.4709 116.978H72.9407C74.299 116.978 78.1473 119.51 78.1473 121.797V127.118C78.1473 128.179 77.6942 128.751 76.487 128.751H71.2058C70.5271 128.751 67.585 127.28 67.585 125.238V119.184Z" fill="#202020"/>
<path fill-rule="evenodd" clip-rule="evenodd" d="M78.4675 139.88V133.805C78.4675 132.763 77.9585 131.292 76.4874 131.292H70.3765C69.4713 131.292 67.66 132.518 67.66 133.866V139.88C67.66 140.799 68.0562 142.392 69.0182 142.392H75.3557C76.3737 142.392 78.4675 141.35 78.4675 139.88Z" fill="#202020"/>
<path fill-rule="evenodd" clip-rule="evenodd" d="M69.32 145.331H75.5819C76.7891 145.331 78.1474 146.393 78.1474 147.619C78.1474 148.844 72.5642 175.8 68.1883 175.8H67.6606C67.4332 169.436 67.6606 148.707 67.6606 147.619C67.6606 146.312 67.8862 145.331 69.32 145.331Z" fill="#202020"/>
<path fill-rule="evenodd" clip-rule="evenodd" d="M34.0818 85.2114C33.8437 85.599 33.611 85.9751 33.38 86.3387C33.611 85.9751 33.8437 85.6 34.0818 85.2114Z" fill="#202020"/>
<g filter="url(#filter0_d)">
<path fill-rule="evenodd" clip-rule="evenodd" d="M32.1139 88.258C32.2667 88.0368 32.4231 87.8011 32.5785 87.5684C29.4898 92.1956 26.9358 94.4905 23.6392 95.2205C23.6392 98.0549 20.0183 102.449 20.0183 119.971C20.0183 123.524 27.8517 128.094 31.4477 119.971C33.7804 114.701 34.6572 112.505 35.2027 111.211C35.4798 110.171 35.7428 109.556 35.9746 109.556C36.7661 108.086 36.4268 93.5056 36.4268 93.5056C33.9377 91.1771 34.8171 89.8719 32.1139 88.258Z" fill="#FFEC42"/>
</g>
<path fill-rule="evenodd" clip-rule="evenodd" d="M32.7115 87.3717C32.9265 87.0476 33.1433 86.711 33.3636 86.3638C33.1433 86.711 32.9265 87.0476 32.7115 87.3717Z" fill="#202020"/>
<path fill-rule="evenodd" clip-rule="evenodd" d="M66.3023 1.00012C56.0589 1.00012 50.9376 10.8106 50.9376 15.9293C50.9376 21.048 52.7099 42.1635 52.7099 42.1635C52.7099 42.1635 59.9987 52.8271 66.3023 52.8271C72.606 52.8271 79.8948 42.1635 79.8948 42.1635C79.8948 42.1635 81.667 21.048 81.667 15.9293C81.667 10.8106 76.5458 1.00012 66.3023 1.00012Z" fill="#202020"/>
<path fill-rule="evenodd" clip-rule="evenodd" d="M81.1646 154.889C81.1646 145.822 83.3526 146.557 83.3526 141.738C83.3526 131.691 81.1646 123.115 81.1646 118.622C81.1646 114.13 81.5413 99.3863 81.5413 99.3863L81.3636 99.342C81.0091 99.3709 80.6654 99.3863 80.334 99.3863C75.242 99.3863 68.1629 96.0786 68.1629 96.0786H66.3027H64.4416C64.4416 96.0786 57.3624 99.3863 52.2696 99.3863C51.94 99.3863 51.5953 99.3709 51.2409 99.342L51.0623 99.3863C51.0623 99.3863 51.4399 114.13 51.4399 118.622C51.4399 123.115 49.2519 131.691 49.2519 141.738C49.2519 146.557 51.4399 145.822 51.4399 154.889C51.4399 158.075 49.1764 160.321 46.2342 160.321C46.2342 167.632 62.0777 181.354 66.3027 181.354C70.5267 181.354 86.3703 167.632 86.3703 160.321C83.4272 160.321 81.1646 158.075 81.1646 154.889Z" fill="#202020"/>
<path fill-rule="evenodd" clip-rule="evenodd" d="M86.3701 160.321C88.3316 154.808 92.5565 149.376 92.5565 149.376L86.3701 160.321Z" fill="#202020"/>
<path fill-rule="evenodd" clip-rule="evenodd" d="M37.8534 248.411C37.8534 249.398 38.3882 249.968 38.8412 249.968C39.2943 249.968 40.3434 244.403 40.3434 240.697C40.1613 240.702 40.0485 240.194 40.0485 238.766C40.0485 233.691 35.6343 224.401 35.6343 206.594C35.6343 188.787 40.6516 169.347 41.7479 161.652L41.5116 158.064C41.4094 156.029 41.2957 151.103 41.2957 151.103L40.0485 149.271C40.0485 149.307 40.0485 149.34 40.0485 149.376C40.0485 152.929 34.5407 156.196 34.5407 170.409C34.5407 174.085 30.9199 180.945 30.9199 195.812C30.9199 196.684 30.927 197.541 30.9394 198.387C30.943 198.618 30.9501 198.841 30.9545 199.07C30.9661 199.677 30.9776 200.283 30.9954 200.876C31.0043 201.161 31.0167 201.437 31.0265 201.718C31.0451 202.245 31.0629 202.773 31.0869 203.289C31.1002 203.586 31.1171 203.876 31.1313 204.169C31.1562 204.659 31.181 205.149 31.2095 205.629C31.2272 205.924 31.2477 206.212 31.2663 206.503C31.2974 206.973 31.3285 207.442 31.3623 207.902C31.3836 208.184 31.4076 208.46 31.4298 208.739C31.4662 209.199 31.5035 209.658 31.5435 210.108C31.5675 210.374 31.5932 210.635 31.6172 210.897C31.6607 211.352 31.7043 211.805 31.7505 212.251C31.7762 212.498 31.802 212.74 31.8286 212.982C31.8775 213.436 31.9281 213.888 31.9805 214.333C32.0063 214.557 32.0338 214.778 32.0605 215C32.1165 215.458 32.1733 215.912 32.2328 216.36C32.2586 216.557 32.2844 216.753 32.311 216.949C32.3741 217.415 32.438 217.879 32.5047 218.336C32.5286 218.503 32.5526 218.668 32.5775 218.834C32.6486 219.318 32.7214 219.798 32.7952 220.27C32.8156 220.399 32.836 220.527 32.8564 220.655C32.9373 221.166 33.0208 221.672 33.1043 222.17C33.1176 222.251 33.1318 222.334 33.146 222.415C33.2402 222.972 33.337 223.521 33.4339 224.061C33.4365 224.077 33.4392 224.093 33.4428 224.108C35.2843 234.327 37.5131 241.73 37.8498 248.408L37.8534 248.411Z" fill="#202020"/>
<path fill-rule="evenodd" clip-rule="evenodd" d="M66.3023 52.8274C65.079 52.8274 63.8193 52.4234 62.5828 51.7751H62.581C62.581 56.462 63.4356 70.0216 66.3023 70.0216C69.1689 70.0216 70.0235 56.462 70.0235 51.7751H70.0218C68.7852 52.4234 67.5255 52.8274 66.3023 52.8274Z" fill="#202020"/>
<path fill-rule="evenodd" clip-rule="evenodd" d="M41.7481 161.652C40.6519 169.346 35.6345 188.787 35.6345 206.594C35.6345 224.4 40.0487 233.69 40.0487 238.766C40.0487 243.841 41.4816 237.307 42.3122 237.307C43.141 237.307 46.1711 243.535 46.1711 247.394C46.1711 247.575 46.1862 247.677 46.2155 247.709C46.2049 247.514 46.2155 247.29 46.2093 247.088C46.1933 246.568 46.1764 246.048 46.1933 245.484C46.1986 245.286 46.2164 245.072 46.2244 244.87C46.2528 244.238 46.2839 243.601 46.3417 242.933C46.3523 242.809 46.3683 242.681 46.3799 242.556C46.7592 238.44 47.58 233.873 48.0624 230.281C48.0775 230.178 48.0952 230.061 48.1086 229.96C48.2081 229.197 48.2907 228.482 48.3466 227.831C48.7988 222.607 51.6646 211.831 53.0548 205.457C53.0548 205.457 53.0575 205.401 53.0619 205.317C53.0682 205.209 53.0797 204.977 53.0966 204.655C53.0993 204.606 53.1019 204.534 53.1046 204.481C53.1188 204.186 53.1348 203.848 53.1543 203.421C53.1543 203.411 53.1543 203.397 53.1552 203.388C53.1765 202.91 53.1987 202.364 53.2227 201.745C53.2227 201.721 53.2236 201.69 53.2245 201.666C53.2947 199.792 53.3666 197.348 53.3986 194.592C53.4022 194.378 53.4013 194.148 53.4031 193.93C53.4102 193.203 53.4164 192.475 53.4164 191.717C53.4173 190.731 53.3977 188.64 53.3977 188.607C53.3977 183.97 48.4755 169.079 46.5602 162.608C46.18 161.323 46.3594 160.843 46.2342 160.321C45.4818 157.173 41.295 151.103 41.295 151.103L41.7481 161.652Z" fill="#202020"/>
<path fill-rule="evenodd" clip-rule="evenodd" d="M53.3976 188.609C53.3976 188.642 53.3976 188.673 53.3976 188.706C53.4118 189.725 53.4171 190.732 53.4162 191.716C53.4162 192.475 53.41 193.203 53.4029 193.93C53.4011 194.147 53.402 194.378 53.3985 194.591C53.3665 197.348 53.2945 199.793 53.2253 201.666C53.2235 201.69 53.2226 201.72 53.2226 201.745C53.1986 202.364 53.1764 202.91 53.156 203.387C53.1551 203.398 53.1551 203.411 53.1542 203.422C53.1355 203.848 53.1186 204.186 53.1044 204.481C53.1018 204.535 53.1 204.606 53.0964 204.656C53.0805 204.977 53.068 205.209 53.0618 205.317C53.0574 205.401 53.0547 205.457 53.0547 205.457C51.6644 211.832 48.7996 222.606 48.3465 227.831C48.2905 228.483 48.2079 229.197 48.1084 229.96C48.1084 229.962 48.1075 229.964 48.1075 229.966C47.977 230.964 47.8135 232.061 47.6412 233.193C47.4955 234.151 47.3436 235.144 47.1934 236.153C47.189 236.182 47.1846 236.212 47.1801 236.241C47.0264 237.274 46.8763 238.323 46.7413 239.365C46.7377 239.385 46.736 239.405 46.7333 239.424C46.5956 240.481 46.4748 241.532 46.3806 242.556C46.3771 242.598 46.3717 242.639 46.3673 242.682C46.3593 242.767 46.3478 242.857 46.3406 242.942C46.2856 243.594 46.2545 244.216 46.2269 244.834C46.2225 244.93 46.2163 245.029 46.2118 245.123C46.2047 245.245 46.1967 245.367 46.1932 245.484C46.1772 246.047 46.1932 246.567 46.2101 247.089V247.114C46.2198 247.436 46.211 247.785 46.2349 248.089C46.6871 253.806 50.459 253.48 50.459 253.48C52.9676 253.48 57.8801 251.792 59.4676 248.686C59.6417 248.01 59.8114 247.321 59.9775 246.624C61.4583 240.413 62.5679 233.429 62.5679 226.198C62.5679 224.931 62.6007 223.564 62.6549 222.126C62.6549 211.957 58.0116 199.574 53.3976 188.609Z" fill="#202020"/>
<path fill-rule="evenodd" clip-rule="evenodd" d="M94.7513 248.411C94.7513 249.398 94.2156 249.968 93.7634 249.968C93.3104 249.968 92.2613 244.403 92.2613 240.697C92.4425 240.702 92.5562 240.194 92.5562 238.766C92.5562 233.691 96.9703 224.401 96.9703 206.594C96.9703 188.787 91.953 169.347 90.8568 161.652L91.0931 158.064C91.1953 156.029 91.309 151.103 91.309 151.103L92.5562 149.271C92.5562 149.307 92.5562 149.34 92.5562 149.376C92.5562 152.929 98.0639 156.196 98.0639 170.409C98.0639 174.085 101.685 180.945 101.685 195.812C101.685 196.684 101.678 197.541 101.665 198.387C101.662 198.618 101.655 198.841 101.65 199.07C101.639 199.677 101.626 200.283 101.608 200.876C101.6 201.161 101.588 201.437 101.578 201.718C101.559 202.245 101.542 202.773 101.518 203.289C101.504 203.586 101.488 203.876 101.472 204.169C101.448 204.659 101.424 205.149 101.395 205.629C101.377 205.924 101.357 206.212 101.337 206.503C101.307 206.973 101.276 207.442 101.241 207.902C101.221 208.184 101.197 208.46 101.175 208.739C101.138 209.199 101.101 209.658 101.061 210.108C101.037 210.374 101.011 210.635 100.987 210.897C100.944 211.352 100.9 211.805 100.854 212.251C100.828 212.498 100.803 212.74 100.776 212.982C100.726 213.436 100.676 213.888 100.624 214.333C100.598 214.557 100.571 214.778 100.544 215C100.488 215.458 100.431 215.912 100.372 216.36C100.346 216.557 100.32 216.753 100.294 216.949C100.231 217.415 100.166 217.879 100.1 218.336C100.076 218.503 100.052 218.668 100.027 218.834C99.956 219.318 99.8832 219.798 99.8086 220.27C99.789 220.399 99.7686 220.527 99.7482 220.655C99.6673 221.166 99.5838 221.672 99.5003 222.17C99.4861 222.251 99.4728 222.334 99.4586 222.415C99.3635 222.972 99.2676 223.521 99.1707 224.061C99.1681 224.077 99.1654 224.093 99.1619 224.108C97.3203 234.327 95.0915 241.73 94.7548 248.408L94.7513 248.411Z" fill="#202020"/>
<path fill-rule="evenodd" clip-rule="evenodd" d="M90.8565 161.652C91.9527 169.346 96.97 188.787 96.97 206.594C96.97 224.4 92.5559 233.69 92.5559 238.766C92.5559 243.841 91.123 237.307 90.2924 237.307C89.4627 237.307 86.4334 243.535 86.4334 247.394C86.4334 247.575 86.4174 247.677 86.389 247.709C86.3997 247.514 86.389 247.29 86.3952 247.088C86.4112 246.568 86.4281 246.048 86.4112 245.484C86.4059 245.286 86.3881 245.072 86.3792 244.87C86.3517 244.238 86.3197 243.601 86.2629 242.933C86.2513 242.809 86.2362 242.681 86.2238 242.556C85.8454 238.44 85.0245 233.873 84.5422 230.281C84.5271 230.178 84.5093 230.061 84.496 229.96C84.3965 229.197 84.3139 228.482 84.2579 227.831C83.8048 222.607 80.9399 211.831 79.5497 205.457C79.5497 205.457 79.547 205.401 79.5426 205.317C79.5364 205.209 79.5248 204.977 79.5079 204.655C79.5053 204.606 79.5017 204.534 79.4999 204.481C79.4857 204.186 79.4689 203.848 79.4502 203.421C79.4493 203.411 79.4493 203.397 79.4493 203.388C79.428 202.91 79.4058 202.364 79.3818 201.745C79.3818 201.721 79.3809 201.69 79.3791 201.666C79.3098 199.792 79.2379 197.348 79.2059 194.592C79.2024 194.378 79.2032 194.148 79.2006 193.93C79.1944 193.203 79.1873 192.475 79.1873 191.717C79.1873 190.731 79.2068 188.64 79.2068 188.607C79.2068 183.97 84.1291 169.079 86.0443 162.608C86.4245 161.323 86.2451 160.843 86.3704 160.321C87.1228 157.173 91.3095 151.103 91.3095 151.103L90.8565 161.652Z" fill="#202020"/>
<path fill-rule="evenodd" clip-rule="evenodd" d="M79.2071 188.609C79.2071 188.642 79.2062 188.673 79.2062 188.706C79.1929 189.725 79.1875 190.732 79.1875 191.716C79.1875 192.475 79.1946 193.203 79.2009 193.93C79.2035 194.147 79.2026 194.378 79.2062 194.591C79.2382 197.348 79.3101 199.793 79.3794 201.666C79.3812 201.69 79.3812 201.72 79.3821 201.745C79.4061 202.364 79.4283 202.91 79.4487 203.387C79.4496 203.398 79.4496 203.411 79.4505 203.422C79.4691 203.848 79.4851 204.186 79.5002 204.481C79.502 204.535 79.5047 204.606 79.5082 204.656C79.5242 204.977 79.5366 205.209 79.542 205.317C79.5473 205.401 79.55 205.457 79.55 205.457C80.9402 211.832 83.8051 222.606 84.2582 227.831C84.3141 228.483 84.3967 229.197 84.4962 229.96C84.4962 229.962 84.4971 229.964 84.4971 229.966C84.6277 230.964 84.7912 232.061 84.9635 233.193C85.1083 234.151 85.2611 235.144 85.4112 236.153C85.4157 236.182 85.4201 236.212 85.4245 236.241C85.5782 237.274 85.7284 238.323 85.8634 239.365C85.866 239.385 85.8687 239.405 85.8714 239.424C86.0082 240.481 86.1299 241.532 86.2241 242.556C86.2276 242.598 86.232 242.639 86.2374 242.682C86.2454 242.767 86.2569 242.857 86.264 242.942C86.3191 243.594 86.3502 244.216 86.3777 244.834C86.3822 244.93 86.3884 245.029 86.3928 245.123C86.3999 245.245 86.4079 245.367 86.4115 245.484C86.4275 246.047 86.4115 246.567 86.3946 247.089V247.114C86.3848 247.436 86.3937 247.785 86.3697 248.089C85.9176 253.806 82.1448 253.48 82.1448 253.48C79.637 253.48 74.7236 251.792 73.1371 248.686C72.9629 248.01 72.7933 247.321 72.6263 246.624C71.1463 240.413 70.0368 233.429 70.0368 226.198C70.0368 224.931 70.0039 223.564 69.9497 222.126C69.9497 211.957 74.593 199.574 79.2071 188.609Z" fill="#202020"/>
<path fill-rule="evenodd" clip-rule="evenodd" d="M55.7728 321.395C55.7754 321.402 55.779 321.409 55.7817 321.416C55.6715 320.36 55.5889 319.299 55.5889 318.253C55.5889 312.046 55.4388 294.199 55.4388 294.199C55.4388 294.199 56.0046 288.317 56.0046 282.19C56.0046 276.065 52.4966 273.001 52.4966 270.306C50.5849 276.019 46.0099 297.872 55.7728 321.395Z" fill="#202020"/>
<path fill-rule="evenodd" clip-rule="evenodd" d="M35.7479 276.8C35.7479 289.703 42.1466 305.699 43.8993 316.536C43.8993 316.53 43.9002 316.525 43.9011 316.52C46.5163 286.879 39.6619 278.512 35.9851 269.396C35.8412 271.369 35.7479 273.736 35.7479 276.8Z" fill="#202020"/>
<path fill-rule="evenodd" clip-rule="evenodd" d="M76.8317 321.395C76.829 321.402 76.8255 321.409 76.8219 321.416C76.933 320.36 77.0156 319.299 77.0156 318.253C77.0156 312.046 77.1657 294.199 77.1657 294.199C77.1657 294.199 76.5999 288.317 76.5999 282.19C76.5999 276.065 80.1079 273.001 80.1079 270.306C82.0188 276.019 86.5946 297.872 76.8317 321.395Z" fill="#202020"/>
<path fill-rule="evenodd" clip-rule="evenodd" d="M96.8562 276.8C96.8562 289.703 90.4584 305.699 88.7057 316.536C88.7048 316.53 88.7039 316.525 88.703 316.52C86.0877 286.879 92.9431 278.512 96.6199 269.396C96.7638 271.369 96.8562 273.736 96.8562 276.8Z" fill="#202020"/>
<path fill-rule="evenodd" clip-rule="evenodd" d="M20.0181 119.97C20.0181 119.094 20.034 118.276 20.0508 117.464C20.0313 118.267 20.0181 119.094 20.0181 119.97Z" fill="#202020"/>
<path fill-rule="evenodd" clip-rule="evenodd" d="M23.879 138.716C24.6456 133.677 25.4122 131.857 23.879 128.751C22.3457 125.645 21.3232 129.92 17.2013 128.751C16.695 130.237 16.2108 131.784 15.8421 133.325C15.0036 136.837 15.2718 153.52 14.6651 167.248H14.666C14.666 167.248 18.0008 160.081 18.2567 152.886C18.5116 145.692 23.1123 143.755 23.879 138.716Z" fill="#202020"/>
<path fill-rule="evenodd" clip-rule="evenodd" d="M24.7642 147.422C22.6011 154.546 20.9577 173.757 20.9577 173.757C20.9577 173.757 32.5479 144.597 33.0374 138.716C33.0374 138.716 26.9273 140.298 24.7642 147.422Z" fill="#202020"/>
<path fill-rule="evenodd" clip-rule="evenodd" d="M109.757 83.7443C109.757 94.3627 108.965 93.3826 108.965 95.2206C103.986 94.1184 100.704 89.4622 94.707 78.5573C88.7089 67.6533 83.6161 69.3682 83.6161 66.7953C83.6161 64.8342 87.1241 63.9773 88.3314 62.0171C99.0439 62.0171 109.757 73.125 109.757 83.7443Z" fill="#202020"/>
<path fill-rule="evenodd" clip-rule="evenodd" d="M71.055 73.6565C71.7204 72.2349 81.2398 66.7949 83.6161 66.7949C83.6161 69.3678 88.709 67.6529 94.707 78.5569C96.9341 82.6071 98.7863 85.7936 100.491 88.2577C97.7878 89.8716 98.6673 91.1768 96.1773 93.5054C93.6881 95.8329 85.4275 99.3859 80.3346 99.3859C75.2418 99.3859 68.1626 96.0782 68.1626 96.0782V87.746C68.1626 78.68 70.0237 75.8619 71.055 73.6565Z" fill="#202020"/>
<path fill-rule="evenodd" clip-rule="evenodd" d="M98.5223 85.2114C98.7604 85.599 98.994 85.9751 99.2241 86.3387C98.994 85.9751 98.7604 85.6 98.5223 85.2114Z" fill="#202020"/>
<g filter="url(#filter1_d)">
<path fill-rule="evenodd" clip-rule="evenodd" d="M100.491 88.258C100.338 88.0368 100.182 87.8011 100.025 87.5684C103.115 92.1956 105.669 94.4905 108.966 95.2205C108.966 98.0549 112.587 102.449 112.587 119.971C112.587 123.524 104.753 128.094 101.157 119.971C98.8244 114.701 97.9467 112.505 97.4022 111.211C97.1241 110.171 96.8621 109.556 96.6302 109.556C95.8387 108.086 96.178 93.5056 96.178 93.5056C98.6672 91.1771 97.7877 89.8719 100.491 88.258Z" fill="#FFEC42"/>
</g>
<path fill-rule="evenodd" clip-rule="evenodd" d="M99.8931 87.3717C99.6781 87.0476 99.4604 86.711 99.2401 86.3638C99.4613 86.711 99.6781 87.0476 99.8931 87.3717Z" fill="#202020"/>
<path fill-rule="evenodd" clip-rule="evenodd" d="M108.726 138.716C107.959 133.677 107.193 131.857 108.726 128.751C110.259 125.645 111.282 129.92 115.403 128.751C115.91 130.237 116.394 131.784 116.762 133.325C117.601 136.837 117.333 153.52 117.94 167.248H117.939C117.939 167.248 114.604 160.081 114.348 152.886C114.092 145.692 109.492 143.755 108.726 138.716Z" fill="#202020"/>
<path fill-rule="evenodd" clip-rule="evenodd" d="M107.84 147.422C110.004 154.546 111.647 173.757 111.647 173.757C111.647 173.757 100.057 144.597 99.5674 138.716C99.5674 138.716 105.677 140.298 107.84 147.422Z" fill="#202020"/>
<path fill-rule="evenodd" clip-rule="evenodd" d="M51.3719 24.9134C51.3719 23.5149 49.5215 23.1206 48.3169 23.1206C47.1105 23.1206 46.6468 25.1289 47.5743 29.8485C48.5017 34.569 52.1963 35.9415 52.1963 35.9415L51.3719 24.9134Z" fill="#202020"/>
<path fill-rule="evenodd" clip-rule="evenodd" d="M81.2327 24.9134C81.2327 23.5149 83.0822 23.1206 84.2877 23.1206C85.494 23.1206 85.9577 25.1289 85.0303 29.8485C84.102 34.569 80.4083 35.9415 80.4083 35.9415L81.2327 24.9134Z" fill="#202020"/>
<path fill-rule="evenodd" clip-rule="evenodd" d="M22.847 83.7443C22.847 94.3627 23.6394 93.3826 23.6394 95.2206C28.6185 94.1184 31.9 89.4622 37.8981 78.5573C43.8953 67.6533 48.9881 69.3682 48.9881 66.7953C48.9881 64.8342 45.4801 63.9773 44.2728 62.0171C33.5603 62.0171 22.847 73.125 22.847 83.7443Z" stroke="#2E2E2E" stroke-width="1.742" stroke-linejoin="round"/>
<path fill-rule="evenodd" clip-rule="evenodd" d="M61.5492 73.6565C60.8847 72.2349 51.3644 66.7949 48.9881 66.7949C48.9881 69.3678 43.8952 67.6529 37.8981 78.5569C35.671 82.6071 33.8179 85.7936 32.1132 88.2577H32.1141C34.8173 89.8716 33.937 91.1768 36.427 93.5054C38.9161 95.8329 47.1777 99.3859 52.2696 99.3859C57.3625 99.3859 64.4416 96.0782 64.4416 96.0782V87.746C64.4416 78.68 62.5814 75.8619 61.5492 73.6565Z" stroke="#2E2E2E" stroke-width="1.742" stroke-linejoin="round"/>
<path fill-rule="evenodd" clip-rule="evenodd" d="M54.2312 114.67V106.413C54.2312 103.553 55.2874 101.43 57.2489 101.43C59.2103 101.43 63.2088 99.6331 63.6618 99.6331C64.114 99.6331 65.0201 99.7966 65.0201 100.818V111.925C65.0201 113.538 63.247 113.64 60.7951 113.64C59.3614 113.64 56.3055 115.037 55.665 115.732C55.0236 116.426 54.2312 115.487 54.2312 114.67Z" stroke="#2E2E2E" stroke-width="1.742" stroke-linejoin="round"/>
<path fill-rule="evenodd" clip-rule="evenodd" d="M65.0197 119.184C65.0197 117.958 64.4921 116.978 63.1338 116.978H59.6631C58.3048 116.978 54.4574 119.51 54.4574 121.797V127.118C54.4574 128.179 54.9105 128.751 56.1177 128.751H61.3989C62.0776 128.751 65.0197 127.28 65.0197 125.238V119.184Z" stroke="#2E2E2E" stroke-width="1.742" stroke-linejoin="round"/>
<path fill-rule="evenodd" clip-rule="evenodd" d="M54.1371 139.88V133.805C54.1371 132.763 54.6461 131.292 56.1172 131.292H62.2281C63.1333 131.292 64.9446 132.518 64.9446 133.866V139.88C64.9446 140.799 64.5484 142.392 63.5864 142.392H57.2489C56.23 142.392 54.1371 141.35 54.1371 139.88Z" stroke="#2E2E2E" stroke-width="1.742" stroke-linejoin="round"/>
<path fill-rule="evenodd" clip-rule="evenodd" d="M63.2845 145.331H57.0227C55.8154 145.331 54.4572 146.393 54.4572 147.619C54.4572 148.844 60.0403 175.8 64.4163 175.8H64.9439C65.1714 169.436 64.9439 148.707 64.9439 147.619C64.9439 146.312 64.7174 145.331 63.2845 145.331Z" stroke="#2E2E2E" stroke-width="1.742" stroke-linejoin="round"/>
<path fill-rule="evenodd" clip-rule="evenodd" d="M78.3729 114.67V106.413C78.3729 103.553 77.3167 101.43 75.3552 101.43C73.3938 101.43 69.3954 99.6331 68.9423 99.6331C68.4902 99.6331 67.585 99.7966 67.585 100.818V111.925C67.585 113.538 69.3581 113.64 71.8099 113.64C73.2428 113.64 76.2986 115.037 76.94 115.732C77.5805 116.426 78.3729 115.487 78.3729 114.67Z" stroke="#2E2E2E" stroke-width="1.742" stroke-linejoin="round"/>
<path fill-rule="evenodd" clip-rule="evenodd" d="M67.585 119.184C67.585 117.958 68.1126 116.978 69.4709 116.978H72.9407C74.299 116.978 78.1473 119.51 78.1473 121.797V127.118C78.1473 128.179 77.6942 128.751 76.487 128.751H71.2058C70.5271 128.751 67.585 127.28 67.585 125.238V119.184Z" stroke="#2E2E2E" stroke-width="1.742" stroke-linejoin="round"/>
<path fill-rule="evenodd" clip-rule="evenodd" d="M78.4675 139.88V133.805C78.4675 132.763 77.9585 131.292 76.4874 131.292H70.3765C69.4713 131.292 67.66 132.518 67.66 133.866V139.88C67.66 140.799 68.0562 142.392 69.0182 142.392H75.3557C76.3737 142.392 78.4675 141.35 78.4675 139.88Z" stroke="#2E2E2E" stroke-width="1.742" stroke-linejoin="round"/>
<path fill-rule="evenodd" clip-rule="evenodd" d="M69.32 145.331H75.5819C76.7891 145.331 78.1474 146.393 78.1474 147.619C78.1474 148.844 72.5642 175.8 68.1883 175.8H67.6606C67.4332 169.436 67.6606 148.707 67.6606 147.619C67.6606 146.312 67.8862 145.331 69.32 145.331Z" stroke="#2E2E2E" stroke-width="1.742" stroke-linejoin="round"/>
<path fill-rule="evenodd" clip-rule="evenodd" d="M34.0818 85.2114C33.8437 85.599 33.611 85.9751 33.38 86.3387C33.611 85.9751 33.8437 85.6 34.0818 85.2114Z" stroke="#2E2E2E" stroke-width="1.742" stroke-linejoin="round"/>
<path fill-rule="evenodd" clip-rule="evenodd" d="M32.1139 88.258C32.2667 88.0368 32.4231 87.8011 32.5785 87.5684C29.4898 92.1956 26.9358 94.4905 23.6392 95.2205C23.6392 98.0549 20.0183 102.449 20.0183 119.971C20.0183 123.524 27.8517 128.094 31.4477 119.971C33.7804 114.701 34.6572 112.505 35.2027 111.211C35.4798 110.171 35.7428 109.556 35.9746 109.556C36.7661 108.086 36.4268 93.5056 36.4268 93.5056C33.9377 91.1771 34.8171 89.8719 32.1139 88.258Z" stroke="#2E2E2E" stroke-width="1.742" stroke-linejoin="round"/>
<path fill-rule="evenodd" clip-rule="evenodd" d="M32.7115 87.3717C32.9265 87.0476 33.1433 86.711 33.3636 86.3638C33.1433 86.711 32.9265 87.0476 32.7115 87.3717Z" stroke="#2E2E2E" stroke-width="1.742" stroke-linejoin="round"/>
<path fill-rule="evenodd" clip-rule="evenodd" d="M66.3023 1.00012C56.0589 1.00012 50.9376 10.8106 50.9376 15.9293C50.9376 21.048 52.7099 42.1635 52.7099 42.1635C52.7099 42.1635 59.9987 52.8271 66.3023 52.8271C72.606 52.8271 79.8948 42.1635 79.8948 42.1635C79.8948 42.1635 81.667 21.048 81.667 15.9293C81.667 10.8106 76.5458 1.00012 66.3023 1.00012Z" stroke="#2E2E2E" stroke-width="1.742" stroke-linejoin="round"/>
<path fill-rule="evenodd" clip-rule="evenodd" d="M81.1646 154.889C81.1646 145.822 83.3526 146.557 83.3526 141.738C83.3526 131.691 81.1646 123.115 81.1646 118.622C81.1646 114.13 81.5413 99.3863 81.5413 99.3863L81.3636 99.342C81.0091 99.3709 80.6654 99.3863 80.334 99.3863C75.242 99.3863 68.1629 96.0786 68.1629 96.0786H66.3027H64.4416C64.4416 96.0786 57.3624 99.3863 52.2696 99.3863C51.94 99.3863 51.5953 99.3709 51.2409 99.342L51.0623 99.3863C51.0623 99.3863 51.4399 114.13 51.4399 118.622C51.4399 123.115 49.2519 131.691 49.2519 141.738C49.2519 146.557 51.4399 145.822 51.4399 154.889C51.4399 158.075 49.1764 160.321 46.2342 160.321C46.2342 167.632 62.0777 181.354 66.3027 181.354C70.5267 181.354 86.3703 167.632 86.3703 160.321C83.4272 160.321 81.1646 158.075 81.1646 154.889Z" stroke="#2E2E2E" stroke-width="1.742" stroke-linejoin="round"/>
<path d="M86.3701 160.321C88.3316 154.808 92.5565 149.376 92.5565 149.376" stroke="#2E2E2E" stroke-width="1.742" stroke-linejoin="round"/>
<path fill-rule="evenodd" clip-rule="evenodd" d="M37.8534 248.411C37.8534 249.398 38.3882 249.968 38.8412 249.968C39.2943 249.968 40.3434 244.403 40.3434 240.697C40.1613 240.702 40.0485 240.194 40.0485 238.766C40.0485 233.691 35.6343 224.401 35.6343 206.594C35.6343 188.787 40.6516 169.347 41.7479 161.652L41.5116 158.064C41.4094 156.029 41.2957 151.103 41.2957 151.103L40.0485 149.271C40.0485 149.307 40.0485 149.34 40.0485 149.376C40.0485 152.929 34.5407 156.196 34.5407 170.409C34.5407 174.085 30.9199 180.945 30.9199 195.812C30.9199 196.684 30.927 197.541 30.9394 198.387C30.943 198.618 30.9501 198.841 30.9545 199.07C30.9661 199.677 30.9776 200.283 30.9954 200.876C31.0043 201.161 31.0167 201.437 31.0265 201.718C31.0451 202.245 31.0629 202.773 31.0869 203.289C31.1002 203.586 31.1171 203.876 31.1313 204.169C31.1562 204.659 31.181 205.149 31.2095 205.629C31.2272 205.924 31.2477 206.212 31.2663 206.503C31.2974 206.973 31.3285 207.442 31.3623 207.902C31.3836 208.184 31.4076 208.46 31.4298 208.739C31.4662 209.199 31.5035 209.658 31.5435 210.108C31.5675 210.374 31.5932 210.635 31.6172 210.897C31.6607 211.352 31.7043 211.805 31.7505 212.251C31.7762 212.498 31.802 212.74 31.8286 212.982C31.8775 213.436 31.9281 213.888 31.9805 214.333C32.0063 214.557 32.0338 214.778 32.0605 215C32.1165 215.458 32.1733 215.912 32.2328 216.36C32.2586 216.557 32.2844 216.753 32.311 216.949C32.3741 217.415 32.438 217.879 32.5047 218.336C32.5286 218.503 32.5526 218.668 32.5775 218.834C32.6486 219.318 32.7214 219.798 32.7952 220.27C32.8156 220.399 32.836 220.527 32.8564 220.655C32.9373 221.166 33.0208 221.672 33.1043 222.17C33.1176 222.251 33.1318 222.334 33.146 222.415C33.2402 222.972 33.337 223.521 33.4339 224.061C33.4365 224.077 33.4392 224.093 33.4428 224.108C35.2843 234.327 37.5131 241.73 37.8498 248.408L37.8534 248.411Z" stroke="#2E2E2E" stroke-width="1.742" stroke-linejoin="round"/>
<path fill-rule="evenodd" clip-rule="evenodd" d="M66.3023 52.8274C65.079 52.8274 63.8193 52.4234 62.5828 51.7751H62.581C62.581 56.462 63.4356 70.0216 66.3023 70.0216C69.1689 70.0216 70.0235 56.462 70.0235 51.7751H70.0218C68.7852 52.4234 67.5255 52.8274 66.3023 52.8274Z" stroke="#2E2E2E" stroke-width="1.742" stroke-linejoin="round"/>
<path fill-rule="evenodd" clip-rule="evenodd" d="M41.7481 161.652C40.6519 169.346 35.6345 188.787 35.6345 206.594C35.6345 224.4 40.0487 233.69 40.0487 238.766C40.0487 243.841 41.4816 237.307 42.3122 237.307C43.141 237.307 46.1711 243.534 46.1711 247.394C46.1711 247.575 46.1862 247.677 46.2155 247.709C46.2049 247.514 46.2155 247.29 46.2093 247.088C46.1933 246.568 46.1764 246.048 46.1933 245.484C46.1986 245.286 46.2164 245.072 46.2244 244.87C46.2528 244.238 46.2839 243.601 46.3417 242.933C46.3523 242.809 46.3683 242.681 46.3799 242.556C46.7592 238.44 47.58 233.873 48.0624 230.281C48.0775 230.178 48.0952 230.061 48.1086 229.96C48.2081 229.197 48.2907 228.482 48.3466 227.831C48.7988 222.607 51.6646 211.831 53.0548 205.457C53.0548 205.457 53.0575 205.401 53.0619 205.317C53.0682 205.209 53.0797 204.977 53.0966 204.655C53.0993 204.606 53.1019 204.534 53.1046 204.481C53.1188 204.186 53.1348 203.848 53.1543 203.421C53.1543 203.411 53.1543 203.397 53.1552 203.388C53.1765 202.91 53.1987 202.364 53.2227 201.745C53.2227 201.721 53.2236 201.69 53.2245 201.666C53.2947 199.792 53.3666 197.348 53.3986 194.592C53.4022 194.378 53.4013 194.148 53.4031 193.93C53.4102 193.203 53.4164 192.475 53.4164 191.717C53.4173 190.731 53.3977 188.64 53.3977 188.607C53.3977 183.97 48.4755 169.079 46.5602 162.608C46.18 161.323 46.3594 160.843 46.2342 160.321C45.4818 157.173 41.295 151.103 41.295 151.103L41.7481 161.652Z" stroke="#2E2E2E" stroke-width="1.742" stroke-linejoin="round"/>
<path fill-rule="evenodd" clip-rule="evenodd" d="M53.3976 188.609C53.3976 188.642 53.3976 188.673 53.3976 188.706C53.4118 189.725 53.4171 190.732 53.4162 191.716C53.4162 192.475 53.41 193.203 53.4029 193.93C53.4011 194.147 53.402 194.378 53.3985 194.591C53.3665 197.348 53.2945 199.793 53.2253 201.666C53.2235 201.69 53.2226 201.72 53.2226 201.745C53.1986 202.364 53.1764 202.91 53.156 203.387C53.1551 203.398 53.1551 203.411 53.1542 203.422C53.1355 203.848 53.1186 204.186 53.1044 204.481C53.1018 204.535 53.1 204.606 53.0964 204.656C53.0805 204.977 53.068 205.209 53.0618 205.317C53.0574 205.401 53.0547 205.457 53.0547 205.457C51.6644 211.832 48.7996 222.606 48.3465 227.831C48.2905 228.483 48.2079 229.197 48.1084 229.96C48.1084 229.962 48.1075 229.964 48.1075 229.966C47.977 230.964 47.8135 232.061 47.6412 233.193C47.4955 234.151 47.3436 235.144 47.1934 236.153C47.189 236.182 47.1846 236.212 47.1801 236.241C47.0264 237.274 46.8763 238.323 46.7413 239.365C46.7377 239.385 46.736 239.405 46.7333 239.424C46.5956 240.481 46.4748 241.532 46.3806 242.556C46.3771 242.598 46.3717 242.639 46.3673 242.682C46.3593 242.767 46.3478 242.857 46.3406 242.942C46.2856 243.594 46.2545 244.216 46.2269 244.834C46.2225 244.929 46.2163 245.029 46.2118 245.123C46.2047 245.245 46.1967 245.367 46.1932 245.484C46.1772 246.047 46.1932 246.567 46.2101 247.089V247.114C46.2198 247.436 46.211 247.785 46.2349 248.089C46.6871 253.806 50.459 253.48 50.459 253.48C52.9676 253.48 57.8801 251.792 59.4676 248.686C59.6417 248.01 59.8114 247.321 59.9775 246.624C61.4583 240.413 62.5679 233.429 62.5679 226.198C62.5679 224.931 62.6007 223.564 62.6549 222.126C62.6549 211.957 58.0116 199.574 53.3976 188.609Z" stroke="#2E2E2E" stroke-width="1.742" stroke-linejoin="round"/>
<path fill-rule="evenodd" clip-rule="evenodd" d="M94.7513 248.411C94.7513 249.398 94.2156 249.968 93.7634 249.968C93.3104 249.968 92.2613 244.403 92.2613 240.697C92.4425 240.702 92.5562 240.194 92.5562 238.766C92.5562 233.691 96.9703 224.401 96.9703 206.594C96.9703 188.787 91.953 169.347 90.8568 161.652L91.0931 158.064C91.1953 156.029 91.309 151.103 91.309 151.103L92.5562 149.271C92.5562 149.307 92.5562 149.34 92.5562 149.376C92.5562 152.929 98.0639 156.196 98.0639 170.409C98.0639 174.085 101.685 180.945 101.685 195.812C101.685 196.684 101.678 197.541 101.665 198.387C101.662 198.618 101.655 198.841 101.65 199.07C101.639 199.677 101.626 200.283 101.608 200.876C101.6 201.161 101.588 201.437 101.578 201.718C101.559 202.245 101.542 202.773 101.518 203.289C101.504 203.586 101.488 203.876 101.472 204.169C101.448 204.659 101.424 205.149 101.395 205.629C101.377 205.924 101.357 206.212 101.337 206.503C101.307 206.973 101.276 207.442 101.241 207.902C101.221 208.184 101.197 208.46 101.175 208.739C101.138 209.199 101.101 209.658 101.061 210.108C101.037 210.374 101.011 210.635 100.987 210.897C100.944 211.352 100.9 211.805 100.854 212.251C100.828 212.498 100.803 212.74 100.776 212.982C100.726 213.436 100.676 213.888 100.624 214.333C100.598 214.557 100.571 214.778 100.544 215C100.488 215.458 100.431 215.912 100.372 216.36C100.346 216.557 100.32 216.753 100.294 216.949C100.231 217.415 100.166 217.879 100.1 218.336C100.076 218.503 100.052 218.668 100.027 218.834C99.956 219.318 99.8832 219.798 99.8086 220.27C99.789 220.399 99.7686 220.527 99.7482 220.655C99.6673 221.166 99.5838 221.672 99.5003 222.17C99.4861 222.251 99.4728 222.334 99.4586 222.415C99.3635 222.972 99.2676 223.521 99.1707 224.061C99.1681 224.077 99.1654 224.093 99.1619 224.108C97.3203 234.327 95.0915 241.73 94.7548 248.408L94.7513 248.411Z" stroke="#2E2E2E" stroke-width="1.742" stroke-linejoin="round"/>
<path fill-rule="evenodd" clip-rule="evenodd" d="M90.8565 161.652C91.9527 169.346 96.97 188.787 96.97 206.594C96.97 224.4 92.5559 233.69 92.5559 238.766C92.5559 243.841 91.123 237.307 90.2924 237.307C89.4627 237.307 86.4334 243.534 86.4334 247.394C86.4334 247.575 86.4174 247.677 86.389 247.709C86.3997 247.514 86.389 247.29 86.3952 247.088C86.4112 246.568 86.4281 246.048 86.4112 245.484C86.4059 245.286 86.3881 245.072 86.3792 244.87C86.3517 244.238 86.3197 243.601 86.2629 242.933C86.2513 242.809 86.2362 242.681 86.2238 242.556C85.8454 238.44 85.0245 233.873 84.5422 230.281C84.5271 230.178 84.5093 230.061 84.496 229.96C84.3965 229.197 84.3139 228.482 84.2579 227.831C83.8048 222.607 80.9399 211.831 79.5497 205.457C79.5497 205.457 79.547 205.401 79.5426 205.317C79.5364 205.209 79.5248 204.977 79.5079 204.655C79.5053 204.606 79.5017 204.534 79.4999 204.481C79.4857 204.186 79.4689 203.848 79.4502 203.421C79.4493 203.411 79.4493 203.397 79.4493 203.388C79.428 202.91 79.4058 202.364 79.3818 201.745C79.3818 201.721 79.3809 201.69 79.3791 201.666C79.3098 199.792 79.2379 197.348 79.2059 194.592C79.2024 194.378 79.2032 194.148 79.2006 193.93C79.1944 193.203 79.1873 192.475 79.1873 191.717C79.1873 190.731 79.2068 188.64 79.2068 188.607C79.2068 183.97 84.1291 169.079 86.0443 162.608C86.4245 161.323 86.2451 160.843 86.3704 160.321C87.1228 157.173 91.3095 151.103 91.3095 151.103L90.8565 161.652Z" stroke="#2E2E2E" stroke-width="1.742" stroke-linejoin="round"/>
<path fill-rule="evenodd" clip-rule="evenodd" d="M79.2071 188.609C79.2071 188.642 79.2062 188.673 79.2062 188.706C79.1929 189.725 79.1875 190.732 79.1875 191.716C79.1875 192.475 79.1946 193.203 79.2009 193.93C79.2035 194.147 79.2026 194.378 79.2062 194.591C79.2382 197.348 79.3101 199.793 79.3794 201.666C79.3812 201.69 79.3812 201.72 79.3821 201.745C79.4061 202.364 79.4283 202.91 79.4487 203.387C79.4496 203.398 79.4496 203.411 79.4505 203.422C79.4691 203.848 79.4851 204.186 79.5002 204.481C79.502 204.535 79.5047 204.606 79.5082 204.656C79.5242 204.977 79.5366 205.209 79.542 205.317C79.5473 205.401 79.55 205.457 79.55 205.457C80.9402 211.832 83.8051 222.606 84.2582 227.831C84.3141 228.483 84.3967 229.197 84.4962 229.96C84.4962 229.962 84.4971 229.964 84.4971 229.966C84.6277 230.964 84.7912 232.061 84.9635 233.193C85.1083 234.151 85.2611 235.144 85.4112 236.153C85.4157 236.182 85.4201 236.212 85.4245 236.241C85.5782 237.274 85.7284 238.323 85.8634 239.365C85.866 239.385 85.8687 239.405 85.8714 239.424C86.0082 240.481 86.1299 241.532 86.2241 242.556C86.2276 242.598 86.232 242.639 86.2374 242.682C86.2454 242.767 86.2569 242.857 86.264 242.942C86.3191 243.594 86.3502 244.216 86.3777 244.834C86.3822 244.929 86.3884 245.029 86.3928 245.123C86.3999 245.245 86.4079 245.367 86.4115 245.484C86.4275 246.047 86.4115 246.567 86.3946 247.089V247.114C86.3848 247.436 86.3937 247.785 86.3697 248.089C85.9176 253.806 82.1448 253.48 82.1448 253.48C79.637 253.48 74.7236 251.792 73.1371 248.686C72.9629 248.01 72.7933 247.321 72.6263 246.624C71.1463 240.413 70.0368 233.429 70.0368 226.198C70.0368 224.931 70.0039 223.564 69.9497 222.126C69.9497 211.957 74.593 199.574 79.2071 188.609Z" stroke="#2E2E2E" stroke-width="1.742" stroke-linejoin="round"/>
<path fill-rule="evenodd" clip-rule="evenodd" d="M55.7728 321.395C55.7754 321.402 55.779 321.409 55.7817 321.416C55.6715 320.36 55.5889 319.299 55.5889 318.253C55.5889 312.046 55.4388 294.199 55.4388 294.199C55.4388 294.199 56.0046 288.317 56.0046 282.19C56.0046 276.065 52.4966 273.001 52.4966 270.306C50.5849 276.019 46.0099 297.872 55.7728 321.395Z" stroke="#2E2E2E" stroke-width="1.742" stroke-linejoin="round"/>
<path fill-rule="evenodd" clip-rule="evenodd" d="M35.7479 276.8C35.7479 289.703 42.1466 305.699 43.8993 316.536C43.8993 316.53 43.9002 316.525 43.9011 316.52C46.5163 286.879 39.6619 278.512 35.9851 269.396C35.8412 271.369 35.7479 273.736 35.7479 276.8Z" stroke="#2E2E2E" stroke-width="1.742" stroke-linejoin="round"/>
<path fill-rule="evenodd" clip-rule="evenodd" d="M76.8317 321.395C76.829 321.402 76.8255 321.409 76.8219 321.416C76.933 320.36 77.0156 319.299 77.0156 318.253C77.0156 312.046 77.1657 294.199 77.1657 294.199C77.1657 294.199 76.5999 288.317 76.5999 282.19C76.5999 276.065 80.1079 273.001 80.1079 270.306C82.0188 276.019 86.5946 297.872 76.8317 321.395Z" stroke="#2E2E2E" stroke-width="1.742" stroke-linejoin="round"/>
<path fill-rule="evenodd" clip-rule="evenodd" d="M96.8562 276.8C96.8562 289.703 90.4584 305.699 88.7057 316.536C88.7048 316.53 88.7039 316.525 88.703 316.52C86.0877 286.879 92.9431 278.512 96.6199 269.396C96.7638 271.369 96.8562 273.736 96.8562 276.8Z" stroke="#2E2E2E" stroke-width="1.742" stroke-linejoin="round"/>
<path fill-rule="evenodd" clip-rule="evenodd" d="M20.0181 119.97C20.0181 119.094 20.034 118.276 20.0508 117.464C20.0313 118.267 20.0181 119.094 20.0181 119.97Z" stroke="#2E2E2E" stroke-width="1.742" stroke-linejoin="round"/>
<path fill-rule="evenodd" clip-rule="evenodd" d="M122.349 187.073C121.548 185.007 120.141 178.525 119.738 173.142C118.664 158.794 117.732 137.385 116.761 133.325C115.428 127.742 112.586 121.972 112.586 119.969C112.586 102.449 108.965 98.0546 108.965 95.2202C108.965 93.3821 109.757 94.3622 109.757 83.7439C109.757 73.1255 99.0445 62.0166 88.3311 62.0166L77.9198 54.9916V44.8638H77.8238C75.2077 48.0223 70.5341 52.8275 66.3021 52.8275C62.0701 52.8275 57.3965 48.0223 54.7803 44.8638H54.6844V54.9916L44.2731 62.0166C33.5597 62.0166 22.8473 73.1255 22.8473 83.7439C22.8473 94.3622 23.6397 93.3821 23.6397 95.2202C23.6397 98.0546 20.0179 102.449 20.0179 119.969C20.0179 121.972 17.1752 127.742 15.8418 133.325C14.8726 137.385 13.9408 158.794 12.8668 173.142C12.4635 178.525 11.0572 185.007 10.2551 187.073C8.38245 191.898 17.4151 199.29 18.0191 199.552C18.7991 199.894 19.0647 198.198 19.3294 197.536C20.4159 194.813 16.3722 191.577 16.6324 189.687C16.946 187.415 17.3165 183.426 18.7733 184.062C20.2311 184.699 20.7241 188.316 22.181 188.953C23.6379 189.59 24.2633 189.167 24.7092 187.97C24.9704 187.269 23.3145 182.879 21.8283 178.758C20.7783 175.846 20.9578 173.757 20.9578 173.757C20.9578 173.757 32.5479 144.597 33.0374 138.716C34.6124 136.008 33.8804 134.651 34.0821 132.687C34.8896 124.803 34.8993 109.555 35.9742 109.555C36.9932 109.555 37.106 114.334 37.106 117.274C37.106 124.014 41.7458 124.258 41.7458 133.325C41.7458 140.186 40.0481 137.368 40.0481 149.376C40.0481 152.929 34.5405 156.196 34.5405 170.408C34.5405 174.085 30.9196 180.945 30.9196 195.812C30.9196 224.237 37.8984 238.082 37.8984 250.09C37.8984 262.955 35.7477 261.852 35.7477 276.8C35.7477 291.748 44.3486 310.861 44.3486 321.276C44.3486 344.188 37.3325 338.306 37.3325 343.575C37.3325 344.964 38.6899 345.862 38.6899 345.862L50.686 347.251H56.8715L58.7583 344.8C58.7583 344.8 57.098 341.697 57.098 340.063C57.098 338.429 57.9277 335.244 57.9277 333.283C57.9277 331.323 55.5896 324.461 55.5896 318.254C55.5896 312.046 55.4386 294.198 55.4386 294.198C55.4386 294.198 56.0045 288.317 56.0045 282.191C56.0045 276.065 52.4964 273.002 52.4964 270.307C52.4964 267.611 62.5675 248.007 62.5675 226.198C62.5675 214.558 65.1704 194.954 65.1704 181.354H66.3021H67.4338C67.4338 194.954 70.0367 214.558 70.0367 226.198C70.0367 248.007 80.1086 267.611 80.1086 270.307C80.1086 273.002 76.5997 276.065 76.5997 282.191C76.5997 288.317 77.1656 294.198 77.1656 294.198C77.1656 294.198 77.0155 312.046 77.0155 318.254C77.0155 324.461 74.6765 331.323 74.6765 333.283C74.6765 335.244 75.5062 338.429 75.5062 340.063C75.5062 341.697 73.8468 344.8 73.8468 344.8L75.7327 347.251H81.9191L93.9143 345.862C93.9143 345.862 95.2726 344.964 95.2726 343.575C95.2726 338.306 88.2565 344.188 88.2565 321.276C88.2565 310.861 96.8565 291.748 96.8565 276.8C96.8565 261.852 94.7058 262.955 94.7058 250.09C94.7058 238.082 101.685 224.237 101.685 195.812C101.685 180.945 98.0637 174.085 98.0637 170.408C98.0637 156.196 92.556 152.929 92.556 149.376C92.556 137.368 90.8584 140.186 90.8584 133.325C90.8584 124.258 95.4982 124.014 95.4982 117.274C95.4982 114.334 95.6119 109.555 96.63 109.555C97.7048 109.555 97.7146 124.803 98.5221 132.687C98.7238 134.651 97.9918 136.008 99.5668 138.716C100.057 144.597 111.647 173.757 111.647 173.757C111.647 173.757 111.826 175.846 110.777 178.758C109.291 182.879 107.634 187.269 107.895 187.97C108.341 189.167 108.966 189.59 110.423 188.953C111.881 188.316 112.374 184.699 113.831 184.062C115.288 183.426 115.659 187.415 115.972 189.687C116.233 191.577 112.188 194.813 113.275 197.536C113.539 198.198 113.806 199.894 114.586 199.552C115.188 199.29 124.222 191.898 122.349 187.073Z" stroke="#2E2E2E" stroke-width="1.742" stroke-linejoin="round"/>
<path fill-rule="evenodd" clip-rule="evenodd" d="M23.879 138.716C24.6456 133.677 25.4122 131.857 23.879 128.751C22.3457 125.645 21.3232 129.92 17.2013 128.751C16.695 130.237 16.2108 131.784 15.8421 133.325C15.0036 136.837 15.2718 153.52 14.6651 167.248H14.666C14.666 167.248 18.0008 160.081 18.2567 152.886C18.5116 145.692 23.1123 143.755 23.879 138.716Z" stroke="#2E2E2E" stroke-width="1.742" stroke-linejoin="round"/>
<path fill-rule="evenodd" clip-rule="evenodd" d="M24.7642 147.422C22.6011 154.546 20.9577 173.757 20.9577 173.757C20.9577 173.757 32.5479 144.597 33.0374 138.716C33.0374 138.716 26.9273 140.298 24.7642 147.422Z" stroke="#2E2E2E" stroke-width="1.742" stroke-linejoin="round"/>
<path fill-rule="evenodd" clip-rule="evenodd" d="M109.757 83.7443C109.757 94.3627 108.965 93.3826 108.965 95.2206C103.986 94.1184 100.704 89.4622 94.707 78.5573C88.7089 67.6533 83.6161 69.3682 83.6161 66.7953C83.6161 64.8342 87.1241 63.9773 88.3314 62.0171C99.0439 62.0171 109.757 73.125 109.757 83.7443Z" stroke="#2E2E2E" stroke-width="1.742" stroke-linejoin="round"/>
<path fill-rule="evenodd" clip-rule="evenodd" d="M71.055 73.6565C71.7204 72.2349 81.2398 66.7949 83.6161 66.7949C83.6161 69.3678 88.709 67.6529 94.707 78.5569C96.9341 82.6071 98.7863 85.7936 100.491 88.2577C97.7878 89.8716 98.6673 91.1768 96.1773 93.5054C93.6881 95.8329 85.4275 99.3859 80.3346 99.3859C75.2418 99.3859 68.1626 96.0782 68.1626 96.0782V87.746C68.1626 78.68 70.0237 75.8619 71.055 73.6565Z" stroke="#2E2E2E" stroke-width="1.742" stroke-linejoin="round"/>
<path fill-rule="evenodd" clip-rule="evenodd" d="M98.5223 85.2114C98.7604 85.599 98.994 85.9751 99.2241 86.3387C98.994 85.9751 98.7604 85.6 98.5223 85.2114Z" stroke="#2E2E2E" stroke-width="1.742" stroke-linejoin="round"/>
<path fill-rule="evenodd" clip-rule="evenodd" d="M100.491 88.258C100.338 88.0368 100.182 87.8011 100.025 87.5684C103.115 92.1956 105.669 94.4905 108.966 95.2205C108.966 98.0549 112.587 102.449 112.587 119.971C112.587 123.524 104.753 128.094 101.157 119.971C98.8244 114.701 97.9467 112.505 97.4022 111.211C97.1241 110.171 96.8621 109.556 96.6302 109.556C95.8387 108.086 96.178 93.5056 96.178 93.5056C98.6672 91.1771 97.7877 89.8719 100.491 88.258Z" stroke="#2E2E2E" stroke-width="1.742" stroke-linejoin="round"/>
<path fill-rule="evenodd" clip-rule="evenodd" d="M99.8931 87.3717C99.6781 87.0476 99.4604 86.711 99.2401 86.3638C99.4613 86.711 99.6781 87.0476 99.8931 87.3717Z" stroke="#2E2E2E" stroke-width="1.742" stroke-linejoin="round"/>
<path fill-rule="evenodd" clip-rule="evenodd" d="M108.726 138.716C107.959 133.677 107.193 131.857 108.726 128.751C110.259 125.645 111.282 129.92 115.403 128.751C115.91 130.237 116.394 131.784 116.762 133.325C117.601 136.837 117.333 153.52 117.94 167.248H117.939C117.939 167.248 114.604 160.081 114.348 152.886C114.092 145.692 109.492 143.755 108.726 138.716Z" stroke="#2E2E2E" stroke-width="1.742" stroke-linejoin="round"/>
<path fill-rule="evenodd" clip-rule="evenodd" d="M107.84 147.422C110.004 154.546 111.647 173.757 111.647 173.757C111.647 173.757 100.057 144.597 99.5674 138.716C99.5674 138.716 105.677 140.298 107.84 147.422Z" stroke="#2E2E2E" stroke-width="1.742" stroke-linejoin="round"/>
<path fill-rule="evenodd" clip-rule="evenodd" d="M51.3719 24.9134C51.3719 23.5149 49.5215 23.1206 48.3169 23.1206C47.1105 23.1206 46.6468 25.1289 47.5743 29.8485C48.5017 34.569 52.1963 35.9415 52.1963 35.9415L51.3719 24.9134Z" stroke="#2E2E2E" stroke-width="1.742" stroke-linejoin="round"/>
<path fill-rule="evenodd" clip-rule="evenodd" d="M81.2327 24.9134C81.2327 23.5149 83.0822 23.1206 84.2877 23.1206C85.494 23.1206 85.9577 25.1289 85.0303 29.8485C84.102 34.569 80.4083 35.9415 80.4083 35.9415L81.2327 24.9134Z" stroke="#2E2E2E" stroke-width="1.742" stroke-linejoin="round"/>
<path fill-rule="evenodd" clip-rule="evenodd" d="M278.738 186.571C276.581 180.802 273.773 176.952 273.359 171.43C272.945 165.909 269.361 149.292 268.023 143.726C266.684 138.161 260.009 126.891 260.009 124.896C260.009 107.429 258.117 96.966 258.117 94.1407C258.117 92.3078 258.913 93.2849 258.913 82.6989C258.913 75.0854 253.348 67.2195 246.223 63.4028C246.207 63.3942 246.191 63.3875 246.175 63.3789C245.862 63.2115 245.545 63.0528 245.226 62.9018C245.12 62.852 245.012 62.8062 244.906 62.7583C244.673 62.6532 244.441 62.5499 244.206 62.4533C244.078 62.3998 243.948 62.352 243.818 62.3013C243.604 62.2181 243.388 62.1378 243.171 62.0613C243.033 62.0135 242.892 61.9676 242.752 61.9227C242.543 61.8548 242.332 61.7898 242.12 61.7286C241.977 61.6875 241.833 61.6483 241.689 61.611C241.477 61.5556 241.265 61.5049 241.052 61.458C240.908 61.4255 240.765 61.394 240.621 61.3653C240.403 61.3223 240.183 61.2859 239.963 61.2515C239.826 61.2295 239.688 61.2047 239.549 61.1865C239.31 61.155 239.069 61.132 238.829 61.111C238.71 61.1005 238.593 61.0852 238.476 61.0775C238.118 61.0536 237.76 61.0393 237.401 61.0393L224.41 52.8101L225.007 46.646C225.007 46.646 222.099 36.9645 215.283 36.9645C208.468 36.9645 205.56 46.646 205.56 46.646L206.158 52.8101L193.166 61.0393C192.808 61.0393 192.45 61.0536 192.092 61.0775C191.974 61.0852 191.856 61.1005 191.739 61.111C191.498 61.132 191.258 61.155 191.018 61.1865C190.88 61.2047 190.742 61.2295 190.603 61.2515C190.385 61.2859 190.165 61.3223 189.946 61.3653C189.803 61.394 189.659 61.4255 189.515 61.458C189.303 61.5049 189.091 61.5556 188.879 61.611C188.735 61.6483 188.591 61.6875 188.448 61.7286C188.236 61.7898 188.025 61.8548 187.815 61.9227C187.675 61.9676 187.535 62.0135 187.396 62.0613C187.179 62.1378 186.964 62.2181 186.749 62.3013C186.619 62.352 186.489 62.3998 186.36 62.4533C186.126 62.5499 185.894 62.6532 185.661 62.7583C185.555 62.8062 185.448 62.852 185.342 62.9018C185.023 63.0528 184.706 63.2115 184.392 63.3789C184.376 63.3875 184.36 63.3942 184.344 63.4028H184.345C177.219 67.2195 171.655 75.0854 171.655 82.6989C171.655 93.2849 172.45 92.3078 172.45 94.1407C172.45 96.966 170.559 107.429 170.559 124.896C170.559 126.891 163.883 138.161 162.545 143.726C161.206 149.292 157.622 165.909 157.209 171.43C156.795 176.952 153.987 180.802 151.83 186.571C148.996 194.151 157.966 198.298 158.614 198.579C159.452 198.942 160.391 198.932 160.674 198.226C161.841 195.324 155.683 191.472 156.787 189.369C157.907 187.237 159.818 184.844 161.382 185.523C162.947 186.201 162.197 191.541 163.762 192.22C165.327 192.899 165.997 192.448 166.476 191.172C166.956 189.897 166.733 179.929 164.359 178.9C165.552 177.143 166.31 175.932 166.31 175.932C166.31 175.932 172.484 165.363 175.211 161.211C177.937 157.057 182.809 141.414 183.301 135.551C184.703 133.353 183.096 131.102 183.706 129.245C186.134 121.852 186.015 113.476 187.095 113.476C188.118 113.476 190.629 123.089 190.629 132.128C190.629 138.968 188.925 136.159 188.925 148.128C188.925 151.671 183.395 154.928 183.395 169.097C183.395 172.761 179.761 179.601 179.761 194.422C179.761 222.76 191.526 240.643 191.526 252.614C191.526 265.439 188.29 261.777 188.29 276.678C188.29 291.58 197.73 311.091 197.73 321.473C197.73 342.349 185.594 331.186 185.594 337.565C185.594 338.95 188.965 340.9 188.965 340.9L198.101 344.758L204.202 345.393C206.91 345.393 209.462 344.379 209.462 339.305C209.462 337.677 209.327 333.576 209.327 331.622C209.327 329.667 207.303 324.038 207.303 317.85C207.303 311.661 207.708 294.22 207.708 294.22C207.708 294.22 210.54 285.685 210.54 279.578C210.54 273.47 207.439 263.854 207.439 261.167C207.439 258.479 211.535 251.598 211.535 224.713C211.535 213.11 214.148 193.566 214.148 180.009H215.283H216.42C216.42 193.566 219.033 213.11 219.033 224.713C219.033 251.598 223.129 258.479 223.129 261.167C223.129 263.854 220.027 273.47 220.027 279.578C220.027 285.685 222.859 294.22 222.859 294.22C222.859 294.22 223.263 311.661 223.263 317.85C223.263 324.038 221.241 329.667 221.241 331.622C221.241 333.576 221.106 337.677 221.106 339.305C221.106 344.379 223.657 345.393 226.365 345.393L232.466 344.758L241.603 340.9C241.603 340.9 244.974 338.95 244.974 337.565C244.974 331.186 232.837 342.349 232.837 321.473C232.837 311.091 242.277 291.58 242.277 276.678C242.277 261.777 239.04 265.439 239.04 252.614C239.04 240.643 250.807 222.76 250.807 194.422C250.807 179.601 247.172 172.761 247.172 169.097C247.172 154.928 241.643 151.671 241.643 148.128C241.643 136.159 239.939 138.968 239.939 132.128C239.939 123.089 242.45 113.476 243.473 113.476C244.552 113.476 244.434 121.852 246.861 129.245C247.471 131.102 245.865 133.353 247.266 135.551C247.759 141.414 252.63 157.057 255.356 161.211C258.084 165.363 264.257 175.932 264.257 175.932C264.257 175.932 265.015 177.143 266.209 178.9C263.835 179.929 263.612 189.897 264.091 191.172C264.57 192.448 265.241 192.899 266.805 192.22C268.37 191.541 267.62 186.201 269.184 185.523C270.75 184.844 272.661 187.237 273.781 189.369C274.885 191.472 268.726 195.324 269.893 198.226C270.177 198.932 271.116 198.942 271.954 198.579C272.601 198.298 281.571 194.151 278.738 186.571Z" fill="#202020"/>
<path fill-rule="evenodd" clip-rule="evenodd" d="M188.925 148.129C188.925 151.671 183.396 154.929 183.396 169.097C183.396 172.762 179.76 179.601 179.76 194.421C179.76 203.633 181.006 211.734 182.685 218.891C185.594 206.803 189.291 194.173 197.651 193.013C206.012 191.853 215.284 177.23 215.284 172.301C215.284 172.301 198.984 148.526 198.984 145.916C198.984 143.307 193.334 145.412 188.925 148.129Z" fill="#202020"/>
<path fill-rule="evenodd" clip-rule="evenodd" d="M189.19 199.848C189.697 204.267 190.179 211.028 190.179 220.793C190.179 229.885 189.911 236.686 189.481 241.758C190.696 245.846 191.527 249.441 191.527 252.613C191.527 252.652 191.526 252.685 191.526 252.722C194.815 244.317 197.522 231.392 197.522 218.891C197.522 199.917 197.651 193.013 197.651 193.013C194.08 193.509 191.361 196.102 189.19 199.848Z" fill="#202020"/>
<path fill-rule="evenodd" clip-rule="evenodd" d="M210.561 182.754C207.107 187.677 202.243 192.376 197.651 193.013C197.618 193.018 197.587 193.027 197.554 193.032C197.592 197.331 197.651 204.926 197.651 210.573C197.651 218.891 204.337 233.623 204.337 238.624C204.337 243.626 203.73 244.496 204.337 246.017C204.944 247.54 206.494 255.223 206.967 258.195C207.095 258.998 207.317 259.633 207.571 260.138C208.269 256.775 211.534 248.725 211.534 224.714C211.534 217.97 212.416 208.547 213.155 199.173C211.736 194.233 210.194 187.536 210.561 182.754Z" fill="#202020"/>
<path fill-rule="evenodd" clip-rule="evenodd" d="M199.28 255.803C199.28 250.366 197.055 245.365 196.044 248.627C195.033 251.888 192.606 256.021 191.172 258.724C190.371 264.439 188.475 264.819 188.304 275.145C188.313 275.672 188.311 276.186 188.291 276.678C188.291 277.008 188.301 277.343 188.309 277.677C188.727 284.368 195.157 297.935 197.521 296.913C200.011 295.839 201.101 292.335 200.696 285.594C200.292 278.853 199.28 261.239 199.28 255.803Z" fill="#202020"/>
<path fill-rule="evenodd" clip-rule="evenodd" d="M207.439 261.166C207.439 260.879 207.487 260.54 207.57 260.136C207.316 259.631 207.094 258.997 206.966 258.195C206.494 255.223 204.944 247.54 204.337 246.017C203.73 244.495 203.232 240.927 201.973 243.605C200.71 246.294 199.29 249.362 198.68 250.859C198.679 250.861 198.678 250.862 198.678 250.863C199.037 252.279 199.281 254.014 199.281 255.803C199.281 261.239 200.292 278.853 200.697 285.594C200.697 285.594 203 295.234 205.354 294.727C205.975 294.593 206.812 294.454 207.706 294.322C207.707 294.262 207.708 294.219 207.708 294.219C207.708 294.219 210.54 285.685 210.54 279.577C210.54 273.471 207.439 263.854 207.439 261.166Z" fill="#202020"/>
<path fill-rule="evenodd" clip-rule="evenodd" d="M184.344 63.4031C178.7 65.9664 171.655 74.7339 171.655 82.6992C171.655 93.2853 172.45 92.3081 172.45 94.14C172.45 95.1573 172.204 97.1795 171.891 100.145C175.616 95.7568 181.481 90.7554 187.144 87.9291C192.806 85.1029 190.708 79.5814 197.518 76.6882C193.85 70.7517 187.365 65.8851 184.344 63.4031Z" fill="#202020"/>
<path fill-rule="evenodd" clip-rule="evenodd" d="M172.382 93.3345C172.368 93.2589 172.351 93.1824 172.334 93.105C172.351 93.1834 172.368 93.258 172.382 93.3345Z" fill="#202020"/>
<path fill-rule="evenodd" clip-rule="evenodd" d="M172.45 94.1404C172.45 94.2991 172.442 94.4894 172.432 94.6959C172.442 94.4894 172.45 94.2991 172.45 94.1404Z" fill="#202020"/>
<path fill-rule="evenodd" clip-rule="evenodd" d="M172.383 93.3435C172.397 93.4181 172.408 93.4936 172.418 93.572C172.408 93.4936 172.397 93.4181 172.383 93.3435Z" fill="#202020"/>
<path fill-rule="evenodd" clip-rule="evenodd" d="M172.443 93.844C172.448 93.9358 172.45 94.0333 172.45 94.1404C172.45 94.0333 172.448 93.9358 172.443 93.844Z" fill="#202020"/>
<path fill-rule="evenodd" clip-rule="evenodd" d="M172.42 93.5835C172.429 93.6629 172.437 93.7451 172.442 93.835C172.437 93.7451 172.429 93.6629 172.42 93.5835Z" fill="#202020"/>
<path fill-rule="evenodd" clip-rule="evenodd" d="M171.891 100.145C171.333 105.42 170.558 113.715 170.558 124.896C170.558 125.209 170.393 125.752 170.111 126.464C172.303 129.706 175.062 132.941 177.436 132.941C179.519 132.941 181.793 131.235 183.647 129.476C183.665 129.399 183.681 129.321 183.706 129.245C186.133 121.852 186.015 113.476 187.095 113.476C187.286 113.476 187.528 113.812 187.797 114.416C188.102 108.701 187.64 97.402 184.588 89.3448C179.768 92.2485 175.056 96.4162 171.891 100.145Z" fill="#202020"/>
<path fill-rule="evenodd" clip-rule="evenodd" d="M171.893 100.121C172.04 98.7343 172.171 97.5621 172.269 96.5955C172.171 97.5564 172.039 98.74 171.893 100.121Z" fill="#202020"/>
<path fill-rule="evenodd" clip-rule="evenodd" d="M172.377 95.4457C172.395 95.2459 172.409 95.0595 172.42 94.8883C172.409 95.0604 172.395 95.2449 172.377 95.4457Z" fill="#202020"/>
<path fill-rule="evenodd" clip-rule="evenodd" d="M172.362 95.625C172.339 95.8994 172.31 96.1939 172.277 96.518C172.31 96.1958 172.339 95.8984 172.362 95.625Z" fill="#202020"/>
<path fill-rule="evenodd" clip-rule="evenodd" d="M160.11 171.168C159.253 169.096 159.878 155.462 160.74 151.615C161.602 147.767 167.439 137.508 170.111 135.986C172.783 134.464 173.997 148.816 172.783 152.73C171.57 156.644 166.31 175.932 166.31 175.932C166.31 175.932 160.967 173.24 160.11 171.168Z" fill="#202020"/>
<path fill-rule="evenodd" clip-rule="evenodd" d="M270.457 171.168C271.315 169.096 270.689 155.462 269.828 151.615C268.965 147.767 263.128 137.508 260.456 135.986C257.784 134.464 256.57 148.816 257.784 152.73C258.997 156.644 264.256 175.932 264.256 175.932C264.256 175.932 269.6 173.24 270.457 171.168Z" fill="#202020"/>
<path fill-rule="evenodd" clip-rule="evenodd" d="M172.784 152.73C171.923 155.726 170.22 161.794 168.633 167.461C167.363 172.074 166.311 175.932 166.311 175.932C166.311 175.932 172.484 165.364 175.211 161.211C177.937 157.057 182.809 141.414 183.302 135.552C180.874 138.596 174.647 146.241 172.784 152.73Z" fill="#202020"/>
<path fill-rule="evenodd" clip-rule="evenodd" d="M201.505 86.8416C200.479 81.9186 199.121 79.5064 197.519 76.6877C191.29 78.9585 192.807 85.1025 187.144 87.9287C186.294 88.3532 185.44 88.8322 184.588 89.3447C187.954 92.9301 190.594 95.4781 193.42 96.5958C196.246 97.7145 201.303 97.4726 204.033 96.0719C202.983 92.8345 202.095 89.6688 201.505 86.8416Z" fill="#202020"/>
<path fill-rule="evenodd" clip-rule="evenodd" d="M204.033 96.0717C201.303 97.4723 196.246 97.7142 193.42 96.5956C190.594 95.4779 187.954 92.9299 184.587 89.3445C187.641 97.4016 188.101 108.701 187.797 114.416C187.772 114.358 189.947 121.631 190.432 127.551C193.419 131.799 197.651 139.248 197.651 139.248C206.682 127.249 210.203 122.721 213.033 117.787C210.167 111.886 206.967 105.053 204.033 96.0717Z" fill="#202020"/>
<path fill-rule="evenodd" clip-rule="evenodd" d="M210.561 182.754C210.547 182.774 210.532 182.794 210.518 182.813C210.425 182.946 210.328 183.077 210.233 183.209C210.069 183.437 209.902 183.664 209.732 183.89C209.629 184.027 209.525 184.162 209.42 184.298C209.234 184.538 209.046 184.776 208.855 185.012C208.768 185.12 208.683 185.227 208.596 185.333C208.015 186.036 207.409 186.717 206.784 187.367C206.733 187.421 206.68 187.473 206.629 187.527C206.351 187.811 206.071 188.088 205.787 188.359C205.739 188.405 205.691 188.451 205.642 188.496C204.968 189.129 204.279 189.72 203.576 190.251C204.28 195.89 205.825 202.689 207.371 204.702C208.604 206.305 210.417 198.494 211.4 191.982C210.761 188.735 210.355 185.443 210.561 182.754Z" fill="#202020"/>
<path fill-rule="evenodd" clip-rule="evenodd" d="M241.643 148.129C241.643 151.671 247.172 154.929 247.172 169.097C247.172 172.762 250.807 179.601 250.807 194.421C250.807 203.633 249.561 211.734 247.883 218.891C244.974 206.803 241.276 194.173 232.916 193.013C224.556 191.853 215.283 177.23 215.283 172.301C215.283 172.301 231.583 148.526 231.583 145.916C231.583 143.307 237.233 145.412 241.643 148.129Z" fill="#202020"/>
<path fill-rule="evenodd" clip-rule="evenodd" d="M241.378 199.848C240.87 204.267 240.389 211.028 240.389 220.793C240.389 229.885 240.657 236.686 241.086 241.758C239.872 245.846 239.041 249.441 239.041 252.613C239.041 252.652 239.042 252.685 239.042 252.722C235.753 244.317 233.045 231.392 233.045 218.891C233.045 199.917 232.916 193.013 232.916 193.013C236.488 193.509 239.206 196.102 241.378 199.848Z" fill="#202020"/>
<path fill-rule="evenodd" clip-rule="evenodd" d="M220.006 182.754C223.461 187.677 228.325 192.376 232.916 193.013C232.949 193.018 232.981 193.027 233.014 193.032C232.976 197.331 232.916 204.926 232.916 210.573C232.916 218.891 226.23 233.623 226.23 238.624C226.23 243.626 226.837 244.496 226.23 246.017C225.623 247.54 224.073 255.223 223.601 258.195C223.473 258.998 223.251 259.633 222.996 260.138C222.298 256.775 219.033 248.725 219.033 224.714C219.033 217.97 218.152 208.547 217.412 199.173C218.831 194.233 220.374 187.536 220.006 182.754Z" fill="#202020"/>
<path fill-rule="evenodd" clip-rule="evenodd" d="M231.287 255.803C231.287 250.366 233.512 245.365 234.523 248.627C235.534 251.888 237.962 256.021 239.395 258.724C240.196 264.439 242.093 264.819 242.264 275.145C242.254 275.672 242.257 276.186 242.276 276.678C242.276 277.008 242.267 277.343 242.258 277.677C241.841 284.368 235.411 297.935 233.046 296.913C230.557 295.839 229.466 292.335 229.871 285.594C230.276 278.853 231.287 261.239 231.287 255.803Z" fill="#202020"/>
<path fill-rule="evenodd" clip-rule="evenodd" d="M223.129 261.166C223.129 260.879 223.081 260.54 222.997 260.136C223.252 259.631 223.473 258.997 223.601 258.195C224.072 255.223 225.623 247.54 226.23 246.017C226.837 244.495 227.335 240.927 228.594 243.605C229.858 246.294 231.277 249.362 231.888 250.859C231.889 250.861 231.889 250.862 231.89 250.863C231.53 252.279 231.287 254.014 231.287 255.803C231.287 261.239 230.276 278.853 229.871 285.594C229.871 285.594 227.568 295.234 225.213 294.727C224.593 294.593 223.756 294.454 222.861 294.322C222.86 294.262 222.859 294.219 222.859 294.219C222.859 294.219 220.028 285.685 220.028 279.577C220.028 273.471 223.129 263.854 223.129 261.166Z" fill="#202020"/>
<path fill-rule="evenodd" clip-rule="evenodd" d="M246.223 63.4031C251.868 65.9664 258.913 74.7339 258.913 82.6992C258.913 93.2853 258.117 92.3081 258.117 94.14C258.117 95.1573 258.363 97.1795 258.677 100.145C254.951 95.7568 249.086 90.7554 243.423 87.9291C237.761 85.1029 239.86 79.5814 233.049 76.6882C236.717 70.7517 243.202 65.8851 246.223 63.4031Z" fill="#202020"/>
<path fill-rule="evenodd" clip-rule="evenodd" d="M258.186 93.3345C258.2 93.2589 258.216 93.1824 258.234 93.105C258.216 93.1834 258.2 93.258 258.186 93.3345Z" fill="#202020"/>
<path fill-rule="evenodd" clip-rule="evenodd" d="M258.117 94.1404C258.117 94.2991 258.125 94.4894 258.135 94.6959C258.125 94.4894 258.117 94.2991 258.117 94.1404Z" fill="#202020"/>
<path fill-rule="evenodd" clip-rule="evenodd" d="M258.184 93.3435C258.171 93.4181 258.159 93.4936 258.149 93.572C258.159 93.4936 258.171 93.4181 258.184 93.3435Z" fill="#202020"/>
<path fill-rule="evenodd" clip-rule="evenodd" d="M258.125 93.844C258.119 93.9358 258.117 94.0333 258.117 94.1404C258.117 94.0333 258.119 93.9358 258.125 93.844Z" fill="#202020"/>
<path fill-rule="evenodd" clip-rule="evenodd" d="M258.148 93.5835C258.138 93.6629 258.13 93.7451 258.126 93.835C258.13 93.7451 258.138 93.6629 258.148 93.5835Z" fill="#202020"/>
<path fill-rule="evenodd" clip-rule="evenodd" d="M258.677 100.145C259.234 105.42 260.009 113.715 260.009 124.896C260.009 125.209 260.174 125.752 260.456 126.464C258.264 129.706 255.505 132.941 253.132 132.941C251.048 132.941 248.774 131.235 246.92 129.476C246.902 129.399 246.887 129.321 246.861 129.245C244.434 121.852 244.552 113.476 243.473 113.476C243.281 113.476 243.039 113.812 242.77 114.416C242.466 108.701 242.927 97.402 245.98 89.3448C250.799 92.2485 255.511 96.4162 258.677 100.145Z" fill="#202020"/>
<path fill-rule="evenodd" clip-rule="evenodd" d="M258.674 100.121C258.528 98.7343 258.397 97.5621 258.298 96.5955C258.397 97.5564 258.528 98.74 258.674 100.121Z" fill="#202020"/>
<path fill-rule="evenodd" clip-rule="evenodd" d="M258.19 95.4457C258.173 95.2459 258.158 95.0595 258.148 94.8883C258.158 95.0604 258.173 95.2449 258.19 95.4457Z" fill="#202020"/>
<path fill-rule="evenodd" clip-rule="evenodd" d="M258.204 95.625C258.228 95.8994 258.257 96.1939 258.289 96.518C258.258 96.1958 258.228 95.8984 258.204 95.625Z" fill="#202020"/>
<path fill-rule="evenodd" clip-rule="evenodd" d="M257.784 152.73C258.644 155.726 260.348 161.794 261.934 167.461C263.205 172.074 264.257 175.932 264.257 175.932C264.257 175.932 258.084 165.364 255.357 161.211C252.63 157.057 247.758 141.414 247.266 135.552C249.693 138.596 255.921 146.241 257.784 152.73Z" fill="#202020"/>
<path fill-rule="evenodd" clip-rule="evenodd" d="M229.062 86.8416C230.088 81.9186 231.446 79.5064 233.049 76.6877C239.276 78.9585 237.761 85.1025 243.423 87.9287C244.273 88.3532 245.128 88.8322 245.98 89.3447C242.614 92.9301 239.973 95.4781 237.147 96.5958C234.322 97.7145 229.265 97.4726 226.534 96.0719C227.585 92.8345 228.472 89.6688 229.062 86.8416Z" fill="#202020"/>
<path fill-rule="evenodd" clip-rule="evenodd" d="M232.916 139.248C230.073 135.333 217.128 118.552 217.533 117.794C217.533 117.792 217.533 117.788 217.534 117.786C216.603 119.497 215.817 120.709 215.283 121.199C214.75 120.709 213.964 119.497 213.033 117.786C213.034 117.788 213.033 117.792 213.035 117.794C213.439 118.552 200.494 135.333 197.651 139.248C197.651 139.248 199.281 142.727 198.984 145.917C198.984 148.526 215.283 172.3 215.283 172.3C215.283 172.3 231.583 148.526 231.583 145.917C231.286 142.727 232.916 139.248 232.916 139.248Z" fill="#202020"/>
<path fill-rule="evenodd" clip-rule="evenodd" d="M226.535 96.0717C229.265 97.4723 234.322 97.7142 237.147 96.5956C239.974 95.4779 242.614 92.9299 245.98 89.3445C242.927 97.4016 242.466 108.701 242.77 114.416C242.795 114.358 240.621 121.631 240.134 127.551C237.148 131.799 232.916 139.248 232.916 139.248C223.884 127.249 220.364 122.721 217.534 117.787C220.401 111.886 223.601 105.053 226.535 96.0717Z" fill="#202020"/>
<path fill-rule="evenodd" clip-rule="evenodd" d="M220.006 182.754C220.02 182.774 220.035 182.794 220.049 182.813C220.143 182.946 220.24 183.077 220.335 183.209C220.499 183.437 220.665 183.664 220.836 183.89C220.938 184.027 221.043 184.162 221.148 184.298C221.333 184.538 221.522 184.776 221.712 185.012C221.8 185.12 221.884 185.227 221.971 185.333C222.553 186.036 223.158 186.717 223.783 187.367C223.834 187.421 223.887 187.473 223.938 187.527C224.216 187.811 224.496 188.088 224.78 188.359C224.828 188.405 224.877 188.451 224.925 188.496C225.599 189.129 226.288 189.72 226.991 190.251C226.287 195.89 224.742 202.689 223.196 204.702C221.964 206.305 220.15 198.494 219.167 191.982C219.807 188.735 220.212 185.443 220.006 182.754Z" fill="#202020"/>
<path fill-rule="evenodd" clip-rule="evenodd" d="M237.401 61.0389L224.41 52.8097L225.007 46.6457C225.007 46.6457 222.099 36.9651 215.284 36.9651C208.468 36.9651 205.561 46.6457 205.561 46.6457L206.158 52.8097L193.167 61.0389C190.147 61.0389 187.127 61.9128 184.345 63.4024C190.785 68.7929 198.877 74.2294 201.505 86.8414C204.135 99.4534 212.678 118.807 215.284 121.199C217.89 118.807 226.433 99.4534 229.063 86.8414C231.691 74.2294 239.783 68.7929 246.223 63.4024C243.441 61.9128 240.421 61.0389 237.401 61.0389Z" fill="#202020"/>
<path fill-rule="evenodd" clip-rule="evenodd" d="M233.234 22.9897C232.14 22.9897 230.532 23.3205 230.236 24.4143C230.484 20.7343 230.666 17.4711 230.666 15.8409C230.666 10.7535 225.538 1.00024 215.283 1.00024C205.028 1.00024 199.901 10.7535 199.901 15.8409C199.901 17.4711 200.084 20.7352 200.331 24.4153C200.036 23.3205 198.428 22.9897 197.334 22.9897C196.126 22.9897 195.662 24.9861 196.59 29.6777C197.458 34.0624 200.744 35.5405 201.17 35.7155C201.456 39.3114 201.676 41.9197 201.676 41.9197C201.676 41.9197 203.247 44.201 205.56 46.6467V46.6457C205.56 46.6457 208.468 36.9651 215.283 36.9651C222.099 36.9651 225.007 46.6457 225.007 46.6457V46.6467C227.321 44.201 228.891 41.9197 228.891 41.9197C228.891 41.9197 229.112 39.3114 229.397 35.7155C229.824 35.5405 233.108 34.0624 233.976 29.6777C234.905 24.9861 234.441 22.9897 233.234 22.9897Z" fill="#202020"/>
<path fill-rule="evenodd" clip-rule="evenodd" d="M188.925 148.129C188.925 151.671 183.396 154.929 183.396 169.097C183.396 172.762 179.76 179.601 179.76 194.422C179.76 203.633 181.006 211.734 182.684 218.891C185.593 206.803 189.29 194.173 197.651 193.013C206.012 191.853 215.284 177.23 215.284 172.301C215.284 172.301 198.984 148.527 198.984 145.916C198.984 143.307 193.334 145.413 188.925 148.129Z" stroke="#2E2E2E" stroke-width="1.74515" stroke-linejoin="round"/>
<path fill-rule="evenodd" clip-rule="evenodd" d="M189.189 199.848C189.697 204.267 190.178 211.029 190.178 220.793C190.178 229.885 189.911 236.686 189.481 241.758C190.696 245.846 191.527 249.441 191.527 252.613C191.527 252.652 191.526 252.685 191.526 252.722C194.814 244.317 197.522 231.392 197.522 218.892C197.522 199.918 197.651 193.014 197.651 193.014C194.08 193.509 191.361 196.102 189.189 199.848Z" stroke="#2E2E2E" stroke-width="1.74515" stroke-linejoin="round"/>
<path fill-rule="evenodd" clip-rule="evenodd" d="M210.561 182.754C207.107 187.677 202.243 192.376 197.651 193.013C197.618 193.018 197.587 193.027 197.554 193.032C197.592 197.331 197.651 204.926 197.651 210.573C197.651 218.891 204.337 233.623 204.337 238.624C204.337 243.626 203.73 244.496 204.337 246.017C204.944 247.54 206.494 255.223 206.967 258.195C207.095 258.998 207.317 259.633 207.571 260.138C208.269 256.775 211.534 248.725 211.534 224.714C211.534 217.97 212.416 208.547 213.155 199.173C211.736 194.233 210.194 187.536 210.561 182.754Z" stroke="#2E2E2E" stroke-width="1.74515" stroke-linejoin="round"/>
<path fill-rule="evenodd" clip-rule="evenodd" d="M199.28 255.803C199.28 250.366 197.055 245.365 196.044 248.627C195.033 251.889 192.606 256.021 191.172 258.724C190.371 264.439 188.475 264.819 188.304 275.145C188.313 275.672 188.311 276.186 188.291 276.678C188.291 277.008 188.301 277.343 188.309 277.677C188.727 284.368 195.157 297.935 197.521 296.914C200.011 295.839 201.101 292.335 200.696 285.594C200.292 278.853 199.28 261.239 199.28 255.803Z" stroke="#2E2E2E" stroke-width="1.74515" stroke-linejoin="round"/>
<path fill-rule="evenodd" clip-rule="evenodd" d="M207.439 261.167C207.439 260.879 207.487 260.54 207.57 260.136C207.316 259.631 207.093 258.997 206.966 258.195C206.494 255.223 204.944 247.54 204.337 246.017C203.73 244.495 203.232 240.927 201.973 243.605C200.71 246.294 199.29 249.363 198.68 250.859C198.679 250.861 198.678 250.863 198.678 250.864C199.037 252.28 199.281 254.014 199.281 255.803C199.281 261.239 200.292 278.854 200.697 285.594C200.697 285.594 203 295.235 205.354 294.727C205.975 294.593 206.812 294.454 207.706 294.323C207.707 294.262 207.708 294.219 207.708 294.219C207.708 294.219 210.54 285.685 210.54 279.577C210.54 273.471 207.439 263.854 207.439 261.167Z" stroke="#2E2E2E" stroke-width="1.74515" stroke-linejoin="round"/>
<path fill-rule="evenodd" clip-rule="evenodd" d="M184.344 63.4031C178.7 65.9664 171.655 74.7339 171.655 82.6992C171.655 93.2853 172.45 92.3081 172.45 94.14C172.45 95.1573 172.204 97.1795 171.891 100.145C175.616 95.7568 181.481 90.7554 187.144 87.9291C192.806 85.1029 190.708 79.5814 197.518 76.6882C193.85 70.7517 187.365 65.8851 184.344 63.4031Z" stroke="#2E2E2E" stroke-width="1.74515" stroke-linejoin="round"/>
<path fill-rule="evenodd" clip-rule="evenodd" d="M172.382 93.3345C172.368 93.259 172.351 93.1825 172.334 93.1051C172.351 93.1835 172.368 93.2581 172.382 93.3345Z" stroke="#2E2E2E" stroke-width="1.74515" stroke-linejoin="round"/>
<path fill-rule="evenodd" clip-rule="evenodd" d="M172.451 94.1403C172.451 94.299 172.443 94.4893 172.432 94.6959C172.443 94.4893 172.451 94.299 172.451 94.1403Z" stroke="#2E2E2E" stroke-width="1.74515" stroke-linejoin="round"/>
<path fill-rule="evenodd" clip-rule="evenodd" d="M172.383 93.3435C172.397 93.4181 172.408 93.4936 172.418 93.572C172.408 93.4936 172.397 93.4181 172.383 93.3435Z" stroke="#2E2E2E" stroke-width="1.74515" stroke-linejoin="round"/>
<path fill-rule="evenodd" clip-rule="evenodd" d="M172.443 93.844C172.448 93.9358 172.45 94.0333 172.45 94.1404C172.45 94.0333 172.448 93.9358 172.443 93.844Z" stroke="#2E2E2E" stroke-width="1.74515" stroke-linejoin="round"/>
<path fill-rule="evenodd" clip-rule="evenodd" d="M172.42 93.5835C172.429 93.6628 172.437 93.745 172.442 93.8349C172.437 93.745 172.429 93.6628 172.42 93.5835Z" stroke="#2E2E2E" stroke-width="1.74515" stroke-linejoin="round"/>
<path fill-rule="evenodd" clip-rule="evenodd" d="M171.891 100.145C171.333 105.42 170.558 113.715 170.558 124.896C170.558 125.209 170.393 125.751 170.111 126.464C172.303 129.706 175.062 132.941 177.436 132.941C179.519 132.941 181.793 131.235 183.647 129.475C183.665 129.399 183.681 129.321 183.706 129.245C186.133 121.851 186.015 113.476 187.095 113.476C187.286 113.476 187.528 113.812 187.797 114.416C188.102 108.701 187.64 97.4018 184.588 89.3447C179.768 92.2484 175.056 96.4161 171.891 100.145Z" stroke="#2E2E2E" stroke-width="1.74515" stroke-linejoin="round"/>
<path fill-rule="evenodd" clip-rule="evenodd" d="M171.893 100.121C172.04 98.7342 172.171 97.5621 172.269 96.5955C172.171 97.5563 172.039 98.74 171.893 100.121Z" stroke="#2E2E2E" stroke-width="1.74515" stroke-linejoin="round"/>
<path fill-rule="evenodd" clip-rule="evenodd" d="M172.378 95.4457C172.395 95.2459 172.409 95.0594 172.42 94.8883C172.409 95.0604 172.396 95.2449 172.378 95.4457Z" stroke="#2E2E2E" stroke-width="1.74515" stroke-linejoin="round"/>
<path fill-rule="evenodd" clip-rule="evenodd" d="M172.362 95.625C172.339 95.8994 172.31 96.1939 172.277 96.518C172.31 96.1958 172.339 95.8984 172.362 95.625Z" stroke="#2E2E2E" stroke-width="1.74515" stroke-linejoin="round"/>
<path fill-rule="evenodd" clip-rule="evenodd" d="M160.11 171.168C159.253 169.096 159.878 155.462 160.74 151.615C161.602 147.767 167.439 137.508 170.112 135.986C172.783 134.464 173.997 148.816 172.783 152.73C171.57 156.644 166.311 175.932 166.311 175.932C166.311 175.932 160.967 173.24 160.11 171.168Z" stroke="#2E2E2E" stroke-width="1.74515" stroke-linejoin="round"/>
<path fill-rule="evenodd" clip-rule="evenodd" d="M270.457 171.168C271.315 169.096 270.689 155.462 269.828 151.615C268.965 147.767 263.128 137.508 260.456 135.986C257.784 134.464 256.57 148.816 257.784 152.73C258.997 156.644 264.256 175.932 264.256 175.932C264.256 175.932 269.6 173.24 270.457 171.168Z" stroke="#2E2E2E" stroke-width="1.74515" stroke-linejoin="round"/>
<path fill-rule="evenodd" clip-rule="evenodd" d="M172.784 152.73C171.923 155.726 170.22 161.794 168.633 167.461C167.363 172.074 166.311 175.932 166.311 175.932C166.311 175.932 172.484 165.364 175.211 161.211C177.937 157.057 182.809 141.414 183.302 135.552C180.874 138.596 174.647 146.241 172.784 152.73Z" stroke="#2E2E2E" stroke-width="1.74515" stroke-linejoin="round"/>
<path fill-rule="evenodd" clip-rule="evenodd" d="M201.506 86.8416C200.479 81.9186 199.121 79.5063 197.519 76.6877C191.291 78.9585 192.807 85.1024 187.144 87.9287C186.294 88.3532 185.44 88.8322 184.588 89.3447C187.954 92.9301 190.594 95.4781 193.42 96.5958C196.246 97.7144 201.303 97.4725 204.033 96.0718C202.983 92.8345 202.095 89.6688 201.506 86.8416Z" stroke="#2E2E2E" stroke-width="1.74515" stroke-linejoin="round"/>
<path fill-rule="evenodd" clip-rule="evenodd" d="M204.033 96.0716C201.303 97.4723 196.246 97.7142 193.42 96.5956C190.594 95.4779 187.954 92.9299 184.587 89.3445C187.641 97.4016 188.101 108.701 187.797 114.416C187.772 114.358 189.947 121.631 190.432 127.55C193.419 131.799 197.651 139.247 197.651 139.247C206.682 127.249 210.203 122.721 213.033 117.787C210.167 111.886 206.967 105.053 204.033 96.0716Z" stroke="#2E2E2E" stroke-width="1.74515" stroke-linejoin="round"/>
<path fill-rule="evenodd" clip-rule="evenodd" d="M210.561 182.754C210.547 182.774 210.532 182.794 210.518 182.813C210.425 182.946 210.328 183.077 210.233 183.209C210.069 183.437 209.902 183.664 209.732 183.89C209.629 184.027 209.525 184.162 209.42 184.298C209.234 184.538 209.046 184.776 208.855 185.012C208.768 185.12 208.683 185.227 208.596 185.333C208.015 186.036 207.409 186.717 206.784 187.367C206.733 187.421 206.68 187.473 206.629 187.527C206.351 187.811 206.071 188.088 205.787 188.359C205.739 188.405 205.691 188.451 205.642 188.496C204.968 189.129 204.279 189.72 203.576 190.251C204.28 195.89 205.825 202.689 207.371 204.702C208.604 206.305 210.417 198.494 211.4 191.982C210.761 188.735 210.355 185.443 210.561 182.754Z" stroke="#2E2E2E" stroke-width="1.74515" stroke-linejoin="round"/>
<path fill-rule="evenodd" clip-rule="evenodd" d="M241.643 148.129C241.643 151.671 247.172 154.929 247.172 169.097C247.172 172.762 250.807 179.601 250.807 194.422C250.807 203.633 249.561 211.734 247.883 218.891C244.974 206.803 241.276 194.173 232.916 193.013C224.556 191.853 215.283 177.23 215.283 172.301C215.283 172.301 231.583 148.527 231.583 145.916C231.583 143.307 237.233 145.413 241.643 148.129Z" stroke="#2E2E2E" stroke-width="1.74515" stroke-linejoin="round"/>
<path fill-rule="evenodd" clip-rule="evenodd" d="M241.378 199.848C240.87 204.267 240.389 211.029 240.389 220.793C240.389 229.885 240.657 236.686 241.086 241.758C239.872 245.846 239.041 249.441 239.041 252.613C239.041 252.652 239.042 252.685 239.042 252.722C235.753 244.317 233.045 231.392 233.045 218.892C233.045 199.918 232.916 193.014 232.916 193.014C236.488 193.509 239.206 196.102 241.378 199.848Z" stroke="#2E2E2E" stroke-width="1.74515" stroke-linejoin="round"/>
<path fill-rule="evenodd" clip-rule="evenodd" d="M220.006 182.754C223.461 187.677 228.325 192.376 232.916 193.013C232.949 193.018 232.981 193.027 233.014 193.032C232.976 197.331 232.916 204.926 232.916 210.573C232.916 218.891 226.23 233.623 226.23 238.624C226.23 243.626 226.837 244.496 226.23 246.017C225.623 247.54 224.073 255.223 223.6 258.195C223.473 258.998 223.251 259.633 222.996 260.138C222.297 256.775 219.033 248.725 219.033 224.714C219.033 217.97 218.151 208.547 217.412 199.173C218.831 194.233 220.374 187.536 220.006 182.754Z" stroke="#2E2E2E" stroke-width="1.74515" stroke-linejoin="round"/>
<path fill-rule="evenodd" clip-rule="evenodd" d="M231.287 255.803C231.287 250.366 233.512 245.365 234.523 248.627C235.534 251.889 237.962 256.021 239.395 258.724C240.196 264.439 242.093 264.819 242.264 275.145C242.254 275.672 242.257 276.186 242.276 276.678C242.276 277.008 242.267 277.343 242.258 277.677C241.841 284.368 235.411 297.935 233.046 296.914C230.557 295.839 229.466 292.335 229.871 285.594C230.276 278.853 231.287 261.239 231.287 255.803Z" stroke="#2E2E2E" stroke-width="1.74515" stroke-linejoin="round"/>
<path fill-rule="evenodd" clip-rule="evenodd" d="M223.129 261.167C223.129 260.879 223.081 260.54 222.997 260.136C223.252 259.631 223.473 258.997 223.601 258.195C224.072 255.223 225.623 247.54 226.23 246.017C226.837 244.495 227.335 240.927 228.594 243.605C229.858 246.294 231.277 249.363 231.888 250.859C231.889 250.861 231.889 250.863 231.89 250.864C231.53 252.28 231.287 254.014 231.287 255.803C231.287 261.239 230.276 278.854 229.871 285.594C229.871 285.594 227.568 295.235 225.213 294.727C224.593 294.593 223.756 294.454 222.861 294.323C222.86 294.262 222.859 294.219 222.859 294.219C222.859 294.219 220.028 285.685 220.028 279.577C220.028 273.471 223.129 263.854 223.129 261.167Z" stroke="#2E2E2E" stroke-width="1.74515" stroke-linejoin="round"/>
<path fill-rule="evenodd" clip-rule="evenodd" d="M246.223 63.4031C251.868 65.9664 258.913 74.7339 258.913 82.6992C258.913 93.2853 258.117 92.3081 258.117 94.14C258.117 95.1573 258.363 97.1795 258.677 100.145C254.952 95.7568 249.086 90.7554 243.423 87.9291C237.761 85.1029 239.86 79.5814 233.049 76.6882C236.717 70.7517 243.202 65.8851 246.223 63.4031Z" stroke="#2E2E2E" stroke-width="1.74515" stroke-linejoin="round"/>
<path fill-rule="evenodd" clip-rule="evenodd" d="M258.186 93.3345C258.2 93.259 258.216 93.1825 258.234 93.1051C258.216 93.1835 258.2 93.2581 258.186 93.3345Z" stroke="#2E2E2E" stroke-width="1.74515" stroke-linejoin="round"/>
<path fill-rule="evenodd" clip-rule="evenodd" d="M258.117 94.1403C258.117 94.299 258.125 94.4893 258.135 94.6959C258.125 94.4893 258.117 94.299 258.117 94.1403Z" stroke="#2E2E2E" stroke-width="1.74515" stroke-linejoin="round"/>
<path fill-rule="evenodd" clip-rule="evenodd" d="M258.184 93.3435C258.171 93.4181 258.159 93.4936 258.149 93.572C258.159 93.4936 258.171 93.4181 258.184 93.3435Z" stroke="#2E2E2E" stroke-width="1.74515" stroke-linejoin="round"/>
<path fill-rule="evenodd" clip-rule="evenodd" d="M258.125 93.844C258.12 93.9358 258.117 94.0333 258.117 94.1404C258.117 94.0333 258.12 93.9358 258.125 93.844Z" stroke="#2E2E2E" stroke-width="1.74515" stroke-linejoin="round"/>
<path fill-rule="evenodd" clip-rule="evenodd" d="M258.148 93.5835C258.138 93.6628 258.13 93.745 258.126 93.8349C258.13 93.745 258.138 93.6628 258.148 93.5835Z" stroke="#2E2E2E" stroke-width="1.74515" stroke-linejoin="round"/>
<path fill-rule="evenodd" clip-rule="evenodd" d="M258.677 100.145C259.235 105.42 260.009 113.715 260.009 124.896C260.009 125.209 260.174 125.751 260.456 126.464C258.264 129.706 255.506 132.941 253.132 132.941C251.048 132.941 248.774 131.235 246.92 129.475C246.902 129.399 246.887 129.321 246.861 129.245C244.434 121.851 244.552 113.476 243.473 113.476C243.282 113.476 243.039 113.812 242.77 114.416C242.466 108.701 242.928 97.4018 245.98 89.3447C250.799 92.2484 255.511 96.4161 258.677 100.145Z" stroke="#2E2E2E" stroke-width="1.74515" stroke-linejoin="round"/>
<path fill-rule="evenodd" clip-rule="evenodd" d="M258.674 100.121C258.528 98.7342 258.397 97.5621 258.298 96.5955C258.397 97.5563 258.528 98.74 258.674 100.121Z" stroke="#2E2E2E" stroke-width="1.74515" stroke-linejoin="round"/>
<path fill-rule="evenodd" clip-rule="evenodd" d="M258.189 95.4457C258.173 95.2459 258.158 95.0594 258.148 94.8883C258.158 95.0604 258.173 95.2449 258.189 95.4457Z" stroke="#2E2E2E" stroke-width="1.74515" stroke-linejoin="round"/>
<path fill-rule="evenodd" clip-rule="evenodd" d="M258.204 95.625C258.228 95.8994 258.257 96.1939 258.289 96.518C258.258 96.1958 258.228 95.8984 258.204 95.625Z" stroke="#2E2E2E" stroke-width="1.74515" stroke-linejoin="round"/>
<path fill-rule="evenodd" clip-rule="evenodd" d="M257.784 152.73C258.644 155.726 260.348 161.794 261.934 167.461C263.205 172.074 264.257 175.932 264.257 175.932C264.257 175.932 258.084 165.364 255.357 161.211C252.63 157.057 247.758 141.414 247.266 135.552C249.693 138.596 255.921 146.241 257.784 152.73Z" stroke="#2E2E2E" stroke-width="1.74515" stroke-linejoin="round"/>
<path fill-rule="evenodd" clip-rule="evenodd" d="M229.062 86.8416C230.088 81.9186 231.446 79.5063 233.049 76.6877C239.276 78.9585 237.761 85.1024 243.423 87.9287C244.273 88.3532 245.128 88.8322 245.98 89.3447C242.614 92.9301 239.973 95.4781 237.147 96.5958C234.321 97.7144 229.265 97.4725 226.534 96.0718C227.585 92.8345 228.472 89.6688 229.062 86.8416Z" stroke="#2E2E2E" stroke-width="1.74515" stroke-linejoin="round"/>
<path fill-rule="evenodd" clip-rule="evenodd" d="M232.916 139.248C230.073 135.333 217.128 118.552 217.533 117.794C217.533 117.792 217.533 117.788 217.534 117.786C216.603 119.497 215.817 120.709 215.283 121.199C214.75 120.709 213.964 119.497 213.033 117.786C213.034 117.788 213.033 117.792 213.035 117.794C213.439 118.552 200.494 135.333 197.651 139.248C197.651 139.248 199.281 142.727 198.984 145.917C198.984 148.526 215.283 172.3 215.283 172.3C215.283 172.3 231.583 148.526 231.583 145.917C231.286 142.727 232.916 139.248 232.916 139.248Z" stroke="#2E2E2E" stroke-width="1.74515" stroke-linejoin="round"/>
<path fill-rule="evenodd" clip-rule="evenodd" d="M226.535 96.0716C229.265 97.4723 234.322 97.7142 237.147 96.5956C239.974 95.4779 242.614 92.9299 245.98 89.3445C242.927 97.4016 242.466 108.701 242.77 114.416C242.795 114.358 240.621 121.631 240.134 127.55C237.148 131.799 232.916 139.247 232.916 139.247C223.884 127.249 220.364 122.721 217.534 117.787C220.401 111.886 223.601 105.053 226.535 96.0716Z" stroke="#2E2E2E" stroke-width="1.74515" stroke-linejoin="round"/>
<path fill-rule="evenodd" clip-rule="evenodd" d="M220.006 182.754C220.02 182.774 220.035 182.794 220.049 182.813C220.143 182.946 220.24 183.077 220.335 183.209C220.499 183.437 220.665 183.664 220.836 183.89C220.938 184.027 221.043 184.162 221.148 184.298C221.333 184.538 221.522 184.776 221.712 185.012C221.8 185.12 221.884 185.227 221.971 185.333C222.553 186.036 223.158 186.717 223.783 187.367C223.834 187.421 223.887 187.473 223.938 187.527C224.216 187.811 224.496 188.088 224.78 188.359C224.828 188.405 224.877 188.451 224.925 188.496C225.599 189.129 226.288 189.72 226.991 190.251C226.287 195.89 224.742 202.689 223.196 204.702C221.964 206.305 220.15 198.494 219.167 191.982C219.807 188.735 220.212 185.443 220.006 182.754Z" stroke="#2E2E2E" stroke-width="1.74515" stroke-linejoin="round"/>
<path fill-rule="evenodd" clip-rule="evenodd" d="M200.392 24.7722C200.392 23.382 198.541 22.99 197.334 22.99C196.126 22.99 195.662 24.9863 196.59 29.678C197.52 34.3696 201.218 35.7339 201.218 35.7339L200.392 24.7722Z" stroke="#2E2E2E" stroke-width="1.74515" stroke-linejoin="round"/>
<path fill-rule="evenodd" clip-rule="evenodd" d="M230.174 24.7722C230.174 23.382 232.027 22.99 233.234 22.99C234.441 22.99 234.905 24.9863 233.976 29.678C233.048 34.3696 229.349 35.7339 229.349 35.7339L230.174 24.7722Z" stroke="#2E2E2E" stroke-width="1.74515" stroke-linejoin="round"/>
<path fill-rule="evenodd" clip-rule="evenodd" d="M237.401 61.0389L224.41 52.8097L225.007 46.6457C225.007 46.6457 222.099 36.9651 215.284 36.9651C208.468 36.9651 205.561 46.6457 205.561 46.6457L206.158 52.8097L193.167 61.0389C190.147 61.0389 187.127 61.9128 184.345 63.4024C190.785 68.7929 198.877 74.2294 201.505 86.8414C204.135 99.4534 212.678 118.807 215.284 121.199C217.89 118.807 226.433 99.4534 229.063 86.8414C231.691 74.2294 239.783 68.7929 246.223 63.4024C243.441 61.9128 240.421 61.0389 237.401 61.0389Z" stroke="#2E2E2E" stroke-width="1.74515" stroke-linejoin="round"/>
<path fill-rule="evenodd" clip-rule="evenodd" d="M205.56 46.6465C205.56 46.6465 208.469 36.9649 215.284 36.9649C222.1 36.9649 225.007 46.6465 225.007 46.6465C227.32 44.2008 228.891 41.9195 228.891 41.9195C228.891 41.9195 230.666 20.9301 230.666 15.8417C230.666 10.7533 225.539 1 215.284 1C205.029 1 199.902 10.7533 199.902 15.8417C199.902 20.9301 201.676 41.9195 201.676 41.9195C201.676 41.9195 203.247 44.2008 205.56 46.6465Z" stroke="#2E2E2E" stroke-width="1.74515" stroke-linejoin="round"/>
<path fill-rule="evenodd" clip-rule="evenodd" d="M278.738 186.571C276.581 180.802 273.773 176.952 273.359 171.43C272.945 165.909 269.361 149.292 268.023 143.726C266.684 138.161 260.009 126.891 260.009 124.896C260.009 107.429 258.117 96.9658 258.117 94.1405C258.117 92.3077 258.913 93.2848 258.913 82.6988C258.913 75.0853 253.348 67.2194 246.223 63.4026C246.207 63.394 246.191 63.3873 246.175 63.3787C245.862 63.2114 245.545 63.0527 245.226 62.9016C245.12 62.8519 245.012 62.806 244.906 62.7582C244.673 62.6531 244.441 62.5498 244.206 62.4532C244.078 62.3997 243.948 62.3519 243.818 62.3012C243.604 62.218 243.388 62.1377 243.171 62.0612C243.033 62.0134 242.892 61.9675 242.752 61.9226C242.543 61.8547 242.332 61.7897 242.12 61.7285C241.977 61.6874 241.833 61.6482 241.689 61.6109C241.477 61.5554 241.265 61.5048 241.052 61.4579C240.908 61.4254 240.765 61.3939 240.621 61.3652C240.403 61.3221 240.183 61.2858 239.963 61.2514C239.826 61.2294 239.688 61.2045 239.549 61.1864C239.31 61.1548 239.069 61.1319 238.829 61.1108C238.71 61.1003 238.593 61.085 238.476 61.0774C238.118 61.0535 237.76 61.0391 237.401 61.0391L224.41 52.8099L225.007 46.6459C225.007 46.6459 222.099 36.9644 215.283 36.9644C208.468 36.9644 205.56 46.6459 205.56 46.6459L206.158 52.8099L193.166 61.0391C192.808 61.0391 192.45 61.0535 192.092 61.0774C191.974 61.085 191.856 61.1003 191.739 61.1108C191.498 61.1319 191.258 61.1548 191.018 61.1864C190.88 61.2045 190.742 61.2294 190.603 61.2514C190.385 61.2858 190.165 61.3221 189.946 61.3652C189.803 61.3939 189.659 61.4254 189.515 61.4579C189.303 61.5048 189.091 61.5554 188.879 61.6109C188.735 61.6482 188.591 61.6874 188.448 61.7285C188.236 61.7897 188.025 61.8547 187.815 61.9226C187.675 61.9675 187.535 62.0134 187.396 62.0612C187.179 62.1377 186.964 62.218 186.749 62.3012C186.619 62.3519 186.489 62.3997 186.36 62.4532C186.126 62.5498 185.894 62.6531 185.661 62.7582C185.555 62.806 185.448 62.8519 185.342 62.9016C185.023 63.0527 184.706 63.2114 184.392 63.3787C184.376 63.3873 184.36 63.394 184.344 63.4026H184.345C177.219 67.2194 171.655 75.0853 171.655 82.6988C171.655 93.2848 172.45 92.3077 172.45 94.1405C172.45 96.9658 170.559 107.429 170.559 124.896C170.559 126.891 163.883 138.161 162.545 143.726C161.206 149.292 157.622 165.909 157.209 171.43C156.795 176.952 153.987 180.802 151.83 186.571C148.996 194.151 157.966 198.298 158.614 198.579C159.452 198.942 160.391 198.932 160.674 198.226C161.841 195.323 155.683 191.472 156.787 189.369C157.907 187.237 159.818 184.844 161.382 185.522C162.947 186.201 162.197 191.541 163.762 192.22C165.327 192.899 165.997 192.448 166.476 191.172C166.956 189.897 166.733 179.929 164.359 178.899C165.552 177.143 166.31 175.932 166.31 175.932C166.31 175.932 172.484 165.363 175.211 161.211C177.937 157.057 182.809 141.414 183.301 135.551C184.703 133.352 183.096 131.102 183.706 129.245C186.134 121.851 186.015 113.476 187.095 113.476C188.118 113.476 190.629 123.089 190.629 132.128C190.629 138.968 188.925 136.159 188.925 148.128C188.925 151.67 183.395 154.928 183.395 169.096C183.395 172.761 179.761 179.601 179.761 194.422C179.761 222.76 191.526 240.643 191.526 252.613C191.526 265.439 188.29 261.777 188.29 276.678C188.29 291.58 197.73 311.091 197.73 321.473C197.73 342.349 185.594 331.186 185.594 337.565C185.594 338.95 188.965 340.899 188.965 340.899L198.101 344.758L204.202 345.393C206.91 345.393 209.462 344.379 209.462 339.305C209.462 337.676 209.327 333.576 209.327 331.621C209.327 329.667 207.303 324.038 207.303 317.85C207.303 311.661 207.708 294.219 207.708 294.219C207.708 294.219 210.54 285.685 210.54 279.578C210.54 273.47 207.439 263.853 207.439 261.167C207.439 258.479 211.535 251.598 211.535 224.713C211.535 213.11 214.148 193.566 214.148 180.009H215.283H216.42C216.42 193.566 219.033 213.11 219.033 224.713C219.033 251.598 223.129 258.479 223.129 261.167C223.129 263.853 220.027 273.47 220.027 279.578C220.027 285.685 222.859 294.219 222.859 294.219C222.859 294.219 223.263 311.661 223.263 317.85C223.263 324.038 221.241 329.667 221.241 331.621C221.241 333.576 221.106 337.676 221.106 339.305C221.106 344.379 223.657 345.393 226.365 345.393L232.466 344.758L241.603 340.899C241.603 340.899 244.974 338.95 244.974 337.565C244.974 331.186 232.837 342.349 232.837 321.473C232.837 311.091 242.277 291.58 242.277 276.678C242.277 261.777 239.04 265.439 239.04 252.613C239.04 240.643 250.807 222.76 250.807 194.422C250.807 179.601 247.172 172.761 247.172 169.096C247.172 154.928 241.643 151.67 241.643 148.128C241.643 136.159 239.939 138.968 239.939 132.128C239.939 123.089 242.45 113.476 243.473 113.476C244.552 113.476 244.434 121.851 246.861 129.245C247.471 131.102 245.865 133.352 247.266 135.551C247.759 141.414 252.63 157.057 255.356 161.211C258.084 165.363 264.257 175.932 264.257 175.932C264.257 175.932 265.015 177.143 266.209 178.899C263.835 179.929 263.612 189.897 264.091 191.172C264.57 192.448 265.241 192.899 266.805 192.22C268.37 191.541 267.62 186.201 269.184 185.522C270.75 184.844 272.661 187.237 273.781 189.369C274.885 191.472 268.726 195.323 269.893 198.226C270.177 198.932 271.116 198.942 271.954 198.579C272.601 198.298 281.571 194.151 278.738 186.571Z" stroke="#2E2E2E" stroke-width="1.74515" stroke-linejoin="round"/>
<defs>
<filter id="filter0_d" x="0.0183105" y="67.5684" width="56.4808" height="76.9376" filterUnits="userSpaceOnUse" color-interpolation-filters="sRGB">
<feFlood flood-opacity="0" result="BackgroundImageFix"/>
<feColorMatrix in="SourceAlpha" type="matrix" values="0 0 0 0 0 0 0 0 0 0 0 0 0 0 0 0 0 0 127 0"/>
<feOffset/>
<feGaussianBlur stdDeviation="10"/>
<feColorMatrix type="matrix" values="0 0 0 0 1 0 0 0 0 0.925833 0 0 0 0 0.258333 0 0 0 0.2 0"/>
<feBlend mode="normal" in2="BackgroundImageFix" result="effect1_dropShadow"/>
<feBlend mode="normal" in="SourceGraphic" in2="effect1_dropShadow" result="shape"/>
</filter>
<filter id="filter1_d" x="76.1057" y="67.5684" width="56.4808" height="76.9376" filterUnits="userSpaceOnUse" color-interpolation-filters="sRGB">
<feFlood flood-opacity="0" result="BackgroundImageFix"/>
<feColorMatrix in="SourceAlpha" type="matrix" values="0 0 0 0 0 0 0 0 0 0 0 0 0 0 0 0 0 0 127 0"/>
<feOffset/>
<feGaussianBlur stdDeviation="10"/>
<feColorMatrix type="matrix" values="0 0 0 0 1 0 0 0 0 0.925833 0 0 0 0 0.258333 0 0 0 0.2 0"/>
<feBlend mode="normal" in2="BackgroundImageFix" result="effect1_dropShadow"/>
<feBlend mode="normal" in="SourceGraphic" in2="effect1_dropShadow" result="shape"/>
</filter>
</defs>
</svg>
