<svg width="277" height="328" viewBox="0 0 277 328" fill="none" xmlns="http://www.w3.org/2000/svg">
<path fill-rule="evenodd" clip-rule="evenodd" d="M115.715 176.188C114.897 174.243 113.461 168.142 113.05 163.074C111.954 149.568 111.002 129.415 110.012 125.593C108.651 120.338 105.75 114.906 105.75 113.021C105.75 96.5289 102.054 92.3922 102.054 89.724C102.054 87.9938 102.862 88.9164 102.862 78.921C102.862 68.9256 91.9274 58.4685 80.992 58.4685L70.3649 51.8556V42.3219H70.2669C67.5966 45.2952 62.8262 49.8185 58.5064 49.8185C54.1866 49.8185 49.4162 45.2952 46.7458 42.3219H46.6479V51.8556L36.0208 58.4685C25.0854 58.4685 14.1509 68.9256 14.1509 78.921C14.1509 88.9164 14.9597 87.9938 14.9597 89.724C14.9597 92.3922 11.2629 96.5289 11.2629 113.021C11.2629 114.906 8.36129 120.338 7.00026 125.593C6.01099 129.415 5.05981 149.568 3.96355 163.074C3.55189 168.142 2.1165 174.243 1.2977 176.188C-0.613726 180.73 8.60611 187.688 9.2227 187.935C10.0188 188.257 10.2899 186.66 10.5602 186.038C11.6691 183.474 7.54159 180.428 7.80727 178.649C8.12735 176.51 8.50546 172.755 9.99253 173.354C11.4805 173.953 11.9838 177.359 13.4708 177.958C14.9579 178.557 15.5963 178.159 16.0514 177.033C16.318 176.373 14.6278 172.24 13.1108 168.361C12.0391 165.619 12.2222 163.654 12.2222 163.654C12.2222 163.654 24.0526 136.204 24.5522 130.668C26.1599 128.119 25.4127 126.842 25.6186 124.993C26.4428 117.572 26.4528 103.218 27.5499 103.218C28.59 103.218 28.7051 107.717 28.7051 110.484C28.7051 116.828 33.4411 117.058 33.4411 125.593C33.4411 132.051 31.7083 129.4 31.7083 140.702C31.7083 144.047 26.0864 147.122 26.0864 160.501C26.0864 163.962 22.3905 170.42 22.3905 184.414C22.3905 211.172 29.514 224.205 29.514 235.508C29.514 247.618 27.3187 246.58 27.3187 260.651C27.3187 274.722 36.0979 292.714 36.0979 302.517C36.0979 324.085 28.9364 318.549 28.9364 323.509C28.9364 324.816 30.3219 325.662 30.3219 325.662L42.5666 326.969H48.8803L50.8063 324.662C50.8063 324.662 49.1116 321.741 49.1116 320.202C49.1116 318.665 49.9585 315.666 49.9585 313.82C49.9585 311.975 47.5719 305.516 47.5719 299.673C47.5719 293.829 47.4178 277.028 47.4178 277.028C47.4178 277.028 47.9954 271.493 47.9954 265.726C47.9954 259.959 44.4146 257.076 44.4146 254.539C44.4146 252.001 54.6944 233.547 54.6944 213.018C54.6944 202.061 57.3512 183.607 57.3512 170.805H58.5064H59.6616C59.6616 183.607 62.3184 202.061 62.3184 213.018C62.3184 233.547 72.5991 252.001 72.5991 254.539C72.5991 257.076 69.0174 259.959 69.0174 265.726C69.0174 271.493 69.595 277.028 69.595 277.028C69.595 277.028 69.4418 293.829 69.4418 299.673C69.4418 305.516 67.0543 311.975 67.0543 313.82C67.0543 315.666 67.9012 318.665 67.9012 320.202C67.9012 321.741 66.2074 324.662 66.2074 324.662L68.1325 326.969H74.4471L86.6909 325.662C86.6909 325.662 88.0773 324.816 88.0773 323.509C88.0773 318.549 80.9158 324.085 80.9158 302.517C80.9158 292.714 89.6941 274.722 89.6941 260.651C89.6941 246.58 87.4988 247.618 87.4988 235.508C87.4988 224.205 94.6223 211.172 94.6223 184.414C94.6223 170.42 90.9264 163.962 90.9264 160.501C90.9264 147.122 85.3045 144.047 85.3045 140.702C85.3045 129.4 83.5717 132.051 83.5717 125.593C83.5717 117.058 88.3077 116.828 88.3077 110.484C88.3077 107.717 88.4237 103.218 89.4629 103.218C90.56 103.218 90.57 117.572 91.3942 124.993C91.6001 126.842 90.8529 128.119 92.4606 130.668C92.9611 136.204 104.791 163.654 104.791 163.654C104.791 163.654 104.974 165.619 103.903 168.361C102.386 172.24 100.695 176.373 100.961 177.033C101.417 178.159 102.055 178.557 103.542 177.958C105.03 177.359 105.533 173.953 107.02 173.354C108.507 172.755 108.886 176.51 109.206 178.649C109.472 180.428 105.344 183.474 106.453 186.038C106.723 186.66 106.995 188.257 107.791 187.935C108.406 187.688 117.627 180.73 115.715 176.188Z" fill="#202020"/>
<path fill-rule="evenodd" clip-rule="evenodd" d="M14.1506 78.9213C14.1506 88.9167 14.9595 87.9941 14.9595 89.7243C20.0418 88.6867 23.3913 84.3038 29.5137 74.0386C35.6352 63.7743 40.8336 65.3886 40.8336 62.9667C40.8336 61.1206 37.2528 60.3139 36.0205 58.4688C25.086 58.4688 14.1506 68.925 14.1506 78.9213Z" fill="#202020"/>
<path fill-rule="evenodd" clip-rule="evenodd" d="M53.655 69.4254C52.9767 68.0873 43.2591 62.9664 40.8335 62.9664C40.8335 65.3883 35.6351 63.774 29.5136 74.0383C27.2404 77.8509 25.3489 80.8504 23.6089 83.17H23.6098C26.369 84.6892 25.4704 85.9178 28.0121 88.1098C30.5528 90.3008 38.9856 93.6453 44.1831 93.6453C49.3815 93.6453 56.6074 90.5317 56.6074 90.5317V82.6884C56.6074 74.1542 54.7086 71.5015 53.655 69.4254Z" fill="#202020"/>
<path fill-rule="evenodd" clip-rule="evenodd" d="M46.1853 108.033V100.26C46.1853 97.5684 47.2634 95.5693 49.2655 95.5693C51.2676 95.5693 55.3489 93.8781 55.8114 93.8781C56.2729 93.8781 57.1978 94.032 57.1978 94.9935V105.449C57.1978 106.967 55.3879 107.063 52.8853 107.063C51.4218 107.063 48.3026 108.379 47.6488 109.032C46.9941 109.686 46.1853 108.801 46.1853 108.033Z" fill="#202020"/>
<path fill-rule="evenodd" clip-rule="evenodd" d="M57.1974 112.282C57.1974 111.128 56.6588 110.206 55.2724 110.206H51.7297C50.3433 110.206 46.4161 112.589 46.4161 114.742V119.75C46.4161 120.75 46.8786 121.287 48.1109 121.287H53.5015C54.1942 121.287 57.1974 119.903 57.1974 117.981V112.282Z" fill="#202020"/>
<path fill-rule="evenodd" clip-rule="evenodd" d="M46.0892 131.764V126.045C46.0892 125.064 46.6088 123.68 48.1104 123.68H54.3479C55.2719 123.68 57.1208 124.833 57.1208 126.103V131.764C57.1208 132.629 56.7164 134.128 55.7343 134.128H49.2656C48.2255 134.128 46.0892 133.147 46.0892 131.764Z" fill="#202020"/>
<path fill-rule="evenodd" clip-rule="evenodd" d="M55.4264 136.895H49.0347C47.8024 136.895 46.416 137.895 46.416 139.048C46.416 140.202 52.1149 165.577 56.5816 165.577H57.1202C57.3523 159.586 57.1202 140.073 57.1202 139.048C57.1202 137.818 56.889 136.895 55.4264 136.895Z" fill="#202020"/>
<path fill-rule="evenodd" clip-rule="evenodd" d="M70.8274 108.033V100.26C70.8274 97.5684 69.7493 95.5693 67.7472 95.5693C65.745 95.5693 61.6638 93.8781 61.2013 93.8781C60.7398 93.8781 59.8158 94.032 59.8158 94.9935V105.449C59.8158 106.967 61.6257 107.063 64.1283 107.063C65.5909 107.063 68.7101 108.379 69.3648 109.032C70.0186 109.686 70.8274 108.801 70.8274 108.033Z" fill="#202020"/>
<path fill-rule="evenodd" clip-rule="evenodd" d="M59.8158 112.282C59.8158 111.128 60.3544 110.206 61.7408 110.206H65.2826C66.669 110.206 70.5971 112.589 70.5971 114.742V119.75C70.5971 120.75 70.1346 121.287 68.9023 121.287H63.5117C62.819 121.287 59.8158 119.903 59.8158 117.981V112.282Z" fill="#202020"/>
<path fill-rule="evenodd" clip-rule="evenodd" d="M70.9239 131.764V126.045C70.9239 125.064 70.4043 123.68 68.9027 123.68H62.6652C61.7412 123.68 59.8923 124.833 59.8923 126.103V131.764C59.8923 132.629 60.2967 134.128 61.2788 134.128H67.7475C68.7867 134.128 70.9239 133.147 70.9239 131.764Z" fill="#202020"/>
<path fill-rule="evenodd" clip-rule="evenodd" d="M61.5868 136.895H67.9785C69.2107 136.895 70.5972 137.895 70.5972 139.048C70.5972 140.202 64.8982 165.577 60.4316 165.577H59.893C59.6608 159.586 59.893 140.073 59.893 139.048C59.893 137.818 60.1233 136.895 61.5868 136.895Z" fill="#202020"/>
<path fill-rule="evenodd" clip-rule="evenodd" d="M25.6183 80.3024C25.3753 80.6672 25.1377 81.0212 24.902 81.3635C25.1377 81.0212 25.3753 80.6681 25.6183 80.3024Z" fill="#202020"/>
<path fill-rule="evenodd" clip-rule="evenodd" d="M23.6096 83.1702C23.7656 82.9619 23.9252 82.7401 24.0839 82.521C20.9311 86.8768 18.3242 89.037 14.9592 89.7242C14.9592 92.3924 11.2633 96.5291 11.2633 113.022C11.2633 116.367 19.259 120.669 22.9296 113.022C25.3107 108.062 26.2056 105.995 26.7624 104.777C27.0453 103.797 27.3137 103.219 27.5504 103.219C28.3583 101.835 28.0119 88.1099 28.0119 88.1099C25.4712 85.918 26.3689 84.6894 23.6096 83.1702Z" fill="#202020"/>
<path fill-rule="evenodd" clip-rule="evenodd" d="M24.2196 82.336C24.439 82.0309 24.6603 81.714 24.8852 81.3872C24.6603 81.714 24.439 82.0309 24.2196 82.336Z" fill="#202020"/>
<path fill-rule="evenodd" clip-rule="evenodd" d="M58.5065 1.03162C48.0508 1.03162 42.8234 10.2665 42.8234 15.0849C42.8234 19.9034 44.6323 39.7801 44.6323 39.7801C44.6323 39.7801 52.0722 49.8181 58.5065 49.8181C64.9408 49.8181 72.3807 39.7801 72.3807 39.7801C72.3807 39.7801 74.1897 19.9034 74.1897 15.0849C74.1897 10.2665 68.9623 1.03162 58.5065 1.03162Z" fill="#202020"/>
<path fill-rule="evenodd" clip-rule="evenodd" d="M73.6769 145.893C73.6769 137.357 75.9102 138.049 75.9102 133.513C75.9102 124.056 73.6769 115.982 73.6769 111.753C73.6769 107.524 74.0614 93.6457 74.0614 93.6457L73.88 93.6041C73.5182 93.6312 73.1673 93.6457 72.8291 93.6457C67.6316 93.6457 60.4057 90.5321 60.4057 90.5321H58.507H56.6073C56.6073 90.5321 49.3814 93.6457 44.183 93.6457C43.8466 93.6457 43.4948 93.6312 43.133 93.6041L42.9508 93.6457C42.9508 93.6457 43.3361 107.524 43.3361 111.753C43.3361 115.982 41.1028 124.056 41.1028 133.513C41.1028 138.049 43.3361 137.357 43.3361 145.893C43.3361 148.891 41.0257 151.005 38.0226 151.005C38.0226 157.888 54.1945 170.805 58.507 170.805C62.8186 170.805 78.9905 157.888 78.9905 151.005C75.9864 151.005 73.6769 148.891 73.6769 145.893Z" fill="#202020"/>
<path fill-rule="evenodd" clip-rule="evenodd" d="M78.9904 151.006C80.9925 145.816 85.305 140.703 85.305 140.703Z" fill="#202020"/>
<path fill-rule="evenodd" clip-rule="evenodd" d="M29.4679 233.928C29.4679 234.857 30.0138 235.393 30.4762 235.393C30.9387 235.393 32.0096 230.154 32.0096 226.666C31.8237 226.671 31.7085 226.192 31.7085 224.849C31.7085 220.071 27.2029 211.326 27.2029 194.564C27.2029 177.802 32.3242 159.502 33.4431 152.258L33.2019 148.881C33.0977 146.965 32.9816 142.328 32.9816 142.328L31.7085 140.604C31.7085 140.638 31.7085 140.668 31.7085 140.703C31.7085 144.047 26.0867 147.123 26.0867 160.502C26.0867 163.962 22.3907 170.42 22.3907 184.414C22.3907 185.236 22.398 186.042 22.4107 186.838C22.4143 187.055 22.4216 187.266 22.4261 187.481C22.4379 188.052 22.4497 188.623 22.4678 189.181C22.4769 189.449 22.4896 189.709 22.4996 189.974C22.5186 190.47 22.5367 190.967 22.5612 191.453C22.5748 191.733 22.592 192.005 22.6066 192.281C22.6319 192.742 22.6573 193.204 22.6863 193.656C22.7045 193.933 22.7253 194.204 22.7444 194.478C22.7761 194.921 22.8079 195.362 22.8423 195.795C22.8641 196.06 22.8886 196.32 22.9112 196.583C22.9484 197.016 22.9865 197.448 23.0273 197.872C23.0518 198.122 23.0781 198.367 23.1025 198.614C23.147 199.043 23.1914 199.469 23.2386 199.889C23.2649 200.121 23.2912 200.349 23.3184 200.577C23.3682 201.005 23.4199 201.43 23.4734 201.848C23.4997 202.059 23.5278 202.268 23.555 202.477C23.6121 202.908 23.6702 203.335 23.7309 203.757C23.7572 203.943 23.7835 204.126 23.8107 204.311C23.8751 204.75 23.9404 205.187 24.0084 205.617C24.0329 205.774 24.0574 205.93 24.0827 206.086C24.1553 206.541 24.2296 206.993 24.3049 207.437C24.3258 207.559 24.3466 207.679 24.3675 207.8C24.45 208.281 24.5352 208.757 24.6204 209.226C24.6341 209.302 24.6486 209.38 24.6631 209.456C24.7592 209.981 24.858 210.498 24.9569 211.006C24.9596 211.021 24.9623 211.036 24.9659 211.051C26.8456 220.67 29.1207 227.638 29.4643 233.924L29.4679 233.928Z" fill="#202020"/>
<path fill-rule="evenodd" clip-rule="evenodd" d="M58.5066 49.8184C57.258 49.8184 55.9723 49.4381 54.7101 48.8279H54.7083C54.7083 53.2398 55.5805 66.0039 58.5066 66.0039C61.4327 66.0039 62.305 53.2398 62.305 48.8279H62.3032C61.041 49.4381 59.7552 49.8184 58.5066 49.8184Z" fill="#202020"/>
<path fill-rule="evenodd" clip-rule="evenodd" d="M33.4435 152.259C32.3246 159.502 27.2032 177.802 27.2032 194.564C27.2032 211.326 31.7089 220.071 31.7089 224.848C31.7089 229.626 33.1715 223.475 34.0193 223.475C34.8653 223.475 37.9582 229.337 37.9582 232.971C37.9582 233.141 37.9736 233.237 38.0035 233.267C37.9927 233.084 38.0036 232.873 37.9972 232.683C37.9809 232.193 37.9637 231.703 37.9809 231.172C37.9863 230.986 38.0045 230.785 38.0126 230.595C38.0416 229.999 38.0734 229.4 38.1323 228.771C38.1432 228.655 38.1595 228.534 38.1713 228.417C38.5585 224.541 39.3963 220.243 39.8887 216.861C39.9041 216.764 39.9222 216.654 39.9358 216.559C40.0374 215.841 40.1217 215.168 40.1788 214.555C40.6404 209.637 43.5656 199.494 44.9846 193.493C44.9846 193.493 44.9873 193.441 44.9919 193.362C44.9982 193.261 45.01 193.041 45.0272 192.739C45.03 192.693 45.0327 192.625 45.0354 192.575C45.0499 192.297 45.0662 191.979 45.0862 191.577C45.0862 191.568 45.0862 191.555 45.0871 191.546C45.1088 191.096 45.1315 190.582 45.156 189.999C45.156 189.977 45.1569 189.948 45.1578 189.925C45.2294 188.161 45.3029 185.86 45.3355 183.266C45.3392 183.064 45.3383 182.848 45.3401 182.643C45.3473 181.959 45.3537 181.273 45.3537 180.56C45.3546 179.632 45.3346 177.664 45.3346 177.632C45.3346 173.267 40.3103 159.25 38.3554 153.159C37.9673 151.949 38.1504 151.497 38.0226 151.006C37.2546 148.042 32.9811 142.328 32.9811 142.328L33.4435 152.259Z" fill="#202020"/>
<path fill-rule="evenodd" clip-rule="evenodd" d="M45.3344 177.634C45.3344 177.665 45.3344 177.695 45.3344 177.725C45.3489 178.684 45.3543 179.632 45.3534 180.559C45.3534 181.274 45.3471 181.959 45.3398 182.642C45.338 182.847 45.3389 183.064 45.3353 183.265C45.3026 185.86 45.2292 188.162 45.1584 189.925C45.1566 189.948 45.1557 189.976 45.1557 190C45.1312 190.582 45.1086 191.096 45.0877 191.545C45.0868 191.555 45.0868 191.568 45.0859 191.578C45.0669 191.979 45.0496 192.297 45.0351 192.575C45.0324 192.625 45.0306 192.692 45.027 192.739C45.0106 193.042 44.998 193.26 44.9916 193.362C44.9871 193.441 44.9844 193.493 44.9844 193.493C43.5653 199.494 40.641 209.636 40.1786 214.555C40.1215 215.168 40.0371 215.841 39.9356 216.559C39.9356 216.561 39.9347 216.563 39.9347 216.564C39.8014 217.504 39.6345 218.537 39.4586 219.602C39.3099 220.504 39.1549 221.439 39.0016 222.389C38.9971 222.416 38.9925 222.444 38.988 222.471C38.8311 223.444 38.6779 224.431 38.5401 225.413C38.5364 225.431 38.5346 225.45 38.5319 225.468C38.3914 226.463 38.2681 227.453 38.1719 228.416C38.1683 228.456 38.1629 228.495 38.1583 228.534C38.1502 228.615 38.1384 228.699 38.1311 228.78C38.0749 229.393 38.0432 229.979 38.0151 230.561C38.0105 230.65 38.0042 230.744 37.9997 230.832C37.9924 230.947 37.9842 231.062 37.9806 231.173C37.9643 231.702 37.9806 232.192 37.9978 232.683V232.706C38.0078 233.01 37.9987 233.338 38.0232 233.625C38.4848 239.006 42.3348 238.699 42.3348 238.699C44.8955 238.699 49.9098 237.11 51.5302 234.187C51.7079 233.55 51.8811 232.901 52.0507 232.246C53.5622 226.399 54.6947 219.825 54.6947 213.018C54.6947 211.825 54.7283 210.538 54.7836 209.185C54.7836 199.612 50.044 187.955 45.3344 177.634Z" fill="#202020"/>
<path fill-rule="evenodd" clip-rule="evenodd" d="M87.5451 233.928C87.5451 234.857 86.9984 235.393 86.5368 235.393C86.0744 235.393 85.0035 230.154 85.0035 226.666C85.1885 226.671 85.3046 226.192 85.3046 224.849C85.3046 220.071 89.8102 211.326 89.8102 194.564C89.8102 177.802 84.6889 159.502 83.5699 152.258L83.8111 148.881C83.9154 146.965 84.0315 142.328 84.0315 142.328L85.3046 140.604C85.3046 140.638 85.3046 140.668 85.3046 140.703C85.3046 144.047 90.9264 147.123 90.9264 160.502C90.9264 163.962 94.6223 170.42 94.6223 184.414C94.6223 185.236 94.6151 186.042 94.6024 186.838C94.5987 187.055 94.5915 187.266 94.587 187.481C94.5752 188.052 94.5625 188.623 94.5443 189.181C94.5362 189.449 94.5235 189.709 94.5135 189.974C94.4945 190.47 94.4763 190.967 94.4519 191.453C94.4383 191.733 94.421 192.005 94.4056 192.281C94.3811 192.742 94.3557 193.204 94.3267 193.656C94.3086 193.933 94.2877 194.204 94.2678 194.478C94.237 194.921 94.2052 195.362 94.1699 195.795C94.149 196.06 94.1245 196.32 94.1019 196.583C94.0647 197.016 94.0266 197.448 93.9858 197.872C93.9613 198.122 93.935 198.367 93.9105 198.614C93.8661 199.043 93.8217 199.469 93.7745 199.889C93.7482 200.121 93.7219 200.349 93.6947 200.577C93.6439 201.005 93.5932 201.43 93.5397 201.848C93.5134 202.059 93.4853 202.268 93.4581 202.477C93.4009 202.908 93.3429 203.335 93.2821 203.757C93.2559 203.943 93.2296 204.126 93.2024 204.311C93.138 204.75 93.0718 205.187 93.0047 205.617C92.9802 205.774 92.9557 205.93 92.9303 206.086C92.8578 206.541 92.7834 206.993 92.7073 207.437C92.6873 207.559 92.6665 207.679 92.6456 207.8C92.5631 208.281 92.4779 208.757 92.3926 209.226C92.3781 209.302 92.3645 209.38 92.35 209.456C92.253 209.981 92.1551 210.498 92.0562 211.006C92.0535 211.021 92.0508 211.036 92.0472 211.051C90.1675 220.67 87.8924 227.638 87.5488 233.924L87.5451 233.928Z" fill="#202020"/>
<path fill-rule="evenodd" clip-rule="evenodd" d="M83.5698 152.259C84.6887 159.502 89.81 177.802 89.81 194.564C89.81 211.326 85.3044 220.071 85.3044 224.848C85.3044 229.626 83.8418 223.475 82.994 223.475C82.1471 223.475 79.055 229.337 79.055 232.971C79.055 233.141 79.0387 233.237 79.0097 233.267C79.0206 233.084 79.0097 232.873 79.0161 232.683C79.0324 232.193 79.0496 231.703 79.0324 231.172C79.0269 230.986 79.0088 230.785 78.9997 230.595C78.9716 229.999 78.939 229.4 78.881 228.771C78.8692 228.655 78.8537 228.534 78.8411 228.417C78.4548 224.541 77.6169 220.243 77.1246 216.861C77.1092 216.764 77.091 216.654 77.0774 216.559C76.9759 215.841 76.8915 215.168 76.8344 214.555C76.372 209.637 73.4477 199.494 72.0286 193.493C72.0286 193.493 72.0259 193.441 72.0214 193.362C72.015 193.261 72.0033 193.041 71.986 192.739C71.9833 192.693 71.9797 192.625 71.9779 192.575C71.9634 192.297 71.9461 191.979 71.9271 191.577C71.9262 191.568 71.9262 191.555 71.9262 191.546C71.9044 191.096 71.8817 190.582 71.8573 189.999C71.8573 189.977 71.8564 189.948 71.8545 189.925C71.7838 188.161 71.7104 185.86 71.6777 183.266C71.6741 183.064 71.675 182.848 71.6723 182.643C71.6659 181.959 71.6587 181.273 71.6587 180.56C71.6587 179.632 71.6786 177.664 71.6786 177.632C71.6786 173.267 76.7029 159.25 78.6579 153.159C79.046 151.949 78.8628 151.497 78.9907 151.006C79.7587 148.042 84.0322 142.328 84.0322 142.328L83.5698 152.259Z" fill="#202020"/>
<path fill-rule="evenodd" clip-rule="evenodd" d="M71.6789 177.634C71.6789 177.665 71.678 177.695 71.678 177.725C71.6643 178.684 71.6589 179.632 71.6589 180.559C71.6589 181.274 71.6662 181.959 71.6725 182.642C71.6752 182.847 71.6743 183.064 71.678 183.265C71.7106 185.86 71.784 188.162 71.8548 189.925C71.8566 189.948 71.8566 189.976 71.8575 190C71.882 190.582 71.9046 191.096 71.9255 191.545C71.9264 191.555 71.9264 191.568 71.9273 191.578C71.9463 191.979 71.9627 192.297 71.9781 192.575C71.9799 192.625 71.9826 192.692 71.9862 192.739C72.0026 193.042 72.0153 193.26 72.0207 193.362C72.0261 193.441 72.0289 193.493 72.0289 193.493C73.4479 199.494 76.3722 209.636 76.8346 214.555C76.8918 215.168 76.9761 215.841 77.0776 216.559C77.0776 216.561 77.0786 216.563 77.0786 216.564C77.2118 217.504 77.3787 218.537 77.5546 219.602C77.7024 220.504 77.8584 221.439 78.0116 222.389C78.0161 222.416 78.0207 222.444 78.0252 222.471C78.1821 223.444 78.3353 224.431 78.4731 225.413C78.4759 225.431 78.4786 225.45 78.4813 225.468C78.6209 226.463 78.7452 227.453 78.8413 228.416C78.8449 228.456 78.8494 228.495 78.8549 228.534C78.863 228.615 78.8748 228.699 78.8821 228.78C78.9383 229.393 78.97 229.979 78.9981 230.561C79.0027 230.65 79.009 230.744 79.0136 230.832C79.0208 230.947 79.029 231.062 79.0326 231.173C79.0489 231.702 79.0326 232.192 79.0154 232.683V232.706C79.0054 233.01 79.0145 233.338 78.99 233.625C78.5284 239.006 74.6775 238.699 74.6775 238.699C72.1177 238.699 67.1025 237.11 65.483 234.187C65.3053 233.55 65.1321 232.901 64.9617 232.246C63.451 226.399 62.3185 219.825 62.3185 213.018C62.3185 211.825 62.2849 210.538 62.2296 209.185C62.2296 199.612 66.9692 187.955 71.6789 177.634Z" fill="#202020"/>
<path fill-rule="evenodd" clip-rule="evenodd" d="M47.7588 302.63C47.7616 302.637 47.7652 302.643 47.7679 302.649C47.6555 301.655 47.5711 300.657 47.5711 299.673C47.5711 293.829 47.4179 277.029 47.4179 277.029C47.4179 277.029 47.9955 271.493 47.9955 265.725C47.9955 259.959 44.4147 257.075 44.4147 254.538C42.4634 259.916 37.7936 280.487 47.7588 302.63Z" fill="#202020"/>
<path fill-rule="evenodd" clip-rule="evenodd" d="M27.3188 260.651C27.3188 272.797 33.8502 287.855 35.6392 298.056C35.6392 298.05 35.6401 298.046 35.641 298.04C38.3105 270.139 31.314 262.262 27.561 253.681C27.4141 255.539 27.3188 257.767 27.3188 260.651Z" fill="#202020"/>
<path fill-rule="evenodd" clip-rule="evenodd" d="M69.2542 302.63C69.2515 302.637 69.2479 302.643 69.2443 302.649C69.3576 301.655 69.4419 300.657 69.4419 299.673C69.4419 293.829 69.5952 277.029 69.5952 277.029C69.5952 277.029 69.0176 271.493 69.0176 265.725C69.0176 259.959 72.5983 257.075 72.5983 254.538C74.5488 259.916 79.2194 280.487 69.2542 302.63Z" fill="#202020"/>
<path fill-rule="evenodd" clip-rule="evenodd" d="M89.6938 260.651C89.6938 272.797 83.1633 287.855 81.3743 298.056C81.3734 298.05 81.3725 298.046 81.3716 298.04C78.7021 270.139 85.6995 262.262 89.4526 253.681C89.5995 255.539 89.6938 257.767 89.6938 260.651Z" fill="#202020"/>
<path fill-rule="evenodd" clip-rule="evenodd" d="M11.2631 113.022C11.2631 112.197 11.2794 111.427 11.2966 110.663C11.2767 111.419 11.2631 112.197 11.2631 113.022Z" fill="#202020"/>
<path fill-rule="evenodd" clip-rule="evenodd" d="M15.204 130.668C15.9865 125.925 16.7691 124.212 15.204 121.288C13.639 118.364 12.5953 122.388 8.38797 121.288C7.87112 122.686 7.37694 124.143 7.00064 125.593C6.14467 128.899 6.4185 144.604 5.79919 157.526H5.8001C5.8001 157.526 9.20404 150.779 9.46519 144.007C9.72542 137.235 14.4215 135.411 15.204 130.668Z" fill="#202020"/>
<path fill-rule="evenodd" clip-rule="evenodd" d="M16.1076 138.863C13.8997 145.57 12.2222 163.654 12.2222 163.654C12.2222 163.654 24.0525 136.204 24.5522 130.668C24.5522 130.668 18.3155 132.157 16.1076 138.863Z" fill="#202020"/>
<path fill-rule="evenodd" clip-rule="evenodd" d="M102.862 78.9213C102.862 88.9167 102.053 87.9941 102.053 89.7243C96.971 88.6867 93.6215 84.3038 87.5 74.0386C81.3776 63.7743 76.1792 65.3886 76.1792 62.9667C76.1792 61.1206 79.76 60.3139 80.9922 58.4688C91.9267 58.4688 102.862 68.925 102.862 78.9213Z" fill="#202020"/>
<path fill-rule="evenodd" clip-rule="evenodd" d="M63.3578 69.4254C64.0369 68.0873 73.7537 62.9664 76.1792 62.9664C76.1792 65.3883 81.3776 63.774 87.5 74.0383C89.7732 77.8509 91.6638 80.8504 93.4039 83.17C90.6446 84.6892 91.5423 85.9178 89.0007 88.1098C86.46 90.3008 78.0281 93.6453 72.8297 93.6453C67.6313 93.6453 60.4054 90.5317 60.4054 90.5317V82.6884C60.4054 74.1542 62.305 71.5015 63.3578 69.4254Z" fill="#202020"/>
<path fill-rule="evenodd" clip-rule="evenodd" d="M91.3944 80.3024C91.6374 80.6672 91.8759 81.0212 92.1107 81.3635C91.8759 81.0212 91.6374 80.6681 91.3944 80.3024Z" fill="#202020"/>
<path fill-rule="evenodd" clip-rule="evenodd" d="M93.4037 83.1702C93.2477 82.9619 93.0882 82.7401 92.9286 82.521C96.0822 86.8768 98.6892 89.037 102.054 89.7242C102.054 92.3924 105.75 96.5291 105.75 113.022C105.75 116.367 97.7543 120.669 94.0838 113.022C91.7026 108.062 90.8068 105.995 90.2509 104.777C89.9671 103.797 89.6996 103.219 89.463 103.219C88.6551 101.835 89.0014 88.1099 89.0014 88.1099C91.5421 85.918 90.6445 84.6894 93.4037 83.1702Z" fill="#202020"/>
<path fill-rule="evenodd" clip-rule="evenodd" d="M92.7935 82.336C92.5741 82.0309 92.352 81.714 92.1271 81.3872C92.3529 81.714 92.5741 82.0309 92.7935 82.336Z" fill="#202020"/>
<path fill-rule="evenodd" clip-rule="evenodd" d="M101.809 130.668C101.027 125.925 100.244 124.212 101.809 121.288C103.374 118.364 104.418 122.388 108.625 121.288C109.142 122.686 109.636 124.143 110.012 125.593C110.869 128.899 110.595 144.604 111.214 157.526H111.213C111.213 157.526 107.809 150.779 107.548 144.007C107.287 137.235 102.592 135.411 101.809 130.668Z" fill="#202020"/>
<path fill-rule="evenodd" clip-rule="evenodd" d="M100.906 138.863C103.114 145.57 104.791 163.654 104.791 163.654C104.791 163.654 92.9607 136.204 92.4611 130.668C92.4611 130.668 98.6977 132.157 100.906 138.863Z" fill="#202020"/>
<path fill-rule="evenodd" clip-rule="evenodd" d="M43.2668 23.5419C43.2668 22.2255 41.378 21.8542 40.1484 21.8542C38.9171 21.8542 38.4438 23.7447 39.3904 28.1874C40.3371 32.631 44.1082 33.923 44.1082 33.923L43.2668 23.5419Z" fill="#202020"/>
<path fill-rule="evenodd" clip-rule="evenodd" d="M73.7464 23.5419C73.7464 22.2255 75.6342 21.8542 76.8647 21.8542C78.0961 21.8542 78.5694 23.7447 77.6227 28.1874C76.6752 32.631 72.9049 33.923 72.9049 33.923L73.7464 23.5419Z" fill="#202020"/>
<path fill-rule="evenodd" clip-rule="evenodd" d="M14.1506 78.9213C14.1506 88.9167 14.9595 87.9941 14.9595 89.7243C20.0418 88.6867 23.3913 84.3038 29.5137 74.0386C35.6352 63.7743 40.8336 65.3886 40.8336 62.9667C40.8336 61.1206 37.2528 60.3139 36.0205 58.4688C25.086 58.4688 14.1506 68.925 14.1506 78.9213Z" stroke="#2E2E2E" stroke-width="1.742" stroke-linejoin="round"/>
<path fill-rule="evenodd" clip-rule="evenodd" d="M53.655 69.4254C52.9767 68.0873 43.2591 62.9664 40.8335 62.9664C40.8335 65.3883 35.6351 63.774 29.5136 74.0383C27.2404 77.8509 25.3489 80.8504 23.6089 83.17H23.6098C26.369 84.6892 25.4704 85.9178 28.0121 88.1098C30.5528 90.3008 38.9856 93.6453 44.1831 93.6453C49.3815 93.6453 56.6074 90.5317 56.6074 90.5317V82.6884C56.6074 74.1542 54.7086 71.5015 53.655 69.4254Z" stroke="#2E2E2E" stroke-width="1.742" stroke-linejoin="round"/>
<path fill-rule="evenodd" clip-rule="evenodd" d="M46.1853 108.033V100.26C46.1853 97.5684 47.2634 95.5693 49.2655 95.5693C51.2676 95.5693 55.3489 93.8781 55.8114 93.8781C56.2729 93.8781 57.1978 94.032 57.1978 94.9935V105.449C57.1978 106.967 55.3879 107.063 52.8853 107.063C51.4218 107.063 48.3026 108.379 47.6488 109.032C46.9941 109.686 46.1853 108.801 46.1853 108.033Z" stroke="#2E2E2E" stroke-width="1.742" stroke-linejoin="round"/>
<path fill-rule="evenodd" clip-rule="evenodd" d="M57.1974 112.282C57.1974 111.128 56.6588 110.206 55.2724 110.206H51.7297C50.3433 110.206 46.4161 112.589 46.4161 114.742V119.75C46.4161 120.75 46.8786 121.287 48.1109 121.287H53.5015C54.1942 121.287 57.1974 119.903 57.1974 117.981V112.282Z" stroke="#2E2E2E" stroke-width="1.742" stroke-linejoin="round"/>
<path fill-rule="evenodd" clip-rule="evenodd" d="M46.0892 131.764V126.045C46.0892 125.064 46.6088 123.68 48.1104 123.68H54.3479C55.2719 123.68 57.1208 124.833 57.1208 126.103V131.764C57.1208 132.629 56.7164 134.128 55.7343 134.128H49.2656C48.2255 134.128 46.0892 133.147 46.0892 131.764Z" stroke="#2E2E2E" stroke-width="1.742" stroke-linejoin="round"/>
<path fill-rule="evenodd" clip-rule="evenodd" d="M55.4264 136.895H49.0347C47.8024 136.895 46.416 137.895 46.416 139.048C46.416 140.202 52.1149 165.577 56.5816 165.577H57.1202C57.3523 159.586 57.1202 140.073 57.1202 139.048C57.1202 137.818 56.889 136.895 55.4264 136.895Z" stroke="#2E2E2E" stroke-width="1.742" stroke-linejoin="round"/>
<path fill-rule="evenodd" clip-rule="evenodd" d="M70.8274 108.033V100.26C70.8274 97.5684 69.7493 95.5693 67.7472 95.5693C65.745 95.5693 61.6638 93.8781 61.2013 93.8781C60.7398 93.8781 59.8158 94.032 59.8158 94.9935V105.449C59.8158 106.967 61.6257 107.063 64.1283 107.063C65.5909 107.063 68.7101 108.379 69.3648 109.032C70.0186 109.686 70.8274 108.801 70.8274 108.033Z" stroke="#2E2E2E" stroke-width="1.742" stroke-linejoin="round"/>
<path fill-rule="evenodd" clip-rule="evenodd" d="M59.8158 112.282C59.8158 111.128 60.3544 110.206 61.7408 110.206H65.2826C66.669 110.206 70.5971 112.589 70.5971 114.742V119.75C70.5971 120.75 70.1346 121.287 68.9023 121.287H63.5117C62.819 121.287 59.8158 119.903 59.8158 117.981V112.282Z" stroke="#2E2E2E" stroke-width="1.742" stroke-linejoin="round"/>
<path fill-rule="evenodd" clip-rule="evenodd" d="M70.9239 131.764V126.045C70.9239 125.064 70.4043 123.68 68.9027 123.68H62.6652C61.7412 123.68 59.8923 124.833 59.8923 126.103V131.764C59.8923 132.629 60.2967 134.128 61.2788 134.128H67.7475C68.7867 134.128 70.9239 133.147 70.9239 131.764Z" stroke="#2E2E2E" stroke-width="1.742" stroke-linejoin="round"/>
<path fill-rule="evenodd" clip-rule="evenodd" d="M61.5868 136.895H67.9785C69.2107 136.895 70.5972 137.895 70.5972 139.048C70.5972 140.202 64.8982 165.577 60.4316 165.577H59.893C59.6608 159.586 59.893 140.073 59.893 139.048C59.893 137.818 60.1233 136.895 61.5868 136.895Z" stroke="#2E2E2E" stroke-width="1.742" stroke-linejoin="round"/>
<path fill-rule="evenodd" clip-rule="evenodd" d="M25.6183 80.3024C25.3753 80.6672 25.1377 81.0212 24.902 81.3635C25.1377 81.0212 25.3753 80.6681 25.6183 80.3024Z" stroke="#2E2E2E" stroke-width="1.742" stroke-linejoin="round"/>
<path fill-rule="evenodd" clip-rule="evenodd" d="M23.6096 83.1702C23.7656 82.9619 23.9252 82.7401 24.0839 82.521C20.9311 86.8768 18.3242 89.037 14.9592 89.7242C14.9592 92.3924 11.2633 96.5291 11.2633 113.022C11.2633 116.367 19.259 120.669 22.9296 113.022C25.3107 108.062 26.2056 105.995 26.7624 104.777C27.0453 103.797 27.3137 103.219 27.5504 103.219C28.3583 101.835 28.0119 88.1099 28.0119 88.1099C25.4712 85.918 26.3689 84.6894 23.6096 83.1702Z" stroke="#2E2E2E" stroke-width="1.742" stroke-linejoin="round"/>
<path fill-rule="evenodd" clip-rule="evenodd" d="M24.2196 82.336C24.439 82.0309 24.6603 81.714 24.8852 81.3872C24.6603 81.714 24.439 82.0309 24.2196 82.336Z" stroke="#2E2E2E" stroke-width="1.742" stroke-linejoin="round"/>
<path fill-rule="evenodd" clip-rule="evenodd" d="M58.5065 1.03162C48.0508 1.03162 42.8234 10.2665 42.8234 15.0849C42.8234 19.9034 44.6323 39.7801 44.6323 39.7801C44.6323 39.7801 52.0722 49.8181 58.5065 49.8181C64.9408 49.8181 72.3807 39.7801 72.3807 39.7801C72.3807 39.7801 74.1897 19.9034 74.1897 15.0849C74.1897 10.2665 68.9623 1.03162 58.5065 1.03162Z" stroke="#2E2E2E" stroke-width="1.742" stroke-linejoin="round"/>
<path fill-rule="evenodd" clip-rule="evenodd" d="M73.6769 145.893C73.6769 137.357 75.9102 138.049 75.9102 133.513C75.9102 124.056 73.6769 115.982 73.6769 111.753C73.6769 107.524 74.0614 93.6457 74.0614 93.6457L73.88 93.6041C73.5182 93.6312 73.1673 93.6457 72.8291 93.6457C67.6316 93.6457 60.4057 90.5321 60.4057 90.5321H58.507H56.6073C56.6073 90.5321 49.3814 93.6457 44.183 93.6457C43.8466 93.6457 43.4948 93.6312 43.133 93.6041L42.9508 93.6457C42.9508 93.6457 43.3361 107.524 43.3361 111.753C43.3361 115.982 41.1028 124.056 41.1028 133.513C41.1028 138.049 43.3361 137.357 43.3361 145.893C43.3361 148.891 41.0257 151.005 38.0226 151.005C38.0226 157.888 54.1945 170.805 58.507 170.805C62.8186 170.805 78.9905 157.888 78.9905 151.005C75.9864 151.005 73.6769 148.891 73.6769 145.893Z" stroke="#2E2E2E" stroke-width="1.742" stroke-linejoin="round"/>
<path d="M78.9904 151.006C80.9925 145.816 85.305 140.703 85.305 140.703" stroke="#2E2E2E" stroke-width="1.742" stroke-linejoin="round"/>
<path fill-rule="evenodd" clip-rule="evenodd" d="M29.4679 233.928C29.4679 234.857 30.0138 235.393 30.4762 235.393C30.9387 235.393 32.0096 230.154 32.0096 226.666C31.8237 226.671 31.7085 226.192 31.7085 224.849C31.7085 220.071 27.2029 211.326 27.2029 194.564C27.2029 177.802 32.3242 159.502 33.4431 152.258L33.2019 148.881C33.0977 146.965 32.9816 142.328 32.9816 142.328L31.7085 140.604C31.7085 140.638 31.7085 140.668 31.7085 140.703C31.7085 144.047 26.0867 147.123 26.0867 160.502C26.0867 163.962 22.3907 170.42 22.3907 184.414C22.3907 185.236 22.398 186.042 22.4107 186.838C22.4143 187.055 22.4216 187.266 22.4261 187.481C22.4379 188.052 22.4497 188.623 22.4678 189.181C22.4769 189.449 22.4896 189.709 22.4996 189.974C22.5186 190.47 22.5367 190.967 22.5612 191.453C22.5748 191.733 22.592 192.005 22.6066 192.281C22.6319 192.742 22.6573 193.204 22.6863 193.656C22.7045 193.933 22.7253 194.204 22.7444 194.478C22.7761 194.921 22.8079 195.362 22.8423 195.795C22.8641 196.06 22.8886 196.32 22.9112 196.583C22.9484 197.016 22.9865 197.448 23.0273 197.872C23.0518 198.122 23.0781 198.367 23.1025 198.614C23.147 199.043 23.1914 199.469 23.2386 199.889C23.2649 200.121 23.2912 200.349 23.3184 200.577C23.3682 201.005 23.4199 201.43 23.4734 201.848C23.4997 202.059 23.5278 202.268 23.555 202.477C23.6121 202.908 23.6702 203.335 23.7309 203.757C23.7572 203.943 23.7835 204.126 23.8107 204.311C23.8751 204.75 23.9404 205.187 24.0084 205.617C24.0329 205.774 24.0574 205.93 24.0827 206.086C24.1553 206.541 24.2296 206.993 24.3049 207.437C24.3258 207.559 24.3466 207.679 24.3675 207.8C24.45 208.281 24.5352 208.757 24.6204 209.226C24.6341 209.302 24.6486 209.38 24.6631 209.456C24.7592 209.981 24.858 210.498 24.9569 211.006C24.9596 211.021 24.9623 211.036 24.9659 211.051C26.8456 220.67 29.1207 227.638 29.4643 233.924L29.4679 233.928Z" stroke="#2E2E2E" stroke-width="1.742" stroke-linejoin="round"/>
<path fill-rule="evenodd" clip-rule="evenodd" d="M58.5066 49.8184C57.258 49.8184 55.9723 49.4381 54.7101 48.8279H54.7083C54.7083 53.2398 55.5805 66.0039 58.5066 66.0039C61.4327 66.0039 62.305 53.2398 62.305 48.8279H62.3032C61.041 49.4381 59.7552 49.8184 58.5066 49.8184Z" stroke="#2E2E2E" stroke-width="1.742" stroke-linejoin="round"/>
<path fill-rule="evenodd" clip-rule="evenodd" d="M33.4435 152.259C32.3246 159.502 27.2032 177.802 27.2032 194.564C27.2032 211.326 31.7089 220.071 31.7089 224.848C31.7089 229.626 33.1715 223.475 34.0193 223.475C34.8653 223.475 37.9582 229.337 37.9582 232.971C37.9582 233.141 37.9736 233.237 38.0035 233.267C37.9927 233.084 38.0036 232.873 37.9972 232.683C37.9809 232.193 37.9637 231.703 37.9809 231.172C37.9863 230.986 38.0045 230.785 38.0126 230.595C38.0416 229.999 38.0734 229.4 38.1323 228.771C38.1432 228.655 38.1595 228.534 38.1713 228.417C38.5585 224.541 39.3963 220.243 39.8887 216.861C39.9041 216.764 39.9222 216.654 39.9358 216.559C40.0374 215.841 40.1217 215.168 40.1788 214.555C40.6404 209.637 43.5656 199.494 44.9846 193.493C44.9846 193.493 44.9873 193.441 44.9919 193.362C44.9982 193.261 45.01 193.041 45.0272 192.739C45.03 192.693 45.0327 192.625 45.0354 192.575C45.0499 192.297 45.0662 191.979 45.0862 191.577C45.0862 191.568 45.0862 191.555 45.0871 191.546C45.1088 191.096 45.1315 190.582 45.156 189.999C45.156 189.977 45.1569 189.948 45.1578 189.925C45.2294 188.161 45.3029 185.86 45.3355 183.266C45.3392 183.064 45.3383 182.848 45.3401 182.643C45.3473 181.959 45.3537 181.273 45.3537 180.56C45.3546 179.632 45.3346 177.664 45.3346 177.632C45.3346 173.267 40.3103 159.25 38.3554 153.159C37.9673 151.949 38.1504 151.497 38.0226 151.006C37.2546 148.042 32.9811 142.328 32.9811 142.328L33.4435 152.259Z" stroke="#2E2E2E" stroke-width="1.742" stroke-linejoin="round"/>
<path fill-rule="evenodd" clip-rule="evenodd" d="M45.3344 177.634C45.3344 177.665 45.3344 177.695 45.3344 177.725C45.3489 178.684 45.3543 179.632 45.3534 180.559C45.3534 181.274 45.3471 181.959 45.3398 182.642C45.338 182.847 45.3389 183.064 45.3353 183.265C45.3026 185.86 45.2292 188.162 45.1584 189.925C45.1566 189.948 45.1557 189.976 45.1557 190C45.1312 190.582 45.1086 191.096 45.0877 191.545C45.0868 191.555 45.0868 191.568 45.0859 191.578C45.0669 191.979 45.0496 192.297 45.0351 192.575C45.0324 192.625 45.0306 192.692 45.027 192.739C45.0106 193.042 44.998 193.26 44.9916 193.362C44.9871 193.441 44.9844 193.493 44.9844 193.493C43.5653 199.494 40.641 209.636 40.1786 214.555C40.1215 215.168 40.0371 215.841 39.9356 216.559C39.9356 216.561 39.9347 216.563 39.9347 216.564C39.8014 217.504 39.6345 218.537 39.4586 219.602C39.3099 220.504 39.1549 221.439 39.0016 222.389C38.9971 222.416 38.9925 222.444 38.988 222.471C38.8311 223.444 38.6779 224.431 38.5401 225.413C38.5364 225.431 38.5346 225.45 38.5319 225.468C38.3914 226.463 38.2681 227.453 38.1719 228.416C38.1683 228.456 38.1629 228.495 38.1583 228.534C38.1502 228.615 38.1384 228.699 38.1311 228.78C38.0749 229.393 38.0432 229.979 38.0151 230.561C38.0105 230.65 38.0042 230.744 37.9997 230.832C37.9924 230.947 37.9842 231.062 37.9806 231.173C37.9643 231.702 37.9806 232.192 37.9978 232.683V232.706C38.0078 233.01 37.9987 233.338 38.0232 233.625C38.4848 239.006 42.3348 238.699 42.3348 238.699C44.8955 238.699 49.9098 237.11 51.5302 234.187C51.7079 233.55 51.8811 232.901 52.0507 232.246C53.5622 226.399 54.6947 219.825 54.6947 213.018C54.6947 211.825 54.7283 210.538 54.7836 209.185C54.7836 199.612 50.044 187.955 45.3344 177.634Z" stroke="#2E2E2E" stroke-width="1.742" stroke-linejoin="round"/>
<path fill-rule="evenodd" clip-rule="evenodd" d="M87.5451 233.928C87.5451 234.857 86.9984 235.393 86.5368 235.393C86.0744 235.393 85.0035 230.154 85.0035 226.666C85.1885 226.671 85.3046 226.192 85.3046 224.849C85.3046 220.071 89.8102 211.326 89.8102 194.564C89.8102 177.802 84.6889 159.502 83.5699 152.258L83.8111 148.881C83.9154 146.965 84.0315 142.328 84.0315 142.328L85.3046 140.604C85.3046 140.638 85.3046 140.668 85.3046 140.703C85.3046 144.047 90.9264 147.123 90.9264 160.502C90.9264 163.962 94.6223 170.42 94.6223 184.414C94.6223 185.236 94.6151 186.042 94.6024 186.838C94.5987 187.055 94.5915 187.266 94.587 187.481C94.5752 188.052 94.5625 188.623 94.5443 189.181C94.5362 189.449 94.5235 189.709 94.5135 189.974C94.4945 190.47 94.4763 190.967 94.4519 191.453C94.4383 191.733 94.421 192.005 94.4056 192.281C94.3811 192.742 94.3557 193.204 94.3267 193.656C94.3086 193.933 94.2877 194.204 94.2678 194.478C94.237 194.921 94.2052 195.362 94.1699 195.795C94.149 196.06 94.1245 196.32 94.1019 196.583C94.0647 197.016 94.0266 197.448 93.9858 197.872C93.9613 198.122 93.935 198.367 93.9105 198.614C93.8661 199.043 93.8217 199.469 93.7745 199.889C93.7482 200.121 93.7219 200.349 93.6947 200.577C93.6439 201.005 93.5932 201.43 93.5397 201.848C93.5134 202.059 93.4853 202.268 93.4581 202.477C93.4009 202.908 93.3429 203.335 93.2821 203.757C93.2559 203.943 93.2296 204.126 93.2024 204.311C93.138 204.75 93.0718 205.187 93.0047 205.617C92.9802 205.774 92.9557 205.93 92.9303 206.086C92.8578 206.541 92.7834 206.993 92.7073 207.437C92.6873 207.559 92.6665 207.679 92.6456 207.8C92.5631 208.281 92.4779 208.757 92.3926 209.226C92.3781 209.302 92.3645 209.38 92.35 209.456C92.253 209.981 92.1551 210.498 92.0562 211.006C92.0535 211.021 92.0508 211.036 92.0472 211.051C90.1675 220.67 87.8924 227.638 87.5488 233.924L87.5451 233.928Z" stroke="#2E2E2E" stroke-width="1.742" stroke-linejoin="round"/>
<path fill-rule="evenodd" clip-rule="evenodd" d="M83.5698 152.259C84.6887 159.502 89.81 177.802 89.81 194.564C89.81 211.326 85.3044 220.071 85.3044 224.848C85.3044 229.626 83.8418 223.475 82.994 223.475C82.1471 223.475 79.055 229.337 79.055 232.971C79.055 233.141 79.0387 233.237 79.0097 233.267C79.0206 233.084 79.0097 232.873 79.0161 232.683C79.0324 232.193 79.0496 231.703 79.0324 231.172C79.0269 230.986 79.0088 230.785 78.9997 230.595C78.9716 229.999 78.939 229.4 78.881 228.771C78.8692 228.655 78.8537 228.534 78.8411 228.417C78.4548 224.541 77.6169 220.243 77.1246 216.861C77.1092 216.764 77.091 216.654 77.0774 216.559C76.9759 215.841 76.8915 215.168 76.8344 214.555C76.372 209.637 73.4477 199.494 72.0286 193.493C72.0286 193.493 72.0259 193.441 72.0214 193.362C72.015 193.261 72.0033 193.041 71.986 192.739C71.9833 192.693 71.9797 192.625 71.9779 192.575C71.9634 192.297 71.9461 191.979 71.9271 191.577C71.9262 191.568 71.9262 191.555 71.9262 191.546C71.9044 191.096 71.8817 190.582 71.8573 189.999C71.8573 189.977 71.8564 189.948 71.8545 189.925C71.7838 188.161 71.7104 185.86 71.6777 183.266C71.6741 183.064 71.675 182.848 71.6723 182.643C71.6659 181.959 71.6587 181.273 71.6587 180.56C71.6587 179.632 71.6786 177.664 71.6786 177.632C71.6786 173.267 76.7029 159.25 78.6579 153.159C79.046 151.949 78.8628 151.497 78.9907 151.006C79.7587 148.042 84.0322 142.328 84.0322 142.328L83.5698 152.259Z" stroke="#2E2E2E" stroke-width="1.742" stroke-linejoin="round"/>
<path fill-rule="evenodd" clip-rule="evenodd" d="M71.6789 177.634C71.6789 177.665 71.678 177.695 71.678 177.725C71.6643 178.684 71.6589 179.632 71.6589 180.559C71.6589 181.274 71.6662 181.959 71.6725 182.642C71.6752 182.847 71.6743 183.064 71.678 183.265C71.7106 185.86 71.784 188.162 71.8548 189.925C71.8566 189.948 71.8566 189.976 71.8575 190C71.882 190.582 71.9046 191.096 71.9255 191.545C71.9264 191.555 71.9264 191.568 71.9273 191.578C71.9463 191.979 71.9627 192.297 71.9781 192.575C71.9799 192.625 71.9826 192.692 71.9862 192.739C72.0026 193.042 72.0153 193.26 72.0207 193.362C72.0261 193.441 72.0289 193.493 72.0289 193.493C73.4479 199.494 76.3722 209.636 76.8346 214.555C76.8918 215.168 76.9761 215.841 77.0776 216.559C77.0776 216.561 77.0786 216.563 77.0786 216.564C77.2118 217.504 77.3787 218.537 77.5546 219.602C77.7024 220.504 77.8584 221.439 78.0116 222.389C78.0161 222.416 78.0207 222.444 78.0252 222.471C78.1821 223.444 78.3353 224.431 78.4731 225.413C78.4759 225.431 78.4786 225.45 78.4813 225.468C78.6209 226.463 78.7452 227.453 78.8413 228.416C78.8449 228.456 78.8494 228.495 78.8549 228.534C78.863 228.615 78.8748 228.699 78.8821 228.78C78.9383 229.393 78.97 229.979 78.9981 230.561C79.0027 230.65 79.009 230.744 79.0136 230.832C79.0208 230.947 79.029 231.062 79.0326 231.173C79.0489 231.702 79.0326 232.192 79.0154 232.683V232.706C79.0054 233.01 79.0145 233.338 78.99 233.625C78.5284 239.006 74.6775 238.699 74.6775 238.699C72.1177 238.699 67.1025 237.11 65.483 234.187C65.3053 233.55 65.1321 232.901 64.9617 232.246C63.451 226.399 62.3185 219.825 62.3185 213.018C62.3185 211.825 62.2849 210.538 62.2296 209.185C62.2296 199.612 66.9692 187.955 71.6789 177.634Z" stroke="#2E2E2E" stroke-width="1.742" stroke-linejoin="round"/>
<path fill-rule="evenodd" clip-rule="evenodd" d="M47.7588 302.63C47.7616 302.637 47.7652 302.643 47.7679 302.649C47.6555 301.655 47.5711 300.657 47.5711 299.673C47.5711 293.829 47.4179 277.029 47.4179 277.029C47.4179 277.029 47.9955 271.493 47.9955 265.725C47.9955 259.959 44.4147 257.075 44.4147 254.538C42.4634 259.916 37.7936 280.487 47.7588 302.63Z" stroke="#2E2E2E" stroke-width="1.742" stroke-linejoin="round"/>
<path fill-rule="evenodd" clip-rule="evenodd" d="M27.3188 260.651C27.3188 272.797 33.8502 287.855 35.6392 298.056C35.6392 298.05 35.6401 298.046 35.641 298.04C38.3105 270.139 31.314 262.262 27.561 253.681C27.4141 255.539 27.3188 257.767 27.3188 260.651Z" stroke="#2E2E2E" stroke-width="1.742" stroke-linejoin="round"/>
<path fill-rule="evenodd" clip-rule="evenodd" d="M69.2542 302.63C69.2515 302.637 69.2479 302.643 69.2443 302.649C69.3576 301.655 69.4419 300.657 69.4419 299.673C69.4419 293.829 69.5952 277.029 69.5952 277.029C69.5952 277.029 69.0176 271.493 69.0176 265.725C69.0176 259.959 72.5983 257.075 72.5983 254.538C74.5488 259.916 79.2194 280.487 69.2542 302.63Z" stroke="#2E2E2E" stroke-width="1.742" stroke-linejoin="round"/>
<path fill-rule="evenodd" clip-rule="evenodd" d="M89.6938 260.651C89.6938 272.797 83.1633 287.855 81.3743 298.056C81.3734 298.05 81.3725 298.046 81.3716 298.04C78.7021 270.139 85.6995 262.262 89.4526 253.681C89.5995 255.539 89.6938 257.767 89.6938 260.651Z" stroke="#2E2E2E" stroke-width="1.742" stroke-linejoin="round"/>
<path fill-rule="evenodd" clip-rule="evenodd" d="M11.2631 113.022C11.2631 112.197 11.2794 111.427 11.2966 110.663C11.2767 111.419 11.2631 112.197 11.2631 113.022Z" stroke="#2E2E2E" stroke-width="1.742" stroke-linejoin="round"/>
<path fill-rule="evenodd" clip-rule="evenodd" d="M115.715 176.188C114.897 174.243 113.461 168.142 113.05 163.074C111.954 149.568 111.002 129.415 110.012 125.593C108.651 120.338 105.75 114.906 105.75 113.021C105.75 96.5289 102.054 92.3922 102.054 89.724C102.054 87.9938 102.862 88.9164 102.862 78.921C102.862 68.9256 91.9274 58.4685 80.992 58.4685L70.3649 51.8556V42.3219H70.2669C67.5966 45.2952 62.8262 49.8185 58.5064 49.8185C54.1866 49.8185 49.4162 45.2952 46.7458 42.3219H46.6479V51.8556L36.0208 58.4685C25.0854 58.4685 14.1509 68.9256 14.1509 78.921C14.1509 88.9164 14.9597 87.9938 14.9597 89.724C14.9597 92.3922 11.2629 96.5289 11.2629 113.021C11.2629 114.906 8.36129 120.338 7.00026 125.593C6.01099 129.415 5.05981 149.568 3.96355 163.074C3.55189 168.142 2.1165 174.243 1.2977 176.188C-0.613726 180.73 8.60611 187.688 9.2227 187.935C10.0188 188.257 10.2899 186.66 10.5602 186.038C11.6691 183.474 7.54159 180.428 7.80727 178.649C8.12735 176.51 8.50546 172.755 9.99253 173.354C11.4805 173.953 11.9838 177.359 13.4708 177.958C14.9579 178.557 15.5963 178.159 16.0514 177.033C16.318 176.373 14.6278 172.24 13.1108 168.361C12.0391 165.619 12.2222 163.654 12.2222 163.654C12.2222 163.654 24.0526 136.204 24.5522 130.668C26.1599 128.119 25.4127 126.842 25.6186 124.993C26.4428 117.572 26.4528 103.218 27.5499 103.218C28.59 103.218 28.7051 107.717 28.7051 110.484C28.7051 116.828 33.4411 117.058 33.4411 125.593C33.4411 132.051 31.7083 129.4 31.7083 140.702C31.7083 144.047 26.0864 147.122 26.0864 160.501C26.0864 163.962 22.3905 170.42 22.3905 184.414C22.3905 211.172 29.514 224.205 29.514 235.508C29.514 247.618 27.3187 246.58 27.3187 260.651C27.3187 274.722 36.0979 292.714 36.0979 302.517C36.0979 324.085 28.9364 318.549 28.9364 323.509C28.9364 324.816 30.3219 325.662 30.3219 325.662L42.5666 326.969H48.8803L50.8063 324.662C50.8063 324.662 49.1116 321.741 49.1116 320.202C49.1116 318.665 49.9585 315.666 49.9585 313.82C49.9585 311.975 47.5719 305.516 47.5719 299.673C47.5719 293.829 47.4178 277.028 47.4178 277.028C47.4178 277.028 47.9954 271.493 47.9954 265.726C47.9954 259.959 44.4146 257.076 44.4146 254.539C44.4146 252.001 54.6944 233.547 54.6944 213.018C54.6944 202.061 57.3512 183.607 57.3512 170.805H58.5064H59.6616C59.6616 183.607 62.3184 202.061 62.3184 213.018C62.3184 233.547 72.5991 252.001 72.5991 254.539C72.5991 257.076 69.0174 259.959 69.0174 265.726C69.0174 271.493 69.595 277.028 69.595 277.028C69.595 277.028 69.4418 293.829 69.4418 299.673C69.4418 305.516 67.0543 311.975 67.0543 313.82C67.0543 315.666 67.9012 318.665 67.9012 320.202C67.9012 321.741 66.2074 324.662 66.2074 324.662L68.1325 326.969H74.4471L86.6909 325.662C86.6909 325.662 88.0773 324.816 88.0773 323.509C88.0773 318.549 80.9158 324.085 80.9158 302.517C80.9158 292.714 89.6941 274.722 89.6941 260.651C89.6941 246.58 87.4988 247.618 87.4988 235.508C87.4988 224.205 94.6223 211.172 94.6223 184.414C94.6223 170.42 90.9264 163.962 90.9264 160.501C90.9264 147.122 85.3045 144.047 85.3045 140.702C85.3045 129.4 83.5717 132.051 83.5717 125.593C83.5717 117.058 88.3077 116.828 88.3077 110.484C88.3077 107.717 88.4237 103.218 89.4629 103.218C90.56 103.218 90.57 117.572 91.3942 124.993C91.6001 126.842 90.8529 128.119 92.4606 130.668C92.9611 136.204 104.791 163.654 104.791 163.654C104.791 163.654 104.974 165.619 103.903 168.361C102.386 172.24 100.695 176.373 100.961 177.033C101.417 178.159 102.055 178.557 103.542 177.958C105.03 177.359 105.533 173.953 107.02 173.354C108.507 172.755 108.886 176.51 109.206 178.649C109.472 180.428 105.344 183.474 106.453 186.038C106.723 186.66 106.995 188.257 107.791 187.935C108.406 187.688 117.627 180.73 115.715 176.188Z" stroke="#2E2E2E" stroke-width="1.742" stroke-linejoin="round"/>
<path fill-rule="evenodd" clip-rule="evenodd" d="M15.204 130.668C15.9865 125.925 16.7691 124.212 15.204 121.288C13.639 118.364 12.5953 122.388 8.38797 121.288C7.87112 122.686 7.37694 124.143 7.00064 125.593C6.14467 128.899 6.4185 144.604 5.79919 157.526H5.8001C5.8001 157.526 9.20404 150.779 9.46519 144.007C9.72542 137.235 14.4215 135.411 15.204 130.668Z" stroke="#2E2E2E" stroke-width="1.742" stroke-linejoin="round"/>
<path fill-rule="evenodd" clip-rule="evenodd" d="M16.1076 138.863C13.8997 145.57 12.2222 163.654 12.2222 163.654C12.2222 163.654 24.0525 136.204 24.5522 130.668C24.5522 130.668 18.3155 132.157 16.1076 138.863Z" stroke="#2E2E2E" stroke-width="1.742" stroke-linejoin="round"/>
<path fill-rule="evenodd" clip-rule="evenodd" d="M102.862 78.9213C102.862 88.9167 102.053 87.9941 102.053 89.7243C96.971 88.6867 93.6215 84.3038 87.5 74.0386C81.3776 63.7743 76.1792 65.3886 76.1792 62.9667C76.1792 61.1206 79.76 60.3139 80.9922 58.4688C91.9267 58.4688 102.862 68.925 102.862 78.9213Z" stroke="#2E2E2E" stroke-width="1.742" stroke-linejoin="round"/>
<path fill-rule="evenodd" clip-rule="evenodd" d="M63.3578 69.4254C64.0369 68.0873 73.7537 62.9664 76.1792 62.9664C76.1792 65.3883 81.3776 63.774 87.5 74.0383C89.7732 77.8509 91.6638 80.8504 93.4039 83.17C90.6446 84.6892 91.5423 85.9178 89.0007 88.1098C86.46 90.3008 78.0281 93.6453 72.8297 93.6453C67.6313 93.6453 60.4054 90.5317 60.4054 90.5317V82.6884C60.4054 74.1542 62.305 71.5015 63.3578 69.4254Z" stroke="#2E2E2E" stroke-width="1.742" stroke-linejoin="round"/>
<path fill-rule="evenodd" clip-rule="evenodd" d="M91.3944 80.3024C91.6374 80.6672 91.8759 81.0212 92.1107 81.3635C91.8759 81.0212 91.6374 80.6681 91.3944 80.3024Z" stroke="#2E2E2E" stroke-width="1.742" stroke-linejoin="round"/>
<path fill-rule="evenodd" clip-rule="evenodd" d="M93.4037 83.1702C93.2477 82.9619 93.0882 82.7401 92.9286 82.521C96.0822 86.8768 98.6892 89.037 102.054 89.7242C102.054 92.3924 105.75 96.5291 105.75 113.022C105.75 116.367 97.7543 120.669 94.0838 113.022C91.7026 108.062 90.8068 105.995 90.2509 104.777C89.9671 103.797 89.6996 103.219 89.463 103.219C88.6551 101.835 89.0014 88.1099 89.0014 88.1099C91.5421 85.918 90.6445 84.6894 93.4037 83.1702Z" stroke="#2E2E2E" stroke-width="1.742" stroke-linejoin="round"/>
<path fill-rule="evenodd" clip-rule="evenodd" d="M92.7935 82.336C92.5741 82.0309 92.352 81.714 92.1271 81.3872C92.3529 81.714 92.5741 82.0309 92.7935 82.336Z" stroke="#2E2E2E" stroke-width="1.742" stroke-linejoin="round"/>
<path fill-rule="evenodd" clip-rule="evenodd" d="M101.809 130.668C101.027 125.925 100.244 124.212 101.809 121.288C103.374 118.364 104.418 122.388 108.625 121.288C109.142 122.686 109.636 124.143 110.012 125.593C110.869 128.899 110.595 144.604 111.214 157.526H111.213C111.213 157.526 107.809 150.779 107.548 144.007C107.287 137.235 102.592 135.411 101.809 130.668Z" stroke="#2E2E2E" stroke-width="1.742" stroke-linejoin="round"/>
<path fill-rule="evenodd" clip-rule="evenodd" d="M100.906 138.863C103.114 145.57 104.791 163.654 104.791 163.654C104.791 163.654 92.9607 136.204 92.4611 130.668C92.4611 130.668 98.6977 132.157 100.906 138.863Z" stroke="#2E2E2E" stroke-width="1.742" stroke-linejoin="round"/>
<path fill-rule="evenodd" clip-rule="evenodd" d="M43.2668 23.5419C43.2668 22.2255 41.378 21.8542 40.1484 21.8542C38.9171 21.8542 38.4438 23.7447 39.3904 28.1874C40.3371 32.631 44.1082 33.923 44.1082 33.923L43.2668 23.5419Z" stroke="#2E2E2E" stroke-width="1.742" stroke-linejoin="round"/>
<path fill-rule="evenodd" clip-rule="evenodd" d="M73.7464 23.5419C73.7464 22.2255 75.6342 21.8542 76.8647 21.8542C78.0961 21.8542 78.5694 23.7447 77.6227 28.1874C76.6752 32.631 72.9049 33.923 72.9049 33.923L73.7464 23.5419Z" stroke="#2E2E2E" stroke-width="1.742" stroke-linejoin="round"/>
<path fill-rule="evenodd" clip-rule="evenodd" d="M275.345 175.716C273.144 170.285 270.277 166.661 269.855 161.463C269.433 156.266 265.774 140.623 264.408 135.384C263.041 130.145 256.228 119.537 256.228 117.659C256.228 101.216 254.296 91.3674 254.296 88.7078C254.296 86.9825 255.109 87.9023 255.109 77.9373C255.109 70.7705 249.429 63.3661 242.156 59.7732C242.14 59.7651 242.124 59.7588 242.108 59.7507C241.787 59.5932 241.464 59.4438 241.138 59.3016C241.03 59.2548 240.92 59.2116 240.811 59.1666C240.575 59.0676 240.338 58.9704 240.098 58.8795C239.966 58.8291 239.834 58.7841 239.701 58.7364C239.482 58.6581 239.263 58.5825 239.041 58.5105C238.9 58.4655 238.756 58.4223 238.614 58.38C238.4 58.3161 238.184 58.2549 237.968 58.1973C237.822 58.1586 237.675 58.1217 237.528 58.0866C237.312 58.0344 237.095 57.9867 236.878 57.9426C236.731 57.912 236.585 57.8823 236.438 57.8553C236.215 57.8148 235.991 57.7806 235.767 57.7482C235.626 57.7275 235.486 57.7041 235.344 57.687C235.1 57.6573 234.854 57.6357 234.609 57.6159C234.488 57.606 234.368 57.5916 234.248 57.5844C233.883 57.5619 233.518 57.5484 233.152 57.5484L219.891 49.8019L220.5 43.9995C220.5 43.9995 217.533 34.886 210.575 34.886C203.619 34.886 200.651 43.9995 200.651 43.9995L201.261 49.8019L188 57.5484C187.634 57.5484 187.268 57.5619 186.903 57.5844C186.783 57.5916 186.663 57.606 186.543 57.6159C186.297 57.6357 186.052 57.6573 185.807 57.687C185.666 57.7041 185.525 57.7275 185.384 57.7482C185.161 57.7806 184.936 57.8148 184.713 57.8553C184.567 57.8823 184.42 57.912 184.273 57.9426C184.057 57.9867 183.84 58.0344 183.624 58.0866C183.477 58.1217 183.33 58.1586 183.183 58.1973C182.967 58.2549 182.752 58.3161 182.538 58.38C182.395 58.4223 182.252 58.4655 182.11 58.5105C181.889 58.5825 181.669 58.6581 181.45 58.7364C181.317 58.7841 181.185 58.8291 181.053 58.8795C180.814 58.9704 180.577 59.0676 180.339 59.1666C180.231 59.2116 180.122 59.2548 180.013 59.3016C179.688 59.4438 179.364 59.5932 179.044 59.7507C179.028 59.7588 179.011 59.7651 178.995 59.7732H178.996C171.722 63.3661 166.043 70.7705 166.043 77.9373C166.043 87.9023 166.854 86.9825 166.854 88.7078C166.854 91.3674 164.924 101.216 164.924 117.659C164.924 119.537 158.11 130.145 156.744 135.384C155.377 140.623 151.719 156.266 151.297 161.463C150.875 166.661 148.008 170.285 145.807 175.716C142.914 182.851 152.07 186.755 152.731 187.019C153.586 187.361 154.545 187.351 154.835 186.687C156.026 183.955 149.739 180.329 150.867 178.349C152.01 176.342 153.96 174.09 155.557 174.729C157.154 175.368 156.389 180.394 157.986 181.033C159.583 181.672 160.268 181.247 160.757 180.047C161.246 178.846 161.018 169.464 158.596 168.494C159.813 166.841 160.587 165.701 160.587 165.701C160.587 165.701 166.889 155.752 169.672 151.843C172.455 147.933 177.428 133.208 177.93 127.688C179.361 125.619 177.721 123.501 178.343 121.753C180.821 114.793 180.701 106.909 181.803 106.909C182.847 106.909 185.41 115.958 185.41 124.466C185.41 130.905 183.671 128.261 183.671 139.528C183.671 142.863 178.026 145.929 178.026 159.266C178.026 162.716 174.316 169.155 174.316 183.106C174.316 209.781 186.326 226.615 186.326 237.884C186.326 249.956 183.023 246.509 183.023 260.536C183.023 274.564 192.658 292.93 192.658 302.704C192.658 322.355 180.27 311.847 180.27 317.851C180.27 319.155 183.712 320.99 183.712 320.99L193.037 324.623L199.265 325.22C202.029 325.22 204.633 324.265 204.633 319.489C204.633 317.956 204.495 314.096 204.495 312.256C204.495 310.417 202.43 305.117 202.43 299.293C202.43 293.467 202.843 277.049 202.843 277.049C202.843 277.049 205.733 269.015 205.733 263.266C205.733 257.517 202.568 248.464 202.568 245.935C202.568 243.405 206.749 236.928 206.749 211.62C206.749 200.698 209.416 182.3 209.416 169.538H210.575H211.736C211.736 182.3 214.403 200.698 214.403 211.62C214.403 236.928 218.584 243.405 218.584 245.935C218.584 248.464 215.417 257.517 215.417 263.266C215.417 269.015 218.308 277.049 218.308 277.049C218.308 277.049 218.721 293.467 218.721 299.293C218.721 305.117 216.657 310.417 216.657 312.256C216.657 314.096 216.519 317.956 216.519 319.489C216.519 324.265 219.122 325.22 221.886 325.22L228.114 324.623L237.44 320.99C237.44 320.99 240.881 319.155 240.881 317.851C240.881 311.847 228.493 322.355 228.493 302.704C228.493 292.93 238.128 274.564 238.128 260.536C238.128 246.509 234.825 249.956 234.825 237.884C234.825 226.615 246.835 209.781 246.835 183.106C246.835 169.155 243.124 162.716 243.124 159.266C243.124 145.929 237.481 142.863 237.481 139.528C237.481 128.261 235.742 130.905 235.742 124.466C235.742 115.958 238.305 106.909 239.349 106.909C240.451 106.909 240.33 114.793 242.808 121.753C243.43 123.501 241.791 125.619 243.221 127.688C243.724 133.208 248.696 147.933 251.479 151.843C254.263 155.752 260.564 165.701 260.564 165.701C260.564 165.701 261.338 166.841 262.556 168.494C260.133 169.464 259.906 178.846 260.395 180.047C260.883 181.247 261.569 181.672 263.165 181.033C264.762 180.394 263.997 175.368 265.594 174.729C267.191 174.09 269.142 176.342 270.285 178.349C271.412 180.329 265.126 183.955 266.317 186.687C266.607 187.351 267.565 187.361 268.42 187.019C269.081 186.755 278.237 182.851 275.345 175.716Z" fill="#202020"/>
<path fill-rule="evenodd" clip-rule="evenodd" d="M183.671 139.529C183.671 142.863 178.027 145.929 178.027 159.267C178.027 162.717 174.316 169.154 174.316 183.105C174.316 191.776 175.588 199.402 177.301 206.14C180.27 194.761 184.044 182.871 192.578 181.78C201.112 180.688 210.576 166.922 210.576 162.283C210.576 162.283 193.938 139.903 193.938 137.446C193.938 134.99 188.171 136.972 183.671 139.529Z" fill="#FFEC42"/>
<path fill-rule="evenodd" clip-rule="evenodd" d="M183.941 188.213C184.459 192.373 184.95 198.738 184.95 207.93C184.95 216.488 184.677 222.89 184.238 227.665C185.478 231.513 186.326 234.897 186.326 237.883C186.326 237.919 186.325 237.951 186.325 237.986C189.682 230.074 192.446 217.907 192.446 206.14C192.446 188.279 192.578 181.78 192.578 181.78C188.933 182.246 186.157 184.687 183.941 188.213Z" fill="#202020"/>
<path fill-rule="evenodd" clip-rule="evenodd" d="M205.755 172.123C202.23 176.757 197.265 181.18 192.577 181.78C192.544 181.784 192.512 181.792 192.478 181.798C192.517 185.844 192.577 192.994 192.577 198.309C192.577 206.14 199.402 220.007 199.402 224.715C199.402 229.423 198.783 230.242 199.402 231.674C200.022 233.108 201.604 240.34 202.086 243.137C202.217 243.893 202.444 244.491 202.704 244.966C203.416 241.801 206.749 234.223 206.749 211.621C206.749 205.273 207.648 196.402 208.403 187.579C206.955 182.928 205.381 176.624 205.755 172.123Z" fill="#202020"/>
<path fill-rule="evenodd" clip-rule="evenodd" d="M194.241 240.886C194.241 235.768 191.969 231.06 190.937 234.131C189.905 237.201 187.428 241.091 185.965 243.635C185.147 249.016 183.211 249.373 183.037 259.093C183.046 259.589 183.044 260.073 183.023 260.537C183.023 260.847 183.033 261.162 183.042 261.476C183.468 267.776 190.031 280.546 192.445 279.585C194.986 278.573 196.099 275.274 195.686 268.929C195.273 262.583 194.241 246.003 194.241 240.886Z" fill="#202020"/>
<path fill-rule="evenodd" clip-rule="evenodd" d="M202.568 245.935C202.568 245.664 202.617 245.345 202.702 244.965C202.443 244.489 202.216 243.893 202.086 243.138C201.604 240.34 200.022 233.108 199.403 231.674C198.783 230.241 198.274 226.882 196.989 229.403C195.7 231.935 194.251 234.823 193.627 236.232C193.627 236.234 193.626 236.235 193.626 236.236C193.992 237.569 194.241 239.202 194.241 240.886C194.241 246.003 195.273 262.584 195.686 268.929C195.686 268.929 198.037 278.004 200.44 277.526C201.074 277.4 201.928 277.27 202.841 277.146C202.842 277.089 202.843 277.048 202.843 277.048C202.843 277.048 205.733 269.015 205.733 263.266C205.733 257.517 202.568 248.465 202.568 245.935Z" fill="#202020"/>
<path fill-rule="evenodd" clip-rule="evenodd" d="M178.995 59.7734C173.234 62.1864 166.043 70.4395 166.043 77.9376C166.043 87.9025 166.855 86.9827 166.855 88.7071C166.855 89.6648 166.603 91.5683 166.284 94.3601C170.086 90.2291 176.072 85.5211 181.853 82.8606C187.633 80.2002 185.49 75.0026 192.442 72.2792C188.698 66.691 182.079 62.1099 178.995 59.7734Z" fill="#202020"/>
<path fill-rule="evenodd" clip-rule="evenodd" d="M166.784 87.949C166.77 87.8779 166.753 87.8059 166.736 87.733C166.753 87.8068 166.77 87.877 166.784 87.949Z" fill="#202020"/>
<path fill-rule="evenodd" clip-rule="evenodd" d="M166.855 88.7075C166.855 88.8569 166.846 89.036 166.836 89.2304C166.846 89.036 166.855 88.8569 166.855 88.7075Z" fill="#202020"/>
<path fill-rule="evenodd" clip-rule="evenodd" d="M166.786 87.9574C166.8 88.0276 166.812 88.0987 166.822 88.1725C166.812 88.0987 166.8 88.0276 166.786 87.9574Z" fill="#202020"/>
<path fill-rule="evenodd" clip-rule="evenodd" d="M166.847 88.4286C166.852 88.515 166.855 88.6068 166.855 88.7076C166.855 88.6068 166.852 88.515 166.847 88.4286Z" fill="#202020"/>
<path fill-rule="evenodd" clip-rule="evenodd" d="M166.823 88.1833C166.833 88.258 166.84 88.3354 166.846 88.42C166.841 88.3354 166.833 88.258 166.823 88.1833Z" fill="#202020"/>
<path fill-rule="evenodd" clip-rule="evenodd" d="M166.283 94.3599C165.714 99.3253 164.924 107.134 164.924 117.659C164.924 117.954 164.755 118.464 164.467 119.135C166.705 122.187 169.52 125.232 171.943 125.232C174.069 125.232 176.391 123.626 178.283 121.97C178.301 121.898 178.318 121.824 178.343 121.753C180.821 114.793 180.701 106.909 181.803 106.909C181.998 106.909 182.245 107.225 182.52 107.794C182.83 102.414 182.359 91.7778 179.244 84.1934C174.324 86.9267 169.514 90.8499 166.283 94.3599Z" fill="#202020"/>
<path fill-rule="evenodd" clip-rule="evenodd" d="M166.286 94.337C166.436 93.032 166.569 91.9286 166.67 91.0187C166.569 91.9232 166.435 93.0374 166.286 94.337Z" fill="#202020"/>
<path fill-rule="evenodd" clip-rule="evenodd" d="M166.78 89.9363C166.798 89.7482 166.812 89.5727 166.823 89.4116C166.812 89.5736 166.798 89.7473 166.78 89.9363Z" fill="#202020"/>
<path fill-rule="evenodd" clip-rule="evenodd" d="M166.765 90.1051C166.741 90.3634 166.712 90.6406 166.678 90.9457C166.712 90.6424 166.741 90.3625 166.765 90.1051Z" fill="#202020"/>
<path fill-rule="evenodd" clip-rule="evenodd" d="M154.259 161.216C153.383 159.266 154.022 146.432 154.901 142.81C155.782 139.188 161.739 129.531 164.467 128.099C167.194 126.666 168.433 140.176 167.194 143.86C165.956 147.544 160.587 165.7 160.587 165.7C160.587 165.7 155.134 163.167 154.259 161.216Z" fill="#202020"/>
<path fill-rule="evenodd" clip-rule="evenodd" d="M266.893 161.216C267.768 159.266 267.13 146.432 266.25 142.81C265.37 139.188 259.412 129.531 256.684 128.099C253.957 126.666 252.718 140.176 253.957 143.86C255.195 147.544 260.563 165.7 260.563 165.7C260.563 165.7 266.018 163.167 266.893 161.216Z" fill="#202020"/>
<path fill-rule="evenodd" clip-rule="evenodd" d="M167.195 143.86C166.316 146.68 164.578 152.392 162.958 157.726C161.662 162.069 160.588 165.7 160.588 165.7C160.588 165.7 166.889 155.753 169.672 151.843C172.455 147.933 177.428 133.208 177.931 127.689C175.453 130.555 169.096 137.751 167.195 143.86Z" fill="#202020"/>
<path fill-rule="evenodd" clip-rule="evenodd" d="M196.512 81.837C195.464 77.2028 194.078 74.9321 192.442 72.2788C186.085 74.4163 187.633 80.1998 181.853 82.8603C180.985 83.2599 180.113 83.7108 179.243 84.1932C182.679 87.5683 185.375 89.9668 188.259 91.0189C191.143 92.072 196.305 91.8442 199.092 90.5257C198.02 87.4783 197.114 84.4983 196.512 81.837Z" fill="#202020"/>
<path fill-rule="evenodd" clip-rule="evenodd" d="M199.092 90.5256C196.305 91.8441 191.143 92.0718 188.259 91.0188C185.374 89.9667 182.679 87.5682 179.243 84.1931C182.36 91.7775 182.83 102.414 182.519 107.793C182.494 107.739 184.714 114.586 185.209 120.158C188.257 124.157 192.578 131.169 192.578 131.169C201.796 119.874 205.39 115.612 208.278 110.967C205.353 105.412 202.086 98.9804 199.092 90.5256Z" fill="#202020"/>
<path fill-rule="evenodd" clip-rule="evenodd" d="M205.755 172.123C205.741 172.141 205.725 172.16 205.711 172.178C205.616 172.303 205.518 172.427 205.42 172.551C205.252 172.765 205.083 172.979 204.908 173.192C204.804 173.32 204.698 173.448 204.591 173.576C204.401 173.802 204.209 174.026 204.013 174.248C203.924 174.349 203.838 174.45 203.749 174.55C203.156 175.211 202.538 175.853 201.9 176.465C201.847 176.516 201.794 176.565 201.741 176.615C201.458 176.883 201.172 177.144 200.882 177.398C200.833 177.442 200.784 177.485 200.734 177.527C200.046 178.124 199.343 178.68 198.626 179.18C199.344 184.488 200.921 190.888 202.499 192.782C203.757 194.292 205.608 186.939 206.611 180.809C205.96 177.752 205.545 174.653 205.755 172.123Z" fill="#202020"/>
<path fill-rule="evenodd" clip-rule="evenodd" d="M237.481 139.529C237.481 142.863 243.125 145.929 243.125 159.267C243.125 162.717 246.836 169.154 246.836 183.105C246.836 191.776 245.564 199.402 243.851 206.14C240.881 194.761 237.107 182.871 228.573 181.78C220.04 180.688 210.575 166.922 210.575 162.283C210.575 162.283 227.213 139.903 227.213 137.446C227.213 134.99 232.98 136.972 237.481 139.529Z" fill="#FFEC42"/>
<path fill-rule="evenodd" clip-rule="evenodd" d="M237.211 188.213C236.693 192.373 236.201 198.738 236.201 207.93C236.201 216.488 236.475 222.89 236.913 227.665C235.673 231.513 234.825 234.897 234.825 237.883C234.825 237.919 234.826 237.951 234.826 237.986C231.469 230.074 228.705 217.907 228.705 206.14C228.705 188.279 228.573 181.78 228.573 181.78C232.219 182.246 234.994 184.687 237.211 188.213Z" fill="#202020"/>
<path fill-rule="evenodd" clip-rule="evenodd" d="M215.396 172.123C218.922 176.757 223.887 181.18 228.574 181.78C228.607 181.784 228.64 181.792 228.674 181.798C228.635 185.844 228.574 192.994 228.574 198.309C228.574 206.14 221.749 220.007 221.749 224.715C221.749 229.423 222.368 230.242 221.749 231.674C221.129 233.108 219.547 240.34 219.065 243.137C218.935 243.893 218.708 244.491 218.448 244.966C217.735 241.801 214.402 234.223 214.402 211.621C214.402 205.273 213.503 196.402 212.749 187.579C214.196 182.928 215.771 176.624 215.396 172.123Z" fill="#202020"/>
<path fill-rule="evenodd" clip-rule="evenodd" d="M226.91 240.886C226.91 235.768 229.182 231.06 230.214 234.131C231.246 237.201 233.724 241.091 235.187 243.635C236.004 249.016 237.941 249.373 238.115 259.093C238.105 259.589 238.108 260.073 238.128 260.537C238.128 260.847 238.118 261.162 238.109 261.476C237.684 267.776 231.12 280.546 228.706 279.585C226.165 278.573 225.052 275.274 225.465 268.929C225.878 262.583 226.91 246.003 226.91 240.886Z" fill="#202020"/>
<path fill-rule="evenodd" clip-rule="evenodd" d="M218.583 245.935C218.583 245.664 218.534 245.345 218.449 244.965C218.709 244.489 218.935 243.893 219.066 243.138C219.547 240.34 221.13 233.108 221.749 231.674C222.368 230.241 222.876 226.882 224.162 229.403C225.452 231.935 226.901 234.823 227.524 236.232C227.525 236.234 227.525 236.235 227.526 236.236C227.159 237.569 226.91 239.202 226.91 240.886C226.91 246.003 225.878 262.584 225.465 268.929C225.465 268.929 223.114 278.004 220.711 277.526C220.078 277.4 219.223 277.27 218.31 277.146C218.309 277.089 218.308 277.048 218.308 277.048C218.308 277.048 215.418 269.015 215.418 263.266C215.418 257.517 218.583 248.465 218.583 245.935Z" fill="#202020"/>
<path fill-rule="evenodd" clip-rule="evenodd" d="M242.156 59.7734C247.918 62.1864 255.109 70.4395 255.109 77.9376C255.109 87.9025 254.296 86.9827 254.296 88.7071C254.296 89.6648 254.548 91.5683 254.868 94.3601C251.066 90.2291 245.079 85.5211 239.298 82.8606C233.518 80.2002 235.662 75.0026 228.709 72.2792C232.454 66.691 239.072 62.1099 242.156 59.7734Z" fill="#202020"/>
<path fill-rule="evenodd" clip-rule="evenodd" d="M254.367 87.949C254.382 87.8779 254.397 87.8059 254.415 87.733C254.397 87.8068 254.382 87.877 254.367 87.949Z" fill="#202020"/>
<path fill-rule="evenodd" clip-rule="evenodd" d="M254.296 88.7075C254.296 88.8569 254.305 89.036 254.315 89.2304C254.305 89.036 254.296 88.8569 254.296 88.7075Z" fill="#202020"/>
<path fill-rule="evenodd" clip-rule="evenodd" d="M254.366 87.9574C254.352 88.0276 254.34 88.0987 254.329 88.1725C254.34 88.0987 254.352 88.0276 254.366 87.9574Z" fill="#202020"/>
<path fill-rule="evenodd" clip-rule="evenodd" d="M254.305 88.4286C254.299 88.515 254.297 88.6068 254.297 88.7076C254.297 88.6068 254.299 88.515 254.305 88.4286Z" fill="#202020"/>
<path fill-rule="evenodd" clip-rule="evenodd" d="M254.328 88.1833C254.318 88.258 254.31 88.3354 254.306 88.42C254.31 88.3354 254.318 88.258 254.328 88.1833Z" fill="#202020"/>
<path fill-rule="evenodd" clip-rule="evenodd" d="M254.868 94.3599C255.437 99.3253 256.228 107.134 256.228 117.659C256.228 117.954 256.396 118.464 256.685 119.135C254.447 122.187 251.631 125.232 249.208 125.232C247.081 125.232 244.76 123.626 242.868 121.97C242.849 121.898 242.834 121.824 242.808 121.753C240.33 114.793 240.451 106.909 239.349 106.909C239.154 106.909 238.906 107.225 238.632 107.794C238.321 102.414 238.793 91.7778 241.908 84.1934C246.827 86.9267 251.637 90.8499 254.868 94.3599Z" fill="#202020"/>
<path fill-rule="evenodd" clip-rule="evenodd" d="M254.866 94.337C254.716 93.032 254.582 91.9286 254.482 91.0187C254.582 91.9232 254.716 93.0374 254.866 94.337Z" fill="#202020"/>
<path fill-rule="evenodd" clip-rule="evenodd" d="M254.371 89.9363C254.354 89.7482 254.339 89.5727 254.328 89.4116C254.339 89.5736 254.354 89.7473 254.371 89.9363Z" fill="#202020"/>
<path fill-rule="evenodd" clip-rule="evenodd" d="M254.386 90.1051C254.41 90.3634 254.44 90.6406 254.473 90.9457C254.44 90.6424 254.41 90.3625 254.386 90.1051Z" fill="#202020"/>
<path fill-rule="evenodd" clip-rule="evenodd" d="M253.957 143.86C254.835 146.68 256.574 152.392 258.193 157.726C259.49 162.069 260.564 165.7 260.564 165.7C260.564 165.7 254.263 155.753 251.48 151.843C248.696 147.933 243.724 133.208 243.221 127.689C245.698 130.555 252.055 137.751 253.957 143.86Z" fill="#202020"/>
<path fill-rule="evenodd" clip-rule="evenodd" d="M224.64 81.837C225.687 77.2028 227.073 74.9321 228.709 72.2788C235.065 74.4163 233.519 80.1998 239.298 82.8603C240.166 83.2599 241.039 83.7108 241.908 84.1932C238.472 87.5683 235.777 89.9668 232.892 91.0189C230.008 92.072 224.847 91.8442 222.06 90.5257C223.132 87.4783 224.038 84.4983 224.64 81.837Z" fill="#202020"/>
<path fill-rule="evenodd" clip-rule="evenodd" d="M228.574 131.169C225.672 127.484 212.458 111.687 212.871 110.973C212.872 110.971 212.872 110.968 212.873 110.966C211.922 112.577 211.12 113.717 210.575 114.179C210.031 113.717 209.228 112.577 208.279 110.966C208.28 110.968 208.279 110.971 208.281 110.973C208.693 111.687 195.479 127.484 192.578 131.169C192.578 131.169 194.241 134.444 193.939 137.446C193.939 139.902 210.575 162.282 210.575 162.282C210.575 162.282 227.213 139.902 227.213 137.446C226.91 134.444 228.574 131.169 228.574 131.169Z" fill="#202020"/>
<path fill-rule="evenodd" clip-rule="evenodd" d="M222.06 90.5256C224.847 91.8441 230.008 92.0718 232.892 91.0188C235.777 89.9667 238.472 87.5682 241.908 84.1931C238.792 91.7775 238.322 102.414 238.631 107.793C238.658 107.739 236.438 114.586 235.942 120.158C232.893 124.157 228.573 131.169 228.573 131.169C219.355 119.874 215.762 115.612 212.872 110.967C215.799 105.412 219.065 98.9804 222.06 90.5256Z" fill="#202020"/>
<path fill-rule="evenodd" clip-rule="evenodd" d="M215.396 172.123C215.41 172.141 215.426 172.16 215.44 172.178C215.535 172.303 215.634 172.427 215.731 172.551C215.899 172.765 216.068 172.979 216.243 173.192C216.347 173.32 216.454 173.448 216.561 173.576C216.75 173.802 216.943 174.026 217.138 174.248C217.227 174.349 217.313 174.45 217.402 174.55C217.995 175.211 218.614 175.853 219.251 176.465C219.304 176.516 219.357 176.565 219.41 176.615C219.693 176.883 219.979 177.144 220.268 177.398C220.318 177.442 220.367 177.485 220.416 177.527C221.105 178.124 221.808 178.68 222.525 179.18C221.807 184.488 220.23 190.888 218.652 192.782C217.394 194.292 215.543 186.939 214.54 180.809C215.192 177.752 215.606 174.653 215.396 172.123Z" fill="#202020"/>
<path fill-rule="evenodd" clip-rule="evenodd" d="M233.151 57.548L219.892 49.8015L220.501 43.9991C220.501 43.9991 217.532 34.8865 210.576 34.8865C203.619 34.8865 200.651 43.9991 200.651 43.9991L201.26 49.8015L188.001 57.548C184.918 57.548 181.835 58.3706 178.995 59.7728C185.57 64.8471 193.828 69.9646 196.512 81.8367C199.196 93.7088 207.916 111.927 210.576 114.179C213.236 111.927 221.956 93.7088 224.64 81.8367C227.323 69.9646 235.582 64.8471 242.156 59.7728C239.317 58.3706 236.234 57.548 233.151 57.548Z" fill="#202020"/>
<path fill-rule="evenodd" clip-rule="evenodd" d="M228.898 21.7311C227.781 21.7311 226.14 22.0425 225.838 23.0721C226.091 19.6079 226.277 16.5362 226.277 15.0017C226.277 10.2127 221.043 1.03162 210.575 1.03162C200.108 1.03162 194.875 10.2127 194.875 15.0017C194.875 16.5362 195.061 19.6088 195.313 23.073C195.012 22.0425 193.37 21.7311 192.254 21.7311C191.021 21.7311 190.547 23.6103 191.495 28.0267C192.381 32.1542 195.734 33.5456 196.17 33.7103C196.461 37.0952 196.687 39.5505 196.687 39.5505C196.687 39.5505 198.29 41.6979 200.651 44.0002V43.9993C200.651 43.9993 203.619 34.8866 210.575 34.8866C217.533 34.8866 220.501 43.9993 220.501 43.9993V44.0002C222.862 41.6979 224.465 39.5505 224.465 39.5505C224.465 39.5505 224.69 37.0952 224.982 33.7103C225.418 33.5456 228.77 32.1542 229.656 28.0267C230.604 23.6103 230.13 21.7311 228.898 21.7311Z" fill="#202020"/>
<path fill-rule="evenodd" clip-rule="evenodd" d="M183.671 139.529C183.671 142.863 178.027 145.93 178.027 159.267C178.027 162.717 174.316 169.154 174.316 183.106C174.316 191.776 175.588 199.402 177.301 206.14C180.27 194.761 184.044 182.872 192.578 181.78C201.112 180.688 210.576 166.922 210.576 162.283C210.576 162.283 193.938 139.903 193.938 137.446C193.938 134.99 188.171 136.972 183.671 139.529Z" stroke="#2E2E2E" stroke-width="1.74515" stroke-linejoin="round"/>
<path fill-rule="evenodd" clip-rule="evenodd" d="M183.941 188.213C184.459 192.373 184.95 198.738 184.95 207.93C184.95 216.488 184.677 222.89 184.238 227.665C185.478 231.513 186.326 234.897 186.326 237.884C186.326 237.92 186.325 237.951 186.325 237.986C189.682 230.074 192.445 217.907 192.445 206.14C192.445 188.279 192.578 181.78 192.578 181.78C188.932 182.246 186.157 184.687 183.941 188.213Z" stroke="#2E2E2E" stroke-width="1.74515" stroke-linejoin="round"/>
<path fill-rule="evenodd" clip-rule="evenodd" d="M205.755 172.123C202.23 176.757 197.265 181.18 192.577 181.78C192.544 181.784 192.512 181.792 192.478 181.798C192.517 185.844 192.577 192.994 192.577 198.309C192.577 206.14 199.402 220.007 199.402 224.715C199.402 229.423 198.783 230.242 199.402 231.674C200.022 233.108 201.604 240.34 202.086 243.137C202.217 243.893 202.444 244.491 202.704 244.966C203.416 241.801 206.749 234.223 206.749 211.621C206.749 205.273 207.648 196.402 208.403 187.579C206.955 182.928 205.381 176.624 205.755 172.123Z" stroke="#2E2E2E" stroke-width="1.74515" stroke-linejoin="round"/>
<path fill-rule="evenodd" clip-rule="evenodd" d="M194.241 240.886C194.241 235.768 191.969 231.06 190.937 234.131C189.905 237.201 187.428 241.091 185.965 243.635C185.147 249.016 183.211 249.373 183.037 259.093C183.046 259.589 183.044 260.073 183.023 260.537C183.023 260.847 183.033 261.162 183.042 261.476C183.468 267.776 190.031 280.546 192.445 279.585C194.986 278.573 196.099 275.275 195.686 268.929C195.273 262.583 194.241 246.003 194.241 240.886Z" stroke="#2E2E2E" stroke-width="1.74515" stroke-linejoin="round"/>
<path fill-rule="evenodd" clip-rule="evenodd" d="M202.568 245.935C202.568 245.664 202.617 245.345 202.702 244.965C202.443 244.489 202.216 243.893 202.086 243.138C201.604 240.34 200.022 233.108 199.403 231.674C198.783 230.241 198.274 226.882 196.989 229.403C195.7 231.935 194.251 234.823 193.627 236.232C193.627 236.234 193.626 236.235 193.626 236.236C193.992 237.569 194.241 239.202 194.241 240.886C194.241 246.003 195.273 262.584 195.686 268.929C195.686 268.929 198.037 278.004 200.44 277.526C201.074 277.4 201.928 277.27 202.841 277.146C202.842 277.089 202.843 277.048 202.843 277.048C202.843 277.048 205.733 269.015 205.733 263.266C205.733 257.517 202.568 248.465 202.568 245.935Z" stroke="#2E2E2E" stroke-width="1.74515" stroke-linejoin="round"/>
<path fill-rule="evenodd" clip-rule="evenodd" d="M178.995 59.7734C173.234 62.1864 166.043 70.4395 166.043 77.9376C166.043 87.9025 166.855 86.9827 166.855 88.7072C166.855 89.6648 166.603 91.5683 166.284 94.3602C170.086 90.2291 176.072 85.5211 181.853 82.8606C187.633 80.2002 185.49 75.0026 192.442 72.2792C188.698 66.691 182.079 62.1099 178.995 59.7734Z" stroke="#2E2E2E" stroke-width="1.74515" stroke-linejoin="round"/>
<path fill-rule="evenodd" clip-rule="evenodd" d="M166.784 87.9489C166.77 87.8778 166.753 87.8058 166.736 87.7329C166.753 87.8067 166.77 87.8769 166.784 87.9489Z" stroke="#2E2E2E" stroke-width="1.74515" stroke-linejoin="round"/>
<path fill-rule="evenodd" clip-rule="evenodd" d="M166.855 88.7075C166.855 88.8569 166.847 89.036 166.836 89.2304C166.847 89.036 166.855 88.8569 166.855 88.7075Z" stroke="#2E2E2E" stroke-width="1.74515" stroke-linejoin="round"/>
<path fill-rule="evenodd" clip-rule="evenodd" d="M166.786 87.9573C166.8 88.0275 166.812 88.0986 166.822 88.1724C166.812 88.0986 166.8 88.0275 166.786 87.9573Z" stroke="#2E2E2E" stroke-width="1.74515" stroke-linejoin="round"/>
<path fill-rule="evenodd" clip-rule="evenodd" d="M166.847 88.4285C166.852 88.5149 166.855 88.6067 166.855 88.7075C166.855 88.6067 166.852 88.5149 166.847 88.4285Z" stroke="#2E2E2E" stroke-width="1.74515" stroke-linejoin="round"/>
<path fill-rule="evenodd" clip-rule="evenodd" d="M166.823 88.1832C166.833 88.2579 166.84 88.3353 166.846 88.4199C166.841 88.3353 166.833 88.2579 166.823 88.1832Z" stroke="#2E2E2E" stroke-width="1.74515" stroke-linejoin="round"/>
<path fill-rule="evenodd" clip-rule="evenodd" d="M166.283 94.3598C165.714 99.3252 164.924 107.134 164.924 117.659C164.924 117.954 164.755 118.464 164.467 119.135C166.705 122.187 169.52 125.232 171.943 125.232C174.069 125.232 176.39 123.626 178.283 121.97C178.301 121.898 178.318 121.824 178.343 121.753C180.821 114.793 180.701 106.909 181.803 106.909C181.998 106.909 182.245 107.225 182.52 107.793C182.83 102.414 182.359 91.7777 179.244 84.1932C174.323 86.9266 169.514 90.8498 166.283 94.3598Z" stroke="#2E2E2E" stroke-width="1.74515" stroke-linejoin="round"/>
<path fill-rule="evenodd" clip-rule="evenodd" d="M166.286 94.337C166.436 93.032 166.569 91.9286 166.67 91.0187C166.569 91.9232 166.435 93.0374 166.286 94.337Z" stroke="#2E2E2E" stroke-width="1.74515" stroke-linejoin="round"/>
<path fill-rule="evenodd" clip-rule="evenodd" d="M166.78 89.9363C166.798 89.7482 166.812 89.5727 166.823 89.4116C166.812 89.5736 166.798 89.7473 166.78 89.9363Z" stroke="#2E2E2E" stroke-width="1.74515" stroke-linejoin="round"/>
<path fill-rule="evenodd" clip-rule="evenodd" d="M166.765 90.105C166.741 90.3633 166.712 90.6405 166.678 90.9456C166.712 90.6423 166.741 90.3624 166.765 90.105Z" stroke="#2E2E2E" stroke-width="1.74515" stroke-linejoin="round"/>
<path fill-rule="evenodd" clip-rule="evenodd" d="M154.259 161.217C153.383 159.266 154.022 146.432 154.901 142.81C155.782 139.188 161.739 129.531 164.467 128.099C167.194 126.666 168.433 140.176 167.194 143.86C165.956 147.544 160.588 165.7 160.588 165.7C160.588 165.7 155.134 163.167 154.259 161.217Z" stroke="#2E2E2E" stroke-width="1.74515" stroke-linejoin="round"/>
<path fill-rule="evenodd" clip-rule="evenodd" d="M266.893 161.217C267.768 159.266 267.13 146.432 266.25 142.81C265.37 139.188 259.412 129.531 256.684 128.099C253.957 126.666 252.718 140.176 253.957 143.86C255.195 147.544 260.563 165.7 260.563 165.7C260.563 165.7 266.018 163.167 266.893 161.217Z" stroke="#2E2E2E" stroke-width="1.74515" stroke-linejoin="round"/>
<path fill-rule="evenodd" clip-rule="evenodd" d="M167.195 143.86C166.316 146.681 164.578 152.392 162.958 157.726C161.662 162.069 160.588 165.701 160.588 165.701C160.588 165.701 166.889 155.753 169.672 151.843C172.455 147.933 177.428 133.208 177.931 127.689C175.453 130.555 169.096 137.752 167.195 143.86Z" stroke="#2E2E2E" stroke-width="1.74515" stroke-linejoin="round"/>
<path fill-rule="evenodd" clip-rule="evenodd" d="M196.512 81.837C195.464 77.2028 194.078 74.9321 192.442 72.2788C186.085 74.4163 187.633 80.1998 181.853 82.8603C180.985 83.2599 180.113 83.7108 179.243 84.1932C182.679 87.5683 185.374 89.9668 188.259 91.0189C191.143 92.072 196.305 91.8443 199.092 90.5257C198.02 87.4783 197.114 84.4983 196.512 81.837Z" stroke="#2E2E2E" stroke-width="1.74515" stroke-linejoin="round"/>
<path fill-rule="evenodd" clip-rule="evenodd" d="M199.092 90.5255C196.305 91.844 191.143 92.0717 188.259 91.0187C185.374 89.9666 182.679 87.5681 179.243 84.193C182.36 91.7774 182.83 102.414 182.519 107.793C182.494 107.739 184.714 114.586 185.209 120.158C188.257 124.157 192.578 131.168 192.578 131.168C201.796 119.874 205.39 115.612 208.278 110.967C205.353 105.412 202.086 98.9802 199.092 90.5255Z" stroke="#2E2E2E" stroke-width="1.74515" stroke-linejoin="round"/>
<path fill-rule="evenodd" clip-rule="evenodd" d="M205.755 172.123C205.741 172.141 205.725 172.16 205.711 172.178C205.616 172.303 205.518 172.427 205.42 172.551C205.252 172.765 205.083 172.979 204.908 173.192C204.804 173.32 204.698 173.448 204.591 173.576C204.401 173.802 204.209 174.026 204.013 174.248C203.924 174.349 203.838 174.45 203.749 174.55C203.156 175.211 202.538 175.853 201.9 176.465C201.847 176.516 201.794 176.565 201.741 176.615C201.458 176.883 201.172 177.144 200.882 177.398C200.833 177.442 200.784 177.485 200.734 177.527C200.046 178.124 199.343 178.68 198.626 179.18C199.344 184.488 200.921 190.888 202.499 192.782C203.757 194.292 205.608 186.939 206.611 180.809C205.96 177.752 205.545 174.653 205.755 172.123Z" stroke="#2E2E2E" stroke-width="1.74515" stroke-linejoin="round"/>
<path fill-rule="evenodd" clip-rule="evenodd" d="M237.481 139.529C237.481 142.863 243.125 145.93 243.125 159.267C243.125 162.717 246.836 169.154 246.836 183.106C246.836 191.776 245.564 199.402 243.851 206.14C240.881 194.761 237.107 182.872 228.573 181.78C220.04 180.688 210.575 166.922 210.575 162.283C210.575 162.283 227.213 139.903 227.213 137.446C227.213 134.99 232.98 136.972 237.481 139.529Z" stroke="#2E2E2E" stroke-width="1.74515" stroke-linejoin="round"/>
<path fill-rule="evenodd" clip-rule="evenodd" d="M237.211 188.213C236.693 192.373 236.201 198.738 236.201 207.93C236.201 216.488 236.475 222.89 236.913 227.665C235.673 231.513 234.825 234.897 234.825 237.884C234.825 237.92 234.826 237.951 234.826 237.986C231.469 230.074 228.705 217.907 228.705 206.14C228.705 188.279 228.573 181.78 228.573 181.78C232.219 182.246 234.994 184.687 237.211 188.213Z" stroke="#2E2E2E" stroke-width="1.74515" stroke-linejoin="round"/>
<path fill-rule="evenodd" clip-rule="evenodd" d="M215.396 172.123C218.922 176.757 223.887 181.18 228.574 181.78C228.607 181.784 228.64 181.792 228.674 181.798C228.635 185.844 228.574 192.994 228.574 198.309C228.574 206.14 221.749 220.007 221.749 224.715C221.749 229.423 222.368 230.242 221.749 231.674C221.129 233.108 219.547 240.34 219.065 243.137C218.935 243.893 218.708 244.491 218.448 244.966C217.735 241.801 214.402 234.223 214.402 211.621C214.402 205.273 213.503 196.402 212.749 187.579C214.196 182.928 215.771 176.624 215.396 172.123Z" stroke="#2E2E2E" stroke-width="1.74515" stroke-linejoin="round"/>
<path fill-rule="evenodd" clip-rule="evenodd" d="M226.91 240.886C226.91 235.768 229.182 231.06 230.214 234.131C231.246 237.201 233.724 241.091 235.187 243.635C236.004 249.016 237.941 249.373 238.115 259.093C238.105 259.589 238.108 260.073 238.128 260.537C238.128 260.847 238.118 261.162 238.109 261.476C237.684 267.776 231.12 280.546 228.706 279.585C226.165 278.573 225.052 275.275 225.465 268.929C225.878 262.583 226.91 246.003 226.91 240.886Z" stroke="#2E2E2E" stroke-width="1.74515" stroke-linejoin="round"/>
<path fill-rule="evenodd" clip-rule="evenodd" d="M218.583 245.935C218.583 245.664 218.534 245.345 218.449 244.965C218.709 244.489 218.935 243.893 219.066 243.138C219.547 240.34 221.13 233.108 221.749 231.674C222.368 230.241 222.876 226.882 224.162 229.403C225.452 231.935 226.9 234.823 227.524 236.232C227.525 236.234 227.525 236.235 227.526 236.236C227.159 237.569 226.91 239.202 226.91 240.886C226.91 246.003 225.878 262.584 225.465 268.929C225.465 268.929 223.114 278.004 220.711 277.526C220.078 277.4 219.223 277.27 218.31 277.146C218.309 277.089 218.308 277.048 218.308 277.048C218.308 277.048 215.418 269.015 215.418 263.266C215.418 257.517 218.583 248.465 218.583 245.935Z" stroke="#2E2E2E" stroke-width="1.74515" stroke-linejoin="round"/>
<path fill-rule="evenodd" clip-rule="evenodd" d="M242.156 59.7734C247.918 62.1864 255.109 70.4395 255.109 77.9376C255.109 87.9025 254.296 86.9827 254.296 88.7072C254.296 89.6648 254.548 91.5683 254.868 94.3602C251.066 90.2291 245.079 85.5211 239.298 82.8606C233.518 80.2002 235.662 75.0026 228.709 72.2792C232.454 66.691 239.072 62.1099 242.156 59.7734Z" stroke="#2E2E2E" stroke-width="1.74515" stroke-linejoin="round"/>
<path fill-rule="evenodd" clip-rule="evenodd" d="M254.367 87.9489C254.382 87.8778 254.397 87.8058 254.415 87.7329C254.397 87.8067 254.382 87.8769 254.367 87.9489Z" stroke="#2E2E2E" stroke-width="1.74515" stroke-linejoin="round"/>
<path fill-rule="evenodd" clip-rule="evenodd" d="M254.297 88.7075C254.297 88.8569 254.305 89.036 254.316 89.2304C254.305 89.036 254.297 88.8569 254.297 88.7075Z" stroke="#2E2E2E" stroke-width="1.74515" stroke-linejoin="round"/>
<path fill-rule="evenodd" clip-rule="evenodd" d="M254.366 87.9573C254.352 88.0275 254.34 88.0986 254.329 88.1724C254.34 88.0986 254.352 88.0275 254.366 87.9573Z" stroke="#2E2E2E" stroke-width="1.74515" stroke-linejoin="round"/>
<path fill-rule="evenodd" clip-rule="evenodd" d="M254.305 88.4285C254.299 88.5149 254.297 88.6067 254.297 88.7075C254.297 88.6067 254.299 88.5149 254.305 88.4285Z" stroke="#2E2E2E" stroke-width="1.74515" stroke-linejoin="round"/>
<path fill-rule="evenodd" clip-rule="evenodd" d="M254.328 88.1832C254.318 88.2579 254.31 88.3353 254.306 88.4199C254.31 88.3353 254.318 88.2579 254.328 88.1832Z" stroke="#2E2E2E" stroke-width="1.74515" stroke-linejoin="round"/>
<path fill-rule="evenodd" clip-rule="evenodd" d="M254.868 94.3598C255.437 99.3252 256.228 107.134 256.228 117.659C256.228 117.954 256.396 118.464 256.685 119.135C254.447 122.187 251.631 125.232 249.208 125.232C247.081 125.232 244.76 123.626 242.868 121.97C242.849 121.898 242.834 121.824 242.808 121.753C240.33 114.793 240.451 106.909 239.349 106.909C239.154 106.909 238.906 107.225 238.632 107.793C238.321 102.414 238.793 91.7777 241.908 84.1932C246.827 86.9266 251.637 90.8498 254.868 94.3598Z" stroke="#2E2E2E" stroke-width="1.74515" stroke-linejoin="round"/>
<path fill-rule="evenodd" clip-rule="evenodd" d="M254.866 94.337C254.716 93.032 254.582 91.9286 254.482 91.0187C254.582 91.9232 254.716 93.0374 254.866 94.337Z" stroke="#2E2E2E" stroke-width="1.74515" stroke-linejoin="round"/>
<path fill-rule="evenodd" clip-rule="evenodd" d="M254.371 89.9363C254.354 89.7482 254.339 89.5727 254.328 89.4116C254.339 89.5736 254.354 89.7473 254.371 89.9363Z" stroke="#2E2E2E" stroke-width="1.74515" stroke-linejoin="round"/>
<path fill-rule="evenodd" clip-rule="evenodd" d="M254.386 90.105C254.41 90.3633 254.44 90.6405 254.473 90.9456C254.44 90.6423 254.41 90.3624 254.386 90.105Z" stroke="#2E2E2E" stroke-width="1.74515" stroke-linejoin="round"/>
<path fill-rule="evenodd" clip-rule="evenodd" d="M253.957 143.86C254.835 146.681 256.574 152.392 258.193 157.726C259.49 162.069 260.564 165.701 260.564 165.701C260.564 165.701 254.263 155.753 251.48 151.843C248.696 147.933 243.724 133.208 243.221 127.689C245.698 130.555 252.055 137.752 253.957 143.86Z" stroke="#2E2E2E" stroke-width="1.74515" stroke-linejoin="round"/>
<path fill-rule="evenodd" clip-rule="evenodd" d="M224.64 81.837C225.687 77.2028 227.073 74.9321 228.709 72.2788C235.065 74.4163 233.519 80.1998 239.298 82.8603C240.166 83.2599 241.038 83.7108 241.908 84.1932C238.472 87.5683 235.777 89.9668 232.892 91.0189C230.008 92.072 224.847 91.8443 222.06 90.5257C223.132 87.4783 224.038 84.4983 224.64 81.837Z" stroke="#2E2E2E" stroke-width="1.74515" stroke-linejoin="round"/>
<path fill-rule="evenodd" clip-rule="evenodd" d="M228.574 131.169C225.672 127.484 212.458 111.687 212.871 110.973C212.872 110.971 212.872 110.968 212.873 110.966C211.923 112.577 211.12 113.717 210.575 114.179C210.031 113.717 209.228 112.577 208.279 110.966C208.28 110.968 208.279 110.971 208.281 110.973C208.693 111.687 195.479 127.484 192.578 131.169C192.578 131.169 194.241 134.444 193.939 137.446C193.939 139.902 210.575 162.282 210.575 162.282C210.575 162.282 227.213 139.902 227.213 137.446C226.91 134.444 228.574 131.169 228.574 131.169Z" stroke="#2E2E2E" stroke-width="1.74515" stroke-linejoin="round"/>
<path fill-rule="evenodd" clip-rule="evenodd" d="M222.06 90.5255C224.847 91.844 230.008 92.0717 232.892 91.0187C235.777 89.9666 238.472 87.5681 241.908 84.193C238.792 91.7774 238.322 102.414 238.631 107.793C238.658 107.739 236.438 114.586 235.942 120.158C232.893 124.157 228.573 131.168 228.573 131.168C219.355 119.874 215.762 115.612 212.872 110.967C215.799 105.412 219.065 98.9802 222.06 90.5255Z" stroke="#2E2E2E" stroke-width="1.74515" stroke-linejoin="round"/>
<path fill-rule="evenodd" clip-rule="evenodd" d="M215.396 172.123C215.41 172.141 215.426 172.16 215.44 172.178C215.535 172.303 215.634 172.427 215.731 172.551C215.899 172.765 216.068 172.979 216.243 173.192C216.347 173.32 216.454 173.448 216.561 173.576C216.75 173.802 216.943 174.026 217.138 174.248C217.227 174.349 217.313 174.45 217.402 174.55C217.995 175.211 218.614 175.853 219.251 176.465C219.304 176.516 219.357 176.565 219.41 176.615C219.693 176.883 219.979 177.144 220.268 177.398C220.318 177.442 220.367 177.485 220.416 177.527C221.105 178.124 221.808 178.68 222.525 179.18C221.807 184.488 220.23 190.888 218.652 192.782C217.394 194.292 215.543 186.939 214.54 180.809C215.192 177.752 215.606 174.653 215.396 172.123Z" stroke="#2E2E2E" stroke-width="1.74515" stroke-linejoin="round"/>
<path fill-rule="evenodd" clip-rule="evenodd" d="M195.376 23.409C195.376 22.1003 193.486 21.7313 192.254 21.7313C191.021 21.7313 190.547 23.6106 191.495 28.0269C192.444 32.4433 196.218 33.7276 196.218 33.7276L195.376 23.409Z" stroke="#2E2E2E" stroke-width="1.74515" stroke-linejoin="round"/>
<path fill-rule="evenodd" clip-rule="evenodd" d="M225.775 23.409C225.775 22.1003 227.666 21.7313 228.898 21.7313C230.13 21.7313 230.604 23.6106 229.656 28.0269C228.708 32.4433 224.933 33.7276 224.933 33.7276L225.775 23.409Z" stroke="#2E2E2E" stroke-width="1.74515" stroke-linejoin="round"/>
<path fill-rule="evenodd" clip-rule="evenodd" d="M233.151 57.548L219.892 49.8015L220.501 43.9991C220.501 43.9991 217.532 34.8865 210.576 34.8865C203.619 34.8865 200.651 43.9991 200.651 43.9991L201.26 49.8015L188.001 57.548C184.918 57.548 181.835 58.3706 178.995 59.7728C185.57 64.8471 193.828 69.9646 196.512 81.8367C199.196 93.7088 207.916 111.927 210.576 114.179C213.236 111.927 221.956 93.7088 224.64 81.8367C227.323 69.9646 235.582 64.8471 242.156 59.7728C239.317 58.3706 236.234 57.548 233.151 57.548Z" stroke="#2E2E2E" stroke-width="1.74515" stroke-linejoin="round"/>
<path fill-rule="evenodd" clip-rule="evenodd" d="M200.651 43.9999C200.651 43.9999 203.619 34.8864 210.576 34.8864C217.533 34.8864 220.5 43.9999 220.5 43.9999C222.861 41.6977 224.466 39.5502 224.466 39.5502C224.466 39.5502 226.277 19.7922 226.277 15.0023C226.277 10.2124 221.043 1.03137 210.576 1.03137C200.108 1.03137 194.875 10.2124 194.875 15.0023C194.875 19.7922 196.686 39.5502 196.686 39.5502C196.686 39.5502 198.29 41.6977 200.651 43.9999Z" stroke="#2E2E2E" stroke-width="1.74515" stroke-linejoin="round"/>
<path fill-rule="evenodd" clip-rule="evenodd" d="M275.345 175.716C273.144 170.285 270.277 166.661 269.855 161.463C269.433 156.266 265.774 140.623 264.408 135.384C263.041 130.145 256.228 119.537 256.228 117.658C256.228 101.216 254.296 91.3672 254.296 88.7077C254.296 86.9824 255.109 87.9022 255.109 77.9372C255.109 70.7704 249.429 63.366 242.156 59.7731C242.14 59.765 242.124 59.7587 242.108 59.7506C241.787 59.5931 241.464 59.4437 241.138 59.3015C241.03 59.2547 240.92 59.2115 240.811 59.1665C240.575 59.0675 240.338 58.9703 240.098 58.8794C239.966 58.829 239.834 58.784 239.701 58.7363C239.483 58.658 239.263 58.5824 239.041 58.5104C238.9 58.4654 238.756 58.4222 238.614 58.3799C238.4 58.316 238.184 58.2548 237.968 58.1972C237.822 58.1585 237.675 58.1216 237.528 58.0865C237.312 58.0343 237.095 57.9866 236.878 57.9425C236.731 57.9119 236.585 57.8822 236.438 57.8552C236.215 57.8147 235.991 57.7805 235.767 57.7481C235.626 57.7274 235.486 57.704 235.344 57.6869C235.1 57.6572 234.854 57.6356 234.609 57.6158C234.488 57.6059 234.368 57.5915 234.248 57.5843C233.883 57.5618 233.518 57.5483 233.152 57.5483L219.891 49.8018L220.5 43.9994C220.5 43.9994 217.533 34.8859 210.575 34.8859C203.619 34.8859 200.651 43.9994 200.651 43.9994L201.261 49.8018L188 57.5483C187.634 57.5483 187.268 57.5618 186.903 57.5843C186.783 57.5915 186.663 57.6059 186.543 57.6158C186.297 57.6356 186.052 57.6572 185.807 57.6869C185.666 57.704 185.525 57.7274 185.384 57.7481C185.161 57.7805 184.936 57.8147 184.713 57.8552C184.567 57.8822 184.42 57.9119 184.273 57.9425C184.057 57.9866 183.84 58.0343 183.624 58.0865C183.477 58.1216 183.33 58.1585 183.183 58.1972C182.967 58.2548 182.752 58.316 182.538 58.3799C182.395 58.4222 182.252 58.4654 182.11 58.5104C181.889 58.5824 181.669 58.658 181.45 58.7363C181.317 58.784 181.185 58.829 181.053 58.8794C180.814 58.9703 180.577 59.0675 180.339 59.1665C180.231 59.2115 180.122 59.2547 180.013 59.3015C179.688 59.4437 179.364 59.5931 179.044 59.7506C179.028 59.7587 179.011 59.765 178.995 59.7731H178.996C171.722 63.366 166.043 70.7704 166.043 77.9372C166.043 87.9022 166.854 86.9824 166.854 88.7077C166.854 91.3672 164.924 101.216 164.924 117.658C164.924 119.537 158.11 130.145 156.744 135.384C155.377 140.623 151.719 156.266 151.297 161.463C150.875 166.661 148.008 170.285 145.807 175.716C142.914 182.851 152.07 186.754 152.731 187.019C153.586 187.361 154.545 187.351 154.835 186.687C156.026 183.955 149.739 180.329 150.867 178.349C152.01 176.342 153.96 174.089 155.557 174.728C157.154 175.367 156.389 180.394 157.986 181.033C159.583 181.672 160.268 181.247 160.757 180.047C161.246 178.846 161.018 169.463 158.596 168.494C159.813 166.841 160.587 165.7 160.587 165.7C160.587 165.7 166.889 155.752 169.672 151.843C172.455 147.933 177.428 133.208 177.93 127.688C179.361 125.619 177.721 123.5 178.343 121.753C180.821 114.793 180.701 106.909 181.803 106.909C182.847 106.909 185.41 115.957 185.41 124.466C185.41 130.905 183.671 128.261 183.671 139.528C183.671 142.863 178.026 145.929 178.026 159.266C178.026 162.716 174.316 169.155 174.316 183.106C174.316 209.781 186.326 226.615 186.326 237.883C186.326 249.956 183.023 246.509 183.023 260.536C183.023 274.564 192.658 292.93 192.658 302.703C192.658 322.354 180.27 311.847 180.27 317.851C180.27 319.155 183.712 320.99 183.712 320.99L193.037 324.622L199.265 325.22C202.029 325.22 204.633 324.265 204.633 319.489C204.633 317.956 204.495 314.096 204.495 312.256C204.495 310.417 202.43 305.117 202.43 299.292C202.43 293.467 202.843 277.049 202.843 277.049C202.843 277.049 205.733 269.015 205.733 263.266C205.733 257.516 202.568 248.464 202.568 245.935C202.568 243.405 206.749 236.928 206.749 211.62C206.749 200.698 209.416 182.3 209.416 169.538H210.575H211.736C211.736 182.3 214.403 200.698 214.403 211.62C214.403 236.928 218.584 243.405 218.584 245.935C218.584 248.464 215.417 257.516 215.417 263.266C215.417 269.015 218.308 277.049 218.308 277.049C218.308 277.049 218.721 293.467 218.721 299.292C218.721 305.117 216.657 310.417 216.657 312.256C216.657 314.096 216.519 317.956 216.519 319.489C216.519 324.265 219.122 325.22 221.886 325.22L228.114 324.622L237.44 320.99C237.44 320.99 240.881 319.155 240.881 317.851C240.881 311.847 228.493 322.354 228.493 302.703C228.493 292.93 238.128 274.564 238.128 260.536C238.128 246.509 234.825 249.956 234.825 237.883C234.825 226.615 246.835 209.781 246.835 183.106C246.835 169.155 243.124 162.716 243.124 159.266C243.124 145.929 237.481 142.863 237.481 139.528C237.481 128.261 235.742 130.905 235.742 124.466C235.742 115.957 238.305 106.909 239.349 106.909C240.451 106.909 240.33 114.793 242.808 121.753C243.43 123.5 241.791 125.619 243.221 127.688C243.724 133.208 248.696 147.933 251.479 151.843C254.263 155.752 260.564 165.7 260.564 165.7C260.564 165.7 261.338 166.841 262.556 168.494C260.133 169.463 259.906 178.846 260.395 180.047C260.883 181.247 261.569 181.672 263.165 181.033C264.762 180.394 263.997 175.367 265.594 174.728C267.191 174.089 269.142 176.342 270.285 178.349C271.412 180.329 265.126 183.955 266.317 186.687C266.607 187.351 267.565 187.361 268.42 187.019C269.081 186.754 278.237 182.851 275.345 175.716Z" stroke="#2E2E2E" stroke-width="1.74515" stroke-linejoin="round"/>
</svg>
