<svg width="191" height="191" viewBox="0 0 191 191" fill="none" xmlns="http://www.w3.org/2000/svg">
<rect x="31" y="95.3467" width="91" height="91" rx="20" transform="rotate(-45 31 95.3467)" fill="black"/>
<g filter="url(#filter0_d)">
<rect x="46.3467" y="95.3467" width="69.2964" height="69.2964" rx="10" transform="rotate(-45 46.3467 95.3467)" fill="#FFEC42"/>
</g>
<path d="M88.5593 104.22C87.026 104.22 85.9193 103.747 85.2393 102.8C84.5726 101.84 84.2393 100.46 84.2393 98.66V93.22C84.2393 91.3667 84.586 89.9733 85.2793 89.04C85.9726 88.0933 87.166 87.62 88.8593 87.62C90.4593 87.62 91.606 88.02 92.2993 88.82C92.9926 89.6067 93.3393 90.78 93.3393 92.34V93.18H90.5193V92.26C90.5193 91.6733 90.4793 91.2067 90.3993 90.86C90.3326 90.5133 90.1793 90.2467 89.9393 90.06C89.7126 89.8733 89.366 89.78 88.8993 89.78C88.406 89.78 88.0393 89.9 87.7993 90.14C87.5593 90.38 87.3993 90.6867 87.3193 91.06C87.2526 91.4333 87.2193 91.92 87.2193 92.52V99.3C87.2193 100.22 87.3393 100.907 87.5793 101.36C87.8326 101.813 88.2993 102.04 88.9793 102.04C89.646 102.04 90.106 101.8 90.3593 101.32C90.626 100.84 90.7593 100.12 90.7593 99.16V97.64H89.0193V95.78H93.4193V104H91.4993L91.2993 102.42C90.7926 103.62 89.8793 104.22 88.5593 104.22ZM100.091 104.22C98.4112 104.22 97.2112 103.773 96.4912 102.88C95.7712 101.973 95.4112 100.653 95.4112 98.92V92.84C95.4112 91.12 95.7712 89.82 96.4912 88.94C97.2112 88.06 98.4112 87.62 100.091 87.62C101.758 87.62 102.951 88.06 103.671 88.94C104.391 89.82 104.751 91.12 104.751 92.84V98.92C104.751 100.64 104.385 101.953 103.651 102.86C102.931 103.767 101.745 104.22 100.091 104.22ZM100.091 102.04C100.745 102.04 101.185 101.833 101.411 101.42C101.638 101.007 101.751 100.407 101.751 99.62V92.16C101.751 91.3733 101.638 90.78 101.411 90.38C101.198 89.98 100.758 89.78 100.091 89.78C99.4245 89.78 98.9778 89.9867 98.7512 90.4C98.5245 90.8 98.4112 91.3867 98.4112 92.16V99.62C98.4112 100.407 98.5245 101.007 98.7512 101.42C98.9778 101.833 99.4245 102.04 100.091 102.04Z" fill="black"/>
<defs>
<filter id="filter0_d" x="0.489258" y="0.48877" width="189.716" height="189.716" filterUnits="userSpaceOnUse" color-interpolation-filters="sRGB">
<feFlood flood-opacity="0" result="BackgroundImageFix"/>
<feColorMatrix in="SourceAlpha" type="matrix" values="0 0 0 0 0 0 0 0 0 0 0 0 0 0 0 0 0 0 127 0"/>
<feOffset/>
<feGaussianBlur stdDeviation="25"/>
<feColorMatrix type="matrix" values="0 0 0 0 1 0 0 0 0 0.925833 0 0 0 0 0.258333 0 0 0 0.4 0"/>
<feBlend mode="normal" in2="BackgroundImageFix" result="effect1_dropShadow"/>
<feBlend mode="normal" in="SourceGraphic" in2="effect1_dropShadow" result="shape"/>
</filter>
</defs>
</svg>
