<svg width="276" height="328" viewBox="0 0 276 328" fill="none" xmlns="http://www.w3.org/2000/svg">
<path fill-rule="evenodd" clip-rule="evenodd" d="M115.297 176.188C114.482 174.243 113.051 168.142 112.642 163.074C111.55 149.568 110.601 129.415 109.614 125.593C108.258 120.338 105.368 114.906 105.368 113.021C105.368 96.5289 101.686 92.3922 101.686 89.724C101.686 87.9938 102.491 88.9164 102.491 78.921C102.491 68.9256 91.5955 58.4685 80.6996 58.4685L70.1108 51.8556V42.3219H70.0132C67.3525 45.2952 62.5993 49.8185 58.2952 49.8185C53.991 49.8185 49.2378 45.2952 46.5771 42.3219H46.4795V51.8556L35.8907 58.4685C24.9948 58.4685 14.0998 68.9256 14.0998 78.921C14.0998 88.9164 14.9057 87.9938 14.9057 89.724C14.9057 92.3922 11.2222 96.5289 11.2222 113.021C11.2222 114.906 8.33107 120.338 6.97495 125.593C5.98925 129.415 5.04151 149.568 3.9492 163.074C3.53902 168.142 2.10882 174.243 1.29298 176.188C-0.611549 180.73 8.575 187.688 9.18937 187.935C9.98262 188.257 10.2528 186.66 10.522 186.038C11.6269 183.474 7.51432 180.428 7.77904 178.649C8.09797 176.51 8.47472 172.755 9.95642 173.354C11.439 173.953 11.9405 177.359 13.4222 177.958C14.9039 178.557 15.5399 178.159 15.9935 177.033C16.2591 176.373 14.575 172.24 13.0635 168.361C11.9956 165.619 12.1781 163.654 12.1781 163.654C12.1781 163.654 23.9657 136.204 24.4635 130.668C26.0654 128.119 25.3209 126.842 25.526 124.993C26.3473 117.572 26.3572 103.218 27.4504 103.218C28.4867 103.218 28.6015 107.717 28.6015 110.484C28.6015 116.828 33.3203 117.058 33.3203 125.593C33.3203 132.051 31.5938 129.4 31.5938 140.702C31.5938 144.047 25.9922 147.122 25.9922 160.501C25.9922 163.962 22.3097 170.42 22.3097 184.414C22.3097 211.172 29.4074 224.205 29.4074 235.508C29.4074 247.618 27.2201 246.58 27.2201 260.651C27.2201 274.722 35.9675 292.714 35.9675 302.517C35.9675 324.085 28.8319 318.549 28.8319 323.509C28.8319 324.816 30.2124 325.662 30.2124 325.662L42.4129 326.969H48.7038L50.6228 324.662C50.6228 324.662 48.9342 321.741 48.9342 320.202C48.9342 318.665 49.7781 315.666 49.7781 313.82C49.7781 311.975 47.4001 305.516 47.4001 299.673C47.4001 293.829 47.2465 277.028 47.2465 277.028C47.2465 277.028 47.822 271.493 47.822 265.726C47.822 259.959 44.2542 257.076 44.2542 254.539C44.2542 252.001 54.4969 233.547 54.4969 213.018C54.4969 202.061 57.1441 183.607 57.1441 170.805H58.2952H59.4462C59.4462 183.607 62.0934 202.061 62.0934 213.018C62.0934 233.547 72.337 252.001 72.337 254.539C72.337 257.076 68.7682 259.959 68.7682 265.726C68.7682 271.493 69.3438 277.028 69.3438 277.028C69.3438 277.028 69.1911 293.829 69.1911 299.673C69.1911 305.516 66.8122 311.975 66.8122 313.82C66.8122 315.666 67.6561 318.665 67.6561 320.202C67.6561 321.741 65.9684 324.662 65.9684 324.662L67.8865 326.969H74.1783L86.3779 325.662C86.3779 325.662 87.7593 324.816 87.7593 323.509C87.7593 318.549 80.6237 324.085 80.6237 302.517C80.6237 292.714 89.3702 274.722 89.3702 260.651C89.3702 246.58 87.1829 247.618 87.1829 235.508C87.1829 224.205 94.2806 211.172 94.2806 184.414C94.2806 170.42 90.5981 163.962 90.5981 160.501C90.5981 147.122 84.9965 144.047 84.9965 140.702C84.9965 129.4 83.27 132.051 83.27 125.593C83.27 117.058 87.9888 116.828 87.9888 110.484C87.9888 107.717 88.1045 103.218 89.1398 103.218C90.2331 103.218 90.243 117.572 91.0643 124.993C91.2693 126.842 90.5249 128.119 92.1267 130.668C92.6255 136.204 104.413 163.654 104.413 163.654C104.413 163.654 104.595 165.619 103.528 168.361C102.016 172.24 100.331 176.373 100.597 177.033C101.05 178.159 101.686 178.557 103.168 177.958C104.651 177.359 105.152 173.953 106.634 173.354C108.116 172.755 108.493 176.51 108.811 178.649C109.077 180.428 104.963 183.474 106.068 186.038C106.338 186.66 106.609 188.257 107.402 187.935C108.014 187.688 117.202 180.73 115.297 176.188Z" fill="#202020"/>
<path fill-rule="evenodd" clip-rule="evenodd" d="M14.0995 78.9213C14.0995 88.9167 14.9054 87.9941 14.9054 89.7243C19.9694 88.6867 23.3068 84.3038 29.4071 74.0386C35.5065 63.7743 40.6861 65.3886 40.6861 62.9667C40.6861 61.1206 37.1183 60.3139 35.8904 58.4688C24.9954 58.4688 14.0995 68.925 14.0995 78.9213Z" fill="#202020"/>
<path fill-rule="evenodd" clip-rule="evenodd" d="M53.4612 69.4254C52.7854 68.0873 43.1028 62.9664 40.686 62.9664C40.686 65.3883 35.5064 63.774 29.407 74.0383C27.142 77.8509 25.2573 80.8504 23.5236 83.17H23.5245C26.2737 84.6892 25.3784 85.9178 27.9108 88.1098C30.4424 90.3008 38.8447 93.6453 44.0234 93.6453C49.2031 93.6453 56.4029 90.5317 56.4029 90.5317V82.6884C56.4029 74.1542 54.511 71.5015 53.4612 69.4254Z" fill="#202020"/>
<path fill-rule="evenodd" clip-rule="evenodd" d="M46.0186 108.033V100.26C46.0186 97.5684 47.0928 95.5693 49.0877 95.5693C51.0825 95.5693 55.1491 93.8781 55.6099 93.8781C56.0697 93.8781 56.9913 94.032 56.9913 94.9935V105.449C56.9913 106.967 55.1879 107.063 52.6943 107.063C51.2361 107.063 48.1282 108.379 47.4768 109.032C46.8245 109.686 46.0186 108.801 46.0186 108.033Z" fill="#202020"/>
<path fill-rule="evenodd" clip-rule="evenodd" d="M56.9909 112.282C56.9909 111.128 56.4542 110.206 55.0728 110.206H51.5429C50.1615 110.206 46.2485 112.589 46.2485 114.742V119.75C46.2485 120.75 46.7093 121.287 47.9371 121.287H53.3083C53.9986 121.287 56.9909 119.903 56.9909 117.981V112.282Z" fill="#202020"/>
<path fill-rule="evenodd" clip-rule="evenodd" d="M45.9229 131.764V126.045C45.9229 125.064 46.4405 123.68 47.9367 123.68H54.1517C55.0724 123.68 56.9145 124.833 56.9145 126.103V131.764C56.9145 132.629 56.5116 134.128 55.5331 134.128H49.0877C48.0514 134.128 45.9229 133.147 45.9229 131.764Z" fill="#202020"/>
<path fill-rule="evenodd" clip-rule="evenodd" d="M55.2261 136.895H48.8575C47.6297 136.895 46.2483 137.895 46.2483 139.048C46.2483 140.202 51.9266 165.577 56.3772 165.577H56.9138C57.1451 159.586 56.9138 140.073 56.9138 139.048C56.9138 137.818 56.6834 136.895 55.2261 136.895Z" fill="#202020"/>
<path fill-rule="evenodd" clip-rule="evenodd" d="M70.5717 108.033V100.26C70.5717 97.5684 69.4975 95.5693 67.5026 95.5693C65.5077 95.5693 61.4411 93.8781 60.9804 93.8781C60.5205 93.8781 59.5999 94.032 59.5999 94.9935V105.449C59.5999 106.967 61.4032 107.063 63.8968 107.063C65.3541 107.063 68.4621 108.379 69.1144 109.032C69.7658 109.686 70.5717 108.801 70.5717 108.033Z" fill="#202020"/>
<path fill-rule="evenodd" clip-rule="evenodd" d="M59.5999 112.282C59.5999 111.128 60.1365 110.206 61.5179 110.206H65.0469C66.4283 110.206 70.3422 112.589 70.3422 114.742V119.75C70.3422 120.75 69.8814 121.287 68.6536 121.287H63.2824C62.5922 121.287 59.5999 119.903 59.5999 117.981V112.282Z" fill="#202020"/>
<path fill-rule="evenodd" clip-rule="evenodd" d="M70.6678 131.764V126.045C70.6678 125.064 70.1502 123.68 68.654 123.68H62.439C61.5183 123.68 59.6761 124.833 59.6761 126.103V131.764C59.6761 132.629 60.0791 134.128 61.0576 134.128H67.503C68.5384 134.128 70.6678 133.147 70.6678 131.764Z" fill="#202020"/>
<path fill-rule="evenodd" clip-rule="evenodd" d="M61.3645 136.895H67.7331C68.9609 136.895 70.3423 137.895 70.3423 139.048C70.3423 140.202 64.664 165.577 60.2134 165.577H59.6768C59.4455 159.586 59.6768 140.073 59.6768 139.048C59.6768 137.818 59.9063 136.895 61.3645 136.895Z" fill="#202020"/>
<path fill-rule="evenodd" clip-rule="evenodd" d="M25.5258 80.3024C25.2836 80.6672 25.0469 81.0212 24.812 81.3635C25.0469 81.0212 25.2836 80.6681 25.5258 80.3024Z" fill="#202020"/>
<path fill-rule="evenodd" clip-rule="evenodd" d="M23.5243 83.1702C23.6797 82.9619 23.8387 82.7401 23.9968 82.521C20.8554 86.8768 18.2579 89.037 14.9051 89.7242C14.9051 92.3924 11.2225 96.5291 11.2225 113.022C11.2225 116.367 19.1894 120.669 22.8467 113.022C25.2192 108.062 26.1109 105.995 26.6657 104.777C26.9476 103.797 27.215 103.219 27.4508 103.219C28.2558 101.835 27.9107 88.1099 27.9107 88.1099C25.3791 85.918 26.2736 84.6894 23.5243 83.1702Z" fill="#202020"/>
<path fill-rule="evenodd" clip-rule="evenodd" d="M24.1321 82.336C24.3507 82.0309 24.5712 81.714 24.7952 81.3872C24.5712 81.714 24.3507 82.0309 24.1321 82.336Z" fill="#202020"/>
<path fill-rule="evenodd" clip-rule="evenodd" d="M58.2954 1.03162C47.8774 1.03162 42.6688 10.2665 42.6688 15.0849C42.6688 19.9034 44.4713 39.7801 44.4713 39.7801C44.4713 39.7801 51.8843 49.8181 58.2954 49.8181C64.7064 49.8181 72.1195 39.7801 72.1195 39.7801C72.1195 39.7801 73.9219 19.9034 73.9219 15.0849C73.9219 10.2665 68.7133 1.03162 58.2954 1.03162Z" fill="#202020"/>
<path fill-rule="evenodd" clip-rule="evenodd" d="M73.4109 145.893C73.4109 137.357 75.6361 138.049 75.6361 133.513C75.6361 124.056 73.4109 115.982 73.4109 111.753C73.4109 107.524 73.7939 93.6457 73.7939 93.6457L73.6133 93.6041C73.2528 93.6312 72.9031 93.6457 72.5661 93.6457C67.3874 93.6457 60.1876 90.5321 60.1876 90.5321H58.2957H56.4029C56.4029 90.5321 49.2031 93.6457 44.0235 93.6457C43.6883 93.6457 43.3377 93.6312 42.9773 93.6041L42.7957 93.6457C42.7957 93.6457 43.1796 107.524 43.1796 111.753C43.1796 115.982 40.9544 124.056 40.9544 133.513C40.9544 138.049 43.1796 137.357 43.1796 145.893C43.1796 148.891 40.8776 151.005 37.8853 151.005C37.8853 157.888 53.9988 170.805 58.2957 170.805C62.5917 170.805 78.7052 157.888 78.7052 151.005C75.712 151.005 73.4109 148.891 73.4109 145.893Z" fill="#202020"/>
<path fill-rule="evenodd" clip-rule="evenodd" d="M78.7051 151.006C80.7 145.816 84.9969 140.703 84.9969 140.703L78.7051 151.006Z" fill="#202020"/>
<path fill-rule="evenodd" clip-rule="evenodd" d="M29.3616 233.928C29.3616 234.857 29.9055 235.393 30.3662 235.393C30.827 235.393 31.894 230.154 31.894 226.666C31.7088 226.671 31.5941 226.192 31.5941 224.849C31.5941 220.071 27.1047 211.326 27.1047 194.564C27.1047 177.802 32.2075 159.502 33.3224 152.258L33.0821 148.881C32.9782 146.965 32.8625 142.328 32.8625 142.328L31.5941 140.604C31.5941 140.638 31.5941 140.668 31.5941 140.703C31.5941 144.047 25.9925 147.123 25.9925 160.502C25.9925 163.962 22.3099 170.42 22.3099 184.414C22.3099 185.236 22.3172 186.042 22.3298 186.838C22.3334 187.055 22.3407 187.266 22.3452 187.481C22.3569 188.052 22.3687 188.623 22.3867 189.181C22.3958 189.449 22.4084 189.709 22.4184 189.974C22.4373 190.47 22.4554 190.967 22.4798 191.453C22.4933 191.733 22.5105 192.005 22.525 192.281C22.5503 192.742 22.5756 193.204 22.6045 193.656C22.6225 193.933 22.6433 194.204 22.6623 194.478C22.6939 194.921 22.7255 195.362 22.7599 195.795C22.7816 196.06 22.8059 196.32 22.8285 196.583C22.8656 197.016 22.9035 197.448 22.9442 197.872C22.9686 198.122 22.9948 198.367 23.0192 198.614C23.0634 199.043 23.1077 199.469 23.1547 199.889C23.1809 200.121 23.2071 200.349 23.2342 200.577C23.2839 201.005 23.3354 201.43 23.3887 201.848C23.4149 202.059 23.4429 202.268 23.47 202.477C23.5269 202.908 23.5847 203.335 23.6453 203.757C23.6715 203.943 23.6977 204.126 23.7248 204.311C23.7889 204.75 23.854 205.187 23.9217 205.617C23.9461 205.774 23.9705 205.93 23.9958 206.086C24.0681 206.541 24.1422 206.993 24.2172 207.437C24.238 207.559 24.2587 207.679 24.2795 207.8C24.3617 208.281 24.4467 208.757 24.5316 209.226C24.5451 209.302 24.5596 209.38 24.5741 209.456C24.6698 209.981 24.7683 210.498 24.8668 211.006C24.8695 211.021 24.8722 211.036 24.8758 211.051C26.7487 220.67 29.0155 227.638 29.358 233.924L29.3616 233.928Z" fill="#202020"/>
<path fill-rule="evenodd" clip-rule="evenodd" d="M58.2953 49.8184C57.0512 49.8184 55.7701 49.4381 54.5124 48.8279H54.5106C54.5106 53.2398 55.3798 66.0039 58.2953 66.0039C61.2108 66.0039 62.0799 53.2398 62.0799 48.8279H62.0781C60.8205 49.4381 59.5394 49.8184 58.2953 49.8184Z" fill="#202020"/>
<path fill-rule="evenodd" clip-rule="evenodd" d="M33.3227 152.259C32.2078 159.502 27.105 177.802 27.105 194.564C27.105 211.326 31.5944 220.071 31.5944 224.848C31.5944 229.626 33.0517 223.475 33.8964 223.475C34.7394 223.475 37.8211 229.337 37.8211 232.971C37.8211 233.141 37.8365 233.237 37.8663 233.267C37.8555 233.084 37.8663 232.873 37.86 232.683C37.8437 232.193 37.8265 231.703 37.8437 231.172C37.8491 230.986 37.8672 230.785 37.8753 230.595C37.9042 229.999 37.9359 229.4 37.9946 228.771C38.0054 228.655 38.0217 228.534 38.0334 228.417C38.4192 224.541 39.254 220.243 39.7446 216.861C39.76 216.764 39.7781 216.654 39.7916 216.559C39.8928 215.841 39.9768 215.168 40.0337 214.555C40.4936 209.637 43.4082 199.494 44.8222 193.493C44.8222 193.493 44.8249 193.441 44.8294 193.362C44.8357 193.261 44.8475 193.041 44.8646 192.739C44.8673 192.693 44.87 192.625 44.8728 192.575C44.8872 192.297 44.9035 191.979 44.9234 191.577C44.9234 191.568 44.9234 191.555 44.9243 191.546C44.9459 191.096 44.9685 190.582 44.9929 189.999C44.9929 189.977 44.9938 189.948 44.9947 189.925C45.0661 188.161 45.1393 185.86 45.1718 183.266C45.1754 183.064 45.1745 182.848 45.1763 182.643C45.1836 181.959 45.1899 181.273 45.1899 180.56C45.1908 179.632 45.1709 177.664 45.1709 177.632C45.1709 173.267 40.1647 159.25 38.2168 153.159C37.8302 151.949 38.0127 151.497 37.8853 151.006C37.12 148.042 32.8619 142.328 32.8619 142.328L33.3227 152.259Z" fill="#202020"/>
<path fill-rule="evenodd" clip-rule="evenodd" d="M45.1707 177.634C45.1707 177.665 45.1707 177.695 45.1707 177.725C45.1852 178.684 45.1906 179.632 45.1897 180.559C45.1897 181.274 45.1834 181.959 45.1761 182.642C45.1743 182.847 45.1752 183.064 45.1716 183.265C45.1391 185.86 45.0659 188.162 44.9954 189.925C44.9936 189.948 44.9927 189.976 44.9927 190C44.9683 190.582 44.9457 191.096 44.925 191.545C44.9241 191.555 44.9241 191.568 44.9231 191.578C44.9042 191.979 44.887 192.297 44.8726 192.575C44.8698 192.625 44.868 192.692 44.8644 192.739C44.8482 193.042 44.8355 193.26 44.8292 193.362C44.8247 193.441 44.822 193.493 44.822 193.493C43.408 199.494 40.4943 209.636 40.0335 214.555C39.9766 215.168 39.8926 215.841 39.7914 216.559C39.7914 216.561 39.7905 216.563 39.7905 216.564C39.6577 217.504 39.4914 218.537 39.3162 219.602C39.168 220.504 39.0135 221.439 38.8608 222.389C38.8563 222.416 38.8518 222.444 38.8473 222.471C38.691 223.444 38.5383 224.431 38.4009 225.413C38.3973 225.431 38.3955 225.45 38.3928 225.468C38.2528 226.463 38.1299 227.453 38.0341 228.416C38.0305 228.456 38.0251 228.495 38.0206 228.534C38.0125 228.615 38.0007 228.699 37.9935 228.78C37.9375 229.393 37.9058 229.979 37.8778 230.561C37.8733 230.65 37.867 230.744 37.8625 230.832C37.8552 230.947 37.8471 231.062 37.8435 231.173C37.8272 231.702 37.8435 232.192 37.8607 232.683V232.706C37.8706 233.01 37.8616 233.338 37.886 233.625C38.3458 239.006 42.182 238.699 42.182 238.699C44.7334 238.699 49.7296 237.11 51.3442 234.187C51.5212 233.55 51.6938 232.901 51.8628 232.246C53.3688 226.399 54.4973 219.825 54.4973 213.018C54.4973 211.825 54.5307 210.538 54.5858 209.185C54.5858 199.612 49.8634 187.955 45.1707 177.634Z" fill="#202020"/>
<path fill-rule="evenodd" clip-rule="evenodd" d="M87.229 233.928C87.229 234.857 86.6842 235.393 86.2244 235.393C85.7636 235.393 84.6966 230.154 84.6966 226.666C84.8809 226.671 84.9965 226.192 84.9965 224.849C84.9965 220.071 89.4859 211.326 89.4859 194.564C89.4859 177.802 84.3831 159.502 83.2682 152.258L83.5085 148.881C83.6124 146.965 83.7281 142.328 83.7281 142.328L84.9965 140.604C84.9965 140.638 84.9965 140.668 84.9965 140.703C84.9965 144.047 90.5981 147.123 90.5981 160.502C90.5981 163.962 94.2807 170.42 94.2807 184.414C94.2807 185.236 94.2734 186.042 94.2608 186.838C94.2572 187.055 94.25 187.266 94.2454 187.481C94.2337 188.052 94.221 188.623 94.203 189.181C94.1948 189.449 94.1822 189.709 94.1722 189.974C94.1533 190.47 94.1352 190.967 94.1108 191.453C94.0973 191.733 94.0801 192.005 94.0647 192.281C94.0403 192.742 94.015 193.204 93.9861 193.656C93.9681 193.933 93.9473 194.204 93.9274 194.478C93.8967 194.921 93.8651 195.362 93.8298 195.795C93.8091 196.06 93.7847 196.32 93.7621 196.583C93.725 197.016 93.6871 197.448 93.6464 197.872C93.622 198.122 93.5958 198.367 93.5714 198.614C93.5272 199.043 93.4829 199.469 93.4359 199.889C93.4097 200.121 93.3835 200.349 93.3564 200.577C93.3058 201.005 93.2552 201.43 93.2019 201.848C93.1757 202.059 93.1477 202.268 93.1206 202.477C93.0637 202.908 93.0059 203.335 92.9453 203.757C92.9191 203.943 92.8929 204.126 92.8658 204.311C92.8017 204.75 92.7357 205.187 92.6689 205.617C92.6445 205.774 92.6201 205.93 92.5948 206.086C92.5225 206.541 92.4484 206.993 92.3725 207.437C92.3526 207.559 92.3319 207.679 92.3111 207.8C92.2289 208.281 92.1439 208.757 92.059 209.226C92.0446 209.302 92.031 209.38 92.0166 209.456C91.9199 209.981 91.8223 210.498 91.7238 211.006C91.7211 211.021 91.7184 211.036 91.7148 211.051C89.8419 220.67 87.5751 227.638 87.2326 233.924L87.229 233.928Z" fill="#202020"/>
<path fill-rule="evenodd" clip-rule="evenodd" d="M83.268 152.259C84.3829 159.502 89.4857 177.802 89.4857 194.564C89.4857 211.326 84.9963 220.071 84.9963 224.848C84.9963 229.626 83.539 223.475 82.6943 223.475C81.8504 223.475 78.7696 229.337 78.7696 232.971C78.7696 233.141 78.7533 233.237 78.7244 233.267C78.7352 233.084 78.7244 232.873 78.7307 232.683C78.747 232.193 78.7641 231.703 78.747 231.172C78.7415 230.986 78.7235 230.785 78.7144 230.595C78.6864 229.999 78.6539 229.4 78.5961 228.771C78.5843 228.655 78.569 228.534 78.5563 228.417C78.1715 224.541 77.3366 220.243 76.8461 216.861C76.8307 216.764 76.8126 216.654 76.7991 216.559C76.6979 215.841 76.6139 215.168 76.5569 214.555C76.0962 209.637 73.1825 199.494 71.7685 193.493C71.7685 193.493 71.7658 193.441 71.7613 193.362C71.755 193.261 71.7432 193.041 71.7261 192.739C71.7233 192.693 71.7197 192.625 71.7179 192.575C71.7035 192.297 71.6863 191.979 71.6673 191.577C71.6664 191.568 71.6664 191.555 71.6664 191.546C71.6447 191.096 71.6222 190.582 71.5978 189.999C71.5978 189.977 71.5969 189.948 71.595 189.925C71.5246 188.161 71.4514 185.86 71.4189 183.266C71.4153 183.064 71.4162 182.848 71.4135 182.643C71.4071 181.959 71.3999 181.273 71.3999 180.56C71.3999 179.632 71.4198 177.664 71.4198 177.632C71.4198 173.267 76.4259 159.25 78.3738 153.159C78.7605 151.949 78.578 151.497 78.7054 151.006C79.4707 148.042 83.7287 142.328 83.7287 142.328L83.268 152.259Z" fill="#202020"/>
<path fill-rule="evenodd" clip-rule="evenodd" d="M71.42 177.634C71.42 177.665 71.4191 177.695 71.4191 177.725C71.4056 178.684 71.4001 179.632 71.4001 180.559C71.4001 181.274 71.4074 181.959 71.4137 182.642C71.4164 182.847 71.4155 183.064 71.4191 183.265C71.4516 185.86 71.5248 188.162 71.5953 189.925C71.5971 189.948 71.5971 189.976 71.598 190C71.6224 190.582 71.645 191.096 71.6658 191.545C71.6667 191.555 71.6667 191.568 71.6676 191.578C71.6865 191.979 71.7028 192.297 71.7182 192.575C71.72 192.625 71.7227 192.692 71.7263 192.739C71.7426 193.042 71.7552 193.26 71.7606 193.362C71.766 193.441 71.7688 193.493 71.7688 193.493C73.1827 199.494 76.0964 209.636 76.5572 214.555C76.6141 215.168 76.6981 215.841 76.7993 216.559C76.7993 216.561 76.8002 216.563 76.8002 216.564C76.933 217.504 77.0993 218.537 77.2745 219.602C77.4218 220.504 77.5772 221.439 77.7299 222.389C77.7344 222.416 77.7389 222.444 77.7435 222.471C77.8998 223.444 78.0524 224.431 78.1898 225.413C78.1925 225.431 78.1952 225.45 78.1979 225.468C78.337 226.463 78.4608 227.453 78.5566 228.416C78.5602 228.456 78.5647 228.495 78.5701 228.534C78.5783 228.615 78.59 228.699 78.5972 228.78C78.6532 229.393 78.6849 229.979 78.7129 230.561C78.7174 230.65 78.7237 230.744 78.7282 230.832C78.7355 230.947 78.7436 231.062 78.7472 231.173C78.7635 231.702 78.7472 232.192 78.73 232.683V232.706C78.7201 233.01 78.7291 233.338 78.7047 233.625C78.2449 239.006 74.4078 238.699 74.4078 238.699C71.8573 238.699 66.8602 237.11 65.2466 234.187C65.0695 233.55 64.8969 232.901 64.7271 232.246C63.2219 226.399 62.0934 219.825 62.0934 213.018C62.0934 211.825 62.06 210.538 62.0049 209.185C62.0049 199.612 66.7274 187.955 71.42 177.634Z" fill="#202020"/>
<path fill-rule="evenodd" clip-rule="evenodd" d="M47.5863 302.63C47.589 302.637 47.5927 302.643 47.5954 302.649C47.4833 301.655 47.3993 300.657 47.3993 299.673C47.3993 293.829 47.2466 277.029 47.2466 277.029C47.2466 277.029 47.8221 271.493 47.8221 265.725C47.8221 259.959 44.2543 257.075 44.2543 254.538C42.31 259.916 37.6571 280.487 47.5863 302.63Z" fill="#202020"/>
<path fill-rule="evenodd" clip-rule="evenodd" d="M27.2202 260.651C27.2202 272.797 33.728 287.855 35.5105 298.056C35.5105 298.05 35.5114 298.046 35.5123 298.04C38.1722 270.139 31.2009 262.262 27.4614 253.681C27.3151 255.539 27.2202 257.767 27.2202 260.651Z" fill="#202020"/>
<path fill-rule="evenodd" clip-rule="evenodd" d="M69.0042 302.63C69.0015 302.637 68.9979 302.643 68.9943 302.649C69.1072 301.655 69.1913 300.657 69.1913 299.673C69.1913 293.829 69.3439 277.029 69.3439 277.029C69.3439 277.029 68.7684 271.493 68.7684 265.725C68.7684 259.959 72.3363 257.075 72.3363 254.538C74.2797 259.916 78.9335 280.487 69.0042 302.63Z" fill="#202020"/>
<path fill-rule="evenodd" clip-rule="evenodd" d="M89.37 260.651C89.37 272.797 82.8631 287.855 81.0806 298.056C81.0796 298.05 81.0787 298.046 81.0778 298.04C78.418 270.139 85.3901 262.262 89.1296 253.681C89.276 255.539 89.37 257.767 89.37 260.651Z" fill="#202020"/>
<path fill-rule="evenodd" clip-rule="evenodd" d="M11.2224 113.022C11.2224 112.197 11.2387 111.427 11.2558 110.663C11.236 111.419 11.2224 112.197 11.2224 113.022Z" fill="#202020"/>
<path fill-rule="evenodd" clip-rule="evenodd" d="M15.1491 130.668C15.9288 125.925 16.7085 124.212 15.1491 121.288C13.5897 118.364 12.5498 122.388 8.35762 121.288C7.84264 122.686 7.35025 124.143 6.97531 125.593C6.12242 128.899 6.39527 144.604 5.7782 157.526H5.7791C5.7791 157.526 9.17075 150.779 9.43096 144.007C9.69025 137.235 14.3694 135.411 15.1491 130.668Z" fill="#202020"/>
<path fill-rule="evenodd" clip-rule="evenodd" d="M16.0494 138.863C13.8494 145.57 12.178 163.654 12.178 163.654C12.178 163.654 23.9656 136.204 24.4635 130.668C24.4635 130.668 18.2493 132.157 16.0494 138.863Z" fill="#202020"/>
<path fill-rule="evenodd" clip-rule="evenodd" d="M102.491 78.9213C102.491 88.9167 101.685 87.9941 101.685 89.7243C96.6208 88.6867 93.2833 84.3038 87.184 74.0386C81.0837 63.7743 75.9041 65.3886 75.9041 62.9667C75.9041 61.1206 79.4719 60.3139 80.6997 58.4688C91.5947 58.4688 102.491 68.925 102.491 78.9213Z" fill="#202020"/>
<path fill-rule="evenodd" clip-rule="evenodd" d="M63.129 69.4254C63.8057 68.0873 73.4873 62.9664 75.9041 62.9664C75.9041 65.3883 81.0838 63.774 87.184 74.0383C89.4491 77.8509 91.3328 80.8504 93.0666 83.17C90.3173 84.6892 91.2117 85.9178 88.6793 88.1098C86.1478 90.3008 77.7463 93.6453 72.5667 93.6453C67.3871 93.6453 60.1873 90.5317 60.1873 90.5317V82.6884C60.1873 74.1542 62.08 71.5015 63.129 69.4254Z" fill="#202020"/>
<path fill-rule="evenodd" clip-rule="evenodd" d="M91.0645 80.3024C91.3066 80.6672 91.5442 81.0212 91.7782 81.3635C91.5442 81.0212 91.3066 80.6681 91.0645 80.3024Z" fill="#202020"/>
<path fill-rule="evenodd" clip-rule="evenodd" d="M93.0665 83.1702C92.9111 82.9619 92.7521 82.7401 92.5931 82.521C95.7354 86.8768 98.3329 89.037 101.686 89.7242C101.686 92.3924 105.368 96.5291 105.368 113.022C105.368 116.367 97.4014 120.669 93.7441 113.022C91.3716 108.062 90.4789 105.995 89.9251 104.777C89.6423 103.797 89.3758 103.219 89.14 103.219C88.335 101.835 88.6801 88.1099 88.6801 88.1099C91.2117 85.918 90.3172 84.6894 93.0665 83.1702Z" fill="#202020"/>
<path fill-rule="evenodd" clip-rule="evenodd" d="M92.4585 82.336C92.2398 82.0309 92.0185 81.714 91.7944 81.3872C92.0194 81.714 92.2398 82.0309 92.4585 82.336Z" fill="#202020"/>
<path fill-rule="evenodd" clip-rule="evenodd" d="M101.442 130.668C100.662 125.925 99.8823 124.212 101.442 121.288C103.001 118.364 104.041 122.388 108.233 121.288C108.748 122.686 109.241 124.143 109.615 125.593C110.468 128.899 110.195 144.604 110.813 157.526H110.812C110.812 157.526 107.42 150.779 107.16 144.007C106.9 137.235 102.221 135.411 101.442 130.668Z" fill="#202020"/>
<path fill-rule="evenodd" clip-rule="evenodd" d="M100.541 138.863C102.741 145.57 104.413 163.654 104.413 163.654C104.413 163.654 92.625 136.204 92.1272 130.668C92.1272 130.668 98.3413 132.157 100.541 138.863Z" fill="#202020"/>
<path fill-rule="evenodd" clip-rule="evenodd" d="M43.1105 23.5419C43.1105 22.2255 41.2285 21.8542 40.0034 21.8542C38.7765 21.8542 38.3049 23.7447 39.2481 28.1874C40.1913 32.631 43.9489 33.923 43.9489 33.923L43.1105 23.5419Z" fill="#202020"/>
<path fill-rule="evenodd" clip-rule="evenodd" d="M73.4802 23.5419C73.4802 22.2255 75.3612 21.8542 76.5872 21.8542C77.8141 21.8542 78.2858 23.7447 77.3425 28.1874C76.3984 32.631 72.6417 33.923 72.6417 33.923L73.4802 23.5419Z" fill="#202020"/>
<path fill-rule="evenodd" clip-rule="evenodd" d="M14.0995 78.9213C14.0995 88.9167 14.9054 87.9941 14.9054 89.7243C19.9694 88.6867 23.3068 84.3038 29.4071 74.0386C35.5065 63.7743 40.6861 65.3886 40.6861 62.9667C40.6861 61.1206 37.1183 60.3139 35.8904 58.4688C24.9954 58.4688 14.0995 68.925 14.0995 78.9213Z" stroke="#2E2E2E" stroke-width="1.742" stroke-linejoin="round"/>
<path fill-rule="evenodd" clip-rule="evenodd" d="M53.4612 69.4254C52.7854 68.0873 43.1028 62.9664 40.686 62.9664C40.686 65.3883 35.5064 63.774 29.407 74.0383C27.142 77.8509 25.2573 80.8504 23.5236 83.17H23.5245C26.2737 84.6892 25.3784 85.9178 27.9108 88.1098C30.4424 90.3008 38.8447 93.6453 44.0234 93.6453C49.2031 93.6453 56.4029 90.5317 56.4029 90.5317V82.6884C56.4029 74.1542 54.511 71.5015 53.4612 69.4254Z" stroke="#2E2E2E" stroke-width="1.742" stroke-linejoin="round"/>
<path fill-rule="evenodd" clip-rule="evenodd" d="M46.0186 108.033V100.26C46.0186 97.5684 47.0928 95.5693 49.0877 95.5693C51.0825 95.5693 55.1491 93.8781 55.6099 93.8781C56.0697 93.8781 56.9913 94.032 56.9913 94.9935V105.449C56.9913 106.967 55.1879 107.063 52.6943 107.063C51.2361 107.063 48.1282 108.379 47.4768 109.032C46.8245 109.686 46.0186 108.801 46.0186 108.033Z" stroke="#2E2E2E" stroke-width="1.742" stroke-linejoin="round"/>
<path fill-rule="evenodd" clip-rule="evenodd" d="M56.9909 112.282C56.9909 111.128 56.4542 110.206 55.0728 110.206H51.5429C50.1615 110.206 46.2485 112.589 46.2485 114.742V119.75C46.2485 120.75 46.7093 121.287 47.9371 121.287H53.3083C53.9986 121.287 56.9909 119.903 56.9909 117.981V112.282Z" stroke="#2E2E2E" stroke-width="1.742" stroke-linejoin="round"/>
<path fill-rule="evenodd" clip-rule="evenodd" d="M45.9229 131.764V126.045C45.9229 125.064 46.4405 123.68 47.9367 123.68H54.1517C55.0724 123.68 56.9145 124.833 56.9145 126.103V131.764C56.9145 132.629 56.5116 134.128 55.5331 134.128H49.0877C48.0514 134.128 45.9229 133.147 45.9229 131.764Z" stroke="#2E2E2E" stroke-width="1.742" stroke-linejoin="round"/>
<path fill-rule="evenodd" clip-rule="evenodd" d="M55.2261 136.895H48.8575C47.6297 136.895 46.2483 137.895 46.2483 139.048C46.2483 140.202 51.9266 165.577 56.3772 165.577H56.9138C57.1451 159.586 56.9138 140.073 56.9138 139.048C56.9138 137.818 56.6834 136.895 55.2261 136.895Z" stroke="#2E2E2E" stroke-width="1.742" stroke-linejoin="round"/>
<path fill-rule="evenodd" clip-rule="evenodd" d="M70.5717 108.033V100.26C70.5717 97.5684 69.4975 95.5693 67.5026 95.5693C65.5077 95.5693 61.4411 93.8781 60.9804 93.8781C60.5205 93.8781 59.5999 94.032 59.5999 94.9935V105.449C59.5999 106.967 61.4032 107.063 63.8968 107.063C65.3541 107.063 68.4621 108.379 69.1144 109.032C69.7658 109.686 70.5717 108.801 70.5717 108.033Z" stroke="#2E2E2E" stroke-width="1.742" stroke-linejoin="round"/>
<path fill-rule="evenodd" clip-rule="evenodd" d="M59.5999 112.282C59.5999 111.128 60.1365 110.206 61.5179 110.206H65.0469C66.4283 110.206 70.3422 112.589 70.3422 114.742V119.75C70.3422 120.75 69.8814 121.287 68.6536 121.287H63.2824C62.5922 121.287 59.5999 119.903 59.5999 117.981V112.282Z" stroke="#2E2E2E" stroke-width="1.742" stroke-linejoin="round"/>
<path fill-rule="evenodd" clip-rule="evenodd" d="M70.6678 131.764V126.045C70.6678 125.064 70.1502 123.68 68.654 123.68H62.439C61.5183 123.68 59.6761 124.833 59.6761 126.103V131.764C59.6761 132.629 60.0791 134.128 61.0576 134.128H67.503C68.5384 134.128 70.6678 133.147 70.6678 131.764Z" stroke="#2E2E2E" stroke-width="1.742" stroke-linejoin="round"/>
<path fill-rule="evenodd" clip-rule="evenodd" d="M61.3645 136.895H67.7331C68.9609 136.895 70.3423 137.895 70.3423 139.048C70.3423 140.202 64.664 165.577 60.2134 165.577H59.6768C59.4455 159.586 59.6768 140.073 59.6768 139.048C59.6768 137.818 59.9063 136.895 61.3645 136.895Z" stroke="#2E2E2E" stroke-width="1.742" stroke-linejoin="round"/>
<path fill-rule="evenodd" clip-rule="evenodd" d="M25.5258 80.3024C25.2836 80.6672 25.0469 81.0212 24.812 81.3635C25.0469 81.0212 25.2836 80.6681 25.5258 80.3024Z" stroke="#2E2E2E" stroke-width="1.742" stroke-linejoin="round"/>
<path fill-rule="evenodd" clip-rule="evenodd" d="M23.5243 83.1702C23.6797 82.9619 23.8387 82.7401 23.9968 82.521C20.8554 86.8768 18.2579 89.037 14.9051 89.7242C14.9051 92.3924 11.2225 96.5291 11.2225 113.022C11.2225 116.367 19.1894 120.669 22.8467 113.022C25.2192 108.062 26.1109 105.995 26.6657 104.777C26.9476 103.797 27.215 103.219 27.4508 103.219C28.2558 101.835 27.9107 88.1099 27.9107 88.1099C25.3791 85.918 26.2736 84.6894 23.5243 83.1702Z" stroke="#2E2E2E" stroke-width="1.742" stroke-linejoin="round"/>
<path fill-rule="evenodd" clip-rule="evenodd" d="M24.1321 82.336C24.3507 82.0309 24.5712 81.714 24.7952 81.3872C24.5712 81.714 24.3507 82.0309 24.1321 82.336Z" stroke="#2E2E2E" stroke-width="1.742" stroke-linejoin="round"/>
<path fill-rule="evenodd" clip-rule="evenodd" d="M58.2954 1.03162C47.8774 1.03162 42.6688 10.2665 42.6688 15.0849C42.6688 19.9034 44.4713 39.7801 44.4713 39.7801C44.4713 39.7801 51.8843 49.8181 58.2954 49.8181C64.7064 49.8181 72.1195 39.7801 72.1195 39.7801C72.1195 39.7801 73.9219 19.9034 73.9219 15.0849C73.9219 10.2665 68.7133 1.03162 58.2954 1.03162Z" stroke="#2E2E2E" stroke-width="1.742" stroke-linejoin="round"/>
<path fill-rule="evenodd" clip-rule="evenodd" d="M73.4109 145.893C73.4109 137.357 75.6361 138.049 75.6361 133.513C75.6361 124.056 73.4109 115.982 73.4109 111.753C73.4109 107.524 73.7939 93.6457 73.7939 93.6457L73.6133 93.6041C73.2528 93.6312 72.9031 93.6457 72.5661 93.6457C67.3874 93.6457 60.1876 90.5321 60.1876 90.5321H58.2957H56.4029C56.4029 90.5321 49.2031 93.6457 44.0235 93.6457C43.6883 93.6457 43.3377 93.6312 42.9773 93.6041L42.7957 93.6457C42.7957 93.6457 43.1796 107.524 43.1796 111.753C43.1796 115.982 40.9544 124.056 40.9544 133.513C40.9544 138.049 43.1796 137.357 43.1796 145.893C43.1796 148.891 40.8776 151.005 37.8853 151.005C37.8853 157.888 53.9988 170.805 58.2957 170.805C62.5917 170.805 78.7052 157.888 78.7052 151.005C75.712 151.005 73.4109 148.891 73.4109 145.893Z" stroke="#2E2E2E" stroke-width="1.742" stroke-linejoin="round"/>
<path d="M78.7051 151.006C80.7 145.816 84.9969 140.703 84.9969 140.703" stroke="#2E2E2E" stroke-width="1.742" stroke-linejoin="round"/>
<path fill-rule="evenodd" clip-rule="evenodd" d="M29.3616 233.928C29.3616 234.857 29.9055 235.393 30.3662 235.393C30.827 235.393 31.894 230.154 31.894 226.666C31.7088 226.671 31.5941 226.192 31.5941 224.849C31.5941 220.071 27.1047 211.326 27.1047 194.564C27.1047 177.802 32.2075 159.502 33.3224 152.258L33.0821 148.881C32.9782 146.965 32.8625 142.328 32.8625 142.328L31.5941 140.604C31.5941 140.638 31.5941 140.668 31.5941 140.703C31.5941 144.047 25.9925 147.123 25.9925 160.502C25.9925 163.962 22.3099 170.42 22.3099 184.414C22.3099 185.236 22.3172 186.042 22.3298 186.838C22.3334 187.055 22.3407 187.266 22.3452 187.481C22.3569 188.052 22.3687 188.623 22.3867 189.181C22.3958 189.449 22.4084 189.709 22.4184 189.974C22.4373 190.47 22.4554 190.967 22.4798 191.453C22.4933 191.733 22.5105 192.005 22.525 192.281C22.5503 192.742 22.5756 193.204 22.6045 193.656C22.6225 193.933 22.6433 194.204 22.6623 194.478C22.6939 194.921 22.7255 195.362 22.7599 195.795C22.7816 196.06 22.8059 196.32 22.8285 196.583C22.8656 197.016 22.9035 197.448 22.9442 197.872C22.9686 198.122 22.9948 198.367 23.0192 198.614C23.0634 199.043 23.1077 199.469 23.1547 199.889C23.1809 200.121 23.2071 200.349 23.2342 200.577C23.2839 201.005 23.3354 201.43 23.3887 201.848C23.4149 202.059 23.4429 202.268 23.47 202.477C23.5269 202.908 23.5847 203.335 23.6453 203.757C23.6715 203.943 23.6977 204.126 23.7248 204.311C23.7889 204.75 23.854 205.187 23.9217 205.617C23.9461 205.774 23.9705 205.93 23.9958 206.086C24.0681 206.541 24.1422 206.993 24.2172 207.437C24.238 207.559 24.2587 207.679 24.2795 207.8C24.3617 208.281 24.4467 208.757 24.5316 209.226C24.5451 209.302 24.5596 209.38 24.5741 209.456C24.6698 209.981 24.7683 210.498 24.8668 211.006C24.8695 211.021 24.8722 211.036 24.8758 211.051C26.7487 220.67 29.0155 227.638 29.358 233.924L29.3616 233.928Z" stroke="#2E2E2E" stroke-width="1.742" stroke-linejoin="round"/>
<path fill-rule="evenodd" clip-rule="evenodd" d="M58.2953 49.8184C57.0512 49.8184 55.7701 49.4381 54.5124 48.8279H54.5106C54.5106 53.2398 55.3798 66.0039 58.2953 66.0039C61.2108 66.0039 62.0799 53.2398 62.0799 48.8279H62.0781C60.8205 49.4381 59.5394 49.8184 58.2953 49.8184Z" stroke="#2E2E2E" stroke-width="1.742" stroke-linejoin="round"/>
<path fill-rule="evenodd" clip-rule="evenodd" d="M33.3227 152.259C32.2078 159.502 27.105 177.802 27.105 194.564C27.105 211.326 31.5944 220.071 31.5944 224.848C31.5944 229.626 33.0517 223.475 33.8964 223.475C34.7394 223.475 37.8211 229.337 37.8211 232.971C37.8211 233.141 37.8365 233.237 37.8663 233.267C37.8555 233.084 37.8663 232.873 37.86 232.683C37.8437 232.193 37.8265 231.703 37.8437 231.172C37.8491 230.986 37.8672 230.785 37.8753 230.595C37.9042 229.999 37.9359 229.4 37.9946 228.771C38.0054 228.655 38.0217 228.534 38.0334 228.417C38.4192 224.541 39.254 220.243 39.7446 216.861C39.76 216.764 39.7781 216.654 39.7916 216.559C39.8928 215.841 39.9768 215.168 40.0337 214.555C40.4936 209.637 43.4082 199.494 44.8222 193.493C44.8222 193.493 44.8249 193.441 44.8294 193.362C44.8357 193.261 44.8475 193.041 44.8646 192.739C44.8673 192.693 44.87 192.625 44.8728 192.575C44.8872 192.297 44.9035 191.979 44.9234 191.577C44.9234 191.568 44.9234 191.555 44.9243 191.546C44.9459 191.096 44.9685 190.582 44.9929 189.999C44.9929 189.977 44.9938 189.948 44.9947 189.925C45.0661 188.161 45.1393 185.86 45.1718 183.266C45.1754 183.064 45.1745 182.848 45.1763 182.643C45.1836 181.959 45.1899 181.273 45.1899 180.56C45.1908 179.632 45.1709 177.664 45.1709 177.632C45.1709 173.267 40.1647 159.25 38.2168 153.159C37.8302 151.949 38.0127 151.497 37.8853 151.006C37.12 148.042 32.8619 142.328 32.8619 142.328L33.3227 152.259Z" stroke="#2E2E2E" stroke-width="1.742" stroke-linejoin="round"/>
<path fill-rule="evenodd" clip-rule="evenodd" d="M45.1707 177.634C45.1707 177.665 45.1707 177.695 45.1707 177.725C45.1852 178.684 45.1906 179.632 45.1897 180.559C45.1897 181.274 45.1834 181.959 45.1761 182.642C45.1743 182.847 45.1752 183.064 45.1716 183.265C45.1391 185.86 45.0659 188.162 44.9954 189.925C44.9936 189.948 44.9927 189.976 44.9927 190C44.9683 190.582 44.9457 191.096 44.925 191.545C44.9241 191.555 44.9241 191.568 44.9231 191.578C44.9042 191.979 44.887 192.297 44.8726 192.575C44.8698 192.625 44.868 192.692 44.8644 192.739C44.8482 193.042 44.8355 193.26 44.8292 193.362C44.8247 193.441 44.822 193.493 44.822 193.493C43.408 199.494 40.4943 209.636 40.0335 214.555C39.9766 215.168 39.8926 215.841 39.7914 216.559C39.7914 216.561 39.7905 216.563 39.7905 216.564C39.6577 217.504 39.4914 218.537 39.3162 219.602C39.168 220.504 39.0135 221.439 38.8608 222.389C38.8563 222.416 38.8518 222.444 38.8473 222.471C38.691 223.444 38.5383 224.431 38.4009 225.413C38.3973 225.431 38.3955 225.45 38.3928 225.468C38.2528 226.463 38.1299 227.453 38.0341 228.416C38.0305 228.456 38.0251 228.495 38.0206 228.534C38.0125 228.615 38.0007 228.699 37.9935 228.78C37.9375 229.393 37.9058 229.979 37.8778 230.561C37.8733 230.65 37.867 230.744 37.8625 230.832C37.8552 230.947 37.8471 231.062 37.8435 231.173C37.8272 231.702 37.8435 232.192 37.8607 232.683V232.706C37.8706 233.01 37.8616 233.338 37.886 233.625C38.3458 239.006 42.182 238.699 42.182 238.699C44.7334 238.699 49.7296 237.11 51.3442 234.187C51.5212 233.55 51.6938 232.901 51.8628 232.246C53.3689 226.399 54.4973 219.825 54.4973 213.018C54.4973 211.825 54.5307 210.538 54.5858 209.185C54.5858 199.612 49.8634 187.955 45.1707 177.634Z" stroke="#2E2E2E" stroke-width="1.742" stroke-linejoin="round"/>
<path fill-rule="evenodd" clip-rule="evenodd" d="M87.229 233.928C87.229 234.857 86.6842 235.393 86.2244 235.393C85.7636 235.393 84.6966 230.154 84.6966 226.666C84.8809 226.671 84.9965 226.192 84.9965 224.849C84.9965 220.071 89.4859 211.326 89.4859 194.564C89.4859 177.802 84.3831 159.502 83.2682 152.258L83.5085 148.881C83.6124 146.965 83.7281 142.328 83.7281 142.328L84.9965 140.604C84.9965 140.638 84.9965 140.668 84.9965 140.703C84.9965 144.047 90.5981 147.123 90.5981 160.502C90.5981 163.962 94.2807 170.42 94.2807 184.414C94.2807 185.236 94.2734 186.042 94.2608 186.838C94.2572 187.055 94.25 187.266 94.2454 187.481C94.2337 188.052 94.221 188.623 94.203 189.181C94.1948 189.449 94.1822 189.709 94.1722 189.974C94.1533 190.47 94.1352 190.967 94.1108 191.453C94.0973 191.733 94.0801 192.005 94.0647 192.281C94.0403 192.742 94.015 193.204 93.9861 193.656C93.9681 193.933 93.9473 194.204 93.9274 194.478C93.8967 194.921 93.8651 195.362 93.8298 195.795C93.8091 196.06 93.7847 196.32 93.7621 196.583C93.725 197.016 93.6871 197.448 93.6464 197.872C93.622 198.122 93.5958 198.367 93.5714 198.614C93.5272 199.043 93.4829 199.469 93.4359 199.889C93.4097 200.121 93.3835 200.349 93.3564 200.577C93.3058 201.005 93.2552 201.43 93.2019 201.848C93.1757 202.059 93.1477 202.268 93.1206 202.477C93.0637 202.908 93.0059 203.335 92.9453 203.757C92.9191 203.943 92.8929 204.126 92.8658 204.311C92.8017 204.75 92.7357 205.187 92.6689 205.617C92.6445 205.774 92.6201 205.93 92.5948 206.086C92.5225 206.541 92.4484 206.993 92.3725 207.437C92.3526 207.559 92.3319 207.679 92.3111 207.8C92.2289 208.281 92.1439 208.757 92.059 209.226C92.0446 209.302 92.031 209.38 92.0166 209.456C91.9199 209.981 91.8223 210.498 91.7238 211.006C91.7211 211.021 91.7184 211.036 91.7148 211.051C89.8419 220.67 87.5751 227.638 87.2326 233.924L87.229 233.928Z" stroke="#2E2E2E" stroke-width="1.742" stroke-linejoin="round"/>
<path fill-rule="evenodd" clip-rule="evenodd" d="M83.268 152.259C84.3829 159.502 89.4857 177.802 89.4857 194.564C89.4857 211.326 84.9963 220.071 84.9963 224.848C84.9963 229.626 83.539 223.475 82.6943 223.475C81.8504 223.475 78.7696 229.337 78.7696 232.971C78.7696 233.141 78.7533 233.237 78.7244 233.267C78.7352 233.084 78.7244 232.873 78.7307 232.683C78.747 232.193 78.7641 231.703 78.747 231.172C78.7415 230.986 78.7235 230.785 78.7144 230.595C78.6864 229.999 78.6539 229.4 78.5961 228.771C78.5843 228.655 78.569 228.534 78.5563 228.417C78.1715 224.541 77.3366 220.243 76.8461 216.861C76.8307 216.764 76.8126 216.654 76.7991 216.559C76.6979 215.841 76.6139 215.168 76.5569 214.555C76.0962 209.637 73.1825 199.494 71.7685 193.493C71.7685 193.493 71.7658 193.441 71.7613 193.362C71.755 193.261 71.7432 193.041 71.7261 192.739C71.7233 192.693 71.7197 192.625 71.7179 192.575C71.7035 192.297 71.6863 191.979 71.6673 191.577C71.6664 191.568 71.6664 191.555 71.6664 191.546C71.6447 191.096 71.6222 190.582 71.5978 189.999C71.5978 189.977 71.5969 189.948 71.595 189.925C71.5246 188.161 71.4514 185.86 71.4189 183.266C71.4153 183.064 71.4162 182.848 71.4135 182.643C71.4071 181.959 71.3999 181.273 71.3999 180.56C71.3999 179.632 71.4198 177.664 71.4198 177.632C71.4198 173.267 76.4259 159.25 78.3738 153.159C78.7605 151.949 78.578 151.497 78.7054 151.006C79.4707 148.042 83.7287 142.328 83.7287 142.328L83.268 152.259Z" stroke="#2E2E2E" stroke-width="1.742" stroke-linejoin="round"/>
<path fill-rule="evenodd" clip-rule="evenodd" d="M71.42 177.634C71.42 177.665 71.4191 177.695 71.4191 177.725C71.4056 178.684 71.4001 179.632 71.4001 180.559C71.4001 181.274 71.4074 181.959 71.4137 182.642C71.4164 182.847 71.4155 183.064 71.4191 183.265C71.4516 185.86 71.5248 188.162 71.5953 189.925C71.5971 189.948 71.5971 189.976 71.598 190C71.6224 190.582 71.645 191.096 71.6658 191.545C71.6667 191.555 71.6667 191.568 71.6676 191.578C71.6865 191.979 71.7028 192.297 71.7182 192.575C71.72 192.625 71.7227 192.692 71.7263 192.739C71.7426 193.042 71.7552 193.26 71.7606 193.362C71.766 193.441 71.7688 193.493 71.7688 193.493C73.1827 199.494 76.0964 209.636 76.5572 214.555C76.6141 215.168 76.6981 215.841 76.7993 216.559C76.7993 216.561 76.8002 216.563 76.8002 216.564C76.933 217.504 77.0993 218.537 77.2745 219.602C77.4218 220.504 77.5772 221.439 77.7299 222.389C77.7344 222.416 77.7389 222.444 77.7435 222.471C77.8998 223.444 78.0524 224.431 78.1898 225.413C78.1925 225.431 78.1952 225.45 78.1979 225.468C78.337 226.463 78.4608 227.453 78.5566 228.416C78.5602 228.456 78.5647 228.495 78.5701 228.534C78.5783 228.615 78.59 228.699 78.5972 228.78C78.6532 229.393 78.6849 229.979 78.7129 230.561C78.7174 230.65 78.7237 230.744 78.7282 230.832C78.7355 230.947 78.7436 231.062 78.7472 231.173C78.7635 231.702 78.7472 232.192 78.73 232.683V232.706C78.7201 233.01 78.7291 233.338 78.7047 233.625C78.2449 239.006 74.4078 238.699 74.4078 238.699C71.8573 238.699 66.8602 237.11 65.2466 234.187C65.0695 233.55 64.8969 232.901 64.7271 232.246C63.2219 226.399 62.0934 219.825 62.0934 213.018C62.0934 211.825 62.06 210.538 62.0049 209.185C62.0049 199.612 66.7274 187.955 71.42 177.634Z" stroke="#2E2E2E" stroke-width="1.742" stroke-linejoin="round"/>
<path fill-rule="evenodd" clip-rule="evenodd" d="M47.5863 302.63C47.589 302.637 47.5927 302.643 47.5954 302.649C47.4833 301.655 47.3993 300.657 47.3993 299.673C47.3993 293.829 47.2466 277.029 47.2466 277.029C47.2466 277.029 47.8221 271.493 47.8221 265.725C47.8221 259.959 44.2543 257.075 44.2543 254.538C42.31 259.916 37.6571 280.487 47.5863 302.63Z" stroke="#2E2E2E" stroke-width="1.742" stroke-linejoin="round"/>
<path fill-rule="evenodd" clip-rule="evenodd" d="M27.2202 260.651C27.2202 272.797 33.728 287.855 35.5105 298.056C35.5105 298.05 35.5114 298.046 35.5123 298.04C38.1722 270.139 31.2009 262.262 27.4614 253.681C27.3151 255.539 27.2202 257.767 27.2202 260.651Z" stroke="#2E2E2E" stroke-width="1.742" stroke-linejoin="round"/>
<path fill-rule="evenodd" clip-rule="evenodd" d="M69.0042 302.63C69.0015 302.637 68.9979 302.643 68.9943 302.649C69.1072 301.655 69.1913 300.657 69.1913 299.673C69.1913 293.829 69.3439 277.029 69.3439 277.029C69.3439 277.029 68.7684 271.493 68.7684 265.725C68.7684 259.959 72.3363 257.075 72.3363 254.538C74.2797 259.916 78.9335 280.487 69.0042 302.63Z" stroke="#2E2E2E" stroke-width="1.742" stroke-linejoin="round"/>
<path fill-rule="evenodd" clip-rule="evenodd" d="M89.37 260.651C89.37 272.797 82.8631 287.855 81.0806 298.056C81.0796 298.05 81.0787 298.046 81.0778 298.04C78.418 270.139 85.3901 262.262 89.1296 253.681C89.276 255.539 89.37 257.767 89.37 260.651Z" stroke="#2E2E2E" stroke-width="1.742" stroke-linejoin="round"/>
<path fill-rule="evenodd" clip-rule="evenodd" d="M11.2224 113.022C11.2224 112.197 11.2387 111.427 11.2558 110.663C11.236 111.419 11.2224 112.197 11.2224 113.022Z" stroke="#2E2E2E" stroke-width="1.742" stroke-linejoin="round"/>
<path fill-rule="evenodd" clip-rule="evenodd" d="M115.297 176.188C114.482 174.243 113.051 168.142 112.642 163.074C111.55 149.568 110.601 129.415 109.614 125.593C108.258 120.338 105.368 114.906 105.368 113.021C105.368 96.5289 101.686 92.3922 101.686 89.724C101.686 87.9938 102.491 88.9164 102.491 78.921C102.491 68.9256 91.5955 58.4685 80.6996 58.4685L70.1108 51.8556V42.3219H70.0132C67.3525 45.2952 62.5993 49.8185 58.2952 49.8185C53.991 49.8185 49.2378 45.2952 46.5771 42.3219H46.4795V51.8556L35.8907 58.4685C24.9948 58.4685 14.0998 68.9256 14.0998 78.921C14.0998 88.9164 14.9057 87.9938 14.9057 89.724C14.9057 92.3922 11.2222 96.5289 11.2222 113.021C11.2222 114.906 8.33107 120.338 6.97495 125.593C5.98925 129.415 5.04151 149.568 3.9492 163.074C3.53902 168.142 2.10882 174.243 1.29298 176.188C-0.611549 180.73 8.575 187.688 9.18937 187.935C9.98262 188.257 10.2528 186.66 10.522 186.038C11.6269 183.474 7.51432 180.428 7.77904 178.649C8.09797 176.51 8.47472 172.755 9.95642 173.354C11.439 173.953 11.9405 177.359 13.4222 177.958C14.9039 178.557 15.5399 178.159 15.9935 177.033C16.2591 176.373 14.575 172.24 13.0635 168.361C11.9956 165.619 12.1781 163.654 12.1781 163.654C12.1781 163.654 23.9657 136.204 24.4635 130.668C26.0654 128.119 25.3209 126.842 25.526 124.993C26.3473 117.572 26.3572 103.218 27.4504 103.218C28.4867 103.218 28.6015 107.717 28.6015 110.484C28.6015 116.828 33.3203 117.058 33.3203 125.593C33.3203 132.051 31.5938 129.4 31.5938 140.702C31.5938 144.047 25.9922 147.122 25.9922 160.501C25.9922 163.962 22.3097 170.42 22.3097 184.414C22.3097 211.172 29.4074 224.205 29.4074 235.508C29.4074 247.618 27.2201 246.58 27.2201 260.651C27.2201 274.722 35.9675 292.714 35.9675 302.517C35.9675 324.085 28.8319 318.549 28.8319 323.509C28.8319 324.816 30.2124 325.662 30.2124 325.662L42.4129 326.969H48.7038L50.6228 324.662C50.6228 324.662 48.9342 321.741 48.9342 320.202C48.9342 318.665 49.7781 315.666 49.7781 313.82C49.7781 311.975 47.4001 305.516 47.4001 299.673C47.4001 293.829 47.2465 277.028 47.2465 277.028C47.2465 277.028 47.822 271.493 47.822 265.726C47.822 259.959 44.2542 257.076 44.2542 254.539C44.2542 252.001 54.4969 233.547 54.4969 213.018C54.4969 202.061 57.1441 183.607 57.1441 170.805H58.2952H59.4462C59.4462 183.607 62.0934 202.061 62.0934 213.018C62.0934 233.547 72.337 252.001 72.337 254.539C72.337 257.076 68.7682 259.959 68.7682 265.726C68.7682 271.493 69.3438 277.028 69.3438 277.028C69.3438 277.028 69.1911 293.829 69.1911 299.673C69.1911 305.516 66.8122 311.975 66.8122 313.82C66.8122 315.666 67.6561 318.665 67.6561 320.202C67.6561 321.741 65.9684 324.662 65.9684 324.662L67.8865 326.969H74.1783L86.3779 325.662C86.3779 325.662 87.7593 324.816 87.7593 323.509C87.7593 318.549 80.6237 324.085 80.6237 302.517C80.6237 292.714 89.3702 274.722 89.3702 260.651C89.3702 246.58 87.1829 247.618 87.1829 235.508C87.1829 224.205 94.2806 211.172 94.2806 184.414C94.2806 170.42 90.5981 163.962 90.5981 160.501C90.5981 147.122 84.9965 144.047 84.9965 140.702C84.9965 129.4 83.27 132.051 83.27 125.593C83.27 117.058 87.9888 116.828 87.9888 110.484C87.9888 107.717 88.1045 103.218 89.1398 103.218C90.2331 103.218 90.243 117.572 91.0643 124.993C91.2693 126.842 90.5249 128.119 92.1267 130.668C92.6255 136.204 104.413 163.654 104.413 163.654C104.413 163.654 104.595 165.619 103.528 168.361C102.016 172.24 100.331 176.373 100.597 177.033C101.05 178.159 101.686 178.557 103.168 177.958C104.651 177.359 105.152 173.953 106.634 173.354C108.116 172.755 108.493 176.51 108.811 178.649C109.077 180.428 104.963 183.474 106.068 186.038C106.338 186.66 106.609 188.257 107.402 187.935C108.014 187.688 117.202 180.73 115.297 176.188Z" stroke="#2E2E2E" stroke-width="1.742" stroke-linejoin="round"/>
<path fill-rule="evenodd" clip-rule="evenodd" d="M15.1491 130.668C15.9288 125.925 16.7085 124.212 15.1491 121.288C13.5897 118.364 12.5498 122.388 8.35762 121.288C7.84264 122.686 7.35025 124.143 6.97531 125.593C6.12242 128.899 6.39527 144.604 5.7782 157.526H5.7791C5.7791 157.526 9.17075 150.779 9.43096 144.007C9.69025 137.235 14.3694 135.411 15.1491 130.668Z" stroke="#2E2E2E" stroke-width="1.742" stroke-linejoin="round"/>
<path fill-rule="evenodd" clip-rule="evenodd" d="M16.0494 138.863C13.8494 145.57 12.178 163.654 12.178 163.654C12.178 163.654 23.9656 136.204 24.4635 130.668C24.4635 130.668 18.2493 132.157 16.0494 138.863Z" stroke="#2E2E2E" stroke-width="1.742" stroke-linejoin="round"/>
<path fill-rule="evenodd" clip-rule="evenodd" d="M102.491 78.9213C102.491 88.9167 101.685 87.9941 101.685 89.7243C96.6208 88.6867 93.2833 84.3038 87.184 74.0386C81.0837 63.7743 75.9041 65.3886 75.9041 62.9667C75.9041 61.1206 79.4719 60.3139 80.6997 58.4688C91.5947 58.4688 102.491 68.925 102.491 78.9213Z" stroke="#2E2E2E" stroke-width="1.742" stroke-linejoin="round"/>
<path fill-rule="evenodd" clip-rule="evenodd" d="M63.129 69.4254C63.8057 68.0873 73.4873 62.9664 75.9041 62.9664C75.9041 65.3883 81.0838 63.774 87.184 74.0383C89.4491 77.8509 91.3328 80.8504 93.0666 83.17C90.3173 84.6892 91.2117 85.9178 88.6793 88.1098C86.1478 90.3008 77.7463 93.6453 72.5667 93.6453C67.3871 93.6453 60.1873 90.5317 60.1873 90.5317V82.6884C60.1873 74.1542 62.08 71.5015 63.129 69.4254Z" stroke="#2E2E2E" stroke-width="1.742" stroke-linejoin="round"/>
<path fill-rule="evenodd" clip-rule="evenodd" d="M91.0645 80.3024C91.3066 80.6672 91.5442 81.0212 91.7782 81.3635C91.5442 81.0212 91.3066 80.6681 91.0645 80.3024Z" stroke="#2E2E2E" stroke-width="1.742" stroke-linejoin="round"/>
<path fill-rule="evenodd" clip-rule="evenodd" d="M93.0665 83.1702C92.9111 82.9619 92.7521 82.7401 92.5931 82.521C95.7354 86.8768 98.3329 89.037 101.686 89.7242C101.686 92.3924 105.368 96.5291 105.368 113.022C105.368 116.367 97.4014 120.669 93.7441 113.022C91.3716 108.062 90.4789 105.995 89.9251 104.777C89.6423 103.797 89.3758 103.219 89.14 103.219C88.335 101.835 88.6801 88.1099 88.6801 88.1099C91.2117 85.918 90.3172 84.6894 93.0665 83.1702Z" stroke="#2E2E2E" stroke-width="1.742" stroke-linejoin="round"/>
<path fill-rule="evenodd" clip-rule="evenodd" d="M92.4585 82.336C92.2398 82.0309 92.0185 81.714 91.7944 81.3872C92.0194 81.714 92.2398 82.0309 92.4585 82.336Z" stroke="#2E2E2E" stroke-width="1.742" stroke-linejoin="round"/>
<path fill-rule="evenodd" clip-rule="evenodd" d="M101.442 130.668C100.662 125.925 99.8823 124.212 101.442 121.288C103.001 118.364 104.041 122.388 108.233 121.288C108.748 122.686 109.241 124.143 109.615 125.593C110.468 128.899 110.195 144.604 110.813 157.526H110.812C110.812 157.526 107.42 150.779 107.16 144.007C106.9 137.235 102.221 135.411 101.442 130.668Z" stroke="#2E2E2E" stroke-width="1.742" stroke-linejoin="round"/>
<path fill-rule="evenodd" clip-rule="evenodd" d="M100.541 138.863C102.741 145.57 104.413 163.654 104.413 163.654C104.413 163.654 92.625 136.204 92.1272 130.668C92.1272 130.668 98.3413 132.157 100.541 138.863Z" stroke="#2E2E2E" stroke-width="1.742" stroke-linejoin="round"/>
<path fill-rule="evenodd" clip-rule="evenodd" d="M43.1105 23.5419C43.1105 22.2255 41.2285 21.8542 40.0034 21.8542C38.7765 21.8542 38.3049 23.7447 39.2481 28.1874C40.1913 32.631 43.9489 33.923 43.9489 33.923L43.1105 23.5419Z" stroke="#2E2E2E" stroke-width="1.742" stroke-linejoin="round"/>
<path fill-rule="evenodd" clip-rule="evenodd" d="M73.4802 23.5419C73.4802 22.2255 75.3612 21.8542 76.5872 21.8542C77.8141 21.8542 78.2858 23.7447 77.3425 28.1874C76.3984 32.631 72.6417 33.923 72.6417 33.923L73.4802 23.5419Z" stroke="#2E2E2E" stroke-width="1.742" stroke-linejoin="round"/>
<path fill-rule="evenodd" clip-rule="evenodd" d="M274.351 175.716C272.158 170.285 269.301 166.661 268.881 161.463C268.46 156.266 264.815 140.623 263.454 135.384C262.091 130.145 255.303 119.537 255.303 117.659C255.303 101.216 253.378 91.3674 253.378 88.7078C253.378 86.9825 254.188 87.9023 254.188 77.9373C254.188 70.7705 248.529 63.3661 241.282 59.7732C241.265 59.7651 241.25 59.7588 241.234 59.7507C240.915 59.5932 240.593 59.4438 240.268 59.3016C240.16 59.2548 240.051 59.2116 239.942 59.1666C239.706 59.0676 239.47 58.9704 239.231 58.8795C239.1 58.8291 238.968 58.7841 238.836 58.7364C238.618 58.6581 238.399 58.5825 238.178 58.5105C238.037 58.4655 237.894 58.4223 237.752 58.38C237.539 58.3161 237.325 58.2549 237.109 58.1973C236.964 58.1586 236.817 58.1217 236.671 58.0866C236.455 58.0344 236.239 57.9867 236.023 57.9426C235.876 57.912 235.731 57.8823 235.584 57.8553C235.363 57.8148 235.139 57.7806 234.916 57.7482C234.776 57.7275 234.636 57.7041 234.494 57.687C234.251 57.6573 234.006 57.6357 233.762 57.6159C233.641 57.606 233.522 57.5916 233.403 57.5844C233.039 57.5619 232.675 57.5484 232.31 57.5484L219.097 49.8019L219.704 43.9995C219.704 43.9995 216.747 34.886 209.815 34.886C202.884 34.886 199.926 43.9995 199.926 43.9995L200.534 49.8019L187.321 57.5484C186.957 57.5484 186.592 57.5619 186.229 57.5844C186.108 57.5916 185.989 57.606 185.87 57.6159C185.625 57.6357 185.38 57.6573 185.136 57.687C184.996 57.7041 184.856 57.7275 184.715 57.7482C184.492 57.7806 184.269 57.8148 184.046 57.8553C183.901 57.8823 183.754 57.912 183.608 57.9426C183.392 57.9867 183.176 58.0344 182.961 58.0866C182.814 58.1217 182.668 58.1586 182.522 58.1973C182.307 58.2549 182.093 58.3161 181.879 58.38C181.736 58.4223 181.594 58.4655 181.452 58.5105C181.232 58.5825 181.013 58.6581 180.795 58.7364C180.663 58.7841 180.53 58.8291 180.399 58.8795C180.161 58.9704 179.925 59.0676 179.688 59.1666C179.581 59.2116 179.471 59.2548 179.364 59.3016C179.039 59.4438 178.717 59.5932 178.398 59.7507C178.381 59.7588 178.365 59.7651 178.349 59.7732H178.35C171.102 63.3661 165.444 70.7705 165.444 77.9373C165.444 87.9023 166.252 86.9825 166.252 88.7078C166.252 91.3674 164.328 101.216 164.328 117.659C164.328 119.537 157.539 130.145 156.178 135.384C154.817 140.623 151.171 156.266 150.751 161.463C150.33 166.661 147.474 170.285 145.281 175.716C142.398 182.851 151.522 186.755 152.18 187.019C153.032 187.361 153.987 187.351 154.276 186.687C155.462 183.955 149.199 180.329 150.322 178.349C151.461 176.342 153.405 174.09 154.996 174.729C156.587 175.368 155.824 180.394 157.416 181.033C159.007 181.672 159.689 181.247 160.177 180.047C160.664 178.846 160.437 169.464 158.023 168.494C159.236 166.841 160.007 165.701 160.007 165.701C160.007 165.701 166.286 155.752 169.06 151.843C171.833 147.933 176.788 133.208 177.288 127.688C178.713 125.619 177.08 123.501 177.699 121.753C180.169 114.793 180.048 106.909 181.146 106.909C182.187 106.909 184.741 115.958 184.741 124.466C184.741 130.905 183.008 128.261 183.008 139.528C183.008 142.863 177.384 145.929 177.384 159.266C177.384 162.716 173.687 169.155 173.687 183.106C173.687 209.781 185.654 226.615 185.654 237.884C185.654 249.956 182.362 246.509 182.362 260.536C182.362 274.564 191.962 292.93 191.962 302.704C191.962 322.355 179.62 311.847 179.62 317.851C179.62 319.155 183.049 320.99 183.049 320.99L192.34 324.623L198.545 325.22C201.299 325.22 203.894 324.265 203.894 319.489C203.894 317.956 203.757 314.096 203.757 312.256C203.757 310.417 201.699 305.117 201.699 299.293C201.699 293.467 202.111 277.049 202.111 277.049C202.111 277.049 204.991 269.015 204.991 263.266C204.991 257.517 201.837 248.464 201.837 245.935C201.837 243.405 206.003 236.928 206.003 211.62C206.003 200.698 208.66 182.3 208.66 169.538H209.815H210.971C210.971 182.3 213.629 200.698 213.629 211.62C213.629 236.928 217.795 243.405 217.795 245.935C217.795 248.464 214.64 257.517 214.64 263.266C214.64 269.015 217.52 277.049 217.52 277.049C217.52 277.049 217.931 293.467 217.931 299.293C217.931 305.117 215.874 310.417 215.874 312.256C215.874 314.096 215.737 317.956 215.737 319.489C215.737 324.265 218.331 325.22 221.085 325.22L227.291 324.623L236.583 320.99C236.583 320.99 240.012 319.155 240.012 317.851C240.012 311.847 227.668 322.355 227.668 302.704C227.668 292.93 237.269 274.564 237.269 260.536C237.269 246.509 233.977 249.956 233.977 237.884C233.977 226.615 245.944 209.781 245.944 183.106C245.944 169.155 242.247 162.716 242.247 159.266C242.247 145.929 236.624 142.863 236.624 139.528C236.624 128.261 234.891 130.905 234.891 124.466C234.891 115.958 237.445 106.909 238.485 106.909C239.583 106.909 239.463 114.793 241.931 121.753C242.552 123.501 240.918 125.619 242.343 127.688C242.844 133.208 247.799 147.933 250.571 151.843C253.345 155.752 259.623 165.701 259.623 165.701C259.623 165.701 260.395 166.841 261.608 168.494C259.194 169.464 258.967 178.846 259.455 180.047C259.941 181.247 260.624 181.672 262.215 181.033C263.806 180.394 263.044 175.368 264.635 174.729C266.227 174.09 268.171 176.342 269.309 178.349C270.433 180.329 264.169 183.955 265.356 186.687C265.644 187.351 266.599 187.361 267.451 187.019C268.11 186.755 277.233 182.851 274.351 175.716Z" fill="#202020"/>
<path fill-rule="evenodd" clip-rule="evenodd" d="M183.008 139.529C183.008 142.863 177.384 145.929 177.384 159.267C177.384 162.717 173.687 169.154 173.687 183.105C173.687 191.776 174.954 199.402 176.661 206.14C179.619 194.761 183.379 182.871 191.882 181.78C200.386 180.688 209.816 166.922 209.816 162.283C209.816 162.283 193.238 139.903 193.238 137.446C193.238 134.99 187.492 136.972 183.008 139.529Z" fill="#202020"/>
<path fill-rule="evenodd" clip-rule="evenodd" d="M183.277 188.213C183.793 192.373 184.282 198.738 184.282 207.93C184.282 216.488 184.01 222.89 183.573 227.665C184.809 231.513 185.654 234.897 185.654 237.883C185.654 237.919 185.653 237.951 185.653 237.986C188.998 230.074 191.751 217.907 191.751 206.14C191.751 188.279 191.883 181.78 191.883 181.78C188.25 182.246 185.485 184.687 183.277 188.213Z" fill="#202020"/>
<path fill-rule="evenodd" clip-rule="evenodd" d="M205.013 172.123C201.5 176.757 196.553 181.18 191.882 181.78C191.849 181.784 191.817 181.792 191.784 181.798C191.822 185.844 191.882 192.994 191.882 198.309C191.882 206.14 198.682 220.007 198.682 224.715C198.682 229.423 198.065 230.242 198.682 231.674C199.3 233.108 200.876 240.34 201.357 243.137C201.487 243.893 201.713 244.491 201.972 244.966C202.682 241.801 206.002 234.223 206.002 211.621C206.002 205.273 206.899 196.402 207.651 187.579C206.208 182.928 204.639 176.624 205.013 172.123Z" fill="#202020"/>
<path fill-rule="evenodd" clip-rule="evenodd" d="M193.54 240.886C193.54 235.768 191.276 231.06 190.248 234.131C189.22 237.201 186.751 241.091 185.293 243.635C184.478 249.016 182.55 249.373 182.376 259.093C182.385 259.589 182.383 260.073 182.363 260.537C182.363 260.847 182.373 261.162 182.382 261.476C182.806 267.776 189.345 280.546 191.75 279.585C194.282 278.573 195.391 275.274 194.979 268.929C194.568 262.583 193.54 246.003 193.54 240.886Z" fill="#202020"/>
<path fill-rule="evenodd" clip-rule="evenodd" d="M201.837 245.935C201.837 245.664 201.886 245.345 201.971 244.965C201.712 244.489 201.486 243.893 201.357 243.138C200.876 240.34 199.3 233.108 198.683 231.674C198.065 230.241 197.559 226.882 196.278 229.403C194.993 231.935 193.55 234.823 192.928 236.232C192.928 236.234 192.927 236.235 192.927 236.236C193.292 237.569 193.54 239.202 193.54 240.886C193.54 246.003 194.568 262.584 194.98 268.929C194.98 268.929 197.322 278.004 199.717 277.526C200.348 277.4 201.199 277.27 202.109 277.146C202.11 277.089 202.111 277.048 202.111 277.048C202.111 277.048 204.991 269.015 204.991 263.266C204.991 257.517 201.837 248.465 201.837 245.935Z" fill="#202020"/>
<path fill-rule="evenodd" clip-rule="evenodd" d="M178.349 59.7734C172.608 62.1864 165.444 70.4395 165.444 77.9376C165.444 87.9025 166.252 86.9827 166.252 88.7071C166.252 89.6648 166.002 91.5683 165.684 94.3601C169.472 90.2291 175.437 85.5211 181.197 82.8606C186.955 80.2002 184.821 75.0026 191.747 72.2792C188.016 66.691 181.422 62.1099 178.349 59.7734Z" fill="#202020"/>
<path fill-rule="evenodd" clip-rule="evenodd" d="M166.182 87.949C166.168 87.8779 166.151 87.8059 166.134 87.733C166.151 87.8068 166.168 87.877 166.182 87.949Z" fill="#202020"/>
<path fill-rule="evenodd" clip-rule="evenodd" d="M166.252 88.7075C166.252 88.8569 166.244 89.036 166.233 89.2304C166.244 89.036 166.252 88.8569 166.252 88.7075Z" fill="#202020"/>
<path fill-rule="evenodd" clip-rule="evenodd" d="M166.183 87.9574C166.198 88.0276 166.21 88.0987 166.22 88.1725C166.21 88.0987 166.198 88.0276 166.183 87.9574Z" fill="#202020"/>
<path fill-rule="evenodd" clip-rule="evenodd" d="M166.244 88.4286C166.25 88.515 166.253 88.6068 166.253 88.7076C166.253 88.6068 166.25 88.515 166.244 88.4286Z" fill="#202020"/>
<path fill-rule="evenodd" clip-rule="evenodd" d="M166.221 88.1833C166.231 88.258 166.238 88.3354 166.244 88.42C166.239 88.3354 166.231 88.258 166.221 88.1833Z" fill="#202020"/>
<g filter="url(#filter0_d)">
<path fill-rule="evenodd" clip-rule="evenodd" d="M165.683 94.3599C165.116 99.3253 164.328 107.134 164.328 117.659C164.328 117.954 164.16 118.464 163.873 119.135C166.103 122.187 168.908 125.232 171.323 125.232C173.441 125.232 175.754 123.626 177.64 121.97C177.658 121.898 177.674 121.824 177.699 121.753C180.169 114.793 180.048 106.909 181.146 106.909C181.341 106.909 181.587 107.225 181.861 107.794C182.17 102.414 181.701 91.7778 178.597 84.1934C173.694 86.9267 168.902 90.8499 165.683 94.3599Z" fill="#FFEC42"/>
</g>
<path fill-rule="evenodd" clip-rule="evenodd" d="M165.686 94.337C165.835 93.032 165.968 91.9286 166.068 91.0187C165.968 91.9232 165.834 93.0374 165.686 94.337Z" fill="#202020"/>
<path fill-rule="evenodd" clip-rule="evenodd" d="M166.178 89.9363C166.195 89.7482 166.21 89.5727 166.221 89.4116C166.21 89.5736 166.196 89.7473 166.178 89.9363Z" fill="#202020"/>
<path fill-rule="evenodd" clip-rule="evenodd" d="M166.163 90.1051C166.139 90.3634 166.11 90.6406 166.076 90.9457C166.11 90.6424 166.139 90.3625 166.163 90.1051Z" fill="#202020"/>
<path fill-rule="evenodd" clip-rule="evenodd" d="M153.702 161.216C152.83 159.266 153.466 146.432 154.342 142.81C155.219 139.188 161.156 129.531 163.874 128.099C166.591 126.666 167.825 140.176 166.591 143.86C165.357 147.544 160.008 165.7 160.008 165.7C160.008 165.7 154.574 163.167 153.702 161.216Z" fill="#202020"/>
<path fill-rule="evenodd" clip-rule="evenodd" d="M265.93 161.216C266.802 159.266 266.166 146.432 265.289 142.81C264.412 139.188 258.476 129.531 255.758 128.099C253.04 126.666 251.806 140.176 253.04 143.86C254.274 147.544 259.623 165.7 259.623 165.7C259.623 165.7 265.058 163.167 265.93 161.216Z" fill="#202020"/>
<path fill-rule="evenodd" clip-rule="evenodd" d="M166.591 143.86C165.716 146.68 163.983 152.392 162.37 157.726C161.078 162.069 160.008 165.7 160.008 165.7C160.008 165.7 166.286 155.753 169.059 151.843C171.833 147.933 176.787 133.208 177.289 127.689C174.819 130.555 168.486 137.751 166.591 143.86Z" fill="#202020"/>
<path fill-rule="evenodd" clip-rule="evenodd" d="M195.803 81.837C194.759 77.2028 193.378 74.9321 191.748 72.2788C185.414 74.4163 186.956 80.1998 181.197 82.8603C180.332 83.2599 179.463 83.7108 178.596 84.1932C182.02 87.5683 184.705 89.9668 187.58 91.0189C190.453 92.072 195.596 91.8442 198.373 90.5257C197.305 87.4783 196.402 84.4983 195.803 81.837Z" fill="#202020"/>
<path fill-rule="evenodd" clip-rule="evenodd" d="M198.373 90.5256C195.596 91.8441 190.453 92.0718 187.58 91.0188C184.705 89.9667 182.02 87.5682 178.596 84.1931C181.701 91.7775 182.17 102.414 181.861 107.793C181.835 107.739 184.047 114.586 184.541 120.158C187.578 124.157 191.882 131.169 191.882 131.169C201.067 119.874 204.648 115.612 207.526 110.967C204.611 105.412 201.357 98.9804 198.373 90.5256Z" fill="#202020"/>
<path fill-rule="evenodd" clip-rule="evenodd" d="M205.013 172.123C204.998 172.141 204.983 172.16 204.968 172.178C204.874 172.303 204.776 172.427 204.679 172.551C204.512 172.765 204.342 172.979 204.169 173.192C204.065 173.32 203.959 173.448 203.852 173.576C203.663 173.802 203.471 174.026 203.277 174.248C203.188 174.349 203.102 174.45 203.014 174.55C202.423 175.211 201.807 175.853 201.171 176.465C201.119 176.516 201.065 176.565 201.013 176.615C200.731 176.883 200.446 177.144 200.157 177.398C200.109 177.442 200.06 177.485 200.01 177.527C199.324 178.124 198.623 178.68 197.909 179.18C198.624 184.488 200.195 190.888 201.768 192.782C203.022 194.292 204.866 186.939 205.866 180.809C205.216 177.752 204.803 174.653 205.013 172.123Z" fill="#202020"/>
<path fill-rule="evenodd" clip-rule="evenodd" d="M236.624 139.529C236.624 142.863 242.247 145.929 242.247 159.267C242.247 162.717 245.944 169.154 245.944 183.105C245.944 191.776 244.677 199.402 242.97 206.14C240.012 194.761 236.251 182.871 227.748 181.78C219.246 180.688 209.815 166.922 209.815 162.283C209.815 162.283 226.393 139.903 226.393 137.446C226.393 134.99 232.139 136.972 236.624 139.529Z" fill="#202020"/>
<path fill-rule="evenodd" clip-rule="evenodd" d="M236.355 188.213C235.838 192.373 235.349 198.738 235.349 207.93C235.349 216.488 235.621 222.89 236.058 227.665C234.822 231.513 233.978 234.897 233.978 237.883C233.978 237.919 233.979 237.951 233.979 237.986C230.634 230.074 227.88 217.907 227.88 206.14C227.88 188.279 227.748 181.78 227.748 181.78C231.381 182.246 234.146 184.687 236.355 188.213Z" fill="#202020"/>
<path fill-rule="evenodd" clip-rule="evenodd" d="M214.618 172.123C218.132 176.757 223.079 181.18 227.749 181.78C227.782 181.784 227.815 181.792 227.848 181.798C227.809 185.844 227.749 192.994 227.749 198.309C227.749 206.14 220.949 220.007 220.949 224.715C220.949 229.423 221.566 230.242 220.949 231.674C220.331 233.108 218.754 240.34 218.274 243.137C218.145 243.893 217.919 244.491 217.659 244.966C216.949 241.801 213.629 234.223 213.629 211.621C213.629 205.273 212.732 196.402 211.981 187.579C213.423 182.928 214.993 176.624 214.618 172.123Z" fill="#202020"/>
<path fill-rule="evenodd" clip-rule="evenodd" d="M226.091 240.886C226.091 235.768 228.354 231.06 229.383 234.131C230.411 237.201 232.88 241.091 234.338 243.635C235.152 249.016 237.082 249.373 237.255 259.093C237.245 259.589 237.248 260.073 237.268 260.537C237.268 260.847 237.258 261.162 237.249 261.476C236.826 267.776 230.285 280.546 227.88 279.585C225.349 278.573 224.24 275.274 224.651 268.929C225.063 262.583 226.091 246.003 226.091 240.886Z" fill="#202020"/>
<path fill-rule="evenodd" clip-rule="evenodd" d="M217.794 245.935C217.794 245.664 217.746 245.345 217.661 244.965C217.919 244.489 218.145 243.893 218.275 243.138C218.754 240.34 220.332 233.108 220.948 231.674C221.565 230.241 222.072 226.882 223.353 229.403C224.638 231.935 226.081 234.823 226.703 236.232C226.704 236.234 226.704 236.235 226.705 236.236C226.339 237.569 226.091 239.202 226.091 240.886C226.091 246.003 225.063 262.584 224.651 268.929C224.651 268.929 222.309 278.004 219.915 277.526C219.283 277.4 218.432 277.27 217.522 277.146C217.521 277.089 217.52 277.048 217.52 277.048C217.52 277.048 214.641 269.015 214.641 263.266C214.641 257.517 217.794 248.465 217.794 245.935Z" fill="#202020"/>
<path fill-rule="evenodd" clip-rule="evenodd" d="M241.282 59.7734C247.024 62.1864 254.188 70.4395 254.188 77.9376C254.188 87.9025 253.379 86.9827 253.379 88.7071C253.379 89.6648 253.629 91.5683 253.948 94.3601C250.159 90.2291 244.194 85.5211 238.434 82.8606C232.676 80.2002 234.811 75.0026 227.884 72.2792C231.615 66.691 238.209 62.1099 241.282 59.7734Z" fill="#202020"/>
<path fill-rule="evenodd" clip-rule="evenodd" d="M253.449 87.949C253.464 87.8779 253.479 87.8059 253.497 87.733C253.479 87.8068 253.464 87.877 253.449 87.949Z" fill="#202020"/>
<path fill-rule="evenodd" clip-rule="evenodd" d="M253.379 88.7075C253.379 88.8569 253.387 89.036 253.397 89.2304C253.387 89.036 253.379 88.8569 253.379 88.7075Z" fill="#202020"/>
<path fill-rule="evenodd" clip-rule="evenodd" d="M253.447 87.9574C253.434 88.0276 253.422 88.0987 253.411 88.1725C253.422 88.0987 253.434 88.0276 253.447 87.9574Z" fill="#202020"/>
<path fill-rule="evenodd" clip-rule="evenodd" d="M253.387 88.4286C253.381 88.515 253.379 88.6068 253.379 88.7076C253.379 88.6068 253.381 88.515 253.387 88.4286Z" fill="#202020"/>
<path fill-rule="evenodd" clip-rule="evenodd" d="M253.41 88.1833C253.4 88.258 253.392 88.3354 253.388 88.42C253.392 88.3354 253.4 88.258 253.41 88.1833Z" fill="#202020"/>
<g filter="url(#filter1_d)">
<path fill-rule="evenodd" clip-rule="evenodd" d="M253.948 94.3599C254.515 99.3253 255.303 107.134 255.303 117.659C255.303 117.954 255.47 118.464 255.758 119.135C253.528 122.187 250.723 125.232 248.309 125.232C246.189 125.232 243.877 123.626 241.991 121.97C241.973 121.898 241.957 121.824 241.931 121.753C239.463 114.793 239.583 106.909 238.485 106.909C238.29 106.909 238.044 107.225 237.77 107.794C237.461 102.414 237.93 91.7778 241.035 84.1934C245.936 86.9267 250.728 90.8499 253.948 94.3599Z" fill="#FFEC42"/>
</g>
<path fill-rule="evenodd" clip-rule="evenodd" d="M253.945 94.337C253.796 93.032 253.663 91.9286 253.563 91.0187C253.663 91.9232 253.796 93.0374 253.945 94.337Z" fill="#202020"/>
<path fill-rule="evenodd" clip-rule="evenodd" d="M253.453 89.9363C253.435 89.7482 253.421 89.5727 253.41 89.4116C253.421 89.5736 253.435 89.7473 253.453 89.9363Z" fill="#202020"/>
<path fill-rule="evenodd" clip-rule="evenodd" d="M253.468 90.1051C253.492 90.3634 253.521 90.6406 253.554 90.9457C253.522 90.6424 253.492 90.3625 253.468 90.1051Z" fill="#202020"/>
<path fill-rule="evenodd" clip-rule="evenodd" d="M253.04 143.86C253.915 146.68 255.648 152.392 257.261 157.726C258.553 162.069 259.623 165.7 259.623 165.7C259.623 165.7 253.345 155.753 250.572 151.843C247.799 147.933 242.844 133.208 242.343 127.689C244.811 130.555 251.145 137.751 253.04 143.86Z" fill="#202020"/>
<path fill-rule="evenodd" clip-rule="evenodd" d="M223.829 81.837C224.873 77.2028 226.254 74.9321 227.884 72.2788C234.217 74.4163 232.676 80.1998 238.435 82.8603C239.299 83.2599 240.168 83.7108 241.035 84.1932C237.611 87.5683 234.926 89.9668 232.052 91.0189C229.178 92.072 224.035 91.8442 221.258 90.5257C222.326 87.4783 223.229 84.4983 223.829 81.837Z" fill="#202020"/>
<path fill-rule="evenodd" clip-rule="evenodd" d="M227.749 131.169C224.857 127.484 211.691 111.687 212.103 110.973C212.104 110.971 212.104 110.968 212.104 110.966C211.157 112.577 210.358 113.717 209.815 114.179C209.273 113.717 208.473 112.577 207.527 110.966C207.528 110.968 207.527 110.971 207.529 110.973C207.939 111.687 194.773 127.484 191.883 131.169C191.883 131.169 193.54 134.444 193.239 137.446C193.239 139.902 209.815 162.282 209.815 162.282C209.815 162.282 226.393 139.902 226.393 137.446C226.091 134.444 227.749 131.169 227.749 131.169Z" fill="#202020"/>
<path fill-rule="evenodd" clip-rule="evenodd" d="M221.258 90.5256C224.035 91.8441 229.178 92.0718 232.052 91.0188C234.926 89.9667 237.612 87.5682 241.035 84.1931C237.93 91.7775 237.461 102.414 237.77 107.793C237.796 107.739 235.585 114.586 235.09 120.158C232.052 124.157 227.748 131.169 227.748 131.169C218.563 119.874 214.983 115.612 212.104 110.967C215.02 105.412 218.274 98.9804 221.258 90.5256Z" fill="#202020"/>
<path fill-rule="evenodd" clip-rule="evenodd" d="M214.618 172.123C214.633 172.141 214.648 172.16 214.662 172.178C214.757 172.303 214.856 172.427 214.953 172.551C215.12 172.765 215.288 172.979 215.462 173.192C215.566 173.32 215.673 173.448 215.779 173.576C215.968 173.802 216.16 174.026 216.354 174.248C216.442 174.349 216.528 174.45 216.617 174.55C217.209 175.211 217.825 175.853 218.459 176.465C218.512 176.516 218.565 176.565 218.618 176.615C218.9 176.883 219.185 177.144 219.473 177.398C219.522 177.442 219.572 177.485 219.621 177.527C220.306 178.124 221.007 178.68 221.722 179.18C221.007 184.488 219.435 190.888 217.862 192.782C216.61 194.292 214.765 186.939 213.765 180.809C214.415 177.752 214.828 174.653 214.618 172.123Z" fill="#202020"/>
<path fill-rule="evenodd" clip-rule="evenodd" d="M232.31 57.548L219.098 49.8015L219.705 43.9991C219.705 43.9991 216.747 34.8865 209.816 34.8865C202.884 34.8865 199.927 43.9991 199.927 43.9991L200.534 49.8015L187.322 57.548C184.25 57.548 181.179 58.3706 178.349 59.7728C184.9 64.8471 193.129 69.9646 195.802 81.8367C198.477 93.7088 207.166 111.927 209.816 114.179C212.466 111.927 221.155 93.7088 223.829 81.8367C226.503 69.9646 234.732 64.8471 241.282 59.7728C238.453 58.3706 235.381 57.548 232.31 57.548Z" fill="#202020"/>
<path fill-rule="evenodd" clip-rule="evenodd" d="M228.072 21.7311C226.959 21.7311 225.324 22.0425 225.023 23.0721C225.275 19.6079 225.46 16.5362 225.46 15.0017C225.46 10.2127 220.245 1.03162 209.815 1.03162C199.386 1.03162 194.171 10.2127 194.171 15.0017C194.171 16.5362 194.357 19.6088 194.608 23.073C194.308 22.0425 192.672 21.7311 191.56 21.7311C190.332 21.7311 189.859 23.6103 190.804 28.0267C191.686 32.1542 195.028 33.5456 195.462 33.7103C195.752 37.0952 195.977 39.5505 195.977 39.5505C195.977 39.5505 197.574 41.6979 199.926 44.0002V43.9993C199.926 43.9993 202.884 34.8866 209.815 34.8866C216.747 34.8866 219.705 43.9993 219.705 43.9993V44.0002C222.058 41.6979 223.655 39.5505 223.655 39.5505C223.655 39.5505 223.879 37.0952 224.17 33.7103C224.604 33.5456 227.944 32.1542 228.827 28.0267C229.771 23.6103 229.299 21.7311 228.072 21.7311Z" fill="#202020"/>
<path fill-rule="evenodd" clip-rule="evenodd" d="M183.008 139.529C183.008 142.863 177.384 145.93 177.384 159.267C177.384 162.717 173.687 169.154 173.687 183.106C173.687 191.776 174.954 199.402 176.661 206.14C179.619 194.761 183.379 182.872 191.882 181.78C200.386 180.688 209.816 166.922 209.816 162.283C209.816 162.283 193.238 139.903 193.238 137.446C193.238 134.99 187.492 136.972 183.008 139.529Z" stroke="#2E2E2E" stroke-width="1.74515" stroke-linejoin="round"/>
<path fill-rule="evenodd" clip-rule="evenodd" d="M183.277 188.213C183.793 192.373 184.282 198.738 184.282 207.93C184.282 216.488 184.01 222.89 183.573 227.665C184.809 231.513 185.654 234.897 185.654 237.884C185.654 237.92 185.653 237.951 185.653 237.986C188.998 230.074 191.751 217.907 191.751 206.14C191.751 188.279 191.883 181.78 191.883 181.78C188.25 182.246 185.485 184.687 183.277 188.213Z" stroke="#2E2E2E" stroke-width="1.74515" stroke-linejoin="round"/>
<path fill-rule="evenodd" clip-rule="evenodd" d="M205.013 172.123C201.5 176.757 196.553 181.18 191.882 181.78C191.849 181.784 191.817 181.792 191.784 181.798C191.822 185.844 191.882 192.994 191.882 198.309C191.882 206.14 198.682 220.007 198.682 224.715C198.682 229.423 198.065 230.242 198.682 231.674C199.3 233.108 200.876 240.34 201.357 243.137C201.487 243.893 201.713 244.491 201.972 244.966C202.682 241.801 206.002 234.223 206.002 211.621C206.002 205.273 206.899 196.402 207.651 187.579C206.208 182.928 204.639 176.624 205.013 172.123Z" stroke="#2E2E2E" stroke-width="1.74515" stroke-linejoin="round"/>
<path fill-rule="evenodd" clip-rule="evenodd" d="M193.54 240.886C193.54 235.768 191.276 231.06 190.248 234.131C189.22 237.201 186.751 241.091 185.293 243.635C184.478 249.016 182.55 249.373 182.376 259.093C182.385 259.589 182.383 260.073 182.363 260.537C182.363 260.847 182.373 261.162 182.382 261.476C182.806 267.776 189.345 280.546 191.75 279.585C194.282 278.573 195.391 275.275 194.979 268.929C194.568 262.583 193.54 246.003 193.54 240.886Z" stroke="#2E2E2E" stroke-width="1.74515" stroke-linejoin="round"/>
<path fill-rule="evenodd" clip-rule="evenodd" d="M201.837 245.935C201.837 245.664 201.886 245.345 201.971 244.965C201.712 244.489 201.486 243.893 201.357 243.138C200.876 240.34 199.3 233.108 198.683 231.674C198.065 230.241 197.559 226.882 196.278 229.403C194.993 231.935 193.55 234.823 192.928 236.232C192.928 236.234 192.927 236.235 192.927 236.236C193.292 237.569 193.54 239.202 193.54 240.886C193.54 246.003 194.568 262.584 194.98 268.929C194.98 268.929 197.322 278.004 199.717 277.526C200.348 277.4 201.199 277.27 202.109 277.146C202.11 277.089 202.111 277.048 202.111 277.048C202.111 277.048 204.991 269.015 204.991 263.266C204.991 257.517 201.837 248.465 201.837 245.935Z" stroke="#2E2E2E" stroke-width="1.74515" stroke-linejoin="round"/>
<path fill-rule="evenodd" clip-rule="evenodd" d="M178.349 59.7734C172.608 62.1864 165.444 70.4395 165.444 77.9376C165.444 87.9025 166.252 86.9827 166.252 88.7072C166.252 89.6648 166.002 91.5683 165.684 94.3602C169.472 90.2291 175.437 85.5211 181.197 82.8606C186.955 80.2002 184.821 75.0026 191.747 72.2792C188.016 66.691 181.422 62.1099 178.349 59.7734Z" stroke="#2E2E2E" stroke-width="1.74515" stroke-linejoin="round"/>
<path fill-rule="evenodd" clip-rule="evenodd" d="M166.182 87.9489C166.168 87.8778 166.151 87.8058 166.134 87.7329C166.151 87.8067 166.168 87.8769 166.182 87.9489Z" stroke="#2E2E2E" stroke-width="1.74515" stroke-linejoin="round"/>
<path fill-rule="evenodd" clip-rule="evenodd" d="M166.252 88.7075C166.252 88.8569 166.244 89.036 166.233 89.2304C166.244 89.036 166.252 88.8569 166.252 88.7075Z" stroke="#2E2E2E" stroke-width="1.74515" stroke-linejoin="round"/>
<path fill-rule="evenodd" clip-rule="evenodd" d="M166.184 87.9573C166.198 88.0275 166.21 88.0986 166.22 88.1724C166.21 88.0986 166.198 88.0275 166.184 87.9573Z" stroke="#2E2E2E" stroke-width="1.74515" stroke-linejoin="round"/>
<path fill-rule="evenodd" clip-rule="evenodd" d="M166.244 88.4285C166.25 88.5149 166.253 88.6067 166.253 88.7075C166.253 88.6067 166.25 88.5149 166.244 88.4285Z" stroke="#2E2E2E" stroke-width="1.74515" stroke-linejoin="round"/>
<path fill-rule="evenodd" clip-rule="evenodd" d="M166.221 88.1832C166.231 88.2579 166.238 88.3353 166.244 88.4199C166.239 88.3353 166.231 88.2579 166.221 88.1832Z" stroke="#2E2E2E" stroke-width="1.74515" stroke-linejoin="round"/>
<path fill-rule="evenodd" clip-rule="evenodd" d="M165.683 94.3598C165.116 99.3252 164.328 107.134 164.328 117.659C164.328 117.954 164.16 118.464 163.873 119.135C166.103 122.187 168.908 125.232 171.323 125.232C173.441 125.232 175.754 123.626 177.64 121.97C177.658 121.898 177.674 121.824 177.699 121.753C180.169 114.793 180.048 106.909 181.146 106.909C181.341 106.909 181.587 107.225 181.861 107.793C182.17 102.414 181.701 91.7777 178.597 84.1932C173.694 86.9266 168.902 90.8498 165.683 94.3598Z" stroke="#2E2E2E" stroke-width="1.74515" stroke-linejoin="round"/>
<path fill-rule="evenodd" clip-rule="evenodd" d="M165.686 94.337C165.835 93.032 165.968 91.9286 166.068 91.0187C165.968 91.9232 165.834 93.0374 165.686 94.337Z" stroke="#2E2E2E" stroke-width="1.74515" stroke-linejoin="round"/>
<path fill-rule="evenodd" clip-rule="evenodd" d="M166.178 89.9363C166.195 89.7482 166.21 89.5727 166.221 89.4116C166.21 89.5736 166.196 89.7473 166.178 89.9363Z" stroke="#2E2E2E" stroke-width="1.74515" stroke-linejoin="round"/>
<path fill-rule="evenodd" clip-rule="evenodd" d="M166.163 90.105C166.139 90.3633 166.11 90.6405 166.076 90.9456C166.11 90.6423 166.139 90.3624 166.163 90.105Z" stroke="#2E2E2E" stroke-width="1.74515" stroke-linejoin="round"/>
<path fill-rule="evenodd" clip-rule="evenodd" d="M153.702 161.217C152.83 159.266 153.466 146.432 154.342 142.81C155.219 139.188 161.156 129.531 163.874 128.099C166.591 126.666 167.825 140.176 166.591 143.86C165.357 147.544 160.008 165.7 160.008 165.7C160.008 165.7 154.574 163.167 153.702 161.217Z" stroke="#2E2E2E" stroke-width="1.74515" stroke-linejoin="round"/>
<path fill-rule="evenodd" clip-rule="evenodd" d="M265.93 161.217C266.802 159.266 266.166 146.432 265.289 142.81C264.412 139.188 258.476 129.531 255.758 128.099C253.04 126.666 251.806 140.176 253.04 143.86C254.274 147.544 259.623 165.7 259.623 165.7C259.623 165.7 265.058 163.167 265.93 161.217Z" stroke="#2E2E2E" stroke-width="1.74515" stroke-linejoin="round"/>
<path fill-rule="evenodd" clip-rule="evenodd" d="M166.591 143.86C165.716 146.681 163.983 152.392 162.37 157.726C161.078 162.069 160.008 165.701 160.008 165.701C160.008 165.701 166.286 155.753 169.059 151.843C171.833 147.933 176.787 133.208 177.289 127.689C174.819 130.555 168.486 137.752 166.591 143.86Z" stroke="#2E2E2E" stroke-width="1.74515" stroke-linejoin="round"/>
<path fill-rule="evenodd" clip-rule="evenodd" d="M195.803 81.837C194.759 77.2028 193.378 74.9321 191.748 72.2788C185.414 74.4163 186.956 80.1998 181.197 82.8603C180.332 83.2599 179.463 83.7108 178.596 84.1932C182.02 87.5683 184.705 89.9668 187.58 91.0189C190.453 92.072 195.596 91.8443 198.373 90.5257C197.305 87.4783 196.402 84.4983 195.803 81.837Z" stroke="#2E2E2E" stroke-width="1.74515" stroke-linejoin="round"/>
<path fill-rule="evenodd" clip-rule="evenodd" d="M198.373 90.5255C195.596 91.844 190.453 92.0717 187.58 91.0187C184.705 89.9666 182.02 87.5681 178.596 84.193C181.701 91.7774 182.17 102.414 181.861 107.793C181.835 107.739 184.047 114.586 184.541 120.158C187.578 124.157 191.882 131.168 191.882 131.168C201.067 119.874 204.648 115.612 207.526 110.967C204.611 105.412 201.357 98.9802 198.373 90.5255Z" stroke="#2E2E2E" stroke-width="1.74515" stroke-linejoin="round"/>
<path fill-rule="evenodd" clip-rule="evenodd" d="M205.013 172.123C204.998 172.141 204.983 172.16 204.968 172.178C204.874 172.303 204.776 172.427 204.679 172.551C204.512 172.765 204.342 172.979 204.169 173.192C204.065 173.32 203.959 173.448 203.852 173.576C203.663 173.802 203.471 174.026 203.277 174.248C203.188 174.349 203.102 174.45 203.014 174.55C202.423 175.211 201.807 175.853 201.171 176.465C201.119 176.516 201.065 176.565 201.013 176.615C200.731 176.883 200.446 177.144 200.157 177.398C200.109 177.442 200.06 177.485 200.01 177.527C199.324 178.124 198.623 178.68 197.909 179.18C198.624 184.488 200.195 190.888 201.768 192.782C203.022 194.292 204.866 186.939 205.866 180.809C205.216 177.752 204.803 174.653 205.013 172.123Z" stroke="#2E2E2E" stroke-width="1.74515" stroke-linejoin="round"/>
<path fill-rule="evenodd" clip-rule="evenodd" d="M236.624 139.529C236.624 142.863 242.247 145.93 242.247 159.267C242.247 162.717 245.944 169.154 245.944 183.106C245.944 191.776 244.677 199.402 242.971 206.14C240.012 194.761 236.251 182.872 227.748 181.78C219.246 180.688 209.815 166.922 209.815 162.283C209.815 162.283 226.393 139.903 226.393 137.446C226.393 134.99 232.139 136.972 236.624 139.529Z" stroke="#2E2E2E" stroke-width="1.74515" stroke-linejoin="round"/>
<path fill-rule="evenodd" clip-rule="evenodd" d="M236.355 188.213C235.838 192.373 235.349 198.738 235.349 207.93C235.349 216.488 235.621 222.89 236.058 227.665C234.822 231.513 233.978 234.897 233.978 237.884C233.978 237.92 233.979 237.951 233.979 237.986C230.634 230.074 227.88 217.907 227.88 206.14C227.88 188.279 227.748 181.78 227.748 181.78C231.381 182.246 234.146 184.687 236.355 188.213Z" stroke="#2E2E2E" stroke-width="1.74515" stroke-linejoin="round"/>
<path fill-rule="evenodd" clip-rule="evenodd" d="M214.618 172.123C218.132 176.757 223.079 181.18 227.749 181.78C227.782 181.784 227.815 181.792 227.848 181.798C227.809 185.844 227.749 192.994 227.749 198.309C227.749 206.14 220.949 220.007 220.949 224.715C220.949 229.423 221.566 230.242 220.949 231.674C220.331 233.108 218.754 240.34 218.274 243.137C218.145 243.893 217.919 244.491 217.659 244.966C216.949 241.801 213.629 234.223 213.629 211.621C213.629 205.273 212.732 196.402 211.981 187.579C213.423 182.928 214.993 176.624 214.618 172.123Z" stroke="#2E2E2E" stroke-width="1.74515" stroke-linejoin="round"/>
<path fill-rule="evenodd" clip-rule="evenodd" d="M226.091 240.886C226.091 235.768 228.354 231.06 229.383 234.131C230.411 237.201 232.88 241.091 234.338 243.635C235.152 249.016 237.082 249.373 237.255 259.093C237.245 259.589 237.248 260.073 237.268 260.537C237.268 260.847 237.258 261.162 237.249 261.476C236.826 267.776 230.285 280.546 227.88 279.585C225.349 278.573 224.24 275.275 224.651 268.929C225.063 262.583 226.091 246.003 226.091 240.886Z" stroke="#2E2E2E" stroke-width="1.74515" stroke-linejoin="round"/>
<path fill-rule="evenodd" clip-rule="evenodd" d="M217.794 245.935C217.794 245.664 217.746 245.345 217.661 244.965C217.919 244.489 218.145 243.893 218.275 243.138C218.754 240.34 220.332 233.108 220.948 231.674C221.565 230.241 222.072 226.882 223.353 229.403C224.638 231.935 226.081 234.823 226.703 236.232C226.704 236.234 226.704 236.235 226.705 236.236C226.339 237.569 226.091 239.202 226.091 240.886C226.091 246.003 225.063 262.584 224.651 268.929C224.651 268.929 222.309 278.004 219.915 277.526C219.283 277.4 218.432 277.27 217.522 277.146C217.521 277.089 217.52 277.048 217.52 277.048C217.52 277.048 214.641 269.015 214.641 263.266C214.641 257.517 217.794 248.465 217.794 245.935Z" stroke="#2E2E2E" stroke-width="1.74515" stroke-linejoin="round"/>
<path fill-rule="evenodd" clip-rule="evenodd" d="M241.282 59.7734C247.024 62.1864 254.188 70.4395 254.188 77.9376C254.188 87.9025 253.379 86.9827 253.379 88.7072C253.379 89.6648 253.629 91.5683 253.948 94.3602C250.159 90.2291 244.194 85.5211 238.434 82.8606C232.676 80.2002 234.811 75.0026 227.884 72.2792C231.615 66.691 238.209 62.1099 241.282 59.7734Z" stroke="#2E2E2E" stroke-width="1.74515" stroke-linejoin="round"/>
<path fill-rule="evenodd" clip-rule="evenodd" d="M253.449 87.9489C253.464 87.8778 253.479 87.8058 253.497 87.7329C253.479 87.8067 253.464 87.8769 253.449 87.9489Z" stroke="#2E2E2E" stroke-width="1.74515" stroke-linejoin="round"/>
<path fill-rule="evenodd" clip-rule="evenodd" d="M253.378 88.7075C253.378 88.8569 253.387 89.036 253.397 89.2304C253.387 89.036 253.378 88.8569 253.378 88.7075Z" stroke="#2E2E2E" stroke-width="1.74515" stroke-linejoin="round"/>
<path fill-rule="evenodd" clip-rule="evenodd" d="M253.447 87.9573C253.434 88.0275 253.422 88.0986 253.411 88.1724C253.422 88.0986 253.434 88.0275 253.447 87.9573Z" stroke="#2E2E2E" stroke-width="1.74515" stroke-linejoin="round"/>
<path fill-rule="evenodd" clip-rule="evenodd" d="M253.387 88.4285C253.381 88.5149 253.379 88.6067 253.379 88.7075C253.379 88.6067 253.381 88.5149 253.387 88.4285Z" stroke="#2E2E2E" stroke-width="1.74515" stroke-linejoin="round"/>
<path fill-rule="evenodd" clip-rule="evenodd" d="M253.41 88.1832C253.4 88.2579 253.392 88.3353 253.388 88.4199C253.392 88.3353 253.4 88.2579 253.41 88.1832Z" stroke="#2E2E2E" stroke-width="1.74515" stroke-linejoin="round"/>
<path fill-rule="evenodd" clip-rule="evenodd" d="M253.948 94.3598C254.515 99.3252 255.303 107.134 255.303 117.659C255.303 117.954 255.47 118.464 255.758 119.135C253.528 122.187 250.723 125.232 248.309 125.232C246.189 125.232 243.877 123.626 241.991 121.97C241.973 121.898 241.957 121.824 241.931 121.753C239.463 114.793 239.583 106.909 238.485 106.909C238.29 106.909 238.044 107.225 237.77 107.793C237.461 102.414 237.93 91.7777 241.035 84.1932C245.936 86.9266 250.728 90.8498 253.948 94.3598Z" stroke="#2E2E2E" stroke-width="1.74515" stroke-linejoin="round"/>
<path fill-rule="evenodd" clip-rule="evenodd" d="M253.945 94.337C253.796 93.032 253.663 91.9286 253.563 91.0187C253.663 91.9232 253.796 93.0374 253.945 94.337Z" stroke="#2E2E2E" stroke-width="1.74515" stroke-linejoin="round"/>
<path fill-rule="evenodd" clip-rule="evenodd" d="M253.453 89.9363C253.435 89.7482 253.421 89.5727 253.41 89.4116C253.421 89.5736 253.435 89.7473 253.453 89.9363Z" stroke="#2E2E2E" stroke-width="1.74515" stroke-linejoin="round"/>
<path fill-rule="evenodd" clip-rule="evenodd" d="M253.468 90.105C253.492 90.3633 253.521 90.6405 253.554 90.9456C253.522 90.6423 253.492 90.3624 253.468 90.105Z" stroke="#2E2E2E" stroke-width="1.74515" stroke-linejoin="round"/>
<path fill-rule="evenodd" clip-rule="evenodd" d="M253.04 143.86C253.915 146.681 255.648 152.392 257.261 157.726C258.553 162.069 259.623 165.701 259.623 165.701C259.623 165.701 253.345 155.753 250.572 151.843C247.799 147.933 242.844 133.208 242.343 127.689C244.811 130.555 251.145 137.752 253.04 143.86Z" stroke="#2E2E2E" stroke-width="1.74515" stroke-linejoin="round"/>
<path fill-rule="evenodd" clip-rule="evenodd" d="M223.829 81.837C224.873 77.2028 226.254 74.9321 227.884 72.2788C234.217 74.4163 232.676 80.1998 238.435 82.8603C239.299 83.2599 240.168 83.7108 241.035 84.1932C237.611 87.5683 234.926 89.9668 232.052 91.0189C229.178 92.072 224.035 91.8443 221.258 90.5257C222.326 87.4783 223.229 84.4983 223.829 81.837Z" stroke="#2E2E2E" stroke-width="1.74515" stroke-linejoin="round"/>
<path fill-rule="evenodd" clip-rule="evenodd" d="M227.749 131.169C224.857 127.484 211.691 111.687 212.103 110.973C212.104 110.971 212.104 110.968 212.105 110.966C211.158 112.577 210.358 113.717 209.815 114.179C209.273 113.717 208.473 112.577 207.527 110.966C207.528 110.968 207.527 110.971 207.529 110.973C207.939 111.687 194.774 127.484 191.883 131.169C191.883 131.169 193.54 134.444 193.239 137.446C193.239 139.902 209.815 162.282 209.815 162.282C209.815 162.282 226.393 139.902 226.393 137.446C226.091 134.444 227.749 131.169 227.749 131.169Z" stroke="#2E2E2E" stroke-width="1.74515" stroke-linejoin="round"/>
<path fill-rule="evenodd" clip-rule="evenodd" d="M221.258 90.5255C224.035 91.844 229.178 92.0717 232.052 91.0187C234.926 89.9666 237.612 87.5681 241.035 84.193C237.93 91.7774 237.461 102.414 237.77 107.793C237.796 107.739 235.585 114.586 235.09 120.158C232.052 124.157 227.748 131.168 227.748 131.168C218.563 119.874 214.983 115.612 212.104 110.967C215.02 105.412 218.274 98.9802 221.258 90.5255Z" stroke="#2E2E2E" stroke-width="1.74515" stroke-linejoin="round"/>
<path fill-rule="evenodd" clip-rule="evenodd" d="M214.618 172.123C214.633 172.141 214.648 172.16 214.662 172.178C214.757 172.303 214.856 172.427 214.953 172.551C215.12 172.765 215.288 172.979 215.462 173.192C215.566 173.32 215.673 173.448 215.779 173.576C215.968 173.802 216.16 174.026 216.354 174.248C216.442 174.349 216.528 174.45 216.617 174.55C217.209 175.211 217.825 175.853 218.459 176.465C218.512 176.516 218.565 176.565 218.618 176.615C218.9 176.883 219.185 177.144 219.473 177.398C219.522 177.442 219.572 177.485 219.621 177.527C220.306 178.124 221.007 178.68 221.722 179.18C221.007 184.488 219.435 190.888 217.862 192.782C216.61 194.292 214.765 186.939 213.765 180.809C214.415 177.752 214.828 174.653 214.618 172.123Z" stroke="#2E2E2E" stroke-width="1.74515" stroke-linejoin="round"/>
<path fill-rule="evenodd" clip-rule="evenodd" d="M194.671 23.409C194.671 22.1003 192.787 21.7313 191.56 21.7313C190.332 21.7313 189.86 23.6106 190.804 28.0269C191.749 32.4433 195.51 33.7276 195.51 33.7276L194.671 23.409Z" stroke="#2E2E2E" stroke-width="1.74515" stroke-linejoin="round"/>
<path fill-rule="evenodd" clip-rule="evenodd" d="M224.96 23.409C224.96 22.1003 226.844 21.7313 228.072 21.7313C229.299 21.7313 229.771 23.6106 228.827 28.0269C227.883 32.4433 224.121 33.7276 224.121 33.7276L224.96 23.409Z" stroke="#2E2E2E" stroke-width="1.74515" stroke-linejoin="round"/>
<path fill-rule="evenodd" clip-rule="evenodd" d="M232.31 57.548L219.098 49.8015L219.705 43.9991C219.705 43.9991 216.747 34.8865 209.816 34.8865C202.884 34.8865 199.927 43.9991 199.927 43.9991L200.534 49.8015L187.322 57.548C184.25 57.548 181.179 58.3706 178.349 59.7728C184.9 64.8471 193.129 69.9646 195.802 81.8367C198.477 93.7088 207.166 111.927 209.816 114.179C212.466 111.927 221.155 93.7088 223.829 81.8367C226.503 69.9646 234.732 64.8471 241.282 59.7728C238.453 58.3706 235.381 57.548 232.31 57.548Z" stroke="#2E2E2E" stroke-width="1.74515" stroke-linejoin="round"/>
<path fill-rule="evenodd" clip-rule="evenodd" d="M199.927 43.9999C199.927 43.9999 202.884 34.8864 209.816 34.8864C216.748 34.8864 219.704 43.9999 219.704 43.9999C222.057 41.6977 223.655 39.5502 223.655 39.5502C223.655 39.5502 225.46 19.7922 225.46 15.0023C225.46 10.2124 220.245 1.03137 209.816 1.03137C199.386 1.03137 194.171 10.2124 194.171 15.0023C194.171 19.7922 195.976 39.5502 195.976 39.5502C195.976 39.5502 197.574 41.6977 199.927 43.9999Z" stroke="#2E2E2E" stroke-width="1.74515" stroke-linejoin="round"/>
<path fill-rule="evenodd" clip-rule="evenodd" d="M274.351 175.716C272.158 170.285 269.301 166.661 268.881 161.463C268.46 156.266 264.815 140.623 263.454 135.384C262.091 130.145 255.303 119.537 255.303 117.658C255.303 101.216 253.378 91.3672 253.378 88.7077C253.378 86.9824 254.188 87.9022 254.188 77.9372C254.188 70.7704 248.529 63.366 241.282 59.7731C241.265 59.765 241.25 59.7587 241.234 59.7506C240.915 59.5931 240.593 59.4437 240.268 59.3015C240.16 59.2547 240.051 59.2115 239.942 59.1665C239.706 59.0675 239.47 58.9703 239.231 58.8794C239.1 58.829 238.968 58.784 238.836 58.7363C238.618 58.658 238.399 58.5824 238.178 58.5104C238.037 58.4654 237.894 58.4222 237.752 58.3799C237.539 58.316 237.325 58.2548 237.109 58.1972C236.964 58.1585 236.817 58.1216 236.671 58.0865C236.455 58.0343 236.239 57.9866 236.023 57.9425C235.876 57.9119 235.731 57.8822 235.584 57.8552C235.363 57.8147 235.139 57.7805 234.916 57.7481C234.776 57.7274 234.636 57.704 234.494 57.6869C234.251 57.6572 234.006 57.6356 233.762 57.6158C233.641 57.6059 233.522 57.5915 233.403 57.5843C233.039 57.5618 232.675 57.5483 232.31 57.5483L219.097 49.8018L219.704 43.9994C219.704 43.9994 216.747 34.8859 209.815 34.8859C202.884 34.8859 199.926 43.9994 199.926 43.9994L200.534 49.8018L187.321 57.5483C186.957 57.5483 186.592 57.5618 186.229 57.5843C186.108 57.5915 185.989 57.6059 185.87 57.6158C185.625 57.6356 185.38 57.6572 185.136 57.6869C184.996 57.704 184.856 57.7274 184.715 57.7481C184.492 57.7805 184.269 57.8147 184.046 57.8552C183.901 57.8822 183.754 57.9119 183.608 57.9425C183.392 57.9866 183.176 58.0343 182.961 58.0865C182.814 58.1216 182.668 58.1585 182.522 58.1972C182.307 58.2548 182.093 58.316 181.879 58.3799C181.736 58.4222 181.594 58.4654 181.452 58.5104C181.232 58.5824 181.013 58.658 180.795 58.7363C180.663 58.784 180.53 58.829 180.399 58.8794C180.161 58.9703 179.925 59.0675 179.688 59.1665C179.581 59.2115 179.471 59.2547 179.364 59.3015C179.039 59.4437 178.717 59.5931 178.398 59.7506C178.381 59.7587 178.365 59.765 178.349 59.7731H178.35C171.102 63.366 165.444 70.7704 165.444 77.9372C165.444 87.9022 166.252 86.9824 166.252 88.7077C166.252 91.3672 164.328 101.216 164.328 117.658C164.328 119.537 157.539 130.145 156.178 135.384C154.817 140.623 151.171 156.266 150.751 161.463C150.33 166.661 147.474 170.285 145.281 175.716C142.398 182.851 151.522 186.754 152.18 187.019C153.032 187.361 153.987 187.351 154.276 186.687C155.462 183.955 149.199 180.329 150.322 178.349C151.461 176.342 153.405 174.089 154.996 174.728C156.587 175.367 155.824 180.394 157.416 181.033C159.007 181.672 159.689 181.247 160.177 180.047C160.664 178.846 160.437 169.463 158.023 168.494C159.236 166.841 160.007 165.7 160.007 165.7C160.007 165.7 166.286 155.752 169.06 151.843C171.833 147.933 176.788 133.208 177.288 127.688C178.713 125.619 177.08 123.5 177.699 121.753C180.169 114.793 180.048 106.909 181.146 106.909C182.187 106.909 184.741 115.957 184.741 124.466C184.741 130.905 183.008 128.261 183.008 139.528C183.008 142.863 177.384 145.929 177.384 159.266C177.384 162.716 173.687 169.155 173.687 183.106C173.687 209.781 185.654 226.615 185.654 237.883C185.654 249.956 182.362 246.509 182.362 260.536C182.362 274.564 191.962 292.93 191.962 302.703C191.962 322.354 179.62 311.847 179.62 317.851C179.62 319.155 183.049 320.99 183.049 320.99L192.34 324.622L198.545 325.22C201.299 325.22 203.894 324.265 203.894 319.489C203.894 317.956 203.757 314.096 203.757 312.256C203.757 310.417 201.699 305.117 201.699 299.292C201.699 293.467 202.111 277.049 202.111 277.049C202.111 277.049 204.991 269.015 204.991 263.266C204.991 257.516 201.837 248.464 201.837 245.935C201.837 243.405 206.003 236.928 206.003 211.62C206.003 200.698 208.66 182.3 208.66 169.538H209.815H210.971C210.971 182.3 213.629 200.698 213.629 211.62C213.629 236.928 217.795 243.405 217.795 245.935C217.795 248.464 214.64 257.516 214.64 263.266C214.64 269.015 217.52 277.049 217.52 277.049C217.52 277.049 217.931 293.467 217.931 299.292C217.931 305.117 215.874 310.417 215.874 312.256C215.874 314.096 215.737 317.956 215.737 319.489C215.737 324.265 218.331 325.22 221.085 325.22L227.291 324.622L236.583 320.99C236.583 320.99 240.012 319.155 240.012 317.851C240.012 311.847 227.668 322.354 227.668 302.703C227.668 292.93 237.268 274.564 237.268 260.536C237.268 246.509 233.977 249.956 233.977 237.883C233.977 226.615 245.944 209.781 245.944 183.106C245.944 169.155 242.247 162.716 242.247 159.266C242.247 145.929 236.624 142.863 236.624 139.528C236.624 128.261 234.891 130.905 234.891 124.466C234.891 115.957 237.445 106.909 238.485 106.909C239.583 106.909 239.463 114.793 241.931 121.753C242.552 123.5 240.918 125.619 242.343 127.688C242.844 133.208 247.799 147.933 250.571 151.843C253.345 155.752 259.623 165.7 259.623 165.7C259.623 165.7 260.395 166.841 261.608 168.494C259.194 169.463 258.967 178.846 259.455 180.047C259.941 181.247 260.624 181.672 262.215 181.033C263.806 180.394 263.044 175.367 264.635 174.728C266.227 174.089 268.171 176.342 269.309 178.349C270.433 180.329 264.169 183.955 265.356 186.687C265.644 187.351 266.599 187.361 267.451 187.019C268.11 186.754 277.233 182.851 274.351 175.716Z" stroke="#2E2E2E" stroke-width="1.74515" stroke-linejoin="round"/>
<defs>
<filter id="filter0_d" x="143.873" y="64.1934" width="58.0689" height="81.0389" filterUnits="userSpaceOnUse" color-interpolation-filters="sRGB">
<feFlood flood-opacity="0" result="BackgroundImageFix"/>
<feColorMatrix in="SourceAlpha" type="matrix" values="0 0 0 0 0 0 0 0 0 0 0 0 0 0 0 0 0 0 127 0"/>
<feOffset/>
<feGaussianBlur stdDeviation="10"/>
<feColorMatrix type="matrix" values="0 0 0 0 1 0 0 0 0 0.925833 0 0 0 0 0.258333 0 0 0 0.2 0"/>
<feBlend mode="normal" in2="BackgroundImageFix" result="effect1_dropShadow"/>
<feBlend mode="normal" in="SourceGraphic" in2="effect1_dropShadow" result="shape"/>
</filter>
<filter id="filter1_d" x="217.689" y="64.1934" width="58.0688" height="81.0389" filterUnits="userSpaceOnUse" color-interpolation-filters="sRGB">
<feFlood flood-opacity="0" result="BackgroundImageFix"/>
<feColorMatrix in="SourceAlpha" type="matrix" values="0 0 0 0 0 0 0 0 0 0 0 0 0 0 0 0 0 0 127 0"/>
<feOffset/>
<feGaussianBlur stdDeviation="10"/>
<feColorMatrix type="matrix" values="0 0 0 0 1 0 0 0 0 0.925833 0 0 0 0 0.258333 0 0 0 0.2 0"/>
<feBlend mode="normal" in2="BackgroundImageFix" result="effect1_dropShadow"/>
<feBlend mode="normal" in="SourceGraphic" in2="effect1_dropShadow" result="shape"/>
</filter>
</defs>
</svg>
